<?xml version="1.0" encoding="UTF-8"?>
<svg width="437px" height="104px" viewBox="0 0 437 104" version="1.1" xmlns="http://www.w3.org/2000/svg" xmlns:xlink="http://www.w3.org/1999/xlink">
    <!-- Generator: Sketch 53.2 (72643) - https://sketchapp.com -->
    <title>Combined Shape</title>
    <desc>Created with Sketch.</desc>
    <g id="Mockups" stroke="none" stroke-width="1" fill="none" fill-rule="evenodd">
        <g id="cc_symbol" transform="translate(-0.000000, 0.000000)" fill="#13ACD4" fill-rule="nonzero">
            <path d="M87.23,20.3775 C88.2375,21.905 88.465,23.8225 87.945,25.4475 L86.7425,28.6 C86.515,29.12 86.4175,29.705 86.385,30.29 L86.255,33.67 C86.19,35.5225 85.2475,37.18 83.72,38.1875 L80.8925,40.04 C80.405,40.365 79.9825,40.755 79.625,41.21 L77.545,43.875 C76.44,45.305 74.685,46.1175 72.865,46.02 L69.485,45.8575 C68.9,45.825 68.315,45.89 67.7625,46.0525 L64.5125,46.995 C62.79,47.515 60.905,47.125 59.475,45.9875 L57.6225,44.4925 C55.9325,43.3225 53.95,42.705 51.935,42.705 C46.7675,42.705 42.6075,46.8975 42.6075,52.0325 C42.6075,57.2 46.8,61.36 51.935,61.36 C53.56,61.3275 55.12,61.035 56.615,60.45 L56.745,60.385 L59.67,58.695 C61.23,57.785 63.1475,57.6875 64.805,58.435 L67.8925,59.8325 C68.445,60.0925 68.9975,60.2225 69.5825,60.2875 L72.93,60.6125 C74.75,60.8075 76.3425,61.8475 77.2525,63.44 L78.9425,66.365 C79.235,66.885 79.625,67.34 80.0475,67.73 L82.5825,69.9725 C83.9475,71.175 84.63,72.9625 84.435,74.7825 L84.0775,78.13 C84.0125,78.6825 84.045,79.2675 84.175,79.8525 L84.89,83.135 C85.28,84.89 84.7925,86.775 83.5575,88.1075 L81.2825,90.61 C80.8925,91.0325 80.5675,91.5525 80.34,92.0725 L79.0075,95.16 C78.2925,96.8175 76.7975,98.0525 75.01,98.41 L71.695,99.0925 C71.11,99.19 70.5575,99.4175 70.07,99.71 L68.0225,100.9125 C66.9825,101.8875 65.6175,102.4075 64.1875,102.375 L60.8075,102.31 C60.2225,102.31 59.6375,102.4075 59.085,102.57 L56.81,103.285 C55.965,103.74 55.0225,104 54.08,104 C53.6575,104 53.2025,103.935 52.7475,103.8375 L49.465,103.025 C48.9125,102.895 48.3275,102.8625 47.7425,102.895 L45.37,103.09 C44.85,103.2525 44.33,103.3175 43.7775,103.3175 C42.9,103.3175 42.0225,103.1225 41.2425,102.7325 L38.22,101.205 C37.7,100.945 37.1475,100.75 36.5625,100.685 L34.2225,100.36 L33.865,100.36 C32.565,100.36 31.2975,99.9375 30.29,99.0925 L27.69,96.9475 C27.235,96.5575 26.7475,96.265 26.195,96.07 L23.9525,95.225 C22.555,94.9975 21.2875,94.25 20.41,93.1125 L18.3625,90.4475 C18.005,89.9925 17.5825,89.6025 17.095,89.2775 L15.1125,87.9775 C13.78,87.425 12.7075,86.4175 12.1225,85.1175 L10.6925,82.0625 C10.4325,81.5425 10.1075,81.055 9.7175,80.6325 L8.0925,78.91 C6.9225,78.0975 6.11,76.8625 5.8175,75.465 L5.1025,72.15 C4.9725,71.565 4.745,71.0125 4.4525,70.525 L3.25,68.4775 C2.3075,67.4375 1.7875,66.0725 1.7875,64.6425 L1.82,61.2625 C1.82,60.6775 1.755,60.0925 1.56,59.54 L0.845,57.2975 C0.13,56.0625 -0.065,54.6 0.26,53.2025 L1.04,49.92 C1.17,49.3675 1.235,48.7825 1.17,48.1975 L0.9425,45.825 C0.52,44.46 0.65,42.965 1.2675,41.6975 L2.7625,38.675 C3.0225,38.155 3.2175,37.6025 3.2825,37.0175 L3.6075,34.6775 C3.51,33.28 3.9325,31.85 4.8425,30.745 L6.9875,28.145 C7.3775,27.69 7.67,27.2025 7.865,26.65 L8.6775,24.44 C8.8725,23.0425 9.62,21.7425 10.7575,20.865 L13.4225,18.785 C13.8775,18.4275 14.2675,17.9725 14.5925,17.485 L15.8925,15.5025 C16.4125,14.17 17.42,13.0975 18.72,12.48 L21.775,11.0175 C22.295,10.7575 22.7825,10.4325 23.205,10.0425 L24.895,8.385 C25.675,7.215 26.91,6.4025 28.3075,6.0775 L31.59,5.3625 C32.175,5.2325 32.7275,5.005 33.215,4.7125 L35.23,3.4775 C36.27,2.535 37.635,1.9825 39.0325,1.9825 L39.065,1.9825 L42.445,2.015 C43.03,2.015 43.615,1.95 44.1675,1.755 L46.41,1.0075 C47.645,0.2925 49.1075,0.065 50.505,0.39 L53.7875,1.17 C54.34,1.3325 54.925,1.365 55.51,1.3 L57.8825,1.0725 C59.2475,0.65 60.7425,0.78 62.01,1.3975 L65.0325,2.86 C65.5525,3.12 66.105,3.2825 66.69,3.3475 L69.03,3.64 C70.4275,3.51 71.8575,3.965 72.9625,4.8425 L75.595,6.955 C76.05,7.3125 76.57,7.605 77.1225,7.8 L80.275,8.9375 C81.965,9.555 83.265,10.985 83.7525,12.74 L84.63,15.99 C84.76,16.575 85.02,17.095 85.345,17.5825 L87.23,20.3775 Z M80.34,23.335 C80.2425,22.75 80.21,22.1325 80.275,21.515 L80.73,18.1675 C80.9575,16.4775 80.3725,14.755 79.105,13.5525 L76.6675,11.245 C76.2125,10.8225 75.855,10.335 75.5625,9.7825 L73.97,6.7925 C73.1575,5.265 71.6625,4.225 69.94,3.9975 L68.965,3.8675 C68.64,3.9 68.2825,3.965 67.9575,4.0625 L65.325,4.81 L65.8125,5.395 C66.2025,5.8175 66.625,6.2075 67.145,6.5 L70.0375,8.2225 C71.63,9.1325 72.6375,10.7575 72.8,12.5775 L73.0925,15.9575 C73.125,16.5425 73.2875,17.1275 73.515,17.6475 L74.88,20.735 C75.6275,22.425 75.4975,24.3425 74.555,25.9025 L72.8,28.7625 C72.5075,29.25 72.28,29.8025 72.15,30.3875 L71.435,33.7025 C71.0775,35.4575 69.8425,36.9525 68.1525,37.6675 L65.0325,38.9675 C64.5125,39.195 63.9925,39.52 63.57,39.91 L61.035,42.1525 C60.0275,43.0625 58.695,43.55 57.33,43.55 C57.1025,43.55 56.875,43.55 56.6475,43.5175 C56.745,43.5825 56.8425,43.68 56.94,43.745 L57.1025,43.875 L57.98,44.2975 C59.54,45.045 61.36,45.0125 62.8875,44.1675 L65.845,42.5425 C66.3975,42.25 66.95,42.0225 67.5675,41.925 L70.8825,41.34 C72.605,41.0475 74.035,39.91 74.7825,38.35 L76.2125,35.295 C76.4725,34.7425 76.83,34.255 77.2525,33.8 L79.5925,31.3625 C80.795,30.095 81.315,28.34 80.99,26.65 L80.34,23.335 Z M67.7625,100.7175 C68.0225,100.49 68.25,100.23 68.5425,99.9375 L70.525,97.2075 C70.8825,96.72 71.3375,96.2975 71.825,95.94 L74.5875,94.0225 C76.0175,93.015 76.8625,91.39 76.8625,89.6675 L76.895,86.2875 C76.895,85.7025 76.9925,85.085 77.1875,84.5 L78.2925,81.315 C78.845,79.69 78.585,77.87 77.5775,76.4725 L75.595,73.7425 C75.2375,73.255 74.945,72.7025 74.7825,72.1175 L73.8075,68.8675 C73.32,67.1775 72.0525,65.8775 70.395,65.325 L67.1775,64.2525 C66.5925,64.0575 66.04,63.765 65.5525,63.4075 L62.855,61.36 C61.4575,60.32 59.67,59.995 58.0125,60.515 L54.99,61.4575 L55.965,61.3925 C57.785,61.23 59.5725,61.9775 60.7425,63.375 L62.92,65.975 C63.31,66.43 63.765,66.82 64.2525,67.1125 L67.145,68.8675 C68.705,69.81 69.7125,71.435 69.8425,73.255 L70.07,76.635 C70.1025,77.22 70.2325,77.7725 70.46,78.325 L71.76,81.445 C72.475,83.1025 72.345,85.02 71.37,86.58 L69.5825,89.44 C69.29,89.9275 69.0625,90.48 68.9325,91.0325 L68.1525,94.315 C67.73,96.1025 66.495,97.565 64.805,98.2475 L61.685,99.515 C61.1325,99.7425 60.645,100.035 60.19,100.425 L60.0275,100.555 L62.01,101.465 C63.6025,102.18 65.4225,102.0825 66.9175,101.205 L67.7625,100.7175 Z M56.5825,103.025 C56.9075,102.8625 57.1675,102.6675 57.395,102.4075 L59.475,100.62 L58.7925,100.295 C58.24,100.0675 57.6875,99.905 57.1025,99.84 L55.2175,99.645 C54.8925,99.775 54.535,99.8725 54.1775,99.9375 L50.8625,100.49 C50.2775,100.5875 49.725,100.7825 49.205,101.0425 L49.0425,101.14 L50.7975,102.4725 C52.195,103.545 53.9825,103.8375 55.64,103.3175 L56.5825,103.025 Z M44.2325,102.895 L45.24,102.7975 C45.565,102.7 45.89,102.57 46.1825,102.4075 L48.62,101.1075 L48.0025,100.6525 C47.5475,100.295 47.0275,100.035 46.475,99.84 L44.6875,99.255 C44.33,99.2875 43.9725,99.32 43.615,99.2875 L40.235,99.0925 C39.65,99.0275 39.065,99.0925 38.5125,99.255 L38.3175,99.32 L39.715,101.01 C40.82,102.3425 42.51,103.025 44.2325,102.895 Z M33.1825,99.9375 L34.2225,100.0675 C34.5475,100.0675 34.905,100.0025 35.23,99.905 L37.8625,99.19 L37.375,98.605 C36.985,98.15 36.53,97.76 36.0425,97.4675 L34.4175,96.4925 C34.06,96.46 33.7025,96.395 33.345,96.2975 L30.095,95.355 C29.5425,95.16 28.9575,95.095 28.3725,95.1275 L28.1775,95.1275 L29.185,97.0775 C29.965,98.6375 31.46,99.71 33.1825,99.9375 Z M23.9525,94.9325 C24.2775,94.9975 24.635,94.9975 24.9925,94.9975 L27.7225,94.8675 L27.365,94.185 C27.105,93.665 26.7475,93.1775 26.325,92.7875 L24.9925,91.4875 C24.635,91.39 24.31,91.2275 23.985,91.065 L21.0275,89.4075 C20.5075,89.115 19.9875,88.92 19.4025,88.8225 L19.2075,88.79 L19.76,90.9025 C20.215,92.5925 21.4175,93.9575 23.0425,94.575 L23.9525,94.9325 Z M14.3325,87.1325 L15.1775,87.62 C15.5025,87.75 15.86,87.8475 16.185,87.9125 L18.8825,88.4 L18.6875,87.685 C18.525,87.1325 18.2975,86.58 17.9725,86.0925 L16.9325,84.5325 C16.6075,84.3375 16.315,84.1425 16.055,83.8825 L13.5525,81.64 C13.13,81.25 12.6425,80.925 12.09,80.6975 L11.895,80.6325 L11.96,82.8425 C11.9925,84.565 12.9025,86.1575 14.3325,87.1325 Z M7.5075,77.9675 L8.2225,78.6825 C8.515,78.8775 8.8075,79.04 9.1325,79.17 L11.635,80.2425 L11.6025,79.495 C11.6025,78.9425 11.4725,78.3575 11.2775,77.805 L10.6275,76.05 C10.3675,75.8225 10.1075,75.53 9.9125,75.2375 L7.9625,72.475 C7.605,71.9875 7.215,71.5975 6.7275,71.24 L6.565,71.11 L6.1425,73.255 C5.8175,74.945 6.305,76.7 7.5075,77.9675 Z M3.38,68.315 C3.6075,68.575 3.9,68.8025 4.16,69.03 L6.37,70.6225 L6.5325,69.875 C6.6625,69.29 6.6625,68.705 6.5975,68.12 L6.3375,66.2675 C6.11,65.975 5.9475,65.6175 5.8175,65.2925 L4.5175,62.1725 C4.29,61.6525 3.9975,61.1325 3.6075,60.71 L3.4775,60.5475 L2.6,62.5625 C1.9175,64.155 2.015,65.975 2.8925,67.47 L3.38,68.315 Z M0.6825,56.225 L1.0075,57.135 C1.2025,57.4275 1.3975,57.72 1.625,57.98 L3.445,60.0275 L3.77,59.345 C3.9975,58.825 4.1275,58.24 4.1925,57.655 L4.355,55.77 C4.225,55.445 4.1275,55.0875 4.0625,54.73 L3.51,51.415 C3.38,50.8625 3.2175,50.31 2.925,49.79 L2.8275,49.6275 L1.495,51.3825 C0.455,52.78 0.1625,54.5675 0.6825,56.225 Z M1.04,44.785 L1.1375,45.7925 C1.235,46.1175 1.365,46.4425 1.5275,46.735 L2.8275,49.14 L3.2825,48.5225 C3.64,48.035 3.9,47.515 4.095,46.9625 L4.68,45.175 C4.615,44.8175 4.5825,44.46 4.615,44.1025 L4.81,40.7225 C4.8425,40.1375 4.7775,39.5525 4.615,39 L4.55,38.805 L2.8925,40.235 C1.56,41.3725 0.8775,43.0625 1.04,44.785 Z M3.9325,33.7025 L3.77,34.71 C3.77,35.035 3.835,35.3925 3.9325,35.7175 L4.68,38.35 L5.265,37.8625 C5.72,37.4725 6.11,37.0175 6.4025,36.53 L7.3775,34.905 C7.41,34.5475 7.475,34.19 7.5725,33.8325 L8.515,30.5825 C8.6775,30.03 8.7425,29.445 8.71,28.86 L8.71,28.665 L6.76,29.6725 C5.2,30.485 4.16,31.98 3.9325,33.7025 Z M8.8075,25.48 L8.905,28.2425 L9.5875,27.885 C10.1075,27.625 10.595,27.2675 10.985,26.845 L12.285,25.48 C12.3825,25.1225 12.545,24.7975 12.7075,24.4725 L14.3325,21.515 C14.625,20.995 14.82,20.475 14.9175,19.89 L14.95,19.695 L12.8375,20.2475 C11.1475,20.67 9.815,21.905 9.1975,23.53 L8.8725,24.44 C8.8075,24.7975 8.775,25.1225 8.8075,25.48 Z M16.055,15.6 C15.925,15.925 15.8275,16.2825 15.795,16.64 L15.3075,19.3375 L16.055,19.1425 C16.64,18.98 17.16,18.7525 17.6475,18.4275 L19.2075,17.3875 C19.4025,17.0625 19.5975,16.77 19.8575,16.51 L22.0675,13.975 C22.425,13.5525 22.75,13.065 22.9775,12.5125 L23.0425,12.3175 L20.8325,12.3825 C19.11,12.4475 17.5175,13.325 16.575,14.7875 L16.055,15.6 Z M25.025,8.58 C24.83,8.8725 24.6675,9.165 24.5375,9.49 L23.465,12.025 L24.2125,11.9925 C24.765,11.96 25.35,11.83 25.9025,11.635 L27.6575,10.985 C27.9175,10.725 28.1775,10.4975 28.47,10.27 L31.2,8.32 C31.6875,7.9625 32.11,7.5725 32.435,7.085 L32.565,6.9225 L30.42,6.5 C28.73,6.175 26.975,6.695 25.74,7.8975 L25.025,8.58 Z M35.3275,3.705 C35.0675,3.965 34.84,4.225 34.6775,4.485 L33.085,6.7275 L33.8325,6.8575 C34.385,6.955 34.97,6.9875 35.555,6.89 L37.4075,6.63 C37.7,6.435 38.025,6.24 38.35,6.11 L41.47,4.81 C41.99,4.5825 42.51,4.2575 42.9325,3.8675 L43.095,3.7375 L41.08,2.86 C40.3975,2.5675 39.6825,2.405 38.935,2.405 C37.96,2.405 37.0175,2.6975 36.1725,3.185 L35.3275,3.705 Z M46.475,1.235 C46.1825,1.43 45.89,1.625 45.63,1.885 L43.615,3.6725 L44.2975,3.965 C44.85,4.1925 45.4025,4.3225 45.9875,4.3875 L47.8725,4.55 C48.1975,4.42 48.555,4.3225 48.9125,4.2575 L52.2275,3.6725 C52.8125,3.575 53.3325,3.38 53.8525,3.0875 L54.015,2.99 L52.26,1.69 C50.8625,0.65 49.075,0.3575 47.4175,0.91 L46.475,1.235 Z M58.825,1.2025 L57.8175,1.3 C57.4925,1.43 57.1675,1.56 56.875,1.7225 L54.47,3.055 L55.0875,3.51 C55.575,3.835 56.095,4.1275 56.6475,4.29 L58.435,4.8425 C58.825,4.7775 59.1825,4.7775 59.54,4.7775 L62.8875,4.94 C63.4725,4.9725 64.0575,4.9075 64.61,4.745 L64.805,4.68 L63.375,3.0225 C62.2375,1.7225 60.5475,1.04 58.825,1.2025 Z M55.9325,43.095 L56.225,43.1275 C57.915,43.5175 59.67,43.0625 60.97,41.925 L63.505,39.6825 C63.9925,39.26 64.5125,38.935 65.065,38.7075 L68.1525,37.4075 C69.745,36.725 70.915,35.3275 71.2725,33.6375 L71.9875,30.355 C72.1175,29.77 72.345,29.185 72.67,28.665 L74.425,25.7725 C75.335,24.2775 75.4325,22.4575 74.75,20.865 L73.385,17.7775 C73.125,17.1925 72.995,16.6075 72.93,15.99 L72.6375,12.61 C72.475,10.8875 71.5,9.3275 70.005,8.45 L67.08,6.7275 C66.56,6.4025 66.0725,6.0125 65.6825,5.5575 L65.0975,4.9075 L64.7725,5.005 C64.1875,5.2 63.57,5.265 62.9525,5.2325 L59.5725,5.07 L59.3125,5.07 L59.15,5.07 L59.8975,5.2975 C61.62,5.85 62.985,7.215 63.5375,8.9375 L64.5775,12.155 C64.74,12.7075 65,13.26 65.3575,13.715 L67.3725,16.445 C68.445,17.9075 68.7375,19.825 68.185,21.5475 L67.1125,24.765 C66.95,25.3175 66.8525,25.9025 66.8525,26.4875 L66.885,29.8675 C66.885,31.6875 66.0075,33.3775 64.545,34.45 L61.815,36.4 C61.3275,36.7575 60.905,37.1475 60.58,37.635 L58.63,40.365 C57.72,41.6 56.355,42.445 54.8275,42.64 L55.3475,42.835 C55.5425,42.9 55.7375,42.9975 55.9325,43.095 Z M63.895,81.835 C63.7975,81.2175 63.7975,80.6 63.8625,79.95 L64.3825,76.6025 C64.6425,74.88 64.0575,73.1575 62.8225,71.955 L60.385,69.615 C59.93,69.1925 59.5725,68.705 59.28,68.1525 L57.72,65.1625 C56.94,63.635 55.445,62.5625 53.7225,62.335 L51.61,62.0425 C51.48,62.075 51.3825,62.1075 51.2525,62.14 L51.5125,62.2375 C53.235,62.8875 54.5025,64.3175 54.9575,66.0725 L55.8025,69.355 C55.965,69.9075 56.1925,70.46 56.5175,70.9475 L58.37,73.775 C59.3775,75.3025 59.5725,77.22 58.89,78.91 L57.655,82.0625 C57.46,82.5825 57.33,83.1675 57.2975,83.7525 L57.135,87.1325 C57.0375,88.9525 56.0625,90.61 54.535,91.585 L51.675,93.405 C51.1875,93.73 50.7325,94.12 50.375,94.575 L49.3025,95.9075 L49.6925,96.59 C50.57,98.085 52.0975,99.0925 53.82,99.255 L55.25,99.385 C56.5175,98.8975 57.5575,97.955 58.1425,96.7525 L59.605,93.73 C59.865,93.1775 60.2225,92.6575 60.645,92.235 L63.0175,89.83 C64.22,88.595 64.7725,86.8725 64.48,85.15 L63.895,81.835 Z M22.5225,85.605 C22.2625,87.3275 22.8475,89.05 24.0825,90.22 L25.09,91.26 C26.39,91.65 27.7875,91.5525 28.99,90.9675 L30.3225,90.3175 L30.16,87.9125 C30.1275,87.3275 29.9975,86.775 29.77,86.2225 L29.12,84.6625 L26.065,84.3375 C25.5125,84.2725 24.9275,84.305 24.3425,84.435 L22.6525,84.825 L22.5225,85.605 Z M16.12,77.545 L15.8275,78.2925 C15.1775,79.9175 15.3725,81.705 16.315,83.1675 L17.095,84.37 C18.265,85.0525 19.6625,85.2475 20.9625,84.955 L22.3925,84.63 L22.75,82.2575 C22.815,81.6725 22.815,81.0875 22.7175,80.5025 L22.425,78.8125 L19.5325,77.8375 C19.0125,77.6425 18.4275,77.545 17.8425,77.545 L16.12,77.545 Z M10.335,74.5225 L10.79,75.855 C11.7975,76.765 13.0975,77.285 14.43,77.285 L15.8925,77.285 L16.8025,75.01 C16.9975,74.49 17.1275,73.905 17.16,73.32 L17.2575,71.63 L14.6575,70.0375 C14.17,69.745 13.6175,69.5175 13.0325,69.3875 L11.3425,68.9975 L10.92,69.6475 C9.945,71.0775 9.75,72.8975 10.335,74.5225 Z M6.4025,64.7725 L6.5975,66.17 C7.345,67.3075 8.515,68.0875 9.815,68.38 L11.245,68.705 L12.61,66.7225 C12.9675,66.235 13.195,65.6825 13.3575,65.13 L13.8125,63.505 L11.635,61.36 C11.2125,60.97 10.725,60.645 10.205,60.385 L8.645,59.6375 L8.06,60.1575 C6.7925,61.3275 6.175,63.05 6.4025,64.7725 Z M7.6375,35.0025 C7.54,36.335 7.9625,37.6675 8.8075,38.7075 L9.7175,39.845 L12.025,39.13 C12.5775,38.9675 13.13,38.7075 13.585,38.35 L14.95,37.3425 L14.56,34.32 C14.495,33.735 14.3325,33.1825 14.0725,32.6625 L13.325,31.1025 L12.545,31.1675 C10.8225,31.2975 9.2625,32.2725 8.385,33.7675 L7.6375,35.0025 Z M12.5125,25.6425 C12.1225,26.91 12.22,28.3075 12.8375,29.575 L13.4875,30.875 L15.8925,30.68 C16.4775,30.6475 17.0625,30.485 17.5825,30.2575 L19.1425,29.575 L19.435,26.52 C19.4675,25.935 19.435,25.35 19.305,24.7975 L18.915,23.1075 L18.135,23.01 C17.875,22.9775 17.615,22.945 17.355,22.945 C15.8925,22.945 14.495,23.5625 13.4875,24.6025 L12.5125,25.6425 Z M26.4225,14.8525 L26.455,16.2825 L28.6975,17.16 C29.2175,17.3875 29.8025,17.485 30.3875,17.5175 L32.0775,17.5825 L33.67,14.9825 C33.9625,14.495 34.19,13.9425 34.32,13.3575 L34.6775,11.6675 L34.0275,11.245 C32.5975,10.3025 30.7775,10.075 29.1525,10.6925 L27.82,11.2125 C26.91,12.22 26.4225,13.52 26.4225,14.8525 Z M66.5925,29.8025 L66.625,26.4875 C66.625,25.87 66.7225,25.2525 66.9175,24.6675 L67.99,21.45 C68.5425,19.7925 68.25,18.005 67.21,16.6075 L65.195,13.8775 C64.805,13.39 64.545,12.8375 64.35,12.2525 L63.31,9.035 C62.79,7.3775 61.49,6.0775 59.8325,5.5575 L58.4675,5.1025 C57.135,5.2975 55.965,6.0125 55.12,7.085 L54.21,8.255 L55.445,10.335 C55.7375,10.8225 56.095,11.2775 56.55,11.6675 L59.1175,13.8775 C60.4825,15.08 61.1975,16.835 61.035,18.655 L60.71,22.0025 C60.6775,22.555 60.71,23.1725 60.84,23.725 L61.62,27.0075 C62.0425,28.795 61.555,30.6475 60.3525,32.0125 L58.11,34.5475 C57.72,34.97 57.395,35.4575 57.1675,36.01 L55.8675,39.13 C55.3475,40.365 54.3725,41.405 53.1375,41.99 L54.21,42.38 C55.8675,42.3475 57.4275,41.535 58.4025,40.17 L60.3525,37.44 C60.71,36.9525 61.165,36.4975 61.6525,36.14 L64.3825,34.19 C65.78,33.15 66.5925,31.525 66.5925,29.8025 Z M45.4675,91 L45.5975,90.9675 C47.2225,90.3825 48.49,89.0175 48.945,87.36 L49.855,84.11 C50.0175,83.525 50.2775,82.9725 50.635,82.4525 L52.5525,79.6575 C53.5275,78.2275 53.755,76.4075 53.1375,74.7825 L51.9675,71.63 C51.74,71.0775 51.61,70.46 51.61,69.8425 L51.5125,66.4625 C51.48,65.0975 50.895,63.7975 49.92,62.8225 C49.4325,63.1475 48.9775,63.57 48.62,64.025 C48.7175,64.7075 48.7175,65.4225 48.5875,66.105 L47.9375,69.42 C47.8075,69.9725 47.8075,70.5575 47.8725,71.1425 L48.3275,74.49 C48.555,76.2775 47.905,78.0975 46.5725,79.3325 L44.1025,81.64 C43.68,82.03 43.3225,82.485 43.03,83.005 L42.7375,83.525 L42.5425,85.4425 C42.38,87.1325 43.03,88.855 44.33,89.9925 L45.4675,91 Z M37.0175,88.595 L37.115,88.595 C38.8375,88.4 40.365,87.36 41.1775,85.8325 L42.4775,83.4275 L42.64,82.03 C42.705,81.4775 42.6725,80.8925 42.5425,80.3075 L41.8275,76.9925 C41.795,76.8625 41.7625,76.7325 41.7625,76.635 C41.4375,76.96 41.08,77.22 40.69,77.4475 L37.765,79.1375 C37.2775,79.43 36.8225,79.7875 36.4325,80.2425 L36.0425,80.6975 L35.425,82.5175 C34.8725,84.1425 35.1325,85.9625 36.14,87.36 L37.0175,88.595 Z M22.425,77.1225 L22.7175,78.585 L22.88,78.65 C24.505,79.2025 26.325,78.91 27.7225,77.9025 L29.9325,76.31 L30.68,75.1075 C30.9725,74.62 31.2,74.0675 31.33,73.515 L32.11,70.2325 C32.1425,70.135 32.175,70.005 32.2075,69.9075 C31.7525,70.0375 31.33,70.135 30.875,70.1675 L27.495,70.4275 C26.91,70.4925 26.3575,70.6225 25.805,70.85 L25.2525,71.0775 L23.8875,72.4425 C22.6525,73.6775 22.1325,75.4 22.425,77.1225 Z M19.4025,29.9 C19.24,31.6225 19.9225,33.3125 21.2225,34.45 L23.3025,36.2375 L24.635,36.6925 C25.155,36.8875 25.74,36.985 26.325,36.985 L29.7375,36.985 C29.8675,36.985 29.965,36.985 30.095,36.985 C29.835,36.595 29.64,36.1725 29.51,35.75 L28.47,32.5325 C28.3075,31.98 28.0475,31.4275 27.69,30.9725 L27.3325,30.485 L25.7075,29.4775 C24.2125,28.5675 22.3925,28.47 20.8,29.1525 L19.4025,29.7375 L19.4025,29.9 Z M25.1875,23.1075 L25.1225,23.3025 C24.57,24.9275 24.8625,26.7475 25.87,28.145 L27.495,30.355 L28.6975,31.07 C29.185,31.3625 29.7375,31.59 30.3225,31.72 L33.6375,32.435 C33.735,32.4675 33.865,32.5 33.9625,32.5325 C33.8,32.11 33.7025,31.6875 33.67,31.2325 L33.3775,27.8525 C33.345,27.2675 33.1825,26.6825 32.955,26.1625 L32.7275,25.61 L31.3625,24.2775 C30.1275,23.075 28.3725,22.5225 26.65,22.8475 L25.1875,23.1075 Z M32.2725,17.9075 L32.1425,18.0375 C31.2325,19.5325 31.135,21.3525 31.8175,22.945 L32.9225,25.4475 L33.93,26.4225 C34.3525,26.845 34.84,27.17 35.36,27.43 L38.415,28.8925 C38.545,28.9575 38.6425,28.99 38.74,29.055 C38.7075,28.6325 38.7075,28.1775 38.7725,27.7225 L39.2275,24.375 C39.325,23.79 39.2925,23.205 39.195,22.62 L39.065,22.035 L38.025,20.41 C37.0825,18.9475 35.49,18.0375 33.7675,17.9725 L32.2725,17.9075 Z M40.3325,14.3975 L40.2025,14.4625 C39,15.73 38.48,17.485 38.805,19.175 L39.325,21.84 L40.105,23.01 C40.43,23.4975 40.82,23.9525 41.275,24.31 L43.94,26.39 C44.0375,26.455 44.1025,26.5525 44.2,26.6175 C44.265,26.1625 44.3625,25.74 44.525,25.3175 L45.695,22.165 C45.89,21.645 46.02,21.06 46.02,20.475 L46.0525,19.89 L45.4025,18.1025 C44.8175,16.4775 43.4525,15.2425 41.795,14.7875 L40.3325,14.3975 Z M48.9775,12.7725 L48.8475,12.8375 C47.385,13.8125 46.5075,15.405 46.4425,17.1275 L46.345,19.8575 L46.8325,21.1575 C47.0275,21.71 47.32,22.23 47.6775,22.685 L49.79,25.3175 C50.9275,26.715 51.3175,28.6 50.83,30.355 L49.92,33.605 C49.7575,34.1575 49.6925,34.7425 49.725,35.3275 L49.8875,38.7075 C49.92,39.13 49.8875,39.5525 49.8225,39.9425 C50.2125,40.4625 50.7325,40.9175 51.285,41.2425 C51.9675,40.495 52.455,39.5525 52.6175,38.545 L53.2025,35.23 C53.3325,34.6125 53.5275,34.06 53.82,33.5075 L55.445,30.55 C56.2575,29.0225 56.29,27.2025 55.5425,25.6425 L54.0475,22.62 C53.7875,22.0675 53.5925,21.4825 53.5275,20.865 L53.105,17.5175 C52.8775,15.795 51.8375,14.3 50.31,13.4875 L48.9775,12.7725 Z M43.29,72.3125 C42.4125,73.3525 41.9575,74.6525 41.99,76.0175 C42.705,75.1725 43.1275,74.165 43.225,73.0925 L43.29,72.3125 Z M40.2025,45.2725 C40.5275,45.5325 40.82,45.7925 41.1125,46.1175 C41.7625,46.1175 42.445,46.02 43.0625,45.7925 C42.965,45.2075 42.77,44.6225 42.51,44.1025 C41.86,43.9075 41.21,43.615 40.6575,43.1925 L37.9275,41.1775 C37.44,40.8525 36.92,40.56 36.3675,40.3975 L34.6775,39.8775 L36.2375,42.055 C36.595,42.5425 36.985,42.965 37.4725,43.29 L40.2025,45.2725 Z M46.9625,39.4875 C47.06,39.8775 47.125,40.3 47.125,40.6575 C47.6125,41.1125 48.23,41.4375 48.8475,41.6325 C49.14,41.1125 49.335,40.56 49.465,39.975 C49.0425,39.4225 48.75,38.805 48.555,38.1225 L47.6775,34.8725 C47.5475,34.2875 47.2875,33.7675 46.9625,33.28 L45.9875,31.8175 L45.8575,34.515 C45.825,35.1 45.89,35.685 46.0525,36.2375 L46.9625,39.4875 Z M44.4275,27.3 C44.395,28.405 44.72,29.445 45.305,30.355 L45.76,31.005 C45.825,29.64 45.3375,28.3075 44.4275,27.3 Z M46.8,60.6125 L46.5075,60.4175 L46.67,60.6125 L46.8,60.6125 Z M46.28,60.58 L45.4675,59.7675 C45.3375,59.7025 45.24,59.6375 45.11,59.605 L45.2725,59.865 C45.435,60.0925 45.565,60.3525 45.6625,60.6125 C45.8575,60.58 46.085,60.58 46.28,60.58 Z M45.045,59.28 L44.8175,59.02 L44.9475,59.2475 L45.045,59.28 Z M43.745,58.2075 C43.8425,58.4675 43.9075,58.7275 43.94,59.02 C44.1675,59.02 44.3625,59.085 44.5575,59.1175 L43.9725,58.1425 L43.6475,57.915 L43.745,58.2075 Z M43.615,57.59 L43.4525,57.265 L43.5175,57.525 L43.615,57.59 Z M41.9575,53.7875 L41.925,54.08 C41.86,54.34 41.795,54.6325 41.73,54.8925 C41.925,54.99 42.0875,55.12 42.25,55.25 L42.1525,54.1125 C42.0875,54.015 42.0225,53.885 41.9575,53.7875 Z M41.8275,51.545 L41.73,51.805 C41.6325,52.0975 41.5025,52.325 41.3725,52.585 C41.5025,52.715 41.6325,52.8775 41.7625,53.04 L41.925,51.9025 C41.8925,51.805 41.86,51.675 41.8275,51.545 Z M42.0225,53.1375 L41.99,53.3975 C42.0225,53.43 42.0225,53.4625 42.055,53.495 L42.0225,53.1375 Z M42.2825,55.64 C42.0875,55.4775 41.86,55.315 41.665,55.1525 C41.47,55.705 41.1775,56.225 40.82,56.7125 C41.3725,56.745 41.8925,56.81 42.38,56.9725 C42.38,56.745 42.38,56.485 42.3475,56.2575 L42.2825,55.64 Z M42.6075,56.225 C42.64,56.5175 42.64,56.81 42.6075,57.1025 C42.8025,57.1675 42.9975,57.2325 43.1925,57.33 L42.835,56.225 C42.7375,56.1275 42.6725,56.03 42.575,55.9325 L42.6075,56.225 Z M42.5425,55.5425 L42.6075,55.6075 L42.51,55.2825 L42.5425,55.5425 Z M42.0225,51.2525 L42.0875,50.9275 L41.99,51.155 C41.99,51.1875 42.0225,51.22 42.0225,51.2525 Z M41.8275,50.7975 L42.25,49.6925 C42.2175,49.5625 42.2175,49.4325 42.2175,49.3025 L42.055,49.5625 C41.8925,49.8225 41.73,50.05 41.535,50.245 C41.6325,50.44 41.73,50.6025 41.8275,50.7975 Z M42.445,49.1075 L42.575,48.75 L42.445,48.9775 C42.445,49.0425 42.445,49.075 42.445,49.1075 Z M43.3875,46.5725 L44.2,45.76 C44.265,45.63 44.33,45.5325 44.3625,45.4025 L44.1025,45.565 C43.875,45.7275 43.615,45.8575 43.355,45.955 C43.3875,46.15 43.3875,46.3775 43.3875,46.5725 Z M43.095,46.8325 L43.095,46.02 C42.5425,46.215 41.925,46.345 41.34,46.345 C41.665,46.7675 41.925,47.2225 42.12,47.71 C42.315,47.58 42.51,47.4175 42.6725,47.255 L43.095,46.8325 Z M42.835,47.45 C42.64,47.645 42.4125,47.84 42.185,48.0025 C42.25,48.1975 42.315,48.3925 42.3475,48.5875 L42.965,47.6125 C42.9975,47.515 43.03,47.385 43.03,47.255 L42.835,47.45 Z M43.355,47.0925 L43.55,46.8 L43.355,46.9625 L43.355,47.0925 Z M44.6875,45.305 L44.9475,45.045 L44.72,45.175 C44.72,45.24 44.6875,45.2725 44.6875,45.305 Z M44.8175,44.8175 L45.7925,44.2325 C45.89,44.1025 45.955,44.005 46.02,43.9075 L45.7275,44.005 C45.4675,44.07 45.2075,44.1675 44.915,44.2 C44.8825,44.4275 44.85,44.6225 44.8175,44.8175 Z M46.345,43.875 L46.67,43.7125 L46.41,43.7775 L46.345,43.875 Z M46.605,43.42 L47.6775,43.0625 C47.775,42.965 47.8725,42.9 47.97,42.8025 L47.6775,42.835 C47.385,42.835 47.125,42.8675 46.8325,42.835 C46.7675,43.03 46.7025,43.225 46.605,43.42 Z M48.295,42.8675 L48.62,42.7375 L48.36,42.77 L48.295,42.8675 Z M50.44,42.315 L50.7975,42.2825 L50.5375,42.25 L50.44,42.315 Z M49.79,42.38 C49.92,42.315 50.0175,42.25 50.115,42.185 L49.8225,42.1525 C49.5625,42.12 49.27,42.055 49.01,41.99 C48.9125,42.1525 48.7825,42.315 48.6525,42.4775 L49.79,42.38 Z M49.8875,41.86 L50.5375,41.9575 C50.7325,41.795 50.9275,41.6325 51.1225,41.4375 C50.6025,41.1125 50.1475,40.7225 49.7575,40.2675 C49.6275,40.7875 49.4325,41.275 49.1725,41.73 C49.4,41.795 49.66,41.8275 49.8875,41.86 Z M48.75,41.8925 C48.165,41.6975 47.645,41.405 47.125,41.0475 C47.125,41.6 47.06,42.12 46.8975,42.6075 C47.1575,42.6075 47.385,42.6075 47.645,42.575 L48.2625,42.51 C48.4575,42.315 48.62,42.12 48.75,41.8925 Z M46.6375,42.575 C46.8325,42.0225 46.8975,41.4375 46.8325,40.7875 C46.3125,40.3325 45.8575,39.78 45.5325,39.1625 L43.94,36.1725 C43.68,35.685 43.3225,35.1975 42.9,34.8075 L41.6,33.605 L42.055,36.27 C42.185,36.855 42.3475,37.4075 42.64,37.9275 L44.265,40.885 C44.46,41.2425 44.6225,41.6325 44.72,42.0225 C45.3375,42.315 45.9875,42.51 46.6375,42.575 Z M46.54,42.835 C45.955,42.77 45.37,42.6075 44.785,42.3475 C44.915,42.8675 44.9475,43.3875 44.915,43.9075 C45.175,43.875 45.4025,43.81 45.63,43.745 L46.215,43.55 C46.345,43.3225 46.4425,43.095 46.54,42.835 Z M44.655,43.9725 C44.72,43.3875 44.655,42.8025 44.525,42.25 C43.9075,41.925 43.355,41.47 42.9,40.95 L40.69,38.3825 C40.3,37.96 39.845,37.57 39.3575,37.2775 L37.83,36.3675 L38.87,38.8375 C39.0975,39.3575 39.39,39.8775 39.78,40.3 L41.99,42.835 C42.25,43.16 42.4775,43.485 42.6725,43.8425 C43.3225,44.005 44.005,44.07 44.655,43.9725 Z M43.9725,44.2975 C43.5825,44.2975 43.225,44.265 42.835,44.2 C43.0625,44.6875 43.225,45.175 43.29,45.695 C43.5175,45.5975 43.745,45.5 43.94,45.37 L44.46,45.045 C44.525,44.785 44.59,44.525 44.6225,44.265 C44.395,44.2975 44.2,44.2975 43.9725,44.2975 Z M40.95,46.3775 C40.2675,46.345 39.585,46.1825 38.9675,45.8575 L35.88,44.525 C35.3275,44.2975 34.775,44.1675 34.19,44.1025 L32.435,43.94 L34.4175,45.7275 C34.84,46.1175 35.36,46.4425 35.88,46.67 L38.9675,48.035 C39.3575,48.1975 39.715,48.425 40.04,48.6525 C40.69,48.5225 41.3075,48.2625 41.86,47.905 C41.6325,47.3525 41.34,46.8325 40.95,46.3775 Z M41.9575,48.165 C41.4375,48.49 40.885,48.7175 40.3,48.88 C40.7225,49.205 41.08,49.595 41.3725,50.0175 C41.535,49.8225 41.6975,49.6275 41.8275,49.4325 L42.1525,48.9125 C42.12,48.6525 42.055,48.425 41.9575,48.165 Z M41.1775,50.245 C40.8525,49.725 40.43,49.3025 39.975,48.9125 C39.65,48.9775 39.325,49.01 38.9675,49.01 C38.61,49.01 38.285,48.9775 37.9275,48.9125 L34.6125,48.295 C34.0275,48.1975 33.4425,48.165 32.8575,48.2625 L31.1025,48.5225 L33.4425,49.8225 C33.9625,50.115 34.4825,50.31 35.0675,50.4075 L38.3825,51.025 C38.7725,51.09 39.1625,51.22 39.5525,51.3825 C40.17,51.1225 40.7225,50.7325 41.1775,50.245 Z M41.3075,50.4725 C40.9175,50.895 40.3975,51.2525 39.8775,51.545 C40.365,51.7725 40.7875,52.065 41.1775,52.4225 C41.275,52.2275 41.3725,52 41.47,51.7725 L41.665,51.1875 C41.5675,50.9275 41.4375,50.7 41.3075,50.4725 Z M41.015,52.65 C40.5925,52.2275 40.105,51.9025 39.5525,51.61 C38.9025,51.87 38.22,52.0325 37.5375,52.065 L34.1575,52.195 C33.605,52.2275 33.02,52.3575 32.4675,52.5525 L30.81,53.17 L33.3775,53.95 C33.93,54.1125 34.515,54.1775 35.1,54.145 L38.48,54.015 C38.87,54.015 39.2925,54.0475 39.6825,54.1125 C40.2025,53.7225 40.6575,53.235 41.015,52.65 Z M41.21,52.845 C40.9175,53.365 40.495,53.82 40.0075,54.21 C40.5275,54.34 41.015,54.535 41.47,54.795 C41.535,54.5675 41.6,54.3075 41.6325,54.08 L41.6975,53.4625 C41.5675,53.235 41.405,53.04 41.21,52.845 Z M41.405,55.0225 C40.9175,54.73 40.3325,54.535 39.7475,54.405 C39.1625,54.795 38.545,55.12 37.8625,55.2825 L34.6125,56.16 C34.0275,56.3225 33.5075,56.55 33.02,56.875 L31.5575,57.85 L34.255,58.0125 C34.84,58.045 35.425,57.98 35.9775,57.8175 L39.2275,56.94 C39.6175,56.8425 40.0075,56.7775 40.43,56.745 C40.8525,56.2575 41.1775,55.64 41.405,55.0225 Z M40.56,57.0375 C40.1375,57.5575 39.585,57.98 38.9675,58.3375 L35.9775,59.8975 C35.4575,60.1575 34.97,60.515 34.58,60.9375 L33.345,62.205 L36.01,61.7825 C36.595,61.685 37.1475,61.49 37.6675,61.23 L40.625,59.6375 C40.9825,59.4425 41.3725,59.28 41.7625,59.1825 C42.055,58.5975 42.25,57.9475 42.315,57.2975 C41.73,57.1025 41.145,57.0375 40.56,57.0375 Z M42.575,57.3625 C42.51,57.98 42.3475,58.565 42.0875,59.085 C42.6075,58.9875 43.1275,58.955 43.6475,58.9875 C43.615,58.7275 43.55,58.5 43.485,58.2725 L43.29,57.6875 C43.0625,57.5575 42.835,57.46 42.575,57.3625 Z M43.2575,59.2475 C42.835,59.2475 42.38,59.28 41.9575,59.41 C41.6325,59.995 41.1775,60.5475 40.6575,61.0025 L38.09,63.2125 C37.635,63.6025 37.245,64.0575 36.9525,64.545 L36.0425,66.0725 L38.545,65.065 C39.0975,64.8375 39.585,64.545 40.04,64.155 L42.575,61.945 C42.9,61.685 43.225,61.4575 43.5825,61.2625 C43.745,60.6125 43.81,59.93 43.7125,59.28 C43.55,59.2475 43.42,59.2475 43.2575,59.2475 Z M43.9725,59.3125 C44.07,59.8975 44.0375,60.515 43.9075,61.1 C44.395,60.8725 44.8825,60.71 45.4025,60.645 C45.305,60.4175 45.2075,60.19 45.0775,59.995 L44.7525,59.475 C44.4925,59.41 44.2325,59.345 43.9725,59.3125 Z M45.5,60.905 C44.915,60.97 44.33,61.165 43.8425,61.425 C43.6475,62.1075 43.355,62.725 42.9325,63.2775 L40.9175,65.975 C40.56,66.4625 40.3,66.9825 40.105,67.535 L39.5525,69.225 L41.7625,67.6975 C42.2175,67.3725 42.64,66.95 42.9975,66.495 L44.98,63.765 C45.24,63.4075 45.5325,63.115 45.825,62.855 C45.825,62.205 45.7275,61.5225 45.5,60.905 Z M45.76,60.8725 C45.9875,61.425 46.085,62.0425 46.0525,62.66 C46.475,62.335 46.93,62.075 47.4175,61.88 C47.2875,61.685 47.125,61.49 46.9625,61.3275 L46.54,60.8725 C46.28,60.84 46.02,60.84 45.76,60.8725 Z M46.085,62.985 C46.0525,63.6675 45.89,64.35 45.63,65 L44.265,68.0875 C44.005,68.64 43.875,69.1925 43.81,69.7775 L43.6475,71.5325 L45.4675,69.55 C45.8575,69.1275 46.1825,68.6075 46.41,68.0875 L47.7425,65 C47.905,64.6425 48.1325,64.285 48.36,63.96 C48.23,63.2775 47.97,62.66 47.6125,62.1075 C47.06,62.3025 46.54,62.595 46.085,62.985 Z M47.8725,62.01 C48.1975,62.4975 48.425,63.05 48.5875,63.635 C48.945,63.245 49.335,62.8875 49.7575,62.595 C49.5625,62.4325 49.3675,62.27 49.1725,62.14 L48.6525,61.815 C48.3925,61.88 48.1325,61.945 47.8725,62.01 Z M47.71,61.7825 C47.905,61.7175 48.1,61.6525 48.295,61.6525 L47.3525,61.0025 C47.255,60.97 47.125,60.9375 46.995,60.9375 L47.19,61.1325 C47.385,61.3275 47.5475,61.555 47.71,61.7825 Z M48.49,61.3925 L48.685,61.555 L48.815,61.5225 L48.49,61.3925 Z M52.65,42.25 L53.0075,42.315 L52.78,42.2175 L52.65,42.25 Z M52,42.1525 C52.13,42.12 52.26,42.0875 52.3575,42.055 L52.0975,41.9575 C51.805,41.86 51.5775,41.73 51.3175,41.6 C51.1875,41.7625 51.025,41.8925 50.8625,42.0225 L52,42.1525 Z M46.5725,21.2875 L46.28,20.6375 C46.2475,21.2225 46.1175,21.8075 45.9225,22.36 L44.72,25.545 C44.5575,26.0325 44.4275,26.52 44.395,27.0075 C45.5,28.145 46.085,29.6725 45.9875,31.2325 L45.9875,31.46 L47.19,33.215 C47.515,33.7025 47.775,34.2875 47.9375,34.8725 L48.815,38.1225 C48.9775,38.6425 49.205,39.1625 49.53,39.65 C49.5625,39.3575 49.5625,39.065 49.5625,38.7725 L49.4,35.3925 C49.3675,34.775 49.4325,34.1575 49.595,33.5725 L50.5375,30.3225 C51.025,28.665 50.635,26.845 49.5625,25.5125 L47.45,22.88 C47.0925,22.3925 46.7675,21.8725 46.5725,21.2875 Z M39.8775,23.2375 L39.455,22.62 C39.5525,23.205 39.5525,23.79 39.4875,24.375 L39.0325,27.7225 C38.9675,28.21 38.9675,28.73 39.0325,29.2175 C40.365,30.0625 41.275,31.4275 41.535,32.9875 L41.5675,33.215 L43.1275,34.6775 C43.5825,35.1 43.94,35.5875 44.2325,36.14 L45.825,39.13 C46.085,39.6175 46.41,40.0725 46.8325,40.4625 C46.8,40.17 46.735,39.8775 46.67,39.585 L45.76,36.335 C45.5975,35.75 45.5325,35.1325 45.565,34.515 L45.7275,31.46 L45.0775,30.5175 C44.395,29.4775 44.07,28.275 44.135,27.04 C44.0375,26.91 43.875,26.78 43.745,26.6825 L41.1125,24.6025 C40.625,24.2125 40.2025,23.7575 39.8775,23.2375 Z M41.2425,32.89 C40.9825,31.5575 40.2025,30.3875 39.0975,29.575 C39.325,30.615 39.8775,31.59 40.6575,32.3375 L41.2425,32.89 Z M33.7675,26.6175 L33.28,26.0975 C33.5075,26.6175 33.6375,27.2025 33.7025,27.7875 L33.995,31.1675 C34.0275,31.6875 34.1575,32.175 34.32,32.63 C35.815,33.15 36.985,34.2875 37.6025,35.75 L37.7,35.945 L39.52,37.0175 C40.04,37.3425 40.5275,37.7325 40.9175,38.1875 L43.1275,40.755 C43.485,41.1775 43.94,41.535 44.4275,41.8275 C44.33,41.535 44.2,41.275 44.07,41.015 L42.445,38.0575 C42.1525,37.5375 41.9575,36.9525 41.86,36.335 L41.34,33.345 L40.495,32.565 C39.585,31.72 39,30.5825 38.805,29.38 C38.6425,29.2825 38.48,29.185 38.3175,29.12 L35.2625,27.6575 C34.71,27.3975 34.2225,27.04 33.7675,26.6175 Z M37.245,35.7175 C36.6925,34.4825 35.685,33.5075 34.4175,32.9875 C34.8725,33.9625 35.62,34.775 36.5625,35.3275 L37.245,35.7175 Z M28.5675,31.265 L27.9175,30.94 C28.2425,31.395 28.535,31.9475 28.6975,32.5 L29.7375,35.7175 C29.9,36.1725 30.095,36.6275 30.3875,37.05 C31.9475,37.2125 33.3775,38.0575 34.2875,39.3575 L34.4175,39.5525 L36.4325,40.2025 C37.0175,40.365 37.57,40.6575 38.0575,41.015 L40.7875,43.03 C41.2425,43.3875 41.73,43.6475 42.2825,43.81 C42.12,43.55 41.9575,43.3225 41.7625,43.095 L39.5525,40.56 C39.13,40.105 38.805,39.5525 38.5775,39 L37.4075,36.1725 L36.4,35.5875 C35.36,34.9375 34.515,33.995 34.06,32.8575 C33.8975,32.7925 33.7025,32.7275 33.54,32.695 L30.2575,31.9475 C29.6725,31.8175 29.0875,31.59 28.5675,31.265 Z M33.995,39.39 C33.1825,38.285 31.98,37.5375 30.6475,37.3425 C31.2975,38.1875 32.2075,38.8375 33.2475,39.1625 L33.995,39.39 Z M24.5375,36.9525 L23.855,36.6925 C24.2775,37.0825 24.6675,37.5375 24.96,38.0575 L26.6825,40.9825 C26.9425,41.405 27.2675,41.795 27.625,42.1525 C29.185,41.99 30.745,42.51 31.915,43.55 L32.0775,43.7125 L34.19,43.9075 C34.8075,43.9725 35.425,44.1025 35.9775,44.3625 L39.065,45.7275 C39.585,45.955 40.1375,46.085 40.69,46.15 C40.4625,45.9225 40.235,45.7275 40.0075,45.565 L37.2775,43.5825 C36.79,43.225 36.335,42.77 35.9775,42.2825 L34.2225,39.78 L33.1175,39.4225 C31.9475,39.0325 30.94,38.285 30.225,37.2775 C30.0625,37.245 29.9,37.245 29.705,37.245 L26.325,37.245 C25.7075,37.245 25.1225,37.1475 24.5375,36.9525 Z M31.6225,43.6475 C30.5825,42.77 29.25,42.315 27.885,42.38 C28.73,43.0625 29.77,43.485 30.8425,43.5825 L31.6225,43.6475 Z M23.595,36.855 L23.14,36.465 L21.32,35.8475 C19.695,35.295 17.875,35.5875 16.4775,36.595 L15.2425,37.4725 L15.275,37.635 C15.5025,39.3575 16.5425,40.8525 18.07,41.665 L20.475,42.9325 L21.8725,43.095 C22.425,43.16 23.01,43.1275 23.595,42.9975 L26.8775,42.25 C27.0075,42.2175 27.1375,42.2175 27.235,42.185 C26.91,41.86 26.65,41.5025 26.4225,41.1125 L24.7,38.1875 C24.4075,37.7 24.05,37.245 23.595,36.855 Z M21.84,43.355 L21.06,43.3225 C21.58,43.615 22.035,43.9725 22.4575,44.395 L24.765,46.865 C25.1225,47.255 25.5125,47.5475 25.935,47.8075 C27.43,47.32 29.0875,47.45 30.4525,48.23 L30.6475,48.3275 L32.76,48.035 C33.345,47.9375 33.9625,47.97 34.58,48.0675 L37.895,48.685 C38.4475,48.7825 39.0325,48.7825 39.585,48.7175 C39.325,48.555 39.065,48.425 38.805,48.295 L35.7175,46.9625 C35.165,46.735 34.645,46.3775 34.19,45.9875 L31.915,43.94 L30.7775,43.8425 C29.5425,43.745 28.3725,43.225 27.4625,42.4125 C27.3,42.445 27.105,42.4775 26.9425,42.51 L23.66,43.2575 C23.075,43.3875 22.4575,43.42 21.84,43.355 Z M30.2575,48.3275 C29.0225,47.71 27.625,47.58 26.325,47.9375 C27.3,48.3925 28.405,48.5875 29.4775,48.425 L30.2575,48.3275 Z M20.93,43.5175 L20.4425,43.1925 L18.525,42.9975 C16.8025,42.8025 15.08,43.485 13.9425,44.785 L12.935,45.9225 L13,46.085 C13.585,47.71 14.95,48.945 16.6075,49.4 L19.24,50.115 L20.6375,49.9525 C21.19,49.8875 21.775,49.725 22.295,49.465 L25.35,48.0025 C25.4475,47.97 25.5775,47.905 25.675,47.8725 C25.285,47.645 24.96,47.3525 24.635,47.0275 L22.3275,44.5575 C21.905,44.135 21.45,43.7775 20.93,43.5175 Z M20.67,50.245 L19.955,50.3425 C20.5075,50.505 21.06,50.765 21.5475,51.09 L24.3425,52.975 C24.765,53.2675 25.1875,53.4625 25.675,53.625 C27.0075,52.8125 28.6325,52.585 30.16,53.04 L30.3875,53.105 L32.37,52.3575 C32.9225,52.13 33.54,52.0325 34.1575,52 L37.5375,51.87 C38.09,51.8375 38.675,51.74 39.195,51.545 C38.935,51.4475 38.6425,51.3825 38.35,51.3175 L35.035,50.7 C34.4175,50.6025 33.8325,50.375 33.3125,50.0825 L30.6475,48.5875 L29.51,48.75 C28.275,48.9125 27.04,48.685 25.9675,48.0675 C25.805,48.1 25.6425,48.1975 25.48,48.2625 L22.425,49.725 C21.8725,49.985 21.2875,50.18 20.67,50.245 Z M29.965,53.235 C28.6325,52.8775 27.235,53.0725 26.0325,53.7225 C27.105,53.9825 28.21,53.9175 29.2175,53.5275 L29.965,53.235 Z M19.7925,50.57 L19.2075,50.4075 L17.29,50.635 C15.5675,50.83 14.04,51.87 13.2275,53.3975 L12.5125,54.73 L12.61,54.86 C13.5525,56.3225 15.145,57.2325 16.8675,57.2975 L19.5975,57.4275 L20.93,56.94 C21.4825,56.745 22.0025,56.4525 22.4575,56.095 L25.09,53.9825 C25.1875,53.9175 25.285,53.8525 25.3825,53.7875 C24.96,53.625 24.57,53.43 24.18,53.17 L21.385,51.285 C20.8975,50.96 20.345,50.7325 19.7925,50.57 Z M21.0275,57.2 L20.3125,57.4925 C20.8975,57.525 21.4825,57.6225 22.035,57.85 L25.1875,59.0525 C25.675,59.215 26.1625,59.345 26.65,59.3775 C27.7875,58.2725 29.3475,57.6875 30.9075,57.785 L31.135,57.785 L32.9225,56.615 C33.41,56.29 33.995,56.03 34.58,55.8675 L37.83,54.99 C38.3825,54.86 38.9025,54.6325 39.39,54.3075 C39.0975,54.275 38.805,54.275 38.5125,54.275 L35.1325,54.405 C34.515,54.4375 33.8975,54.34 33.3125,54.1775 L30.3875,53.3325 L29.315,53.755 C28.145,54.1775 26.8775,54.2425 25.7075,53.885 C25.545,53.9825 25.3825,54.08 25.2525,54.21 L22.62,56.3225 C22.1325,56.68 21.6125,57.005 21.0275,57.2 Z M30.745,58.0775 L30.55,58.045 C29.25,58.045 28.015,58.5325 27.04,59.3775 C28.1125,59.3775 29.185,59.085 30.095,58.5 L30.745,58.0775 Z M20.2475,57.7525 L19.63,57.6875 L17.81,58.3375 C16.185,58.9225 14.9175,60.255 14.4625,61.945 L14.0725,63.4075 L14.17,63.505 C15.4375,64.7075 17.1925,65.26 18.8825,64.935 L21.58,64.4475 L22.75,63.7 C23.2375,63.375 23.6925,62.985 24.05,62.53 L26.1625,59.8975 C26.2275,59.8 26.325,59.735 26.39,59.6375 C25.935,59.5725 25.5125,59.475 25.09,59.3125 L21.9375,58.11 C21.4175,57.8825 20.8325,57.785 20.2475,57.7525 Z M22.9125,63.9275 L22.295,64.285 C22.88,64.1875 23.465,64.155 24.05,64.2525 L27.3975,64.74 C27.885,64.805 28.405,64.805 28.8925,64.74 C29.77,63.4075 31.135,62.53 32.695,62.27 L32.9225,62.2375 L34.385,60.71 C34.8075,60.255 35.295,59.8975 35.8475,59.605 L38.8375,58.045 C39.3575,57.785 39.8125,57.46 40.2025,57.0375 C39.91,57.07 39.6175,57.135 39.325,57.2 L36.075,58.0775 C35.49,58.24 34.8725,58.305 34.255,58.2725 L31.2,58.0775 L30.225,58.7275 C29.2825,59.345 28.21,59.67 27.105,59.67 C27.0075,59.67 26.8775,59.6375 26.7475,59.6375 C26.6175,59.7675 26.52,59.93 26.39,60.06 L24.2775,62.6925 C23.8875,63.18 23.4325,63.6025 22.9125,63.9275 Z M32.5975,62.6275 C31.265,62.855 30.0625,63.635 29.25,64.74 C30.3225,64.5125 31.2975,63.96 32.045,63.18 L32.5975,62.6275 Z M22.295,64.5775 L21.7425,64.74 L20.1175,65.78 C18.655,66.7225 17.745,68.315 17.6475,70.0375 L17.5825,71.5325 L17.7125,71.5975 C19.2075,72.5075 21.0275,72.6375 22.62,71.955 L25.1225,70.8825 L26.0975,69.875 C26.52,69.4525 26.845,68.965 27.105,68.445 L28.5675,65.39 C28.6325,65.2925 28.665,65.1625 28.73,65.065 C28.3075,65.0975 27.8525,65.0975 27.3975,65.0325 L24.05,64.545 C23.465,64.4475 22.88,64.48 22.295,64.5775 Z M26.26,70.0375 L25.675,70.5575 C26.2275,70.33 26.8125,70.1675 27.3975,70.135 L30.7775,69.875 C31.2975,69.8425 31.785,69.7125 32.24,69.55 C32.7925,68.0875 33.93,66.885 35.3925,66.3 L35.62,66.2025 L36.725,64.3825 C37.0175,63.8625 37.44,63.375 37.895,62.985 L40.4625,60.8075 C40.9175,60.45 41.275,59.995 41.5675,59.5075 C41.275,59.605 41.015,59.735 40.755,59.865 L37.765,61.4575 C37.245,61.75 36.66,61.945 36.0425,62.0425 L33.02,62.53 L32.2075,63.375 C31.3625,64.2525 30.225,64.8375 29.0225,65.0325 C28.925,65.195 28.8275,65.3575 28.7625,65.52 L27.3,68.5425 C27.04,69.095 26.6825,69.615 26.26,70.0375 Z M35.3925,66.625 C34.1575,67.145 33.15,68.1525 32.63,69.42 C33.605,68.965 34.45,68.25 35.0025,67.3075 L35.3925,66.625 Z M30.875,75.27 L30.55,75.92 C31.005,75.595 31.5575,75.3025 32.11,75.14 L35.3275,74.1325 C35.7825,73.97 36.2375,73.775 36.66,73.4825 C36.855,71.9225 37.7,70.525 39,69.615 L39.195,69.485 L39.845,67.47 C40.04,66.885 40.3325,66.3325 40.69,65.845 L42.705,63.1475 C43.03,62.6925 43.29,62.205 43.485,61.6525 C43.225,61.815 42.9975,61.9775 42.77,62.1725 L40.235,64.3825 C39.78,64.7725 39.26,65.0975 38.675,65.325 L35.8475,66.4625 L35.2625,67.4375 C34.645,68.51 33.67,69.3225 32.5325,69.7775 C32.4675,69.94 32.4025,70.135 32.37,70.2975 L31.59,73.58 C31.4275,74.165 31.2,74.75 30.875,75.27 Z M39.0325,69.9075 C37.9275,70.72 37.18,71.9225 36.9525,73.255 C37.83,72.605 38.48,71.695 38.805,70.655 L39.0325,69.9075 Z M30.5825,76.1475 L30.1275,76.4725 L29.12,78.0975 C28.21,79.5925 28.0475,81.4125 28.73,83.005 L29.315,84.4025 L29.4775,84.435 C31.2,84.63 32.89,83.9475 34.0275,82.6475 L35.815,80.6 L36.27,79.2675 C36.465,78.715 36.5625,78.13 36.5625,77.545 L36.595,74.165 L36.595,73.8075 C36.205,74.035 35.7825,74.23 35.36,74.36 L32.1425,75.3675 C31.59,75.53 31.07,75.79 30.5825,76.1475 Z M36.53,79.3325 L36.27,79.9175 C36.66,79.495 37.115,79.105 37.635,78.8125 L40.56,77.1225 C40.9825,76.895 41.3725,76.57 41.73,76.2125 C41.5675,74.6525 42.0875,73.0925 43.16,71.9225 L43.3225,71.76 L43.5175,69.6475 C43.5825,69.0625 43.7125,68.445 43.9725,67.8925 L45.3375,64.805 C45.565,64.285 45.695,63.7325 45.76,63.18 C45.5325,63.375 45.3375,63.6025 45.175,63.83 L43.1925,66.56 C42.835,67.0475 42.38,67.47 41.8925,67.8275 L39.39,69.5825 L39.0325,70.6875 C38.6425,71.8575 37.895,72.865 36.8875,73.58 C36.855,73.775 36.855,73.9375 36.855,74.1325 L36.855,77.5125 C36.8225,78.13 36.725,78.7475 36.53,79.3325 Z M42.835,80.2425 C42.965,80.8275 43.03,81.445 42.9325,82.1275 L42.8675,82.8425 C43.1275,82.3225 43.5175,81.835 43.94,81.445 L46.41,79.1375 C47.6775,77.9675 48.295,76.245 48.0675,74.5225 L47.6125,71.175 C47.5475,70.5575 47.5475,69.9725 47.6775,69.355 L48.3275,66.04 C48.4575,65.4875 48.4575,64.9025 48.3925,64.35 C48.23,64.61 48.1,64.87 47.97,65.13 L46.6375,68.2175 C46.3775,68.77 46.0525,69.29 45.63,69.745 L43.5825,71.9875 L43.485,73.125 C43.3875,74.3275 42.8675,75.4975 42.0225,76.4075 C42.055,76.57 42.0875,76.765 42.12,76.9275 L42.835,80.2425 Z M49.9525,62.4325 C50.1475,62.335 50.31,62.2375 50.505,62.14 L49.4325,61.7175 C49.3025,61.7175 49.1725,61.75 49.0425,61.75 L49.3025,61.9125 C49.53,62.075 49.7575,62.2375 49.9525,62.4325 Z M50.6025,61.9125 L50.8625,62.01 L50.96,61.9775 L50.6025,61.9125 Z M55.1525,10.4975 L54.015,8.58 L53.0075,9.8475 C52.65,10.335 52.195,10.7575 51.675,11.0825 L49.2375,12.675 L50.44,13.325 C52.0325,14.2025 53.1375,15.7625 53.365,17.5825 L53.82,20.93 C53.885,21.515 54.0475,22.0675 54.3075,22.5875 L55.8025,25.61 C56.5825,27.2675 56.55,29.185 55.6725,30.7775 L54.0475,33.735 C53.755,34.255 53.56,34.775 53.4625,35.36 L52.8775,38.675 C52.6825,39.715 52.2275,40.69 51.5125,41.47 C51.74,41.5675 51.9675,41.665 52.195,41.7625 L52.78,41.9575 C54.0475,41.405 55.055,40.365 55.6075,39.0975 L56.9075,35.9775 C57.135,35.3925 57.46,34.8725 57.8825,34.4175 L60.125,31.8825 C61.2625,30.55 61.685,28.795 61.295,27.105 L60.515,23.8225 C60.385,23.2375 60.32,22.62 60.385,22.0025 L60.71,18.655 C60.8725,16.9325 60.19,15.2425 58.89,14.105 L56.3225,11.895 C55.8675,11.505 55.4775,11.0175 55.1525,10.4975 Z M52.78,9.5875 L53.8525,8.255 L53.4625,7.5725 C52.585,6.11 51.025,5.135 49.3025,4.9725 L47.8725,4.8425 C46.6375,5.33 45.63,6.2725 45.045,7.5075 L44.4275,8.84 L46.085,10.595 C46.5075,11.0175 46.9625,11.375 47.4825,11.635 L48.9775,12.4475 L51.5125,10.7575 C52,10.4325 52.4225,10.0425 52.78,9.5875 Z M45.8575,10.79 L44.2975,9.1325 L43.615,10.595 C43.355,11.1475 42.9975,11.635 42.575,12.09 L40.56,14.17 L41.86,14.5275 C43.615,15.015 45.045,16.2825 45.6625,18.005 L46.085,19.175 L46.15,17.1275 C46.215,15.275 47.1575,13.6175 48.685,12.61 L47.32,11.895 C46.7675,11.6025 46.28,11.245 45.8575,10.79 Z M43.355,10.465 L44.07,8.905 L43.55,8.3525 C42.38,7.085 40.6575,6.5 38.935,6.7275 L37.505,6.9225 C36.4,7.7025 35.62,8.84 35.3275,10.1725 L35.0025,11.6025 L37.0175,12.935 C37.505,13.26 38.0575,13.4875 38.61,13.65 L40.2675,14.105 L42.38,11.895 C42.77,11.4725 43.095,10.985 43.355,10.465 Z M36.855,13.1625 L34.97,11.7975 L34.6125,13.39 C34.4825,13.975 34.255,14.56 33.93,15.08 L32.435,17.5825 L33.8,17.6475 C35.62,17.745 37.2775,18.6875 38.2525,20.215 L38.935,21.255 L38.545,19.24 C38.1875,17.4525 38.74,15.6 40.0075,14.3 L38.5125,13.91 C37.9275,13.7475 37.375,13.4875 36.855,13.1625 Z M28.6,17.4525 L26.455,16.6075 L26.455,18.2325 C26.455,18.85 26.3575,19.4675 26.1625,20.0525 L25.2525,22.7825 L26.585,22.5225 C28.3725,22.1975 30.225,22.75 31.525,24.0175 L32.435,24.895 L31.6225,23.01 C30.875,21.3525 31.005,19.435 31.9475,17.875 L30.3875,17.81 C29.77,17.81 29.185,17.68 28.6,17.4525 Z M26.195,18.2325 L26.1625,16.5425 L25.4475,16.25 C23.8225,15.6 22.0025,15.8275 20.5725,16.77 L19.37,17.55 C18.72,18.72 18.525,20.1175 18.8175,21.4175 L19.1425,22.8475 L21.5475,23.205 C22.1,23.3025 22.685,23.27 23.27,23.1725 L24.96,22.8475 L25.935,19.955 C26.0975,19.4025 26.195,18.8175 26.195,18.2325 Z M21.515,23.465 L19.24,23.14 L19.5975,24.7 C19.76,25.285 19.7925,25.9025 19.7275,26.52 L19.435,29.4125 L20.7025,28.8925 C22.36,28.1775 24.2775,28.3075 25.8375,29.25 L26.91,29.9 L25.675,28.2425 C24.6025,26.78 24.2775,24.8625 24.8625,23.14 L23.335,23.4325 C22.75,23.53 22.1325,23.5625 21.515,23.465 Z M15.925,30.9075 L13.65,31.1025 L14.365,32.5325 C14.625,33.085 14.82,33.67 14.885,34.2875 L15.2425,37.18 L16.3475,36.3675 C17.81,35.295 19.7275,35.0025 21.45,35.5875 L22.62,35.9775 L21.06,34.645 C19.695,33.475 18.98,31.6875 19.1425,29.8675 L17.7125,30.485 C17.1275,30.7125 16.5425,30.875 15.925,30.9075 Z M12.1225,39.39 L9.88,40.0725 L10.8875,41.34 C11.2775,41.8275 11.6025,42.3475 11.7975,42.9325 L12.805,45.6625 L13.715,44.6225 C14.9175,43.2575 16.705,42.5425 18.525,42.7375 L19.76,42.8675 L17.94,41.8925 C16.3475,41.0475 15.2425,39.455 15.015,37.6675 L13.7475,38.5775 C13.26,38.935 12.7075,39.195 12.1225,39.39 Z M10.725,41.5025 L9.685,40.17 L8.9375,40.3975 C7.28,40.9175 5.98,42.185 5.4275,43.8425 L4.9725,45.2075 C5.1675,46.54 5.8825,47.7425 6.9225,48.5875 L8.06,49.4975 L10.14,48.295 C10.6275,48.0025 11.0825,47.645 11.4725,47.19 L12.61,45.89 L11.57,43.03 C11.375,42.4775 11.0825,41.9575 10.725,41.5025 Z M10.3025,48.5225 L8.255,49.6925 L9.5225,50.7 C10.01,51.09 10.4325,51.545 10.7575,52.065 L12.35,54.5025 L13,53.3 C13.845,51.675 15.4375,50.6025 17.2575,50.375 L18.4925,50.2125 L16.51,49.66 C14.755,49.205 13.325,47.905 12.7075,46.1825 L11.7,47.3525 C11.31,47.8075 10.8225,48.1975 10.3025,48.5225 Z M9.3925,50.895 L8.0275,49.855 L7.345,50.245 C5.85,51.09 4.875,52.65 4.7125,54.3725 L4.5825,55.8025 C5.07,57.07 6.045,58.0775 7.2475,58.6625 L8.58,59.28 L10.335,57.6225 C10.7575,57.2325 11.115,56.7775 11.4075,56.2575 L12.22,54.7625 L10.5625,52.195 C10.2375,51.7075 9.8475,51.2525 9.3925,50.895 Z M10.5625,57.8175 L8.84,59.41 L10.3025,60.0925 C10.855,60.3525 11.375,60.71 11.7975,61.1325 L13.8775,63.1475 L14.235,61.8475 C14.7225,60.0925 16.0225,58.695 17.745,58.0775 L18.9475,57.655 L16.9,57.5575 C15.08,57.4925 13.39,56.5175 12.415,54.99 L11.6675,56.355 C11.4075,56.9075 11.0175,57.395 10.5625,57.8175 Z M12.8375,66.8525 L11.5375,68.77 L13.13,69.1275 C13.7475,69.2575 14.3,69.485 14.82,69.81 L17.29,71.3375 L17.355,69.9725 C17.4525,68.1525 18.4275,66.495 19.955,65.52 L20.995,64.8375 L18.98,65.195 C18.655,65.26 18.33,65.2925 17.9725,65.2925 C16.51,65.2925 15.08,64.7075 14.04,63.7 L13.6175,65.195 C13.455,65.78 13.195,66.3325 12.8375,66.8525 Z M17.0625,75.14 L16.2175,77.2525 L17.8425,77.2525 C18.46,77.2525 19.045,77.35 19.63,77.545 L22.36,78.4875 L22.1325,77.155 C21.8075,75.335 22.3925,73.515 23.66,72.215 L24.5375,71.3375 L22.6525,72.15 C20.995,72.865 19.0775,72.735 17.5175,71.7925 L17.4525,73.3525 C17.42,73.97 17.29,74.555 17.0625,75.14 Z M23.0425,82.29 L22.685,84.565 L24.2775,84.2075 C24.8625,84.0775 25.48,84.045 26.0975,84.11 L28.99,84.4025 L28.47,83.135 C27.755,81.4775 27.885,79.56 28.86,78 L29.51,76.9275 L27.8525,78.13 C26.39,79.2025 24.4725,79.495 22.75,78.91 L23.01,80.47 C23.14,81.055 23.14,81.6725 23.0425,82.29 Z M30.42,87.945 L30.5825,90.22 L32.045,89.5375 C32.5975,89.2775 33.1825,89.0825 33.8,89.0175 L36.6925,88.66 L35.9125,87.555 C34.84,86.0925 34.58,84.175 35.165,82.4525 L35.555,81.2825 L34.19,82.8425 C32.9875,84.2075 31.2,84.9225 29.38,84.7275 L29.9975,86.1575 C30.225,86.7425 30.3875,87.3275 30.42,87.945 Z M32.175,89.765 L30.615,90.5125 L30.68,91.2925 C30.81,93.015 31.7525,94.575 33.2475,95.485 L34.4825,96.2325 C35.815,96.33 37.1475,95.94 38.22,95.095 L39.3575,94.185 L38.6425,91.8775 C38.48,91.325 38.1875,90.805 37.8625,90.3175 L36.855,88.92 L33.8325,89.2775 C33.28,89.3425 32.695,89.505 32.175,89.765 Z M38.9025,91.78 L39.5525,93.9575 L40.82,92.95 C41.3075,92.5925 41.8275,92.2675 42.4125,92.0725 L45.1425,91.0975 L44.135,90.1875 C42.77,88.985 42.0875,87.1975 42.2825,85.3775 L42.4125,84.1425 L41.4375,85.9625 C40.5925,87.5875 39,88.66 37.18,88.8875 L38.09,90.155 C38.4475,90.6425 38.74,91.195 38.9025,91.78 Z M41.015,93.21 L39.715,94.315 L39.9425,95.0625 C40.43,96.72 41.6975,98.02 43.355,98.5725 L44.72,99.0275 C46.0525,98.8325 47.255,98.1175 48.1,97.0775 L49.01,95.94 L47.8075,93.8275 C47.515,93.3075 47.125,92.8525 46.7025,92.4625 L45.435,91.325 L42.5425,92.365 C41.99,92.56 41.47,92.8525 41.015,93.21 Z M48.0025,93.665 L49.205,95.68 L50.2125,94.4125 C50.6025,93.925 51.0575,93.5025 51.5775,93.1775 L54.4375,91.3575 C55.9,90.415 56.81,88.8225 56.9075,87.1 L57.07,83.72 C57.1025,83.1025 57.2325,82.5175 57.46,81.9325 L58.695,78.78 C59.345,77.155 59.15,75.3675 58.2075,73.905 L56.355,71.0775 C55.9975,70.59 55.77,70.005 55.6075,69.42 L54.7625,66.1375 C54.3075,64.4475 53.105,63.0825 51.48,62.465 L50.895,62.2375 C50.635,62.335 50.4075,62.465 50.18,62.595 C51.1875,63.6025 51.7725,64.9675 51.805,66.3975 L51.9025,69.7775 C51.9025,70.3625 52.0325,70.9475 52.2275,71.5 L53.3975,74.6525 C54.0475,76.375 53.82,78.2925 52.78,79.7875 L50.8625,82.5825 C50.505,83.07 50.2775,83.6225 50.115,84.175 L49.205,87.425 C48.7175,89.18 47.4175,90.5775 45.695,91.195 L46.865,92.235 C47.32,92.6575 47.71,93.145 48.0025,93.665 Z M54.925,3.705 L54.1775,3.12 L53.885,3.2825 C53.3325,3.575 52.78,3.8025 52.1625,3.9 L48.8475,4.485 L48.4575,4.5825 L49.2375,4.6475 C51.0575,4.81 52.715,5.85 53.625,7.41 L53.95,7.995 L54.795,6.9225 C55.575,5.9475 56.6475,5.2325 57.85,4.94 L56.55,4.5175 C55.965,4.355 55.4125,4.0625 54.925,3.705 Z M44.135,4.225 L43.3225,3.8675 L43.0625,4.095 C42.575,4.5175 42.055,4.8425 41.5025,5.07 L38.3825,6.37 C38.2525,6.4025 38.155,6.4675 38.025,6.5325 L38.805,6.435 C40.625,6.175 42.445,6.825 43.68,8.1575 L44.135,8.645 L44.72,7.41 C45.2725,6.2725 46.15,5.3625 47.255,4.81 L45.89,4.68 C45.305,4.615 44.6875,4.485 44.135,4.225 Z M33.735,7.1175 L32.89,6.9875 L32.695,7.2475 C32.3375,7.735 31.8825,8.19 31.395,8.5475 L28.665,10.4975 C28.5675,10.595 28.4375,10.66 28.34,10.7575 L29.0875,10.465 C30.81,9.815 32.695,10.0425 34.2225,11.05 L34.775,11.4075 L35.035,10.075 C35.295,8.84 35.9775,7.7675 36.92,6.955 L35.555,7.15 C34.97,7.2475 34.3525,7.2475 33.735,7.1175 Z M24.2125,12.2525 L23.335,12.2525 L23.205,12.545 C22.9775,13.13 22.6525,13.65 22.23,14.105 L19.9875,16.64 C19.89,16.77 19.7925,16.8675 19.7275,16.965 L20.3775,16.5425 C21.905,15.535 23.8225,15.34 25.5125,15.99 L26.13,16.2175 L26.13,14.8525 C26.13,13.6175 26.5525,12.3825 27.3,11.4075 L26,11.895 C25.415,12.1225 24.83,12.22 24.2125,12.2525 Z M16.0875,19.37 L15.275,19.63 L15.21,19.955 C15.08,20.5725 14.885,21.125 14.5925,21.6775 L12.9675,24.635 C12.9025,24.765 12.87,24.8625 12.805,24.9925 L13.3575,24.4075 C14.625,23.075 16.445,22.4575 18.2325,22.7175 L18.8825,22.815 L18.5575,21.4825 C18.265,20.2475 18.395,18.98 18.915,17.8425 L17.745,18.6225 C17.2575,18.9475 16.6725,19.2075 16.0875,19.37 Z M9.7175,28.1125 L8.97,28.535 L8.97,28.86 C9.0025,29.4775 8.9375,30.095 8.775,30.68 L7.8325,33.93 C7.8,34.06 7.7675,34.19 7.735,34.32 L8.125,33.6375 C9.0675,32.0775 10.6925,31.0375 12.5125,30.9075 L13.1625,30.8425 L12.5775,29.6075 C12.025,28.5025 11.8625,27.235 12.1225,26 L11.18,27.0075 C10.7575,27.4625 10.27,27.82 9.7175,28.1125 Z M5.46,38.0575 L4.745,38.5775 L4.8425,38.9025 C5.005,39.4875 5.07,40.105 5.0375,40.7225 L4.8425,44.1025 C4.8425,44.2325 4.8425,44.3625 4.8425,44.4925 L5.1025,43.745 C5.6875,42.0225 7.0525,40.69 8.775,40.1375 L9.425,39.9425 L8.58,38.9025 C7.8,37.9275 7.3775,36.6925 7.345,35.4575 L6.63,36.66 C6.3375,37.18 5.915,37.6675 5.46,38.0575 Z M3.51,48.685 L2.9575,49.4 L3.12,49.6925 C3.4125,50.2125 3.6075,50.7975 3.705,51.415 L4.2575,54.73 C4.29,54.86 4.3225,54.99 4.355,55.12 L4.42,54.34 C4.5825,52.52 5.6225,50.895 7.1825,49.985 L7.7675,49.66 L6.7275,48.815 C5.7525,48.035 5.07,46.9625 4.7775,45.76 L4.355,47.06 C4.16,47.645 3.8675,48.1975 3.51,48.685 Z M3.965,59.5075 L3.575,60.255 L3.8025,60.515 C4.225,60.97 4.55,61.5225 4.7775,62.075 L6.0775,65.195 C6.11,65.325 6.175,65.4225 6.24,65.5525 L6.1425,64.7725 C5.915,62.985 6.565,61.165 7.8975,59.93 L8.385,59.475 L7.15,58.89 C6.0125,58.37 5.1025,57.46 4.55,56.355 L4.42,57.72 C4.3875,58.3375 4.225,58.955 3.965,59.5075 Z M6.7925,69.94 L6.63,70.8175 L6.89,71.0125 C7.3775,71.37 7.8,71.825 8.1575,72.3125 L10.1075,75.075 C10.205,75.205 10.27,75.3025 10.3675,75.4 L10.075,74.6525 C9.4575,72.93 9.685,71.0125 10.725,69.5175 L11.0825,68.965 L9.75,68.6725 C8.5475,68.38 7.4425,67.6975 6.6625,66.755 L6.8575,68.12 C6.9225,68.7375 6.9225,69.3225 6.7925,69.94 Z M11.8625,79.495 L11.895,80.3725 L12.1875,80.5025 C12.74,80.73 13.26,81.055 13.715,81.4775 L16.25,83.72 C16.3475,83.8175 16.445,83.915 16.5425,83.98 L16.12,83.33 C15.1125,81.8025 14.9175,79.885 15.6,78.195 L15.8275,77.5775 L14.4625,77.5775 C13.195,77.5775 11.9925,77.155 11.0175,76.4075 L11.505,77.7075 C11.7325,78.26 11.8625,78.8775 11.8625,79.495 Z M18.915,87.6525 L19.175,88.53 L19.5,88.595 C20.1175,88.6925 20.7025,88.92 21.2225,89.2125 L24.18,90.8375 C24.31,90.9025 24.4075,90.935 24.5375,91 L23.9525,90.4475 C22.6525,89.2125 22.035,87.36 22.295,85.5725 L22.3925,84.9225 L21.06,85.215 C19.8575,85.5075 18.59,85.345 17.4525,84.825 L18.2,85.995 C18.525,86.4825 18.7525,87.0675 18.915,87.6525 Z M27.625,94.0875 L28.015,94.8675 L28.34,94.8675 L28.5675,94.8675 C29.0875,94.8675 29.6075,94.9325 30.1275,95.095 L33.3775,96.0375 C33.5075,96.07 33.6375,96.1025 33.7675,96.135 L33.085,95.745 C31.525,94.77 30.5175,93.145 30.3875,91.325 L30.355,90.675 L29.12,91.26 C27.9825,91.78 26.715,91.91 25.5125,91.65 L26.52,92.625 C26.975,93.0475 27.3325,93.535 27.625,94.0875 Z M37.5375,98.41 L38.0575,99.125 L38.3825,99.0275 C38.9675,98.865 39.585,98.8 40.2025,98.8325 L43.5825,99.0275 C43.7125,99.0275 43.8425,99.0275 43.9725,99.0275 L43.225,98.7675 C41.5025,98.215 40.17,96.8175 39.65,95.095 L39.455,94.445 L38.3825,95.29 C37.4075,96.0375 36.205,96.4925 34.97,96.4925 L36.14,97.2075 C36.66,97.5325 37.1475,97.955 37.5375,98.41 Z M48.1325,100.4575 L48.815,100.9775 L49.1075,100.815 C49.6275,100.5225 50.2125,100.3275 50.83,100.23 L54.145,99.6775 C54.275,99.6775 54.405,99.645 54.535,99.6125 L53.755,99.5475 C51.9675,99.385 50.3425,98.345 49.4325,96.7525 L49.1075,96.1675 L48.2625,97.24 C47.4825,98.215 46.41,98.8975 45.2075,99.19 L46.5075,99.6125 C47.0925,99.8075 47.645,100.1 48.1325,100.4575 Z M58.955,100.0675 L59.7025,100.5225 L59.9625,100.295 C60.4175,99.905 60.97,99.58 61.5225,99.3525 L64.6425,98.085 C66.235,97.435 67.4375,96.0375 67.8275,94.3475 L68.6075,91.065 C68.77,90.48 68.9975,89.895 69.3225,89.375 L71.11,86.515 C72.02,85.02 72.1825,83.2 71.5,81.6075 L70.2,78.4875 C69.94,77.9025 69.81,77.3175 69.745,76.7 L69.5175,73.32 C69.3875,71.5975 68.445,70.0375 66.95,69.1275 L64.0575,67.3725 C63.5375,67.0475 63.05,66.625 62.66,66.17 L60.4825,63.57 C59.3775,62.2375 57.6875,61.555 55.965,61.685 L52.8125,61.945 L53.7875,62.075 C55.575,62.335 57.135,63.44 57.98,65.065 L59.54,68.055 C59.8,68.575 60.1575,69.0625 60.58,69.4525 L63.0175,71.825 C64.3175,73.0925 64.935,74.9125 64.675,76.7 L64.155,80.0475 C64.09,80.6325 64.09,81.2175 64.1875,81.8025 L64.7725,85.1175 C65.0975,86.905 64.5125,88.725 63.245,90.025 L60.8725,92.43 C60.45,92.8525 60.125,93.34 59.865,93.86 L58.4025,96.8825 C57.85,97.9875 56.94,98.8975 55.835,99.45 L57.2,99.58 C57.785,99.645 58.4025,99.8075 58.955,100.0675 Z M66.5925,3.575 C65.975,3.51 65.39,3.3475 64.805,3.055 L62.66,2.015 C63.0175,2.2425 63.31,2.535 63.57,2.8275 L65.0975,4.5825 L67.86,3.8025 L68.0225,3.77 L66.5925,3.575 Z M55.4775,1.5275 C54.86,1.5925 54.275,1.56 53.6575,1.4625 L51.35,0.91 C51.7075,1.0725 52.065,1.2675 52.39,1.495 L54.275,2.86 L56.7775,1.4625 L56.94,1.3975 L55.4775,1.5275 Z M44.2,1.9825 C43.615,2.1775 42.9975,2.275 42.38,2.2425 L40.0075,2.2425 C40.3975,2.3075 40.7875,2.4375 41.1775,2.6 L43.29,3.5425 L45.435,1.625 L45.565,1.5275 L44.2,1.9825 Z M31.59,5.6225 L29.25,6.1425 C29.6725,6.1425 30.095,6.175 30.485,6.24 L32.76,6.6625 L34.4175,4.3225 L34.515,4.1925 L33.28,4.94 C32.76,5.265 32.175,5.4925 31.59,5.6225 Z M21.775,11.2775 L19.63,12.2525 C20.02,12.155 20.41,12.09 20.8325,12.09 L23.14,12.025 L24.245,9.3925 L24.31,9.23 L23.27,10.2375 C22.8475,10.66 22.3275,11.0175 21.775,11.2775 Z M13.4875,18.9475 L11.635,20.4425 C11.9925,20.2475 12.3825,20.085 12.7725,19.9875 L15.015,19.4025 L15.5025,16.5425 C15.5025,16.4775 15.535,16.445 15.535,16.38 L14.7225,17.615 C14.3975,18.1025 13.975,18.5575 13.4875,18.9475 Z M7.1175,28.275 L5.6225,30.095 C5.9475,29.835 6.2725,29.6075 6.63,29.4125 L8.6775,28.34 L8.5475,25.48 L8.5475,25.3175 L8.0275,26.6825 C7.8,27.2675 7.5075,27.7875 7.1175,28.275 Z M2.9575,38.805 L1.885,40.9175 C2.145,40.5925 2.405,40.3 2.73,40.04 L4.485,38.545 L3.705,35.7825 C3.705,35.7175 3.6725,35.685 3.6725,35.62 L3.4775,37.05 C3.4125,37.6675 3.2175,38.2525 2.9575,38.805 Z M1.2025,49.985 L0.6175,52.2925 C0.78,51.935 0.975,51.5775 1.235,51.2525 L2.6325,49.4 L1.2675,46.865 C1.2675,46.8 1.235,46.7675 1.2025,46.7025 L1.3325,48.165 C1.3975,48.7825 1.3325,49.4 1.2025,49.985 Z M1.7225,59.4425 C1.9175,60.0275 2.015,60.645 1.9825,61.2625 L1.95,63.635 C2.015,63.2125 2.145,62.8225 2.3075,62.465 L3.25,60.3525 L1.365,58.175 C1.3325,58.1425 1.3,58.0775 1.2675,58.045 L1.7225,59.4425 Z M5.265,72.085 L5.7525,74.425 C5.7525,74.035 5.785,73.6125 5.85,73.2225 L6.305,70.9475 L3.965,69.2575 L3.835,69.16 L4.615,70.395 C4.9075,70.915 5.135,71.5 5.265,72.085 Z M9.815,80.405 C10.2375,80.8275 10.595,81.3475 10.8225,81.9325 L11.83,84.0775 C11.7325,83.6875 11.6675,83.2975 11.6675,82.875 L11.6025,80.5675 L8.97,79.43 C8.905,79.43 8.8725,79.3975 8.8075,79.365 L9.815,80.405 Z M17.1275,89.0175 C17.6475,89.3425 18.1025,89.765 18.46,90.2525 L19.9225,92.1375 C19.76,91.78 19.5975,91.39 19.5,91 L18.915,88.7575 L16.0875,88.2375 L15.925,88.205 L17.1275,89.0175 Z M26.195,95.7775 C26.7475,96.005 27.3,96.33 27.755,96.6875 L29.6075,98.215 C29.3475,97.9225 29.12,97.565 28.925,97.2075 L27.8525,95.1275 L24.9925,95.2575 L24.83,95.2575 L26.195,95.7775 Z M36.4975,100.3925 C37.115,100.49 37.7,100.6525 38.22,100.9775 L40.3325,102.05 C40.0075,101.79 39.715,101.53 39.455,101.205 L37.96,99.4175 L35.1975,100.165 L35.035,100.1975 L36.4975,100.3925 Z M48.0675,102.57 C48.5225,102.6025 48.945,102.635 49.4325,102.765 L51.7725,103.3175 C51.3825,103.155 51.025,102.96 50.7,102.7 L48.8475,101.3025 L46.3125,102.6675 L46.15,102.7325 L47.6125,102.6025 C47.7425,102.57 47.905,102.57 48.0675,102.57 Z M58.89,102.31 C59.475,102.115 60.0925,102.0175 60.6775,102.115 L63.05,102.1475 C62.66,102.05 62.27,101.92 61.9125,101.7575 L59.8,100.7825 L57.6225,102.6675 L57.4925,102.765 L58.89,102.31 Z M59.7025,58.955 L56.9725,60.6125 L57.915,60.32 C59.6375,59.7675 61.5225,60.0925 62.985,61.1975 L65.6825,63.245 C66.1375,63.6025 66.6575,63.8625 67.21,64.0575 L70.4275,65.13 C72.15,65.715 73.515,67.08 74.035,68.835 L75.01,72.0525 C75.1725,72.605 75.465,73.125 75.79,73.6125 L77.74,76.3425 C78.8125,77.805 79.0725,79.7225 78.4875,81.445 L77.3825,84.63 C77.1875,85.1825 77.09,85.7675 77.09,86.3525 L77.0575,89.7325 C77.025,91.5525 76.1475,93.2425 74.6525,94.2825 L71.89,96.2 C71.435,96.525 71.0125,96.9475 70.655,97.4025 L68.6725,100.1325 C68.64,100.165 68.6075,100.23 68.575,100.2625 L69.8425,99.515 C70.3625,99.19 70.9475,98.995 71.5325,98.865 L74.8475,98.1825 C76.5375,97.825 77.9675,96.6875 78.65,95.095 L79.9825,92.0075 C80.21,91.455 80.535,90.935 80.9575,90.48 L83.2325,87.9775 C84.4025,86.6775 84.89,84.89 84.5,83.2 L83.785,79.9175 C83.655,79.3325 83.6225,78.715 83.6875,78.0975 L84.045,74.75 C84.24,73.0275 83.59,71.305 82.29,70.1675 L79.755,67.925 C79.3,67.5025 78.91,67.015 78.6175,66.495 L76.9275,63.57 C76.05,62.075 74.5225,61.0675 72.8,60.905 L69.4525,60.58 C68.8675,60.515 68.25,60.3525 67.6975,60.0925 L64.61,58.695 C63.0175,57.98 61.1975,58.0775 59.7025,58.955 Z M87.555,25.415 C88.1725,23.79 87.9775,21.97 87.0025,20.54 L85.1175,17.745 C84.76,17.2575 84.5,16.6725 84.3375,16.0875 L83.46,12.8375 C83.005,11.18 81.77,9.815 80.145,9.23 L76.96,8.06 C76.375,7.8325 75.855,7.54 75.3675,7.15 L73.515,5.655 C73.775,5.98 74.0025,6.305 74.1975,6.6625 L75.79,9.6525 C76.05,10.14 76.4075,10.6275 76.83,11.0175 L79.3,13.325 C80.6325,14.56 81.2825,16.38 81.0225,18.2 L80.5675,21.5475 C80.47,22.1325 80.5025,22.7175 80.6,23.3025 L81.2175,26.6175 C81.5425,28.3725 80.99,30.225 79.7225,31.525 L77.3825,33.9625 C76.9925,34.385 76.6675,34.8725 76.4075,35.3925 L74.9775,38.4475 C74.1975,40.105 72.67,41.275 70.8825,41.6 L67.5675,42.185 C66.9825,42.2825 66.4625,42.4775 65.9425,42.77 L62.985,44.395 C61.4575,45.24 59.6375,45.305 58.045,44.6225 C58.175,44.7525 58.2725,44.85 58.4025,44.9475 L59.5075,45.8575 C60.8725,46.93 62.66,47.32 64.3175,46.8325 L67.5675,45.89 C68.1525,45.695 68.77,45.63 69.3875,45.6625 L72.7675,45.825 C74.49,45.9225 76.1475,45.1425 77.22,43.7775 L79.3,41.1125 C79.6575,40.625 80.1125,40.2025 80.6325,39.8775 L83.46,38.025 C84.9225,37.05 85.8,35.4575 85.865,33.735 L85.995,30.355 C86.0275,29.7375 86.125,29.1525 86.3525,28.5675 L87.555,25.415 Z M428.1,42.5 L431.4,42.5 L431.4,42.9 L430,42.9 L430,46.8 L429.5,46.8 L429.5,42.9 L428.1,42.9 L428.1,42.5 Z M432.5,42.9 C432.5,43 432.5,43.1 432.5,43.2 L432.5,46.9 L432,46.9 L432,42.6 L432.8,42.6 L434.1,46.1 C434.1,46.2 434.1,46.2 434.1,46.3 C434.1,46.3 434.1,46.2 434.1,46.1 L435.4,42.6 L436.2,42.6 L436.2,46.9 L435.9,46.9 L435.9,43.2 C435.9,43.1 435.9,43 435.9,42.9 L434.4,46.9 L434,46.9 C433.8,46.4 433.6,46 433.5,45.5 C433.3,45.1 433.2,44.7 433.1,44.4 C433,44.1 432.9,43.8 432.8,43.6 C432.7,43.4 432.7,43.2 432.6,43.1 C432.5,43 432.5,42.9 432.5,42.9 Z M105.2,66.7 C103.7,64.8 102.9,61.9 102.9,57.9 L102.9,45.2 C102.9,41.1 103.6,38.2 105.1,36.4 C106.6,34.6 109,33.6 112.2,33.6 L117.7,33.6 C120.5,33.6 122.5,34.3 123.9,35.7 C125.3,37.1 126,39.4 126.2,42.6 C126.3,43.6 125.9,44.1 125,44.1 C124.3,44.1 123.9,43.6 123.8,42.6 C123.7,40.3 123.2,38.7 122.3,37.8 C121.4,36.9 119.9,36.4 117.7,36.4 L112.2,36.4 C110.5,36.4 109.1,36.7 108.1,37.2 C107.1,37.8 106.4,38.7 105.9,39.9 C105.4,41.1 105.2,42.9 105.2,45.1 L105.2,57.8 C105.2,60 105.4,61.7 105.9,63 C106.4,64.3 107.1,65.1 108.1,65.7 C109.1,66.3 110.5,66.5 112.3,66.5 L117.7,66.5 C119.8,66.5 121.4,66.1 122.3,65.2 C123.2,64.3 123.7,62.7 123.8,60.4 C123.9,59.4 124.3,58.9 125,58.9 C125.8,58.9 126.2,59.4 126.2,60.4 C126,63.6 125.3,65.8 123.9,67.3 C122.5,68.8 120.5,69.4 117.7,69.4 L112.3,69.4 C109,69.5 106.7,68.6 105.2,66.7 Z M152.6,44.6 L152.6,68 C152.6,69 152.2,69.5 151.4,69.5 C150.6,69.5 150.2,69 150.2,68 L150.2,65.3 C148.8,68.1 146.2,69.4 142.4,69.4 L141.1,69.4 C138.3,69.4 136.2,68.6 134.9,67 C133.6,65.4 133,62.8 133,59.4 L133,44.6 C133,43.6 133.4,43.1 134.2,43.1 C135,43.1 135.4,43.6 135.4,44.6 L135.4,59.4 C135.4,62.1 135.8,63.9 136.7,65 C137.5,66 139,66.6 141.2,66.6 L142.5,66.6 C144.9,66.6 146.7,66.1 148.1,65.2 C149.4,64.3 150.1,62.9 150.3,61.1 C150.3,60.9 150.3,60.8 150.3,60.7 L150.3,44.6 C150.3,43.6 150.7,43.1 151.5,43.1 C152.2,43.2 152.6,43.6 152.6,44.6 Z M173.3,44.6 C173.3,45.6 172.9,46.1 172.1,46.1 C169.4,46.1 167.3,46.9 165.8,48.4 C164.3,49.9 163.5,52.1 163.4,54.9 C163.4,55.1 163.4,55.2 163.4,55.3 L163.4,68 C163.4,69 163,69.5 162.2,69.5 C161.4,69.5 161,69 161,68 L161,44.6 C161,43.6 161.4,43.1 162.2,43.1 C163,43.1 163.4,43.6 163.4,44.6 L163.4,49.1 C164.2,47.2 165.3,45.7 166.8,44.7 C168.3,43.7 170.1,43.2 172.1,43.2 C172.9,43.2 173.3,43.6 173.3,44.6 Z M190.3,44.6 C190.3,45.6 189.9,46.1 189.1,46.1 C186.4,46.1 184.3,46.9 182.8,48.4 C181.3,49.9 180.5,52.1 180.4,54.9 C180.4,55.1 180.4,55.2 180.4,55.3 L180.4,68 C180.4,69 180,69.5 179.2,69.5 C178.4,69.5 178,69 178,68 L178,44.6 C178,43.6 178.4,43.1 179.2,43.1 C180,43.1 180.4,43.6 180.4,44.6 L180.4,49.1 C181.2,47.2 182.3,45.7 183.8,44.7 C185.3,43.7 187.1,43.2 189.1,43.2 C189.9,43.2 190.3,43.6 190.3,44.6 Z M195.9,57.4 L195.9,59.5 C195.9,62.1 196.3,64 197.2,65 C198.1,66 199.6,66.6 201.7,66.6 L205.4,66.6 C207.3,66.6 208.7,66.3 209.6,65.7 C210.5,65.1 211,64 211.1,62.5 C211.3,61.6 211.7,61.1 212.3,61.1 C212.7,61.1 213,61.2 213.2,61.5 C213.4,61.8 213.5,62.1 213.4,62.6 C213.2,64.9 212.4,66.7 211.1,67.8 C209.8,68.9 207.9,69.5 205.3,69.5 L201.6,69.5 C198.8,69.5 196.7,68.7 195.4,67.1 C194.1,65.5 193.4,63 193.4,59.5 L193.4,53.2 C193.4,49.7 194.1,47.1 195.4,45.5 C196.7,43.9 198.8,43.1 201.6,43.1 L205.3,43.1 C208.1,43.1 210.2,43.9 211.5,45.5 C212.8,47.1 213.5,49.7 213.5,53.1 L213.5,55.9 C213.5,56.9 213.1,57.4 212.3,57.4 L195.9,57.4 Z M195.9,54.5 L211.2,54.5 L211.2,53.2 C211.2,50.5 210.8,48.7 209.9,47.6 C209.1,46.6 207.6,46 205.4,46 L201.7,46 C199.5,46 198,46.5 197.2,47.5 C196.4,48.5 195.9,50.4 195.9,53.1 L195.9,54.5 Z M238.9,45.6 C240.2,47.2 240.8,49.8 240.8,53.2 L240.8,68 C240.8,69 240.4,69.5 239.6,69.5 C238.8,69.5 238.4,69 238.4,68 L238.4,53.2 C238.4,50.5 238,48.7 237.1,47.6 C236.3,46.6 234.8,46 232.6,46 L231.3,46 C228.9,46 227.1,46.5 225.7,47.4 C224.4,48.3 223.7,49.7 223.5,51.5 C223.5,51.7 223.5,51.8 223.5,51.9 L223.5,68 C223.5,69 223.1,69.5 222.3,69.5 C221.5,69.5 221.1,69 221.1,68 L221.1,44.6 C221.1,43.6 221.5,43.1 222.3,43.1 C223.1,43.1 223.5,43.6 223.5,44.6 L223.5,47.3 C224.9,44.5 227.5,43.2 231.3,43.2 L232.6,43.2 C235.5,43.2 237.6,44 238.9,45.6 Z M250.2,67.1 C248.9,65.5 248.2,62.9 248.2,59.5 L248.2,53.2 C248.2,49.7 248.9,47.2 250.2,45.6 C251.5,44 253.6,43.2 256.4,43.3 L260.1,43.3 C262.3,43.3 264,43.8 265.2,44.7 C266.4,45.6 267,47.1 267.3,49.1 C267.4,49.5 267.3,49.9 267.1,50.2 C266.9,50.5 266.6,50.6 266.2,50.6 C265.5,50.6 265.1,50.2 265,49.3 C264.8,48.2 264.4,47.4 263.6,47 C262.9,46.6 261.7,46.3 260.2,46.3 L256.5,46.3 C254.3,46.3 252.8,46.8 252,47.8 C251.2,48.8 250.7,50.7 250.7,53.4 L250.7,59.7 C250.7,62.4 251.1,64.2 252,65.3 C252.9,66.3 254.4,66.9 256.5,66.9 L260.2,66.9 C261.8,66.9 262.9,66.7 263.6,66.2 C264.3,65.8 264.8,65 265,63.9 C265.2,63 265.6,62.6 266.2,62.6 C266.6,62.6 266.9,62.7 267.1,63 C267.3,63.3 267.4,63.6 267.3,64.1 C267.1,66.1 266.4,67.5 265.2,68.5 C264,69.4 262.3,69.9 260.1,69.9 L256.4,69.9 C253.5,69.5 251.5,68.7 250.2,67.1 Z M275.1,78.9 C274.2,77.7 273.7,75.9 273.7,73.4 C273.7,72.4 274.1,71.9 274.9,71.9 C275.7,71.9 276.1,72.4 276.1,73.4 C276.1,75.1 276.3,76.2 276.8,76.8 C277.3,77.4 278.2,77.7 279.5,77.7 L287.3,77.7 C288.6,77.7 289.5,77.4 290,76.8 C290.5,76.2 290.7,75.1 290.7,73.4 L290.7,65.7 C289.9,67 288.8,68 287.5,68.6 C286.2,69.2 284.7,69.5 282.9,69.5 L281.6,69.5 C278.8,69.5 276.8,68.7 275.5,67.2 C274.2,65.6 273.6,63.1 273.6,59.7 L273.6,44.5 C273.6,43.5 274,43 274.8,43 C275.6,43 276,43.5 276,44.5 L276,59.7 C276,62.3 276.4,64.1 277.2,65.1 C278,66.1 279.5,66.6 281.6,66.6 L282.9,66.6 C285.5,66.6 287.5,66 288.7,64.9 C290,63.7 290.6,62 290.6,59.7 L290.6,44.5 C290.6,43.5 291,43 291.8,43 C292.6,43 293,43.5 293,44.5 L293,73.4 C293,75.9 292.5,77.7 291.6,78.9 C290.7,80.1 289.2,80.6 287.2,80.6 L279.4,80.6 C277.5,80.7 276,80.1 275.1,78.9 Z M314.4,66.7 C312.9,64.8 312.1,61.9 312.1,57.9 L312.1,45.2 C312.1,41.1 312.8,38.2 314.3,36.4 C315.8,34.6 318.2,33.6 321.4,33.6 L326.9,33.6 C329.7,33.6 331.7,34.3 333.1,35.7 C334.5,37.1 335.2,39.4 335.4,42.6 C335.5,43.6 335.1,44.1 334.2,44.1 C333.5,44.1 333.1,43.6 333,42.6 C332.9,40.3 332.4,38.7 331.5,37.8 C330.6,36.9 329.1,36.4 326.9,36.4 L321.4,36.4 C319.7,36.4 318.3,36.7 317.3,37.2 C316.3,37.8 315.6,38.7 315.1,39.9 C314.6,41.1 314.4,42.9 314.4,45.1 L314.4,57.8 C314.4,60 314.6,61.7 315.1,63 C315.6,64.3 316.3,65.1 317.3,65.7 C318.3,66.3 319.7,66.5 321.5,66.5 L326.9,66.5 C329,66.5 330.6,66.1 331.5,65.2 C332.4,64.3 332.9,62.7 333,60.4 C333.1,59.4 333.5,58.9 334.2,58.9 C335,58.9 335.4,59.4 335.4,60.4 C335.2,63.6 334.5,65.8 333.1,67.3 C331.7,68.8 329.7,69.4 326.9,69.4 L321.5,69.4 C318.3,69.5 315.9,68.6 314.4,66.7 Z M344.3,67.7 C343.3,66.5 342.8,64.6 342.8,62 L342.8,32.4 C342.8,31.4 343.2,30.9 344,30.9 C344.8,30.9 345.2,31.4 345.2,32.4 L345.2,62 C345.2,63.8 345.5,65.1 346,65.7 C346.5,66.4 347.6,66.7 349,66.7 C349.8,66.7 350.2,67.2 350.2,68.2 C350.2,68.7 350.1,69 349.9,69.3 C349.7,69.5 349.4,69.7 349,69.7 C346.9,69.5 345.3,68.9 344.3,67.7 Z M356.8,57.4 L356.8,59.5 C356.8,62.1 357.2,64 358.1,65 C359,66 360.5,66.6 362.6,66.6 L366.3,66.6 C368.2,66.6 369.6,66.3 370.5,65.7 C371.4,65.1 371.9,64 372,62.5 C372.2,61.6 372.6,61.1 373.2,61.1 C373.6,61.1 373.9,61.2 374.1,61.5 C374.3,61.8 374.4,62.1 374.3,62.6 C374.1,64.9 373.3,66.7 372,67.8 C370.7,68.9 368.8,69.5 366.2,69.5 L362.5,69.5 C359.7,69.5 357.6,68.7 356.3,67.1 C355,65.5 354.3,63 354.3,59.5 L354.3,53.2 C354.3,49.7 355,47.1 356.3,45.5 C357.6,43.9 359.7,43.1 362.5,43.1 L366.2,43.1 C369,43.1 371.1,43.9 372.4,45.5 C373.7,47.1 374.4,49.7 374.4,53.1 L374.4,55.9 C374.4,56.9 374,57.4 373.2,57.4 L356.8,57.4 Z M356.8,54.5 L372,54.5 L372,53.2 C372,50.5 371.6,48.7 370.7,47.6 C369.9,46.6 368.4,46 366.2,46 L362.5,46 C360.3,46 358.8,46.5 358,47.5 C357.2,48.5 356.7,50.4 356.7,53.1 L356.7,54.5 L356.8,54.5 Z M398.8,45.6 C400.1,47.2 400.7,49.7 400.7,53.2 L400.7,68 C400.7,69 400.3,69.5 399.5,69.5 C398.7,69.5 398.3,69 398.3,68 L398.3,65.3 C397.6,66.7 396.6,67.7 395.3,68.4 C394,69.1 392.4,69.5 390.6,69.5 L388.1,69.5 C385.8,69.5 384.1,68.8 383,67.5 C381.9,66.2 381.4,64 381.4,61.1 C381.4,58.2 381.9,56.1 383,54.7 C384.1,53.3 385.8,52.7 388.1,52.7 L398.4,52.7 C398.3,50.2 397.9,48.5 397,47.5 C396.2,46.5 394.7,46 392.6,46 L390,46 C388.1,46 386.7,46.3 385.8,46.8 C384.9,47.3 384.4,48.2 384.2,49.4 C384.1,49.9 383.9,50.2 383.7,50.4 C383.5,50.6 383.3,50.7 382.9,50.7 C382.5,50.7 382.2,50.6 382,50.3 C381.8,50 381.7,49.7 381.8,49.2 C382,47.1 382.8,45.5 384.1,44.6 C385.4,43.7 387.4,43.1 390,43.1 L392.6,43.1 C395.4,43.2 397.5,44 398.8,45.6 Z M398.4,60.6 L398.4,55.6 L388.1,55.6 C386.4,55.6 385.3,56 384.6,56.8 C384,57.6 383.7,59 383.7,61.1 C383.7,63.1 384,64.6 384.7,65.4 C385.3,66.2 386.5,66.6 388.2,66.6 L390.7,66.6 C395.4,66.6 397.9,64.7 398.4,61 L398.4,60.6 Z M420.9,44.6 C420.9,45.6 420.5,46.1 419.7,46.1 C417,46.1 414.9,46.9 413.4,48.4 C411.9,49.9 411.1,52.1 411,54.9 C411,55.1 411,55.2 411,55.3 L411,68 C411,69 410.6,69.5 409.8,69.5 C409,69.5 408.6,69 408.6,68 L408.6,44.6 C408.6,43.6 409,43.1 409.8,43.1 C410.6,43.1 411,43.6 411,44.6 L411,49.1 C411.8,47.2 412.9,45.7 414.4,44.7 C415.9,43.7 417.7,43.2 419.7,43.2 C420.5,43.2 420.9,43.6 420.9,44.6 Z" id="Combined-Shape"></path>
        </g>
    </g>
</svg>