<?xml version="1.0" encoding="utf-8"?>
<!-- Generator: Adobe Illustrator 28.2.0, SVG Export Plug-In . SVG Version: 6.00 Build 0)  -->
<svg version="1.1" id="Layer_1" xmlns="http://www.w3.org/2000/svg" xmlns:xlink="http://www.w3.org/1999/xlink" x="0px" y="0px"
	 viewBox="0 0 437 104" style="enable-background:new 0 0 437 104;" xml:space="preserve">
<style type="text/css">
	.st0{stroke:#000000;stroke-miterlimit:10;}
</style>
<g id="Mockups">
	<g id="cc_symbol" transform="translate(-0.000000, 0.000000)">
		<path id="Combined-Shape" class="st0" d="M87.2,20.4c1,1.5,1.2,3.4,0.7,5.1l-1.2,3.2c-0.2,0.5-0.3,1.1-0.4,1.7l-0.1,3.4
			c-0.1,1.9-1,3.5-2.5,4.5L80.9,40c-0.5,0.3-0.9,0.7-1.3,1.2l-2.1,2.7c-1.1,1.4-2.9,2.2-4.7,2.1l-3.4-0.2c-0.6,0-1.2,0-1.7,0.2
			L64.5,47c-1.7,0.5-3.6,0.1-5-1l-1.9-1.5c-1.7-1.2-3.7-1.8-5.7-1.8c-5.2,0-9.3,4.2-9.3,9.3c0,5.2,4.2,9.3,9.3,9.3
			c1.6,0,3.2-0.3,4.7-0.9l0.1-0.1l2.9-1.7c1.6-0.9,3.5-1,5.1-0.3l3.1,1.4c0.6,0.3,1.1,0.4,1.7,0.5l3.3,0.3c1.8,0.2,3.4,1.2,4.3,2.8
			l1.7,2.9c0.3,0.5,0.7,1,1.1,1.4l2.5,2.2c1.4,1.2,2,3,1.9,4.8l-0.4,3.3c-0.1,0.6,0,1.1,0.1,1.7l0.7,3.3c0.4,1.8-0.1,3.6-1.3,5
			l-2.3,2.5c-0.4,0.4-0.7,0.9-0.9,1.5L79,95.2c-0.7,1.7-2.2,2.9-4,3.2l-3.3,0.7c-0.6,0.1-1.1,0.3-1.6,0.6l-2,1.2
			c-1,1-2.4,1.5-3.8,1.5l-3.4-0.1c-0.6,0-1.2,0.1-1.7,0.3l-2.3,0.7c-0.8,0.5-1.8,0.7-2.7,0.7c-0.4,0-0.9-0.1-1.3-0.2l-3.3-0.8
			c-0.6-0.1-1.1-0.2-1.7-0.1l-2.4,0.2c-0.5,0.2-1,0.2-1.6,0.2c-0.9,0-1.8-0.2-2.5-0.6l-3-1.5c-0.5-0.3-1.1-0.5-1.7-0.5l-2.3-0.3
			h-0.4c-1.3,0-2.6-0.4-3.6-1.3l-2.6-2.1c-0.5-0.4-0.9-0.7-1.5-0.9L24,95.2c-1.4-0.2-2.7-1-3.5-2.1l-2-2.7c-0.4-0.5-0.8-0.8-1.3-1.2
			l-2-1.3c-1.3-0.6-2.4-1.6-3-2.9l-1.4-3.1c-0.3-0.5-0.6-1-1-1.4l-1.6-1.7c-1.2-0.8-2-2-2.3-3.4l-0.7-3.3C5,71.6,4.7,71,4.5,70.5
			l-1.2-2c-0.9-1-1.5-2.4-1.5-3.8l0-3.4c0-0.6-0.1-1.2-0.3-1.7l-0.7-2.2c-0.7-1.2-0.9-2.7-0.6-4.1L1,49.9c0.1-0.6,0.2-1.1,0.1-1.7
			l-0.2-2.4c-0.4-1.4-0.3-2.9,0.3-4.1l1.5-3C3,38.2,3.2,37.6,3.3,37l0.3-2.3c-0.1-1.4,0.3-2.8,1.2-3.9L7,28.1
			c0.4-0.5,0.7-0.9,0.9-1.5l0.8-2.2c0.2-1.4,0.9-2.7,2.1-3.6l2.7-2.1c0.5-0.4,0.8-0.8,1.2-1.3l1.3-2c0.5-1.3,1.5-2.4,2.8-3l3.1-1.5
			c0.5-0.3,1-0.6,1.4-1l1.7-1.7c0.8-1.2,2-2,3.4-2.3l3.3-0.7c0.6-0.1,1.1-0.4,1.6-0.7l2-1.2C36.3,2.5,37.6,2,39,2h0l3.4,0
			C43,2,43.6,2,44.2,1.8L46.4,1c1.2-0.7,2.7-0.9,4.1-0.6l3.3,0.8c0.6,0.2,1.1,0.2,1.7,0.1l2.4-0.2c1.4-0.4,2.9-0.3,4.1,0.3l3,1.5
			c0.5,0.3,1.1,0.4,1.7,0.5L69,3.6C70.4,3.5,71.9,4,73,4.8L75.6,7c0.5,0.4,1,0.7,1.5,0.8l3.2,1.1c1.7,0.6,3,2,3.5,3.8l0.9,3.2
			c0.1,0.6,0.4,1.1,0.7,1.6L87.2,20.4z M80.3,23.3c-0.1-0.6-0.1-1.2-0.1-1.8l0.5-3.3c0.2-1.7-0.4-3.4-1.6-4.6l-2.4-2.3
			c-0.5-0.4-0.8-0.9-1.1-1.5l-1.6-3c-0.8-1.5-2.3-2.6-4-2.8l-1-0.1c-0.3,0-0.7,0.1-1,0.2l-2.6,0.7l0.5,0.6c0.4,0.4,0.8,0.8,1.3,1.1
			L70,8.2c1.6,0.9,2.6,2.5,2.8,4.4l0.3,3.4c0,0.6,0.2,1.2,0.4,1.7l1.4,3.1c0.7,1.7,0.6,3.6-0.3,5.2l-1.8,2.9c-0.3,0.5-0.5,1-0.7,1.6
			l-0.7,3.3c-0.4,1.8-1.6,3.2-3.3,4L65,39c-0.5,0.2-1,0.6-1.5,0.9L61,42.2c-1,0.9-2.3,1.4-3.7,1.4c-0.2,0-0.5,0-0.7,0
			c0.1,0.1,0.2,0.2,0.3,0.2l0.2,0.1l0.9,0.4c1.6,0.7,3.4,0.7,4.9-0.1l3-1.6c0.6-0.3,1.1-0.5,1.7-0.6l3.3-0.6c1.7-0.3,3.2-1.4,3.9-3
			l1.4-3.1c0.3-0.6,0.6-1,1-1.5l2.3-2.4c1.2-1.3,1.7-3,1.4-4.7L80.3,23.3z M67.8,100.7c0.3-0.2,0.5-0.5,0.8-0.8l2-2.7
			c0.4-0.5,0.8-0.9,1.3-1.3l2.8-1.9c1.4-1,2.3-2.6,2.3-4.4l0-3.4c0-0.6,0.1-1.2,0.3-1.8l1.1-3.2c0.6-1.6,0.3-3.4-0.7-4.8l-2-2.7
			c-0.4-0.5-0.7-1-0.8-1.6l-1-3.2c-0.5-1.7-1.8-3-3.4-3.5l-3.2-1.1c-0.6-0.2-1.1-0.5-1.6-0.8l-2.7-2c-1.4-1-3.2-1.4-4.8-0.8l-3,0.9
			l1-0.1c1.8-0.2,3.6,0.6,4.8,2l2.2,2.6c0.4,0.5,0.8,0.8,1.3,1.1l2.9,1.8c1.6,0.9,2.6,2.6,2.7,4.4l0.2,3.4c0,0.6,0.2,1.1,0.4,1.7
			l1.3,3.1c0.7,1.7,0.6,3.6-0.4,5.1l-1.8,2.9c-0.3,0.5-0.5,1-0.6,1.6l-0.8,3.3c-0.4,1.8-1.7,3.2-3.3,3.9l-3.1,1.3
			c-0.6,0.2-1,0.5-1.5,0.9l-0.2,0.1l2,0.9c1.6,0.7,3.4,0.6,4.9-0.3L67.8,100.7z M56.6,103c0.3-0.2,0.6-0.4,0.8-0.6l2.1-1.8l-0.7-0.3
			c-0.6-0.2-1.1-0.4-1.7-0.5l-1.9-0.2c-0.3,0.1-0.7,0.2-1,0.3l-3.3,0.6c-0.6,0.1-1.1,0.3-1.7,0.6l-0.2,0.1l1.8,1.3
			c1.4,1.1,3.2,1.4,4.8,0.8L56.6,103z M44.2,102.9l1-0.1c0.3-0.1,0.6-0.2,0.9-0.4l2.4-1.3l-0.6-0.5c-0.5-0.4-1-0.6-1.5-0.8l-1.8-0.6
			c-0.4,0-0.7,0.1-1.1,0l-3.4-0.2c-0.6-0.1-1.2,0-1.7,0.2l-0.2,0.1l1.4,1.7C40.8,102.3,42.5,103,44.2,102.9z M33.2,99.9l1,0.1
			c0.3,0,0.7-0.1,1-0.2l2.6-0.7l-0.5-0.6c-0.4-0.5-0.8-0.8-1.3-1.1l-1.6-1c-0.4,0-0.7-0.1-1.1-0.2l-3.3-0.9
			c-0.6-0.2-1.1-0.3-1.7-0.2h-0.2l1,1.9C30,98.6,31.5,99.7,33.2,99.9z M24,94.9c0.3,0.1,0.7,0.1,1,0.1l2.7-0.1l-0.4-0.7
			c-0.3-0.5-0.6-1-1-1.4L25,91.5c-0.4-0.1-0.7-0.3-1-0.4l-3-1.7c-0.5-0.3-1-0.5-1.6-0.6l-0.2,0l0.6,2.1c0.5,1.7,1.7,3.1,3.3,3.7
			L24,94.9z M14.3,87.1l0.8,0.5c0.3,0.1,0.7,0.2,1,0.3l2.7,0.5l-0.2-0.7c-0.2-0.6-0.4-1.1-0.7-1.6l-1-1.6c-0.3-0.2-0.6-0.4-0.9-0.7
			l-2.5-2.2c-0.4-0.4-0.9-0.7-1.5-0.9l-0.2-0.1l0.1,2.2C12,84.6,12.9,86.2,14.3,87.1z M7.5,78l0.7,0.7c0.3,0.2,0.6,0.4,0.9,0.5
			l2.5,1.1l0-0.7c0-0.6-0.1-1.1-0.3-1.7l-0.7-1.8c-0.3-0.2-0.5-0.5-0.7-0.8l-2-2.8c-0.4-0.5-0.7-0.9-1.2-1.2l-0.2-0.1l-0.4,2.1
			C5.8,74.9,6.3,76.7,7.5,78z M3.4,68.3c0.2,0.3,0.5,0.5,0.8,0.7l2.2,1.6l0.2-0.7c0.1-0.6,0.1-1.2,0.1-1.8l-0.3-1.9
			c-0.2-0.3-0.4-0.7-0.5-1l-1.3-3.1c-0.2-0.5-0.5-1-0.9-1.5l-0.1-0.2l-0.9,2C1.9,64.2,2,66,2.9,67.5L3.4,68.3z M0.7,56.2L1,57.1
			c0.2,0.3,0.4,0.6,0.6,0.8l1.8,2l0.3-0.7c0.2-0.5,0.4-1.1,0.4-1.7l0.2-1.9c-0.1-0.3-0.2-0.7-0.3-1l-0.6-3.3
			c-0.1-0.6-0.3-1.1-0.6-1.6l-0.1-0.2l-1.3,1.8C0.5,52.8,0.2,54.6,0.7,56.2z M1,44.8l0.1,1c0.1,0.3,0.2,0.7,0.4,0.9l1.3,2.4l0.5-0.6
			c0.4-0.5,0.6-1,0.8-1.6l0.6-1.8c-0.1-0.4-0.1-0.7-0.1-1.1l0.2-3.4c0-0.6,0-1.2-0.2-1.7l-0.1-0.2l-1.7,1.4
			C1.6,41.4,0.9,43.1,1,44.8z M3.9,33.7l-0.2,1c0,0.3,0.1,0.7,0.2,1l0.7,2.6l0.6-0.5c0.5-0.4,0.8-0.8,1.1-1.3l1-1.6
			c0-0.4,0.1-0.7,0.2-1.1l0.9-3.2c0.2-0.6,0.2-1.1,0.2-1.7v-0.2l-1.9,1C5.2,30.5,4.2,32,3.9,33.7z M8.8,25.5l0.1,2.8l0.7-0.4
			c0.5-0.3,1-0.6,1.4-1l1.3-1.4c0.1-0.4,0.3-0.7,0.4-1l1.6-3c0.3-0.5,0.5-1,0.6-1.6l0-0.2l-2.1,0.6c-1.7,0.4-3,1.7-3.6,3.3l-0.3,0.9
			C8.8,24.8,8.8,25.1,8.8,25.5z M16.1,15.6c-0.1,0.3-0.2,0.7-0.3,1l-0.5,2.7l0.7-0.2c0.6-0.2,1.1-0.4,1.6-0.7l1.6-1
			c0.2-0.3,0.4-0.6,0.6-0.9l2.2-2.5c0.4-0.4,0.7-0.9,0.9-1.5l0.1-0.2l-2.2,0.1c-1.7,0.1-3.3,0.9-4.3,2.4L16.1,15.6z M25,8.6
			c-0.2,0.3-0.4,0.6-0.5,0.9L23.5,12l0.7,0c0.6,0,1.1-0.2,1.7-0.4l1.8-0.7c0.3-0.3,0.5-0.5,0.8-0.7l2.7-2c0.5-0.4,0.9-0.7,1.2-1.2
			l0.1-0.2l-2.1-0.4c-1.7-0.3-3.4,0.2-4.7,1.4L25,8.6z M35.3,3.7c-0.3,0.3-0.5,0.5-0.6,0.8l-1.6,2.2l0.7,0.1C34.4,7,35,7,35.6,6.9
			l1.9-0.3c0.3-0.2,0.6-0.4,0.9-0.5l3.1-1.3c0.5-0.2,1-0.6,1.5-0.9l0.2-0.1l-2-0.9c-0.7-0.3-1.4-0.5-2.1-0.5c-1,0-1.9,0.3-2.8,0.8
			L35.3,3.7z M46.5,1.2c-0.3,0.2-0.6,0.4-0.8,0.6l-2,1.8L44.3,4c0.6,0.2,1.1,0.4,1.7,0.4l1.9,0.2c0.3-0.1,0.7-0.2,1-0.3l3.3-0.6
			c0.6-0.1,1.1-0.3,1.6-0.6L54,3l-1.8-1.3c-1.4-1-3.2-1.3-4.8-0.8L46.5,1.2z M58.8,1.2l-1,0.1c-0.3,0.1-0.7,0.3-0.9,0.4l-2.4,1.3
			l0.6,0.5c0.5,0.3,1,0.6,1.6,0.8l1.8,0.6c0.4-0.1,0.7-0.1,1.1-0.1l3.3,0.2c0.6,0,1.2,0,1.7-0.2l0.2-0.1L63.4,3
			C62.2,1.7,60.5,1,58.8,1.2z M55.9,43.1l0.3,0c1.7,0.4,3.4-0.1,4.7-1.2l2.5-2.2c0.5-0.4,1-0.7,1.6-1l3.1-1.3
			c1.6-0.7,2.8-2.1,3.1-3.8l0.7-3.3c0.1-0.6,0.4-1.2,0.7-1.7l1.8-2.9c0.9-1.5,1-3.3,0.3-4.9l-1.4-3.1c-0.3-0.6-0.4-1.2-0.5-1.8
			l-0.3-3.4c-0.2-1.7-1.1-3.3-2.6-4.2l-2.9-1.7c-0.5-0.3-1-0.7-1.4-1.2l-0.6-0.7L64.8,5c-0.6,0.2-1.2,0.3-1.8,0.2l-3.4-0.2h-0.3
			h-0.2l0.7,0.2c1.7,0.6,3.1,1.9,3.6,3.6l1,3.2c0.2,0.6,0.4,1.1,0.8,1.6l2,2.7c1.1,1.5,1.4,3.4,0.8,5.1l-1.1,3.2
			c-0.2,0.6-0.3,1.1-0.3,1.7l0,3.4c0,1.8-0.9,3.5-2.3,4.6l-2.7,2c-0.5,0.4-0.9,0.7-1.2,1.2l-2,2.7c-0.9,1.2-2.3,2.1-3.8,2.3l0.5,0.2
			C55.5,42.9,55.7,43,55.9,43.1z M63.9,81.8c-0.1-0.6-0.1-1.2,0-1.9l0.5-3.3c0.3-1.7-0.3-3.4-1.6-4.6l-2.4-2.3
			c-0.5-0.4-0.8-0.9-1.1-1.5l-1.6-3c-0.8-1.5-2.3-2.6-4-2.8L51.6,62c-0.1,0-0.2,0.1-0.4,0.1l0.3,0.1c1.7,0.7,3,2.1,3.4,3.8l0.8,3.3
			c0.2,0.6,0.4,1.1,0.7,1.6l1.9,2.8c1,1.5,1.2,3.4,0.5,5.1l-1.2,3.2c-0.2,0.5-0.3,1.1-0.4,1.7l-0.2,3.4c-0.1,1.8-1.1,3.5-2.6,4.5
			l-2.9,1.8c-0.5,0.3-0.9,0.7-1.3,1.2l-1.1,1.3l0.4,0.7c0.9,1.5,2.4,2.5,4.1,2.7l1.4,0.1c1.3-0.5,2.3-1.4,2.9-2.6l1.5-3
			c0.3-0.6,0.6-1.1,1-1.5l2.4-2.4c1.2-1.2,1.8-3,1.5-4.7L63.9,81.8z M22.5,85.6c-0.3,1.7,0.3,3.4,1.6,4.6l1,1
			c1.3,0.4,2.7,0.3,3.9-0.3l1.3-0.7l-0.2-2.4c0-0.6-0.2-1.1-0.4-1.7l-0.6-1.6l-3.1-0.3c-0.6-0.1-1.1,0-1.7,0.1l-1.7,0.4L22.5,85.6z
			 M16.1,77.5l-0.3,0.7c-0.7,1.6-0.5,3.4,0.5,4.9l0.8,1.2c1.2,0.7,2.6,0.9,3.9,0.6l1.4-0.3l0.4-2.4c0.1-0.6,0.1-1.2,0-1.8l-0.3-1.7
			l-2.9-1c-0.5-0.2-1.1-0.3-1.7-0.3H16.1z M10.3,74.5l0.5,1.3c1,0.9,2.3,1.4,3.6,1.4h1.5l0.9-2.3c0.2-0.5,0.3-1.1,0.4-1.7l0.1-1.7
			L14.7,70c-0.5-0.3-1-0.5-1.6-0.7L11.3,69l-0.4,0.7C9.9,71.1,9.8,72.9,10.3,74.5z M6.4,64.8l0.2,1.4c0.7,1.1,1.9,1.9,3.2,2.2
			l1.4,0.3l1.4-2c0.4-0.5,0.6-1,0.7-1.6l0.5-1.6l-2.2-2.1c-0.4-0.4-0.9-0.7-1.4-1l-1.6-0.7l-0.6,0.5C6.8,61.3,6.2,63,6.4,64.8z
			 M7.6,35c-0.1,1.3,0.3,2.7,1.2,3.7l0.9,1.1l2.3-0.7c0.6-0.2,1.1-0.4,1.6-0.8l1.4-1l-0.4-3c-0.1-0.6-0.2-1.1-0.5-1.7l-0.7-1.6
			l-0.8,0.1c-1.7,0.1-3.3,1.1-4.2,2.6L7.6,35z M12.5,25.6c-0.4,1.3-0.3,2.7,0.3,3.9l0.7,1.3l2.4-0.2c0.6,0,1.2-0.2,1.7-0.4l1.6-0.7
			l0.3-3.1c0-0.6,0-1.2-0.1-1.7l-0.4-1.7L18.1,23c-0.3,0-0.5-0.1-0.8-0.1c-1.5,0-2.9,0.6-3.9,1.7L12.5,25.6z M26.4,14.9l0,1.4
			l2.2,0.9c0.5,0.2,1.1,0.3,1.7,0.4l1.7,0.1l1.6-2.6c0.3-0.5,0.5-1,0.7-1.6l0.4-1.7L34,11.2c-1.4-0.9-3.2-1.2-4.9-0.6l-1.3,0.5
			C26.9,12.2,26.4,13.5,26.4,14.9z M66.6,29.8l0-3.3c0-0.6,0.1-1.2,0.3-1.8l1.1-3.2c0.6-1.7,0.3-3.4-0.8-4.8l-2-2.7
			c-0.4-0.5-0.7-1-0.8-1.6l-1-3.2c-0.5-1.7-1.8-3-3.5-3.5l-1.4-0.5c-1.3,0.2-2.5,0.9-3.3,2l-0.9,1.2l1.2,2.1
			c0.3,0.5,0.7,0.9,1.1,1.3l2.6,2.2c1.4,1.2,2.1,3,1.9,4.8L60.7,22c0,0.6,0,1.2,0.1,1.7l0.8,3.3c0.4,1.8-0.1,3.6-1.3,5l-2.2,2.5
			c-0.4,0.4-0.7,0.9-0.9,1.5l-1.3,3.1c-0.5,1.2-1.5,2.3-2.7,2.9l1.1,0.4c1.7,0,3.2-0.8,4.2-2.2l2-2.7c0.4-0.5,0.8-0.9,1.3-1.3l2.7-2
			C65.8,33.2,66.6,31.5,66.6,29.8z M45.5,91l0.1,0c1.6-0.6,2.9-1.9,3.3-3.6l0.9-3.2c0.2-0.6,0.4-1.1,0.8-1.7l1.9-2.8
			c1-1.4,1.2-3.2,0.6-4.9L52,71.6c-0.2-0.6-0.4-1.2-0.4-1.8l-0.1-3.4c0-1.4-0.6-2.7-1.6-3.6c-0.5,0.3-0.9,0.7-1.3,1.2
			c0.1,0.7,0.1,1.4,0,2.1l-0.7,3.3c-0.1,0.6-0.1,1.1-0.1,1.7l0.5,3.3c0.2,1.8-0.4,3.6-1.8,4.8l-2.5,2.3C43.7,82,43.3,82.5,43,83
			l-0.3,0.5l-0.2,1.9c-0.2,1.7,0.5,3.4,1.8,4.6L45.5,91z M37,88.6L37,88.6c1.8-0.2,3.3-1.2,4.2-2.8l1.3-2.4l0.2-1.4
			c0.1-0.6,0-1.1-0.1-1.7L41.8,77c0-0.1-0.1-0.3-0.1-0.4c-0.3,0.3-0.7,0.6-1.1,0.8l-2.9,1.7c-0.5,0.3-0.9,0.7-1.3,1.1L36,80.7
			l-0.6,1.8c-0.6,1.6-0.3,3.4,0.7,4.8L37,88.6z M22.4,77.1l0.3,1.5l0.2,0.1c1.6,0.6,3.4,0.3,4.8-0.7l2.2-1.6l0.7-1.2
			c0.3-0.5,0.5-1,0.6-1.6l0.8-3.3c0-0.1,0.1-0.2,0.1-0.3c-0.5,0.1-0.9,0.2-1.3,0.3l-3.4,0.3c-0.6,0.1-1.1,0.2-1.7,0.4l-0.6,0.2
			l-1.4,1.4C22.7,73.7,22.1,75.4,22.4,77.1z M19.4,29.9c-0.2,1.7,0.5,3.4,1.8,4.6l2.1,1.8l1.3,0.5c0.5,0.2,1.1,0.3,1.7,0.3h3.4
			c0.1,0,0.2,0,0.4,0c-0.3-0.4-0.5-0.8-0.6-1.2l-1-3.2C28.3,32,28,31.4,27.7,31l-0.4-0.5l-1.6-1c-1.5-0.9-3.3-1-4.9-0.3l-1.4,0.6
			V29.9z M25.2,23.1l-0.1,0.2c-0.6,1.6-0.3,3.4,0.7,4.8l1.6,2.2l1.2,0.7c0.5,0.3,1,0.5,1.6,0.6l3.3,0.7c0.1,0,0.2,0.1,0.3,0.1
			c-0.2-0.4-0.3-0.8-0.3-1.3l-0.3-3.4c0-0.6-0.2-1.2-0.4-1.7l-0.2-0.6l-1.4-1.3c-1.2-1.2-3-1.8-4.7-1.4L25.2,23.1z M32.3,17.9
			L32.1,18c-0.9,1.5-1,3.3-0.3,4.9l1.1,2.5l1,1c0.4,0.4,0.9,0.7,1.4,1l3.1,1.5c0.1,0.1,0.2,0.1,0.3,0.2c0-0.4,0-0.9,0-1.3l0.5-3.3
			c0.1-0.6,0.1-1.2,0-1.8L39.1,22l-1-1.6c-0.9-1.5-2.5-2.4-4.3-2.4L32.3,17.9z M40.3,14.4l-0.1,0.1c-1.2,1.3-1.7,3-1.4,4.7l0.5,2.7
			l0.8,1.2c0.3,0.5,0.7,0.9,1.2,1.3l2.7,2.1c0.1,0.1,0.2,0.2,0.3,0.2c0.1-0.5,0.2-0.9,0.3-1.3l1.2-3.2c0.2-0.5,0.3-1.1,0.3-1.7
			l0-0.6l-0.7-1.8c-0.6-1.6-2-2.9-3.6-3.3L40.3,14.4z M49,12.8l-0.1,0.1c-1.5,1-2.3,2.6-2.4,4.3l-0.1,2.7l0.5,1.3
			c0.2,0.6,0.5,1.1,0.8,1.5l2.1,2.6c1.1,1.4,1.5,3.3,1,5l-0.9,3.2c-0.2,0.6-0.2,1.1-0.2,1.7l0.2,3.4c0,0.4,0,0.8-0.1,1.2
			c0.4,0.5,0.9,1,1.5,1.3c0.7-0.7,1.2-1.7,1.3-2.7l0.6-3.3c0.1-0.6,0.3-1.2,0.6-1.7l1.6-3c0.8-1.5,0.8-3.3,0.1-4.9l-1.5-3
			c-0.3-0.6-0.5-1.1-0.5-1.8l-0.4-3.3c-0.2-1.7-1.3-3.2-2.8-4L49,12.8z M43.3,72.3c-0.9,1-1.3,2.3-1.3,3.7c0.7-0.8,1.1-1.9,1.2-2.9
			L43.3,72.3z M40.2,45.3c0.3,0.3,0.6,0.5,0.9,0.8c0.7,0,1.3-0.1,2-0.3c-0.1-0.6-0.3-1.2-0.6-1.7c-0.6-0.2-1.3-0.5-1.9-0.9l-2.7-2
			c-0.5-0.3-1-0.6-1.6-0.8l-1.7-0.5l1.6,2.2c0.4,0.5,0.7,0.9,1.2,1.2L40.2,45.3z M47,39.5c0.1,0.4,0.2,0.8,0.2,1.2
			c0.5,0.5,1.1,0.8,1.7,1c0.3-0.5,0.5-1.1,0.6-1.7c-0.4-0.6-0.7-1.2-0.9-1.9l-0.9-3.2c-0.1-0.6-0.4-1.1-0.7-1.6l-1-1.5l-0.1,2.7
			c0,0.6,0,1.2,0.2,1.7L47,39.5z M44.4,27.3c0,1.1,0.3,2.1,0.9,3.1l0.5,0.6C45.8,29.6,45.3,28.3,44.4,27.3z M46.8,60.6l-0.3-0.2
			l0.2,0.2H46.8z M46.3,60.6l-0.8-0.8c-0.1-0.1-0.2-0.1-0.4-0.2l0.2,0.3c0.2,0.2,0.3,0.5,0.4,0.7C45.9,60.6,46.1,60.6,46.3,60.6z
			 M45,59.3L44.8,59L45,59.3L45,59.3z M43.7,58.2c0.1,0.3,0.2,0.5,0.2,0.8c0.2,0,0.4,0.1,0.6,0.1l-0.6-1l-0.3-0.2L43.7,58.2z
			 M43.6,57.6l-0.2-0.3L43.6,57.6L43.6,57.6z M42,53.8l0,0.3c-0.1,0.3-0.1,0.6-0.2,0.8c0.2,0.1,0.4,0.2,0.5,0.4l-0.1-1.1
			C42.1,54,42,53.9,42,53.8z M41.8,51.5l-0.1,0.3c-0.1,0.3-0.2,0.5-0.4,0.8c0.1,0.1,0.3,0.3,0.4,0.5l0.2-1.1
			C41.9,51.8,41.9,51.7,41.8,51.5z M42,53.1l0,0.3c0,0,0,0.1,0.1,0.1L42,53.1z M42.3,55.6c-0.2-0.2-0.4-0.3-0.6-0.5
			c-0.2,0.6-0.5,1.1-0.8,1.6c0.6,0,1.1,0.1,1.6,0.3c0-0.2,0-0.5,0-0.7L42.3,55.6z M42.6,56.2c0,0.3,0,0.6,0,0.9
			c0.2,0.1,0.4,0.1,0.6,0.2l-0.4-1.1c-0.1-0.1-0.2-0.2-0.3-0.3L42.6,56.2z M42.5,55.5L42.5,55.5l0-0.3L42.5,55.5z M42,51.3l0.1-0.3
			L42,51.3C42,51.2,42,51.2,42,51.3z M41.8,50.8l0.4-1.1c0-0.1,0-0.3,0-0.4l-0.2,0.3c-0.2,0.3-0.3,0.5-0.5,0.7
			C41.6,50.4,41.7,50.6,41.8,50.8z M42.4,49.1l0.1-0.4L42.4,49C42.4,49,42.4,49.1,42.4,49.1z M43.4,46.6l0.8-0.8
			c0.1-0.1,0.1-0.2,0.2-0.4l-0.3,0.2c-0.2,0.2-0.5,0.3-0.7,0.4C43.4,46.2,43.4,46.4,43.4,46.6z M43.1,46.8V46
			c-0.6,0.2-1.2,0.3-1.8,0.3c0.3,0.4,0.6,0.9,0.8,1.4c0.2-0.1,0.4-0.3,0.6-0.5L43.1,46.8z M42.8,47.5c-0.2,0.2-0.4,0.4-0.6,0.6
			c0.1,0.2,0.1,0.4,0.2,0.6l0.6-1c0-0.1,0.1-0.2,0.1-0.4L42.8,47.5z M43.4,47.1l0.2-0.3L43.4,47V47.1z M44.7,45.3l0.3-0.3l-0.2,0.1
			C44.7,45.2,44.7,45.3,44.7,45.3z M44.8,44.8l1-0.6c0.1-0.1,0.2-0.2,0.2-0.3L45.7,44c-0.3,0.1-0.5,0.2-0.8,0.2
			C44.9,44.4,44.8,44.6,44.8,44.8z M46.3,43.9l0.3-0.2L46.3,43.9L46.3,43.9z M46.6,43.4l1.1-0.4c0.1-0.1,0.2-0.2,0.3-0.3l-0.3,0
			c-0.3,0-0.6,0-0.8,0C46.8,43,46.7,43.2,46.6,43.4z M48.3,42.9l0.3-0.1L48.3,42.9L48.3,42.9z M50.4,42.3l0.4,0L50.4,42.3L50.4,42.3
			z M49.8,42.4c0.1-0.1,0.2-0.1,0.3-0.2l-0.3,0c-0.3,0-0.6-0.1-0.8-0.2c-0.1,0.2-0.2,0.3-0.4,0.5L49.8,42.4z M49.9,41.9l0.6,0.1
			c0.2-0.2,0.4-0.3,0.6-0.5c-0.5-0.3-1-0.7-1.4-1.2c-0.1,0.5-0.3,1-0.6,1.5C49.4,41.8,49.7,41.8,49.9,41.9z M48.8,41.9
			c-0.6-0.2-1.1-0.5-1.6-0.8c0,0.6-0.1,1.1-0.2,1.6c0.3,0,0.5,0,0.7,0l0.6-0.1C48.5,42.3,48.6,42.1,48.8,41.9z M46.6,42.6
			c0.2-0.6,0.3-1.1,0.2-1.8c-0.5-0.5-1-1-1.3-1.6l-1.6-3c-0.3-0.5-0.6-1-1-1.4l-1.3-1.2l0.5,2.7c0.1,0.6,0.3,1.1,0.6,1.7l1.6,3
			c0.2,0.4,0.4,0.7,0.5,1.1C45.3,42.3,46,42.5,46.6,42.6z M46.5,42.8c-0.6-0.1-1.2-0.2-1.8-0.5c0.1,0.5,0.2,1,0.1,1.6
			c0.3,0,0.5-0.1,0.7-0.2l0.6-0.2C46.3,43.3,46.4,43.1,46.5,42.8z M44.7,44c0.1-0.6,0-1.2-0.1-1.7c-0.6-0.3-1.2-0.8-1.6-1.3
			l-2.2-2.6c-0.4-0.4-0.8-0.8-1.3-1.1l-1.5-0.9l1,2.5c0.2,0.5,0.5,1,0.9,1.5l2.2,2.5c0.3,0.3,0.5,0.7,0.7,1C43.3,44,44,44.1,44.7,44
			z M44,44.3c-0.4,0-0.7,0-1.1-0.1c0.2,0.5,0.4,1,0.5,1.5c0.2-0.1,0.5-0.2,0.6-0.3l0.5-0.3c0.1-0.3,0.1-0.5,0.2-0.8
			C44.4,44.3,44.2,44.3,44,44.3z M41,46.4c-0.7,0-1.4-0.2-2-0.5l-3.1-1.3c-0.6-0.2-1.1-0.4-1.7-0.4l-1.8-0.2l2,1.8
			c0.4,0.4,0.9,0.7,1.5,0.9L39,48c0.4,0.2,0.7,0.4,1.1,0.6c0.6-0.1,1.3-0.4,1.8-0.7C41.6,47.4,41.3,46.8,41,46.4z M42,48.2
			c-0.5,0.3-1.1,0.6-1.7,0.7c0.4,0.3,0.8,0.7,1.1,1.1c0.2-0.2,0.3-0.4,0.5-0.6l0.3-0.5C42.1,48.7,42.1,48.4,42,48.2z M41.2,50.2
			c-0.3-0.5-0.7-0.9-1.2-1.3C39.7,49,39.3,49,39,49c-0.4,0-0.7,0-1-0.1l-3.3-0.6c-0.6-0.1-1.2-0.1-1.8,0l-1.8,0.3l2.3,1.3
			c0.5,0.3,1,0.5,1.6,0.6l3.3,0.6c0.4,0.1,0.8,0.2,1.2,0.4C40.2,51.1,40.7,50.7,41.2,50.2z M41.3,50.5c-0.4,0.4-0.9,0.8-1.4,1.1
			c0.5,0.2,0.9,0.5,1.3,0.9c0.1-0.2,0.2-0.4,0.3-0.7l0.2-0.6C41.6,50.9,41.4,50.7,41.3,50.5z M41,52.7c-0.4-0.4-0.9-0.7-1.5-1
			c-0.7,0.3-1.3,0.4-2,0.5l-3.4,0.1c-0.6,0-1.1,0.2-1.7,0.4l-1.7,0.6l2.6,0.8c0.6,0.2,1.1,0.2,1.7,0.2l3.4-0.1c0.4,0,0.8,0,1.2,0.1
			C40.2,53.7,40.7,53.2,41,52.7z M41.2,52.8c-0.3,0.5-0.7,1-1.2,1.4c0.5,0.1,1,0.3,1.5,0.6c0.1-0.2,0.1-0.5,0.2-0.7l0.1-0.6
			C41.6,53.2,41.4,53,41.2,52.8z M41.4,55c-0.5-0.3-1.1-0.5-1.7-0.6c-0.6,0.4-1.2,0.7-1.9,0.9l-3.2,0.9c-0.6,0.2-1.1,0.4-1.6,0.7
			l-1.5,1l2.7,0.2c0.6,0,1.2,0,1.7-0.2l3.2-0.9c0.4-0.1,0.8-0.2,1.2-0.2C40.9,56.3,41.2,55.6,41.4,55z M40.6,57
			c-0.4,0.5-1,0.9-1.6,1.3l-3,1.6c-0.5,0.3-1,0.6-1.4,1l-1.2,1.3l2.7-0.4c0.6-0.1,1.1-0.3,1.7-0.6l3-1.6c0.4-0.2,0.7-0.4,1.1-0.5
			c0.3-0.6,0.5-1.2,0.6-1.9C41.7,57.1,41.1,57,40.6,57z M42.6,57.4c-0.1,0.6-0.2,1.2-0.5,1.7c0.5-0.1,1-0.1,1.6-0.1
			c0-0.3-0.1-0.5-0.2-0.7l-0.2-0.6C43.1,57.6,42.8,57.5,42.6,57.4z M43.3,59.2c-0.4,0-0.9,0-1.3,0.2c-0.3,0.6-0.8,1.1-1.3,1.6
			l-2.6,2.2c-0.5,0.4-0.8,0.8-1.1,1.3L36,66.1l2.5-1c0.6-0.2,1-0.5,1.5-0.9l2.5-2.2c0.3-0.3,0.6-0.5,1-0.7c0.2-0.7,0.2-1.3,0.1-2
			C43.5,59.2,43.4,59.2,43.3,59.2z M44,59.3c0.1,0.6,0.1,1.2-0.1,1.8c0.5-0.2,1-0.4,1.5-0.5c-0.1-0.2-0.2-0.5-0.3-0.7l-0.3-0.5
			C44.5,59.4,44.2,59.3,44,59.3z M45.5,60.9c-0.6,0.1-1.2,0.3-1.7,0.5c-0.2,0.7-0.5,1.3-0.9,1.9l-2,2.7c-0.4,0.5-0.6,1-0.8,1.6
			l-0.6,1.7l2.2-1.5c0.5-0.3,0.9-0.7,1.2-1.2l2-2.7c0.3-0.4,0.6-0.6,0.8-0.9C45.8,62.2,45.7,61.5,45.5,60.9z M45.8,60.9
			c0.2,0.6,0.3,1.2,0.3,1.8c0.4-0.3,0.9-0.6,1.4-0.8c-0.1-0.2-0.3-0.4-0.5-0.6l-0.4-0.5C46.3,60.8,46,60.8,45.8,60.9z M46.1,63
			c0,0.7-0.2,1.4-0.5,2l-1.4,3.1c-0.3,0.6-0.4,1.1-0.5,1.7l-0.2,1.8l1.8-2c0.4-0.4,0.7-0.9,0.9-1.5l1.3-3.1c0.2-0.4,0.4-0.7,0.6-1
			c-0.1-0.7-0.4-1.3-0.7-1.9C47.1,62.3,46.5,62.6,46.1,63z M47.9,62c0.3,0.5,0.6,1,0.7,1.6c0.4-0.4,0.7-0.7,1.2-1
			c-0.2-0.2-0.4-0.3-0.6-0.5l-0.5-0.3C48.4,61.9,48.1,61.9,47.9,62z M47.7,61.8c0.2-0.1,0.4-0.1,0.6-0.1L47.4,61
			c-0.1,0-0.2-0.1-0.4-0.1l0.2,0.2C47.4,61.3,47.5,61.6,47.7,61.8z M48.5,61.4l0.2,0.2l0.1,0L48.5,61.4z M52.7,42.2l0.4,0.1
			l-0.2-0.1L52.7,42.2z M52,42.2c0.1,0,0.3-0.1,0.4-0.1L52.1,42c-0.3-0.1-0.5-0.2-0.8-0.4c-0.1,0.2-0.3,0.3-0.5,0.4L52,42.2z
			 M46.6,21.3l-0.3-0.6c0,0.6-0.2,1.2-0.4,1.7l-1.2,3.2c-0.2,0.5-0.3,1-0.3,1.5c1.1,1.1,1.7,2.7,1.6,4.2v0.2l1.2,1.8
			c0.3,0.5,0.6,1.1,0.7,1.7l0.9,3.2c0.2,0.5,0.4,1,0.7,1.5c0-0.3,0-0.6,0-0.9l-0.2-3.4c0-0.6,0-1.2,0.2-1.8l0.9-3.2
			c0.5-1.7,0.1-3.5-1-4.8l-2.1-2.6C47.1,22.4,46.8,21.9,46.6,21.3z M39.9,23.2l-0.4-0.6c0.1,0.6,0.1,1.2,0,1.8L39,27.7
			c-0.1,0.5-0.1,1,0,1.5c1.3,0.8,2.2,2.2,2.5,3.8l0,0.2l1.6,1.5c0.5,0.4,0.8,0.9,1.1,1.5l1.6,3c0.3,0.5,0.6,0.9,1,1.3
			c0-0.3-0.1-0.6-0.2-0.9l-0.9-3.2c-0.2-0.6-0.2-1.2-0.2-1.8l0.2-3.1l-0.7-0.9c-0.7-1-1-2.2-0.9-3.5c-0.1-0.1-0.3-0.3-0.4-0.4
			l-2.6-2.1C40.6,24.2,40.2,23.8,39.9,23.2z M41.2,32.9c-0.3-1.3-1-2.5-2.1-3.3c0.2,1,0.8,2,1.6,2.8L41.2,32.9z M33.8,26.6l-0.5-0.5
			c0.2,0.5,0.4,1.1,0.4,1.7l0.3,3.4c0,0.5,0.2,1,0.3,1.5c1.5,0.5,2.7,1.7,3.3,3.1l0.1,0.2l1.8,1.1c0.5,0.3,1,0.7,1.4,1.2l2.2,2.6
			c0.4,0.4,0.8,0.8,1.3,1.1c-0.1-0.3-0.2-0.6-0.4-0.8l-1.6-3c-0.3-0.5-0.5-1.1-0.6-1.7l-0.5-3l-0.8-0.8c-0.9-0.8-1.5-2-1.7-3.2
			c-0.2-0.1-0.3-0.2-0.5-0.3l-3.1-1.5C34.7,27.4,34.2,27,33.8,26.6z M37.2,35.7c-0.6-1.2-1.6-2.2-2.8-2.7c0.5,1,1.2,1.8,2.1,2.3
			L37.2,35.7z M28.6,31.3l-0.6-0.3c0.3,0.5,0.6,1,0.8,1.6l1,3.2c0.2,0.5,0.4,0.9,0.7,1.3c1.6,0.2,3,1,3.9,2.3l0.1,0.2l2,0.6
			c0.6,0.2,1.1,0.5,1.6,0.8l2.7,2c0.5,0.4,0.9,0.6,1.5,0.8c-0.2-0.3-0.3-0.5-0.5-0.7l-2.2-2.5c-0.4-0.5-0.7-1-1-1.6l-1.2-2.8l-1-0.6
			c-1-0.7-1.9-1.6-2.3-2.7c-0.2-0.1-0.4-0.1-0.5-0.2l-3.3-0.7C29.7,31.8,29.1,31.6,28.6,31.3z M34,39.4c-0.8-1.1-2-1.9-3.3-2
			c0.7,0.8,1.6,1.5,2.6,1.8L34,39.4z M24.5,37l-0.7-0.3c0.4,0.4,0.8,0.8,1.1,1.4l1.7,2.9c0.3,0.4,0.6,0.8,0.9,1.2
			c1.6-0.2,3.1,0.4,4.3,1.4l0.2,0.2l2.1,0.2c0.6,0.1,1.2,0.2,1.8,0.5l3.1,1.4c0.5,0.2,1.1,0.4,1.6,0.4c-0.2-0.2-0.5-0.4-0.7-0.6
			l-2.7-2c-0.5-0.4-0.9-0.8-1.3-1.3l-1.8-2.5l-1.1-0.4c-1.2-0.4-2.2-1.1-2.9-2.1c-0.2,0-0.3,0-0.5,0h-3.4
			C25.7,37.2,25.1,37.1,24.5,37z M31.6,43.6c-1-0.9-2.4-1.3-3.7-1.3c0.8,0.7,1.9,1.1,3,1.2L31.6,43.6z M23.6,36.9l-0.5-0.4l-1.8-0.6
			c-1.6-0.6-3.4-0.3-4.8,0.7l-1.2,0.9l0,0.2c0.2,1.7,1.3,3.2,2.8,4l2.4,1.3l1.4,0.2c0.6,0.1,1.1,0,1.7-0.1l3.3-0.7
			c0.1,0,0.3,0,0.4-0.1c-0.3-0.3-0.6-0.7-0.8-1.1l-1.7-2.9C24.4,37.7,24,37.2,23.6,36.9z M21.8,43.4l-0.8,0c0.5,0.3,1,0.7,1.4,1.1
			l2.3,2.5c0.4,0.4,0.7,0.7,1.2,0.9c1.5-0.5,3.2-0.4,4.5,0.4l0.2,0.1l2.1-0.3c0.6-0.1,1.2-0.1,1.8,0l3.3,0.6c0.6,0.1,1.1,0.1,1.7,0
			c-0.3-0.2-0.5-0.3-0.8-0.4L35.7,47c-0.6-0.2-1.1-0.6-1.5-1l-2.3-2l-1.1-0.1c-1.2-0.1-2.4-0.6-3.3-1.4c-0.2,0-0.4,0.1-0.5,0.1
			l-3.3,0.7C23.1,43.4,22.5,43.4,21.8,43.4z M30.3,48.3c-1.2-0.6-2.6-0.7-3.9-0.4c1,0.5,2.1,0.7,3.2,0.5L30.3,48.3z M20.9,43.5
			l-0.5-0.3L18.5,43c-1.7-0.2-3.4,0.5-4.6,1.8l-1,1.1l0.1,0.2c0.6,1.6,1.9,2.9,3.6,3.3l2.6,0.7l1.4-0.2c0.6-0.1,1.1-0.2,1.7-0.5
			l3.1-1.5c0.1,0,0.2-0.1,0.3-0.1c-0.4-0.2-0.7-0.5-1-0.8l-2.3-2.5C21.9,44.1,21.5,43.8,20.9,43.5z M20.7,50.2L20,50.3
			c0.6,0.2,1.1,0.4,1.6,0.7l2.8,1.9c0.4,0.3,0.8,0.5,1.3,0.7c1.3-0.8,3-1,4.5-0.6l0.2,0.1l2-0.7c0.6-0.2,1.2-0.3,1.8-0.4l3.4-0.1
			c0.6,0,1.1-0.1,1.7-0.3c-0.3-0.1-0.6-0.2-0.8-0.2L35,50.7c-0.6-0.1-1.2-0.3-1.7-0.6l-2.7-1.5l-1.1,0.2c-1.2,0.2-2.5-0.1-3.5-0.7
			c-0.2,0-0.3,0.1-0.5,0.2l-3.1,1.5C21.9,50,21.3,50.2,20.7,50.2z M30,53.2c-1.3-0.4-2.7-0.2-3.9,0.5c1.1,0.3,2.2,0.2,3.2-0.2
			L30,53.2z M19.8,50.6l-0.6-0.2l-1.9,0.2c-1.7,0.2-3.3,1.2-4.1,2.8l-0.7,1.3l0.1,0.1c0.9,1.5,2.5,2.4,4.3,2.4l2.7,0.1l1.3-0.5
			c0.6-0.2,1.1-0.5,1.5-0.8l2.6-2.1c0.1-0.1,0.2-0.1,0.3-0.2c-0.4-0.2-0.8-0.4-1.2-0.6l-2.8-1.9C20.9,51,20.3,50.7,19.8,50.6z
			 M21,57.2l-0.7,0.3c0.6,0,1.2,0.1,1.7,0.4l3.2,1.2c0.5,0.2,1,0.3,1.5,0.3c1.1-1.1,2.7-1.7,4.3-1.6h0.2l1.8-1.2
			c0.5-0.3,1.1-0.6,1.7-0.7l3.2-0.9c0.6-0.1,1.1-0.4,1.6-0.7c-0.3,0-0.6,0-0.9,0l-3.4,0.1c-0.6,0-1.2-0.1-1.8-0.2l-2.9-0.8l-1.1,0.4
			c-1.2,0.4-2.4,0.5-3.6,0.1c-0.2,0.1-0.3,0.2-0.5,0.3l-2.6,2.1C22.1,56.7,21.6,57,21,57.2z M30.7,58.1l-0.2,0
			c-1.3,0-2.5,0.5-3.5,1.3c1.1,0,2.1-0.3,3.1-0.9L30.7,58.1z M20.2,57.8l-0.6-0.1l-1.8,0.7c-1.6,0.6-2.9,1.9-3.3,3.6l-0.4,1.5
			l0.1,0.1c1.3,1.2,3,1.8,4.7,1.4l2.7-0.5l1.2-0.7c0.5-0.3,0.9-0.7,1.3-1.2l2.1-2.6c0.1-0.1,0.2-0.2,0.2-0.3
			c-0.5-0.1-0.9-0.2-1.3-0.3l-3.2-1.2C21.4,57.9,20.8,57.8,20.2,57.8z M22.9,63.9l-0.6,0.4c0.6-0.1,1.2-0.1,1.8,0l3.3,0.5
			c0.5,0.1,1,0.1,1.5,0c0.9-1.3,2.2-2.2,3.8-2.5l0.2,0l1.5-1.5c0.4-0.5,0.9-0.8,1.5-1.1l3-1.6c0.5-0.3,1-0.6,1.4-1
			c-0.3,0-0.6,0.1-0.9,0.2l-3.2,0.9c-0.6,0.2-1.2,0.2-1.8,0.2l-3.1-0.2l-1,0.7c-0.9,0.6-2,0.9-3.1,0.9c-0.1,0-0.2,0-0.4,0
			c-0.1,0.1-0.2,0.3-0.4,0.4l-2.1,2.6C23.9,63.2,23.4,63.6,22.9,63.9z M32.6,62.6c-1.3,0.2-2.5,1-3.3,2.1c1.1-0.2,2-0.8,2.8-1.6
			L32.6,62.6z M22.3,64.6l-0.6,0.2l-1.6,1c-1.5,0.9-2.4,2.5-2.5,4.3l-0.1,1.5l0.1,0.1c1.5,0.9,3.3,1,4.9,0.4l2.5-1.1l1-1
			c0.4-0.4,0.7-0.9,1-1.4l1.5-3.1c0.1-0.1,0.1-0.2,0.2-0.3c-0.4,0-0.9,0-1.3,0L24,64.5C23.5,64.4,22.9,64.5,22.3,64.6z M26.3,70
			l-0.6,0.5c0.6-0.2,1.1-0.4,1.7-0.4l3.4-0.3c0.5,0,1-0.2,1.5-0.3c0.6-1.5,1.7-2.7,3.2-3.2l0.2-0.1l1.1-1.8c0.3-0.5,0.7-1,1.2-1.4
			l2.6-2.2c0.5-0.4,0.8-0.8,1.1-1.3c-0.3,0.1-0.6,0.2-0.8,0.4l-3,1.6c-0.5,0.3-1.1,0.5-1.7,0.6l-3,0.5l-0.8,0.8
			c-0.8,0.9-2,1.5-3.2,1.7c-0.1,0.2-0.2,0.3-0.3,0.5l-1.5,3C27,69.1,26.7,69.6,26.3,70z M35.4,66.6c-1.2,0.5-2.2,1.5-2.8,2.8
			c1-0.5,1.8-1.2,2.4-2.1L35.4,66.6z M30.9,75.3l-0.3,0.7c0.5-0.3,1-0.6,1.6-0.8l3.2-1c0.5-0.2,0.9-0.4,1.3-0.7c0.2-1.6,1-3,2.3-3.9
			l0.2-0.1l0.7-2c0.2-0.6,0.5-1.1,0.8-1.6l2-2.7c0.3-0.5,0.6-0.9,0.8-1.5c-0.3,0.2-0.5,0.3-0.7,0.5l-2.5,2.2c-0.5,0.4-1,0.7-1.6,0.9
			l-2.8,1.1l-0.6,1c-0.6,1.1-1.6,1.9-2.7,2.3c-0.1,0.2-0.1,0.4-0.2,0.5l-0.8,3.3C31.4,74.2,31.2,74.8,30.9,75.3z M39,69.9
			c-1.1,0.8-1.9,2-2.1,3.3c0.9-0.6,1.5-1.6,1.9-2.6L39,69.9z M30.6,76.1l-0.5,0.3l-1,1.6c-0.9,1.5-1.1,3.3-0.4,4.9l0.6,1.4l0.2,0
			c1.7,0.2,3.4-0.5,4.5-1.8l1.8-2l0.5-1.3c0.2-0.6,0.3-1.1,0.3-1.7l0-3.4v-0.4c-0.4,0.2-0.8,0.4-1.2,0.6l-3.2,1
			C31.6,75.5,31.1,75.8,30.6,76.1z M36.5,79.3l-0.3,0.6c0.4-0.4,0.8-0.8,1.4-1.1l2.9-1.7c0.4-0.2,0.8-0.6,1.2-0.9
			c-0.2-1.6,0.4-3.1,1.4-4.3l0.2-0.2l0.2-2.1c0.1-0.6,0.2-1.2,0.5-1.8l1.4-3.1c0.2-0.5,0.4-1.1,0.4-1.6c-0.2,0.2-0.4,0.4-0.6,0.7
			l-2,2.7c-0.4,0.5-0.8,0.9-1.3,1.3l-2.5,1.8L39,70.7c-0.4,1.2-1.1,2.2-2.1,2.9c0,0.2,0,0.4,0,0.6v3.4
			C36.8,78.1,36.7,78.7,36.5,79.3z M42.8,80.2c0.1,0.6,0.2,1.2,0.1,1.9l-0.1,0.7c0.3-0.5,0.7-1,1.1-1.4l2.5-2.3
			c1.3-1.2,1.9-2.9,1.7-4.6l-0.5-3.3c-0.1-0.6-0.1-1.2,0.1-1.8l0.6-3.3c0.1-0.6,0.1-1.1,0.1-1.7c-0.2,0.3-0.3,0.5-0.4,0.8l-1.3,3.1
			c-0.3,0.6-0.6,1.1-1,1.5l-2,2.2l-0.1,1.1c-0.1,1.2-0.6,2.4-1.5,3.3c0,0.2,0.1,0.4,0.1,0.5L42.8,80.2z M50,62.4
			c0.2-0.1,0.4-0.2,0.6-0.3l-1.1-0.4c-0.1,0-0.3,0-0.4,0l0.3,0.2C49.5,62.1,49.8,62.2,50,62.4z M50.6,61.9l0.3,0.1l0.1,0L50.6,61.9z
			 M55.2,10.5L54,8.6l-1,1.3c-0.4,0.5-0.8,0.9-1.3,1.2l-2.4,1.6l1.2,0.6c1.6,0.9,2.7,2.4,2.9,4.3l0.5,3.3c0.1,0.6,0.2,1.1,0.5,1.7
			l1.5,3c0.8,1.7,0.7,3.6-0.1,5.2l-1.6,3c-0.3,0.5-0.5,1-0.6,1.6l-0.6,3.3c-0.2,1-0.6,2-1.4,2.8c0.2,0.1,0.5,0.2,0.7,0.3l0.6,0.2
			c1.3-0.6,2.3-1.6,2.8-2.9l1.3-3.1c0.2-0.6,0.6-1.1,1-1.6l2.2-2.5c1.1-1.3,1.6-3.1,1.2-4.8l-0.8-3.3c-0.1-0.6-0.2-1.2-0.1-1.8
			l0.3-3.3c0.2-1.7-0.5-3.4-1.8-4.6l-2.6-2.2C55.9,11.5,55.5,11,55.2,10.5z M52.8,9.6l1.1-1.3l-0.4-0.7C52.6,6.1,51,5.1,49.3,5
			l-1.4-0.1c-1.2,0.5-2.2,1.4-2.8,2.7l-0.6,1.3l1.7,1.8c0.4,0.4,0.9,0.8,1.4,1l1.5,0.8l2.5-1.7C52,10.4,52.4,10,52.8,9.6z
			 M45.9,10.8l-1.6-1.7l-0.7,1.5c-0.3,0.6-0.6,1-1,1.5l-2,2.1l1.3,0.4c1.8,0.5,3.2,1.8,3.8,3.5l0.4,1.2l0.1-2c0.1-1.9,1-3.5,2.5-4.5
			l-1.4-0.7C46.8,11.6,46.3,11.2,45.9,10.8z M43.4,10.5l0.7-1.6l-0.5-0.6c-1.2-1.3-2.9-1.9-4.6-1.6l-1.4,0.2
			c-1.1,0.8-1.9,1.9-2.2,3.2L35,11.6l2,1.3c0.5,0.3,1,0.6,1.6,0.7l1.7,0.5l2.1-2.2C42.8,11.5,43.1,11,43.4,10.5z M36.9,13.2L35,11.8
			l-0.4,1.6c-0.1,0.6-0.4,1.2-0.7,1.7l-1.5,2.5l1.4,0.1c1.8,0.1,3.5,1,4.5,2.6l0.7,1l-0.4-2c-0.4-1.8,0.2-3.6,1.5-4.9l-1.5-0.4
			C37.9,13.7,37.4,13.5,36.9,13.2z M28.6,17.5l-2.1-0.8v1.6c0,0.6-0.1,1.2-0.3,1.8l-0.9,2.7l1.3-0.3c1.8-0.3,3.6,0.2,4.9,1.5
			l0.9,0.9L31.6,23c-0.7-1.7-0.6-3.6,0.3-5.1l-1.6-0.1C29.8,17.8,29.2,17.7,28.6,17.5z M26.2,18.2l0-1.7l-0.7-0.3
			c-1.6-0.6-3.4-0.4-4.9,0.5l-1.2,0.8c-0.7,1.2-0.8,2.6-0.6,3.9l0.3,1.4l2.4,0.4c0.6,0.1,1.1,0.1,1.7,0l1.7-0.3l1-2.9
			C26.1,19.4,26.2,18.8,26.2,18.2z M21.5,23.5l-2.3-0.3l0.4,1.6c0.2,0.6,0.2,1.2,0.1,1.8l-0.3,2.9l1.3-0.5c1.7-0.7,3.6-0.6,5.1,0.4
			l1.1,0.6l-1.2-1.7c-1.1-1.5-1.4-3.4-0.8-5.1l-1.5,0.3C22.8,23.5,22.1,23.6,21.5,23.5z M15.9,30.9l-2.3,0.2l0.7,1.4
			c0.3,0.6,0.5,1.1,0.5,1.8l0.4,2.9l1.1-0.8c1.5-1.1,3.4-1.4,5.1-0.8l1.2,0.4l-1.6-1.3c-1.4-1.2-2.1-3-1.9-4.8l-1.4,0.6
			C17.1,30.7,16.5,30.9,15.9,30.9z M12.1,39.4l-2.2,0.7l1,1.3c0.4,0.5,0.7,1,0.9,1.6l1,2.7l0.9-1c1.2-1.4,3-2.1,4.8-1.9l1.2,0.1
			l-1.8-1c-1.6-0.8-2.7-2.4-2.9-4.2l-1.3,0.9C13.3,38.9,12.7,39.2,12.1,39.4z M10.7,41.5l-1-1.3l-0.7,0.2c-1.7,0.5-3,1.8-3.5,3.4
			L5,45.2c0.2,1.3,0.9,2.5,2,3.4l1.1,0.9l2.1-1.2c0.5-0.3,0.9-0.6,1.3-1.1l1.1-1.3l-1-2.9C11.4,42.5,11.1,42,10.7,41.5z M10.3,48.5
			l-2,1.2l1.3,1c0.5,0.4,0.9,0.8,1.2,1.4l1.6,2.4l0.6-1.2c0.8-1.6,2.4-2.7,4.3-2.9l1.2-0.2l-2-0.6c-1.8-0.5-3.2-1.8-3.8-3.5l-1,1.2
			C11.3,47.8,10.8,48.2,10.3,48.5z M9.4,50.9l-1.4-1l-0.7,0.4c-1.5,0.8-2.5,2.4-2.6,4.1l-0.1,1.4c0.5,1.3,1.5,2.3,2.7,2.9l1.3,0.6
			l1.8-1.7c0.4-0.4,0.8-0.8,1.1-1.4l0.8-1.5l-1.7-2.6C10.2,51.7,9.8,51.3,9.4,50.9z M10.6,57.8l-1.7,1.6l1.5,0.7
			c0.6,0.3,1.1,0.6,1.5,1l2.1,2l0.4-1.3c0.5-1.8,1.8-3.2,3.5-3.8l1.2-0.4l-2-0.1c-1.8-0.1-3.5-1-4.5-2.6l-0.7,1.4
			C11.4,56.9,11,57.4,10.6,57.8z M12.8,66.9l-1.3,1.9l1.6,0.4c0.6,0.1,1.2,0.4,1.7,0.7l2.5,1.5l0.1-1.4c0.1-1.8,1.1-3.5,2.6-4.5
			l1-0.7l-2,0.4c-0.3,0.1-0.6,0.1-1,0.1c-1.5,0-2.9-0.6-3.9-1.6l-0.4,1.5C13.5,65.8,13.2,66.3,12.8,66.9z M17.1,75.1l-0.8,2.1h1.6
			c0.6,0,1.2,0.1,1.8,0.3l2.7,0.9l-0.2-1.3c-0.3-1.8,0.3-3.6,1.5-4.9l0.9-0.9l-1.9,0.8c-1.7,0.7-3.6,0.6-5.1-0.4l-0.1,1.6
			C17.4,74,17.3,74.6,17.1,75.1z M23,82.3l-0.4,2.3l1.6-0.4c0.6-0.1,1.2-0.2,1.8-0.1l2.9,0.3l-0.5-1.3c-0.7-1.7-0.6-3.6,0.4-5.1
			l0.6-1.1l-1.7,1.2c-1.5,1.1-3.4,1.4-5.1,0.8l0.3,1.6C23.1,81.1,23.1,81.7,23,82.3z M30.4,87.9l0.2,2.3l1.5-0.7
			c0.6-0.3,1.1-0.5,1.8-0.5l2.9-0.4l-0.8-1.1c-1.1-1.5-1.3-3.4-0.7-5.1l0.4-1.2l-1.4,1.6c-1.2,1.4-3,2.1-4.8,1.9l0.6,1.4
			C30.2,86.7,30.4,87.3,30.4,87.9z M32.2,89.8l-1.6,0.7l0.1,0.8c0.1,1.7,1.1,3.3,2.6,4.2l1.2,0.7c1.3,0.1,2.7-0.3,3.7-1.1l1.1-0.9
			l-0.7-2.3c-0.2-0.6-0.5-1.1-0.8-1.6l-1-1.4l-3,0.4C33.3,89.3,32.7,89.5,32.2,89.8z M38.9,91.8l0.7,2.2l1.3-1
			c0.5-0.4,1-0.7,1.6-0.9l2.7-1l-1-0.9c-1.4-1.2-2-3-1.9-4.8l0.1-1.2l-1,1.8c-0.8,1.6-2.4,2.7-4.3,2.9l0.9,1.3
			C38.4,90.6,38.7,91.2,38.9,91.8z M41,93.2l-1.3,1.1l0.2,0.7c0.5,1.7,1.8,3,3.4,3.5l1.4,0.5c1.3-0.2,2.5-0.9,3.4-1.9l0.9-1.1
			l-1.2-2.1c-0.3-0.5-0.7-1-1.1-1.4l-1.3-1.1l-2.9,1C42,92.6,41.5,92.9,41,93.2z M48,93.7l1.2,2l1-1.3c0.4-0.5,0.8-0.9,1.4-1.2
			l2.9-1.8c1.5-0.9,2.4-2.5,2.5-4.3l0.2-3.4c0-0.6,0.2-1.2,0.4-1.8l1.2-3.2c0.7-1.6,0.5-3.4-0.5-4.9l-1.9-2.8
			c-0.4-0.5-0.6-1.1-0.7-1.7l-0.8-3.3c-0.5-1.7-1.7-3.1-3.3-3.7l-0.6-0.2c-0.3,0.1-0.5,0.2-0.7,0.4c1,1,1.6,2.4,1.6,3.8l0.1,3.4
			c0,0.6,0.1,1.2,0.3,1.7l1.2,3.2c0.7,1.7,0.4,3.6-0.6,5.1l-1.9,2.8c-0.4,0.5-0.6,1-0.7,1.6l-0.9,3.2c-0.5,1.8-1.8,3.2-3.5,3.8
			l1.2,1C47.3,92.7,47.7,93.1,48,93.7z M54.9,3.7l-0.7-0.6l-0.3,0.2c-0.6,0.3-1.1,0.5-1.7,0.6l-3.3,0.6l-0.4,0.1l0.8,0.1
			c1.8,0.2,3.5,1.2,4.4,2.8L54,8l0.8-1.1c0.8-1,1.9-1.7,3.1-2l-1.3-0.4C56,4.4,55.4,4.1,54.9,3.7z M44.1,4.2l-0.8-0.4l-0.3,0.2
			c-0.5,0.4-1,0.7-1.6,1l-3.1,1.3c-0.1,0-0.2,0.1-0.4,0.2l0.8-0.1c1.8-0.3,3.6,0.4,4.9,1.7l0.5,0.5l0.6-1.2c0.6-1.1,1.4-2,2.5-2.6
			l-1.4-0.1C45.3,4.6,44.7,4.5,44.1,4.2z M33.7,7.1L32.9,7l-0.2,0.3c-0.4,0.5-0.8,0.9-1.3,1.3l-2.7,2c-0.1,0.1-0.2,0.2-0.3,0.3
			l0.7-0.3c1.7-0.7,3.6-0.4,5.1,0.6l0.6,0.4l0.3-1.3C35.3,8.8,36,7.8,36.9,7l-1.4,0.2C35,7.2,34.4,7.2,33.7,7.1z M24.2,12.3h-0.9
			l-0.1,0.3c-0.2,0.6-0.6,1.1-1,1.6L20,16.6c-0.1,0.1-0.2,0.2-0.3,0.3l0.6-0.4c1.5-1,3.4-1.2,5.1-0.6l0.6,0.2v-1.4
			c0-1.2,0.4-2.5,1.2-3.4L26,11.9C25.4,12.1,24.8,12.2,24.2,12.3z M16.1,19.4l-0.8,0.3L15.2,20c-0.1,0.6-0.3,1.2-0.6,1.7l-1.6,3
			c-0.1,0.1-0.1,0.2-0.2,0.4l0.6-0.6c1.3-1.3,3.1-1.9,4.9-1.7l0.6,0.1l-0.3-1.3c-0.3-1.2-0.2-2.5,0.4-3.6l-1.2,0.8
			C17.3,18.9,16.7,19.2,16.1,19.4z M9.7,28.1L9,28.5v0.3c0,0.6,0,1.2-0.2,1.8l-0.9,3.2c0,0.1-0.1,0.3-0.1,0.4l0.4-0.7
			c0.9-1.6,2.6-2.6,4.4-2.7l0.7-0.1l-0.6-1.2c-0.6-1.1-0.7-2.4-0.5-3.6l-0.9,1C10.8,27.5,10.3,27.8,9.7,28.1z M5.5,38.1l-0.7,0.5
			l0.1,0.3C5,39.5,5.1,40.1,5,40.7l-0.2,3.4c0,0.1,0,0.3,0,0.4l0.3-0.7c0.6-1.7,1.9-3.1,3.7-3.6l0.7-0.2l-0.8-1
			c-0.8-1-1.2-2.2-1.2-3.4l-0.7,1.2C6.3,37.2,5.9,37.7,5.5,38.1z M3.5,48.7L3,49.4l0.2,0.3c0.3,0.5,0.5,1.1,0.6,1.7l0.6,3.3
			c0,0.1,0.1,0.3,0.1,0.4l0.1-0.8c0.2-1.8,1.2-3.4,2.8-4.4l0.6-0.3l-1-0.8c-1-0.8-1.7-1.9-1.9-3.1l-0.4,1.3
			C4.2,47.6,3.9,48.2,3.5,48.7z M4,59.5l-0.4,0.7l0.2,0.3c0.4,0.5,0.7,1,1,1.6l1.3,3.1c0,0.1,0.1,0.2,0.2,0.4l-0.1-0.8
			c-0.2-1.8,0.4-3.6,1.8-4.8l0.5-0.5l-1.2-0.6c-1.1-0.5-2-1.4-2.6-2.5l-0.1,1.4C4.4,58.3,4.2,59,4,59.5z M6.8,69.9l-0.2,0.9L6.9,71
			c0.5,0.4,0.9,0.8,1.3,1.3l1.9,2.8c0.1,0.1,0.2,0.2,0.3,0.3l-0.3-0.7c-0.6-1.7-0.4-3.6,0.7-5.1l0.4-0.6l-1.3-0.3
			c-1.2-0.3-2.3-1-3.1-1.9l0.2,1.4C6.9,68.7,6.9,69.3,6.8,69.9z M11.9,79.5l0,0.9l0.3,0.1c0.6,0.2,1.1,0.6,1.5,1l2.5,2.2
			c0.1,0.1,0.2,0.2,0.3,0.3l-0.4-0.7c-1-1.5-1.2-3.4-0.5-5.1l0.2-0.6h-1.4c-1.3,0-2.5-0.4-3.4-1.2l0.5,1.3
			C11.7,78.3,11.9,78.9,11.9,79.5z M18.9,87.7l0.3,0.9l0.3,0.1c0.6,0.1,1.2,0.3,1.7,0.6l3,1.6c0.1,0.1,0.2,0.1,0.4,0.2L24,90.4
			c-1.3-1.2-1.9-3.1-1.7-4.9l0.1-0.7l-1.3,0.3c-1.2,0.3-2.5,0.1-3.6-0.4l0.7,1.2C18.5,86.5,18.8,87.1,18.9,87.7z M27.6,94.1l0.4,0.8
			h0.3h0.2c0.5,0,1,0.1,1.6,0.2l3.2,0.9c0.1,0,0.3,0.1,0.4,0.1l-0.7-0.4c-1.6-1-2.6-2.6-2.7-4.4l0-0.6l-1.2,0.6
			c-1.1,0.5-2.4,0.7-3.6,0.4l1,1C27,93,27.3,93.5,27.6,94.1z M37.5,98.4l0.5,0.7l0.3-0.1c0.6-0.2,1.2-0.2,1.8-0.2l3.4,0.2
			c0.1,0,0.3,0,0.4,0l-0.7-0.3c-1.7-0.6-3.1-2-3.6-3.7l-0.2-0.7l-1.1,0.8c-1,0.7-2.2,1.2-3.4,1.2l1.2,0.7
			C36.7,97.5,37.1,98,37.5,98.4z M48.1,100.5l0.7,0.5l0.3-0.2c0.5-0.3,1.1-0.5,1.7-0.6l3.3-0.6c0.1,0,0.3,0,0.4-0.1l-0.8-0.1
			c-1.8-0.2-3.4-1.2-4.3-2.8l-0.3-0.6l-0.8,1.1c-0.8,1-1.9,1.7-3.1,2l1.3,0.4C47.1,99.8,47.6,100.1,48.1,100.5z M59,100.1l0.7,0.5
			l0.3-0.2c0.5-0.4,1-0.7,1.6-0.9l3.1-1.3c1.6-0.7,2.8-2,3.2-3.7l0.8-3.3c0.2-0.6,0.4-1.2,0.7-1.7l1.8-2.9c0.9-1.5,1.1-3.3,0.4-4.9
			l-1.3-3.1c-0.3-0.6-0.4-1.2-0.5-1.8l-0.2-3.4c-0.1-1.7-1.1-3.3-2.6-4.2l-2.9-1.8c-0.5-0.3-1-0.7-1.4-1.2l-2.2-2.6
			c-1.1-1.3-2.8-2-4.5-1.9l-3.2,0.3l1,0.1c1.8,0.3,3.3,1.4,4.2,3l1.6,3c0.3,0.5,0.6,1,1,1.4l2.4,2.4c1.3,1.3,1.9,3.1,1.7,4.9
			L64.2,80c-0.1,0.6-0.1,1.2,0,1.8l0.6,3.3c0.3,1.8-0.3,3.6-1.5,4.9l-2.4,2.4c-0.4,0.4-0.7,0.9-1,1.4l-1.5,3c-0.6,1.1-1.5,2-2.6,2.6
			l1.4,0.1C57.8,99.6,58.4,99.8,59,100.1z M66.6,3.6c-0.6-0.1-1.2-0.2-1.8-0.5l-2.1-1c0.4,0.2,0.7,0.5,0.9,0.8l1.5,1.8l2.8-0.8
			l0.2,0L66.6,3.6z M55.5,1.5c-0.6,0.1-1.2,0-1.8-0.1l-2.3-0.6c0.4,0.2,0.7,0.4,1,0.6l1.9,1.4l2.5-1.4l0.2-0.1L55.5,1.5z M44.2,2
			c-0.6,0.2-1.2,0.3-1.8,0.3H40c0.4,0.1,0.8,0.2,1.2,0.4l2.1,0.9l2.1-1.9l0.1-0.1L44.2,2z M31.6,5.6l-2.3,0.5c0.4,0,0.8,0,1.2,0.1
			l2.3,0.4l1.7-2.3l0.1-0.1l-1.2,0.7C32.8,5.3,32.2,5.5,31.6,5.6z M21.8,11.3l-2.1,1c0.4-0.1,0.8-0.2,1.2-0.2l2.3-0.1l1.1-2.6
			l0.1-0.2l-1,1C22.8,10.7,22.3,11,21.8,11.3z M13.5,18.9l-1.9,1.5c0.4-0.2,0.7-0.4,1.1-0.5l2.2-0.6l0.5-2.9c0-0.1,0-0.1,0-0.2
			l-0.8,1.2C14.4,18.1,14,18.6,13.5,18.9z M7.1,28.3l-1.5,1.8c0.3-0.3,0.7-0.5,1-0.7l2-1.1l-0.1-2.9v-0.2L8,26.7
			C7.8,27.3,7.5,27.8,7.1,28.3z M3,38.8l-1.1,2.1c0.3-0.3,0.5-0.6,0.8-0.9l1.8-1.5l-0.8-2.8c0-0.1,0-0.1,0-0.2L3.5,37
			C3.4,37.7,3.2,38.3,3,38.8z M1.2,50l-0.6,2.3c0.2-0.4,0.4-0.7,0.6-1l1.4-1.9l-1.4-2.5c0-0.1,0-0.1-0.1-0.2l0.1,1.5
			C1.4,48.8,1.3,49.4,1.2,50z M1.7,59.4C1.9,60,2,60.6,2,61.3l0,2.4c0.1-0.4,0.2-0.8,0.4-1.2l0.9-2.1l-1.9-2.2c0,0-0.1-0.1-0.1-0.1
			L1.7,59.4z M5.3,72.1l0.5,2.3c0-0.4,0-0.8,0.1-1.2l0.5-2.3L4,69.3l-0.1-0.1l0.8,1.2C4.9,70.9,5.1,71.5,5.3,72.1z M9.8,80.4
			c0.4,0.4,0.8,0.9,1,1.5l1,2.1c-0.1-0.4-0.2-0.8-0.2-1.2l-0.1-2.3L9,79.4c-0.1,0-0.1,0-0.2-0.1L9.8,80.4z M17.1,89
			c0.5,0.3,1,0.7,1.3,1.2l1.5,1.9c-0.2-0.4-0.3-0.7-0.4-1.1l-0.6-2.2l-2.8-0.5l-0.2,0L17.1,89z M26.2,95.8c0.6,0.2,1.1,0.6,1.6,0.9
			l1.9,1.5c-0.3-0.3-0.5-0.6-0.7-1l-1.1-2.1L25,95.3h-0.2L26.2,95.8z M36.5,100.4c0.6,0.1,1.2,0.3,1.7,0.6l2.1,1.1
			c-0.3-0.3-0.6-0.5-0.9-0.8L38,99.4l-2.8,0.7l-0.2,0L36.5,100.4z M48.1,102.6c0.5,0,0.9,0.1,1.4,0.2l2.3,0.6
			c-0.4-0.2-0.7-0.4-1.1-0.6l-1.9-1.4l-2.5,1.4l-0.2,0.1l1.5-0.1C47.7,102.6,47.9,102.6,48.1,102.6z M58.9,102.3
			c0.6-0.2,1.2-0.3,1.8-0.2l2.4,0c-0.4-0.1-0.8-0.2-1.1-0.4l-2.1-1l-2.2,1.9l-0.1,0.1L58.9,102.3z M59.7,59L57,60.6l0.9-0.3
			c1.7-0.6,3.6-0.2,5.1,0.9l2.7,2c0.5,0.4,1,0.6,1.5,0.8l3.2,1.1c1.7,0.6,3.1,2,3.6,3.7l1,3.2c0.2,0.6,0.5,1.1,0.8,1.6l1.9,2.7
			c1.1,1.5,1.3,3.4,0.7,5.1l-1.1,3.2c-0.2,0.6-0.3,1.1-0.3,1.7l0,3.4c0,1.8-0.9,3.5-2.4,4.6l-2.8,1.9c-0.5,0.3-0.9,0.7-1.2,1.2
			l-2,2.7c0,0-0.1,0.1-0.1,0.1l1.3-0.7c0.5-0.3,1.1-0.5,1.7-0.7l3.3-0.7c1.7-0.4,3.1-1.5,3.8-3.1L80,92c0.2-0.6,0.6-1.1,1-1.5
			l2.3-2.5c1.2-1.3,1.7-3.1,1.3-4.8l-0.7-3.3c-0.1-0.6-0.2-1.2-0.1-1.8l0.4-3.3c0.2-1.7-0.5-3.4-1.8-4.6l-2.5-2.2
			c-0.5-0.4-0.8-0.9-1.1-1.4l-1.7-2.9c-0.9-1.5-2.4-2.5-4.1-2.7l-3.3-0.3c-0.6-0.1-1.2-0.2-1.8-0.5l-3.1-1.4
			C63,58,61.2,58.1,59.7,59z M87.6,25.4c0.6-1.6,0.4-3.4-0.6-4.9l-1.9-2.8c-0.4-0.5-0.6-1.1-0.8-1.7l-0.9-3.2
			c-0.5-1.7-1.7-3-3.3-3.6L77,8.1c-0.6-0.2-1.1-0.5-1.6-0.9l-1.9-1.5c0.3,0.3,0.5,0.6,0.7,1l1.6,3c0.3,0.5,0.6,1,1,1.4l2.5,2.3
			c1.3,1.2,2,3.1,1.7,4.9l-0.5,3.3c-0.1,0.6-0.1,1.2,0,1.8l0.6,3.3c0.3,1.8-0.2,3.6-1.5,4.9L77.4,34c-0.4,0.4-0.7,0.9-1,1.4L75,38.4
			c-0.8,1.7-2.3,2.8-4.1,3.2l-3.3,0.6c-0.6,0.1-1.1,0.3-1.6,0.6l-3,1.6c-1.5,0.8-3.3,0.9-4.9,0.2c0.1,0.1,0.2,0.2,0.4,0.3l1.1,0.9
			c1.4,1.1,3.2,1.5,4.8,1l3.2-0.9c0.6-0.2,1.2-0.3,1.8-0.2l3.4,0.2c1.7,0.1,3.4-0.7,4.5-2l2.1-2.7c0.4-0.5,0.8-0.9,1.3-1.2l2.8-1.9
			c1.5-1,2.3-2.6,2.4-4.3l0.1-3.4c0-0.6,0.1-1.2,0.4-1.8L87.6,25.4z M420.1,42.5h3.3v0.4H422v3.9h-0.5v-3.9h-1.4V42.5z M424.5,42.9
			c0,0.1,0,0.2,0,0.3v3.7H424v-4.3h0.8l1.3,3.5c0,0.1,0,0.1,0,0.2c0,0,0-0.1,0-0.2l1.3-3.5h0.8v4.3h-0.3v-3.7c0-0.1,0-0.2,0-0.3
			l-1.5,4H426c-0.2-0.5-0.4-0.9-0.5-1.4c-0.2-0.4-0.3-0.8-0.4-1.1c-0.1-0.3-0.2-0.6-0.3-0.8c-0.1-0.2-0.1-0.4-0.2-0.5
			C424.5,43,424.5,42.9,424.5,42.9z M97.2,66.7c-1.5-1.9-2.3-4.8-2.3-8.8V45.2c0-4.1,0.7-7,2.2-8.8c1.5-1.8,3.9-2.8,7.1-2.8h5.5
			c2.8,0,4.8,0.7,6.2,2.1c1.4,1.4,2.1,3.7,2.3,6.9c0.1,1-0.3,1.5-1.2,1.5c-0.7,0-1.1-0.5-1.2-1.5c-0.1-2.3-0.6-3.9-1.5-4.8
			c-0.9-0.9-2.4-1.4-4.6-1.4h-5.5c-1.7,0-3.1,0.3-4.1,0.8c-1,0.6-1.7,1.5-2.2,2.7c-0.5,1.2-0.7,3-0.7,5.2v12.7
			c0,2.2,0.2,3.9,0.7,5.2c0.5,1.3,1.2,2.1,2.2,2.7c1,0.6,2.4,0.8,4.2,0.8h5.4c2.1,0,3.7-0.4,4.6-1.3c0.9-0.9,1.4-2.5,1.5-4.8
			c0.1-1,0.5-1.5,1.2-1.5c0.8,0,1.2,0.5,1.2,1.5c-0.2,3.2-0.9,5.4-2.3,6.9s-3.4,2.1-6.2,2.1h-5.4C101,69.5,98.7,68.6,97.2,66.7z
			 M144.6,44.6V68c0,1-0.4,1.5-1.2,1.5c-0.8,0-1.2-0.5-1.2-1.5v-2.7c-1.4,2.8-4,4.1-7.8,4.1h-1.3c-2.8,0-4.9-0.8-6.2-2.4
			c-1.3-1.6-1.9-4.2-1.9-7.6V44.6c0-1,0.4-1.5,1.2-1.5s1.2,0.5,1.2,1.5v14.8c0,2.7,0.4,4.5,1.3,5.6c0.8,1,2.3,1.6,4.5,1.6h1.3
			c2.4,0,4.2-0.5,5.6-1.4c1.3-0.9,2-2.3,2.2-4.1c0-0.2,0-0.3,0-0.4V44.6c0-1,0.4-1.5,1.2-1.5C144.2,43.2,144.6,43.6,144.6,44.6z
			 M165.3,44.6c0,1-0.4,1.5-1.2,1.5c-2.7,0-4.8,0.8-6.3,2.3s-2.3,3.7-2.4,6.5c0,0.2,0,0.3,0,0.4V68c0,1-0.4,1.5-1.2,1.5
			S153,69,153,68V44.6c0-1,0.4-1.5,1.2-1.5s1.2,0.5,1.2,1.5v4.5c0.8-1.9,1.9-3.4,3.4-4.4s3.3-1.5,5.3-1.5
			C164.9,43.2,165.3,43.6,165.3,44.6z M182.3,44.6c0,1-0.4,1.5-1.2,1.5c-2.7,0-4.8,0.8-6.3,2.3s-2.3,3.7-2.4,6.5c0,0.2,0,0.3,0,0.4
			V68c0,1-0.4,1.5-1.2,1.5S170,69,170,68V44.6c0-1,0.4-1.5,1.2-1.5s1.2,0.5,1.2,1.5v4.5c0.8-1.9,1.9-3.4,3.4-4.4s3.3-1.5,5.3-1.5
			C181.9,43.2,182.3,43.6,182.3,44.6z M187.9,57.4v2.1c0,2.6,0.4,4.5,1.3,5.5c0.9,1,2.4,1.6,4.5,1.6h3.7c1.9,0,3.3-0.3,4.2-0.9
			c0.9-0.6,1.4-1.7,1.5-3.2c0.2-0.9,0.6-1.4,1.2-1.4c0.4,0,0.7,0.1,0.9,0.4s0.3,0.6,0.2,1.1c-0.2,2.3-1,4.1-2.3,5.2
			c-1.3,1.1-3.2,1.7-5.8,1.7h-3.7c-2.8,0-4.9-0.8-6.2-2.4c-1.3-1.6-2-4.1-2-7.6v-6.3c0-3.5,0.7-6.1,2-7.7c1.3-1.6,3.4-2.4,6.2-2.4
			h3.7c2.8,0,4.9,0.8,6.2,2.4s2,4.2,2,7.6v2.8c0,1-0.4,1.5-1.2,1.5H187.9z M187.9,54.5h15.3v-1.3c0-2.7-0.4-4.5-1.3-5.6
			c-0.8-1-2.3-1.6-4.5-1.6h-3.7c-2.2,0-3.7,0.5-4.5,1.5s-1.3,2.9-1.3,5.6V54.5z M230.9,45.6c1.3,1.6,1.9,4.2,1.9,7.6V68
			c0,1-0.4,1.5-1.2,1.5c-0.8,0-1.2-0.5-1.2-1.5V53.2c0-2.7-0.4-4.5-1.3-5.6c-0.8-1-2.3-1.6-4.5-1.6h-1.3c-2.4,0-4.2,0.5-5.6,1.4
			c-1.3,0.9-2,2.3-2.2,4.1c0,0.2,0,0.3,0,0.4V68c0,1-0.4,1.5-1.2,1.5s-1.2-0.5-1.2-1.5V44.6c0-1,0.4-1.5,1.2-1.5s1.2,0.5,1.2,1.5
			v2.7c1.4-2.8,4-4.1,7.8-4.1h1.3C227.5,43.2,229.6,44,230.9,45.6z M242.2,67.1c-1.3-1.6-2-4.2-2-7.6v-6.3c0-3.5,0.7-6,2-7.6
			c1.3-1.6,3.4-2.4,6.2-2.3h3.7c2.2,0,3.9,0.5,5.1,1.4c1.2,0.9,1.8,2.4,2.1,4.4c0.1,0.4,0,0.8-0.2,1.1c-0.2,0.3-0.5,0.4-0.9,0.4
			c-0.7,0-1.1-0.4-1.2-1.3c-0.2-1.1-0.6-1.9-1.4-2.3c-0.7-0.4-1.9-0.7-3.4-0.7h-3.7c-2.2,0-3.7,0.5-4.5,1.5s-1.3,2.9-1.3,5.6v6.3
			c0,2.7,0.4,4.5,1.3,5.6c0.9,1,2.4,1.6,4.5,1.6h3.7c1.6,0,2.7-0.2,3.4-0.7c0.7-0.4,1.2-1.2,1.4-2.3c0.2-0.9,0.6-1.3,1.2-1.3
			c0.4,0,0.7,0.1,0.9,0.4c0.2,0.3,0.3,0.6,0.2,1.1c-0.2,2-0.9,3.4-2.1,4.4c-1.2,0.9-2.9,1.4-5.1,1.4h-3.7
			C245.5,69.5,243.5,68.7,242.2,67.1z M267.1,78.9c-0.9-1.2-1.4-3-1.4-5.5c0-1,0.4-1.5,1.2-1.5c0.8,0,1.2,0.5,1.2,1.5
			c0,1.7,0.2,2.8,0.7,3.4c0.5,0.6,1.4,0.9,2.7,0.9h7.8c1.3,0,2.2-0.3,2.7-0.9c0.5-0.6,0.7-1.7,0.7-3.4v-7.7
			c-0.8,1.3-1.9,2.3-3.2,2.9s-2.8,0.9-4.6,0.9h-1.3c-2.8,0-4.8-0.8-6.1-2.3c-1.3-1.6-1.9-4.1-1.9-7.5V44.5c0-1,0.4-1.5,1.2-1.5
			c0.8,0,1.2,0.5,1.2,1.5v15.2c0,2.6,0.4,4.4,1.2,5.4c0.8,1,2.3,1.5,4.4,1.5h1.3c2.6,0,4.6-0.6,5.8-1.7c1.3-1.2,1.9-2.9,1.9-5.2
			V44.5c0-1,0.4-1.5,1.2-1.5c0.8,0,1.2,0.5,1.2,1.5v28.9c0,2.5-0.5,4.3-1.4,5.5c-0.9,1.2-2.4,1.7-4.4,1.7h-7.8
			C269.5,80.7,268,80.1,267.1,78.9z M306.4,66.7c-1.5-1.9-2.3-4.8-2.3-8.8V45.2c0-4.1,0.7-7,2.2-8.8c1.5-1.8,3.9-2.8,7.1-2.8h5.5
			c2.8,0,4.8,0.7,6.2,2.1c1.4,1.4,2.1,3.7,2.3,6.9c0.1,1-0.3,1.5-1.2,1.5c-0.7,0-1.1-0.5-1.2-1.5c-0.1-2.3-0.6-3.9-1.5-4.8
			c-0.9-0.9-2.4-1.4-4.6-1.4h-5.5c-1.7,0-3.1,0.3-4.1,0.8c-1,0.6-1.7,1.5-2.2,2.7c-0.5,1.2-0.7,3-0.7,5.2v12.7
			c0,2.2,0.2,3.9,0.7,5.2c0.5,1.3,1.2,2.1,2.2,2.7c1,0.6,2.4,0.8,4.2,0.8h5.4c2.1,0,3.7-0.4,4.6-1.3c0.9-0.9,1.4-2.5,1.5-4.8
			c0.1-1,0.5-1.5,1.2-1.5c0.8,0,1.2,0.5,1.2,1.5c-0.2,3.2-0.9,5.4-2.3,6.9s-3.4,2.1-6.2,2.1h-5.4C310.3,69.5,307.9,68.6,306.4,66.7z
			 M336.3,67.7c-1-1.2-1.5-3.1-1.5-5.7V32.4c0-1,0.4-1.5,1.2-1.5s1.2,0.5,1.2,1.5V62c0,1.8,0.3,3.1,0.8,3.7c0.5,0.7,1.6,1,3,1
			c0.8,0,1.2,0.5,1.2,1.5c0,0.5-0.1,0.8-0.3,1.1c-0.2,0.2-0.5,0.4-0.9,0.4C338.9,69.5,337.3,68.9,336.3,67.7z M348.8,57.4v2.1
			c0,2.6,0.4,4.5,1.3,5.5s2.4,1.6,4.5,1.6h3.7c1.9,0,3.3-0.3,4.2-0.9c0.9-0.6,1.4-1.7,1.5-3.2c0.2-0.9,0.6-1.4,1.2-1.4
			c0.4,0,0.7,0.1,0.9,0.4c0.2,0.3,0.3,0.6,0.2,1.1c-0.2,2.3-1,4.1-2.3,5.2c-1.3,1.1-3.2,1.7-5.8,1.7h-3.7c-2.8,0-4.9-0.8-6.2-2.4
			c-1.3-1.6-2-4.1-2-7.6v-6.3c0-3.5,0.7-6.1,2-7.7c1.3-1.6,3.4-2.4,6.2-2.4h3.7c2.8,0,4.9,0.8,6.2,2.4c1.3,1.6,2,4.2,2,7.6v2.8
			c0,1-0.4,1.5-1.2,1.5H348.8z M348.8,54.5H364v-1.3c0-2.7-0.4-4.5-1.3-5.6c-0.8-1-2.3-1.6-4.5-1.6h-3.7c-2.2,0-3.7,0.5-4.5,1.5
			s-1.3,2.9-1.3,5.6L348.8,54.5L348.8,54.5z M390.8,45.6c1.3,1.6,1.9,4.1,1.9,7.6V68c0,1-0.4,1.5-1.2,1.5s-1.2-0.5-1.2-1.5v-2.7
			c-0.7,1.4-1.7,2.4-3,3.1c-1.3,0.7-2.9,1.1-4.7,1.1h-2.5c-2.3,0-4-0.7-5.1-2s-1.6-3.5-1.6-6.4c0-2.9,0.5-5,1.6-6.4
			c1.1-1.4,2.8-2,5.1-2h10.3c-0.1-2.5-0.5-4.2-1.4-5.2c-0.8-1-2.3-1.5-4.4-1.5H382c-1.9,0-3.3,0.3-4.2,0.8c-0.9,0.5-1.4,1.4-1.6,2.6
			c-0.1,0.5-0.3,0.8-0.5,1c-0.2,0.2-0.4,0.3-0.8,0.3s-0.7-0.1-0.9-0.4s-0.3-0.6-0.2-1.1c0.2-2.1,1-3.7,2.3-4.6
			c1.3-0.9,3.3-1.5,5.9-1.5h2.6C387.4,43.2,389.5,44,390.8,45.6z M390.4,60.6v-5h-10.3c-1.7,0-2.8,0.4-3.5,1.2
			c-0.6,0.8-0.9,2.2-0.9,4.3c0,2,0.3,3.5,1,4.3c0.6,0.8,1.8,1.2,3.5,1.2h2.5c4.7,0,7.2-1.9,7.7-5.6V60.6z M412.9,44.6
			c0,1-0.4,1.5-1.2,1.5c-2.7,0-4.8,0.8-6.3,2.3s-2.3,3.7-2.4,6.5c0,0.2,0,0.3,0,0.4V68c0,1-0.4,1.5-1.2,1.5c-0.8,0-1.2-0.5-1.2-1.5
			V44.6c0-1,0.4-1.5,1.2-1.5c0.8,0,1.2,0.5,1.2,1.5v4.5c0.8-1.9,1.9-3.4,3.4-4.4s3.3-1.5,5.3-1.5C412.5,43.2,412.9,43.6,412.9,44.6z
			"/>
	</g>
</g>
</svg>
