<?xml version="1.0" encoding="utf-8"?>
<!-- Generator: Adobe Illustrator 28.2.0, SVG Export Plug-In . SVG Version: 6.00 Build 0)  -->
<svg version="1.1" id="Layer_1" xmlns="http://www.w3.org/2000/svg" xmlns:xlink="http://www.w3.org/1999/xlink" x="0px" y="0px"
	 viewBox="0 0 39.1 48" style="enable-background:new 0 0 39.1 48;" xml:space="preserve">
<style type="text/css">
	.st0{fill:#494949;}
	.st1{fill:#1C1C1C;}
</style>
<g>
	<path d="M30.2,14.3c0.1-4.5-3.8-8-9.1-8H9.9c-0.5,0-1,0.3-1,0.9L4.4,33.7c-0.1,0.5,0.3,0.9,0.7,1c0.1,0,0.1,0,0.2,0h6.6l-1,6.1
		c-0.1,0.5,0.3,0.9,0.7,1c0.1,0,0.1,0,0.2,0h5.4c0.3,0,0.5-0.1,0.7-0.2c0.2-0.2,0.3-0.4,0.3-0.7l1.6-8.8c0-0.2,0.2-0.6,0.3-0.7
		c0.2-0.2,0.3-0.2,0.6-0.2h3.3c5.2,0,9.7-3.6,10.5-8.5C35,19,33.4,15.9,30.2,14.3L30.2,14.3z"/>
	<path class="st0" d="M13.3,24.9l-1.7,9.9l-1,6.2c-0.1,0.5,0.3,0.9,0.7,1c0.1,0,0.1,0,0.2,0h5.7c0.5,0,1-0.3,1-0.9l1.5-9
		c0.1-0.5,0.5-0.9,1-0.9H24c5.2,0,9.7-3.6,10.5-8.6c0.6-3.5-1.3-6.7-4.4-8.3c0,0.4,0,0.7-0.1,1.1c-0.8,5-5.3,8.6-10.5,8.6h-5.2
		C13.8,24,13.4,24.3,13.3,24.9z"/>
	<path class="st1" d="M11.7,34.8H5c-0.5,0-0.9-0.4-0.9-0.8c0-0.1,0-0.1,0-0.2L8.6,6.9C8.7,6.4,9.1,6,9.7,6H21c5.4,0,9.2,3.7,9.1,8.2
		c-1.3-0.7-2.9-1.1-4.6-1.1h-9.4c-0.5,0-1,0.3-1,0.9l-1.7,10.8L11.7,34.8L11.7,34.8z"/>
</g>
</svg>
