<?xml version="1.0" encoding="utf-8"?>
<!-- Generator: Adobe Illustrator 26.0.1, SVG Export Plug-In . SVG Version: 6.00 Build 0)  -->
<svg version="1.1" id="Layer_1" xmlns="http://www.w3.org/2000/svg" xmlns:xlink="http://www.w3.org/1999/xlink" x="0px" y="0px"
	 viewBox="0 0 39.1 48" style="enable-background:new 0 0 39.1 48;" xml:space="preserve">
<style type="text/css">
	.st0{fill:#494949;}
	.st1{fill:#1C1C1C;}
</style>
<g>
	<path d="M31.8,12.3c0.1-5.4-4.4-9.6-10.5-9.6H8.5c-0.6,0-1.1,0.4-1.2,1.1L2.2,35.7c-0.1,0.6,0.3,1.1,0.8,1.2c0.1,0,0.1,0,0.2,0h7.6
		l-1.2,7.4c-0.1,0.6,0.3,1.1,0.8,1.2c0.1,0,0.1,0,0.2,0h6.2c0.3,0,0.6-0.1,0.8-0.3c0.2-0.2,0.3-0.5,0.3-0.8l1.8-10.6
		c0-0.3,0.2-0.7,0.4-0.9c0.2-0.2,0.4-0.3,0.7-0.3h3.8c6,0,11.2-4.3,12.1-10.3C37.3,18,35.5,14.2,31.8,12.3L31.8,12.3z"/>
	<path class="st0" d="M12.4,25.1L10.5,37l-1.2,7.5c-0.1,0.6,0.3,1.1,0.8,1.2c0.1,0,0.1,0,0.2,0h6.5c0.6,0,1.1-0.4,1.2-1.1l1.7-10.9
		c0.1-0.6,0.6-1.1,1.2-1.1h3.8c6,0,11.2-4.4,12.1-10.4c0.7-4.2-1.5-8.1-5.1-10c0,0.5,0,0.9-0.1,1.3c-0.9,6-6.1,10.4-12.1,10.4h-6
		C13,24,12.5,24.4,12.4,25.1z"/>
	<path class="st1" d="M10.5,37H2.9c-0.6,0-1-0.5-1-1c0-0.1,0-0.1,0-0.2L7,3.4c0.1-0.6,0.6-1.1,1.2-1.1h13c6.2,0,10.6,4.5,10.5,9.9
		c-1.5-0.8-3.3-1.3-5.3-1.3H15.6c-0.6,0-1.1,0.4-1.2,1.1l-2,13L10.5,37L10.5,37z"/>
</g>
</svg>
