<?xml version="1.0" encoding="utf-8"?>
<!-- Generator: Adobe Illustrator 28.2.0, SVG Export Plug-In . SVG Version: 6.00 Build 0)  -->
<svg version="1.1" id="Layer_1" xmlns:v="https://vecta.io/nano"
	 xmlns="http://www.w3.org/2000/svg" xmlns:xlink="http://www.w3.org/1999/xlink" x="0px" y="0px" viewBox="0 0 584.8 720"
	 style="enable-background:new 0 0 584.8 720;" xml:space="preserve">
<style type="text/css">
	.st0{fill:#001C64;}
	.st1{fill:#0070E0;}
	.st2{fill:#003087;}
</style>
<g transform="translate(898.192 276.071)">
	<path class="st0" d="M-654.7-81.7c-7.8,0-14.5,5.7-15.7,13.4l-26.2,165.6l-24,152.2l0,0.1l0-0.1l24-152.2
		c1.2-7.7,7.9-13.4,15.7-13.4h76.7c77.1,0,142.6-56.2,154.6-132.3c0.9-5.8,1.4-11.5,1.5-17.2v0h0c-19.6-10.3-42.6-16.1-67.9-16.1
		H-654.7z"/>
	<path class="st1" d="M-448.1-65.5c-0.1,5.7-0.6,11.4-1.5,17.2c-12,76.1-77.4,132.3-154.6,132.3h-76.7c-7.8,0-14.5,5.7-15.7,13.4
		l-24,152.2l-15.1,95.5c-1.1,7.1,3.7,13.7,10.8,14.8c0.7,0.1,1.3,0.2,2,0.2h83.2c7.8,0,14.5-5.7,15.7-13.4l21.9-138.7
		c1.2-7.7,7.9-13.4,15.7-13.4h49c77.1,0,142.6-56.2,154.6-132.3C-374.2,8-401.5-41.2-448.1-65.5L-448.1-65.5z"/>
	<path class="st2" d="M-749.2-192.1c-7.8,0-14.5,5.7-15.7,13.4l-65.3,413.2c-1.1,7.1,3.7,13.7,10.8,14.8c0.7,0.1,1.3,0.2,2,0.2h96.8
		l24-152.2l26.2-165.6c1.2-7.7,7.9-13.4,15.7-13.4H-516c25.2,0,48.3,5.9,67.9,16.1c1.3-69.3-56-126.5-134.7-126.5H-749.2z"/>
</g>
</svg>
