<?xml version="1.0" encoding="utf-8"?>
<!-- Generator: Adobe Illustrator 28.2.0, SVG Export Plug-In . SVG Version: 6.00 Build 0)  -->
<svg version="1.1" id="layer" xmlns="http://www.w3.org/2000/svg" xmlns:xlink="http://www.w3.org/1999/xlink" x="0px" y="0px"
	 viewBox="0 0 616 170" style="enable-background:new 0 0 616 170;" xml:space="preserve">
<style type="text/css">
	.st0{fill:#212E61;}
</style>
<path class="st0" d="M449.8,43.9H431c-0.8,0-1.4,0.6-1.4,1.4v58.1c0,0.8,0.6,1.4,1.4,1.4h18.7c0.8,0,1.4-0.6,1.4-1.4V45.3
	C451.1,44.7,450.5,43.9,449.8,43.9 M533.4,26.2h-18.7c-0.8,0-1.4,0.6-1.4,1.4v75.9c0,0.8,0.6,1.4,1.4,1.4h18.7
	c0.8,0,1.4-0.6,1.4-1.4V27.5C534.8,26.7,534.1,26.2,533.4,26.2 M440.4,14.3c-6.6,0-11.9,5.3-11.9,11.8s5.3,11.8,11.9,11.8
	s11.9-5.3,11.9-11.8C452.2,19.7,446.9,14.3,440.4,14.3 M608,51.7v-6.2c0-0.8-0.6-1.4-1.4-1.4h-18.7c-0.8,0-1.4,0.6-1.4,1.4v31.7
	c0,6.6-3.6,10.1-8.7,10.1c-5.1,0-8.4-3.5-8.4-10.1V45.4c0-0.8-0.6-1.4-1.4-1.4h-18.7c-0.8,0-1.4,0.6-1.4,1.4v31.7
	c0,12.5,1.8,18.4,3.9,21.2c3.7,4.9,9.2,7.9,16.4,7.9c6.5,0,11-3,15-6.1c1.3-1,3.2-1.6,3.2,1.1v5.4c-0.1,3.6-2.5,6.7-5.5,8.3
	c-0.1,0-0.1,0.1-0.2,0.1c-1.4,0.7-3.1,1.2-4.8,1.1c0,0-4.2,0-6.4-0.4c-0.8-0.1-1.6,0.4-1.6,1.2l-1.4,16.1c-0.1,0.7,0.4,1.4,1.2,1.5
	c7,1.1,14.4,0.9,22.3-1.8c12.4-4.2,18-13.3,18-26.5L608,51.7L608,51.7 M499.9,43.9h-8.4c-0.8,0-1.4-0.6-1.4-1.4V27.4
	c0-0.8-0.6-1.4-1.4-1.4H470c-0.8,0-1.4,0.6-1.4,1.4v15.1c0,0.8-0.6,1.4-1.4,1.4h-5.8c-0.8,0-1.4,0.6-1.4,1.4v16
	c0,0.8,0.6,1.4,1.4,1.4h5.8c0.8,0,1.4,0.6,1.4,1.4v26.3c0,8.7,6,15.7,15.8,15.7c7.2,0,13.3-1.1,15.9-2.3c0.6-0.3,1-0.7,1-1.3V89.7
	c0-0.8-0.8-1.5-1.6-1.4c-3.1,0.5-9.6,1.9-9.6-6.3V64.2c0-0.8,0.6-1.4,1.4-1.4h8.4c0.8,0,1.4-0.6,1.4-1.4v-16
	C501.3,44.7,500.7,43.9,499.9,43.9 M207.7,63.7c7.4,0,11.7-3.6,11.7-9.3v-0.2c0-6.2-4.5-9.3-11.8-9.3h-12.9c-0.8,0-1.4,0.6-1.4,1.4
	v16.1c0,0.8,0.6,1.4,1.4,1.4h13V63.7z M171.4,27.4c0-0.8,0.6-1.4,1.4-1.4h35.9c12.1,0,20.4,3.1,25.7,8.5c4.6,4.5,7,10.5,7,18.3V53
	c0,11.4-5.8,19.1-14.8,23.4c-0.8,0.4-1,1.3-0.6,2l16.4,23.9c0.4,0.6,0.3,1.5-0.4,1.9c-0.2,0.2-0.5,0.2-0.8,0.2h-21.6
	c-0.6,0-1.2-0.3-1.5-0.8l-14.6-21.9c-0.4-0.7-1.2-1.1-2-1h-6.9c-0.8,0-1.4,0.6-1.4,1.4v21c0,0.8-0.6,1.4-1.4,1.4h-19.1
	c-0.8,0-1.4-0.6-1.4-1.4l0,0L171.4,27.4L171.4,27.4z M289.4,67.8c0,0.8-0.6,1.4-1.3,1.4H269c-0.7,0-1.3-0.6-1.3-1.4
	c0-5.9,4.7-10.6,10.8-10.6C285,57.2,289.4,61.8,289.4,67.8L289.4,67.8L289.4,67.8z M277.5,42.7c-19,0-30.9,14.8-30.9,32.4
	c0,17.5,13,31,30.9,31c16,0,25.5-6.9,29.9-17.3c0.4-0.9-0.3-1.9-1.3-1.9h-16.4c-0.7,0-1.3,0.3-1.7,0.8c-2.1,2.2-4.8,3.6-8.5,3.6l0,0
	l0,0c-7,0-12.5-3.6-12.5-9.6c0-0.8,0.6-1.4,1.4-1.4l0,0l0,0h39.2c0.8,0,1.4-0.6,1.4-1.4V75C308.9,57.7,298,42.7,277.5,42.7
	L277.5,42.7z M395.4,42.7c-8.4,0-14.4,3.4-19.5,8.8c-0.4,0.4-1.1,0.5-1.5,0.1c-0.1-0.1-0.1-0.1-0.2-0.2c-3.4-5.5-9.3-8.6-16.9-8.6
	c-0.3,0-0.5,0-0.8,0c-6.3,0.2-11.8,3.2-15.5,7.7c-0.6,0.8-1.9,0.3-1.9-0.7v-4.3c0-0.7-0.6-1.3-1.3-1.3l0,0H319
	c-0.8,0-1.4,0.6-1.4,1.4v58c0,0.8,0.6,1.4,1.4,1.4h18.7c0.8,0,1.4-0.6,1.4-1.4V71.8c0-6.6,3.6-10.1,8.7-10.1s8.4,3.5,8.4,10.1v31.6
	c0,0.8,0.6,1.4,1.4,1.4h18.7c0.8,0,1.4-0.6,1.4-1.4V71.7c0-6.6,3.7-10.1,8.8-10.1c5.1,0,8.4,3.5,8.4,10.1v31.7
	c0,0.8,0.6,1.4,1.4,1.4H415c0.8,0,1.4-0.6,1.4-1.4V64.9C416.3,50.7,408.4,42.7,395.4,42.7 M119.6,84.7l-46.7-34
	c-2.4-1.7-5.5-1.7-7.9,0L44.2,65.8c-1.2,0.9-2.7,1.2-4.2,1s-2.8-1-3.7-2.2s-1.2-2.7-1-4.2s1-2.8,2.2-3.7l14.8-10.7l0,0l12.9-9.3
	c7.2-5.2,17.1-4.6,23.5,1.5c1.4,1.4,3.6,1.4,5.2,0.3l25.7-18.7V84.7L119.6,84.7z M119,97.9l-0.1,0.4c-0.2,1-0.8,2.4-1.5,3.1
	c-1.9,1.8-4.7,1.9-6.7,0.5L88,85.3l-0.2-0.1c-1.4-1-3.6-1-4.9,0.2c-1.6,1.4-1.7,3.8-0.3,5.4c0.2,0.2,0.4,0.4,0.6,0.5l0.3,0.2
	l20.9,15.2c1.2,0.8,2,2.1,2.2,3.5c0.3,2-0.5,3.8-2.1,5l-0.5,0.3c-1.8,1.3-4.3,1.3-6.1,0L72,96.7c-1.4-1-3.6-1-4.9,0.2
	c-1.6,1.4-1.7,3.8-0.3,5.4c0.2,0.2,0.4,0.4,0.6,0.5l21.2,15.4c1.2,0.8,2,2.1,2.2,3.5c0.3,2-0.5,3.8-2.1,5l-0.5,0.3
	c-1.8,1.3-4.3,1.3-6.1,0l-4.7-3.4l-21.2-15.4c-1.4-1-3.6-1-4.9,0.2c-1.6,1.4-1.7,3.8-0.3,5.4c0.2,0.2,0.4,0.4,0.6,0.5l21.2,15.4
	c1.2,0.8,2,2.1,2.2,3.5c0.3,2-0.5,3.8-2.1,5l-0.5,0.3c-1.6,1.2-3.7,1.3-5.5,0.4L16.2,102V19.8l22,16l6.9,5L32.5,50
	c-3,2.2-5,5.4-5.6,9.1c-0.6,3.6,0.3,7.4,2.5,10.4s5.4,5,9.1,5.6c0.7,0.1,1.5,0.2,2.2,0.2c2.9,0,5.7-0.9,8.2-2.7l17.6-12.8
	c1.4-1,3.2-1,4.6,0l46.2,33.6C118.7,94.5,119.3,96.2,119,97.9L119,97.9z M113.7,13.8L92.8,29c-0.6,0.5-1.5,0.5-2.2,0.1
	c-8.6-5.6-19.7-5.8-28.4-0.4c-0.3,0.1-0.5,0.3-0.8,0.4l-9,6.6L22.3,13.9L113.7,13.8L113.7,13.8z M126.7,6.8
	c-0.8-0.8-1.8-1.2-2.9-1.2H12.1C9.8,5.6,8,7.5,8,9.7l0,0V104c0,1.3,0.6,2.6,1.7,3.4l53.7,39l0,0c2.7,2,6.4,2,9.1,0l53.7-39
	c1.1-0.8,1.7-2,1.7-3.4V9.7C127.9,8.6,127.5,7.5,126.7,6.8L126.7,6.8z M189.8,143.6c0-2.8-2.1-4.7-5-4.7h-7.1v9.3h7.1
	C187.7,148.2,189.8,146.4,189.8,143.6L189.8,143.6z M172.6,163.7v-29.3h12.9c6.2,0,9.5,4.2,9.5,9.2s-3.4,9.1-9.5,9.1h-7.8v11
	L172.6,163.7L172.6,163.7z M198.3,163.7v-21.2h4.6v3.1c1.6-2,4.2-3.6,6.9-3.6v4.6c-0.5-0.1-0.9-0.1-1.4-0.1c-2,0-4.6,1.3-5.5,2.9
	v14.5L198.3,163.7 M228.4,153.1c0-3.7-2.2-7-6.1-7c-3.9,0-6.1,3.3-6.1,7c0,3.8,2.2,7.1,6.1,7.1C226.3,160.2,228.4,156.9,228.4,153.1
	L228.4,153.1z M211.4,153.1c0-6.1,4.1-11.1,10.9-11.1c6.8,0,10.9,5,10.9,11.1s-4.1,11.2-10.9,11.2
	C215.6,164.2,211.4,159.1,211.4,153.1L211.4,153.1z M263.1,163.7v-13.8c0-2.3-1-3.8-3.5-3.8c-2.1,0-4,1.4-4.9,2.8v14.9h-4.6V150
	c0-2.3-1-3.8-3.5-3.8c-2.1,0-4,1.4-4.9,2.8v14.9h-4.6v-21.2h4.6v2.9c0.9-1.3,3.7-3.4,6.9-3.4c3.2,0,5.1,1.6,5.8,3.9
	c1.2-1.9,4-3.9,7.2-3.9c3.9,0,6.1,2.1,6.1,6.4v15.3L263.1,163.7 M272.8,163.7h4.6v-21.2h-4.6V163.7z M272.3,137
	c0-1.6,1.3-2.9,2.8-2.9l0,0c1.6,0,2.9,1.3,2.9,2.8l0,0c0,1.6-1.3,2.9-2.8,2.9l0,0C273.6,139.9,272.3,138.6,272.3,137
	C272.3,137.1,272.3,137,272.3,137L272.3,137z M281.6,160.9l2.1-3.3c1.5,1.5,4.4,2.9,7.2,2.9c2.8,0,4.2-1.1,4.2-2.8
	c0-4.2-12.8-1.2-12.8-9.4c0-3.5,3-6.4,8.3-6.4c3.6,0,6.3,1.3,8.2,2.9l-1.9,3.3c-1.3-1.4-3.6-2.5-6.3-2.5c-2.4,0-3.9,1.1-3.9,2.6
	c0,3.7,12.8,0.9,12.8,9.4c0,3.8-3.1,6.6-8.8,6.6C287.1,164.2,283.8,163.1,281.6,160.9 M312.7,145.7c-3.9,0-5.8,3-5.9,5.6h12
	C318.6,148.8,316.9,145.7,312.7,145.7L312.7,145.7z M302,153.1c0-6.1,4.5-11.1,10.8-11.1c6.4,0,10.4,4.8,10.4,11.5v1.1h-16.3
	c0.4,3.2,2.7,5.8,6.7,5.8c2.1,0,4.5-0.8,6.1-2.4l2.1,3c-2.2,2-5.3,3.1-8.6,3.1C306.7,164.2,302,159.8,302,153.1L302,153.1z
	 M325.1,160.9l2.1-3.3c1.5,1.5,4.4,2.9,7.2,2.9c2.8,0,4.2-1.1,4.2-2.8c0-4.2-12.8-1.2-12.8-9.4c0-3.5,3-6.4,8.3-6.4
	c3.6,0,6.3,1.3,8.2,2.9l-1.9,3.3c-1.3-1.4-3.6-2.5-6.3-2.5c-2.4,0-3.9,1.1-3.9,2.6c0,3.7,12.8,0.9,12.8,9.4c0,3.8-3.1,6.6-8.8,6.6
	C330.5,164.2,327.3,163.1,325.1,160.9 M380,149c0-5.6-3.5-10.1-10-10.1h-5.8v20.3h5.8C376.3,159.2,380,154.6,380,149z M359.1,163.7
	v-29.3H370c9.2,0,15.3,6.1,15.3,14.6c0,8.7-6.2,14.7-15.3,14.7L359.1,163.7L359.1,163.7z M398.7,145.7c-3.9,0-5.8,3-5.9,5.6h12
	C404.6,148.8,402.9,145.7,398.7,145.7L398.7,145.7z M388,153.1c0-6.1,4.5-11.1,10.8-11.1c6.4,0,10.4,4.8,10.4,11.5v1.1h-16.3
	c0.4,3.2,2.7,5.8,6.7,5.8c2.1,0,4.5-0.8,6.1-2.4l2.1,3c-2.2,2-5.3,3.1-8.6,3.1C392.7,164.2,388,159.8,388,153.1L388,153.1z
	 M412.9,163.7h4.6v-29.3h-4.6V163.7z M422.6,163.7h4.6v-21.2h-4.6V163.7z M422,137c0-1.6,1.3-2.9,2.8-2.9l0,0c1.6,0,2.9,1.3,2.9,2.8
	l0,0c0,1.6-1.3,2.9-2.8,2.9l0,0C423.3,139.9,422,138.6,422,137C422,137.1,422,137,422,137L422,137z M438.7,163.7l-8.7-21.2h5
	l6.2,15.9l6.2-15.9h4.9l-8.7,21.2H438.7 M462.9,145.7c-3.9,0-5.8,3-5.9,5.6h12C468.8,148.8,467.1,145.7,462.9,145.7L462.9,145.7z
	 M452.2,153.1c0-6.1,4.5-11.1,10.8-11.1c6.4,0,10.4,4.8,10.4,11.5v1.1h-16.3c0.4,3.2,2.7,5.8,6.7,5.8c2.1,0,4.5-0.8,6.1-2.4l2.1,3
	c-2.2,2-5.3,3.1-8.6,3.1C456.9,164.2,452.2,159.8,452.2,153.1L452.2,153.1z M477.1,163.7v-21.2h4.6v3.1c1.6-2,4.2-3.6,6.9-3.6v4.6
	c-0.5-0.1-0.9-0.1-1.4-0.1c-2,0-4.6,1.3-5.5,2.9v14.5L477.1,163.7 M500,145.7c-3.9,0-5.8,3-5.9,5.6h12
	C505.9,148.8,504.2,145.7,500,145.7L500,145.7z M489.3,153.1c0-6.1,4.5-11.1,10.8-11.1c6.4,0,10.4,4.8,10.4,11.5v1.1h-16.3
	c0.4,3.2,2.7,5.8,6.7,5.8c2.1,0,4.5-0.8,6.1-2.4l2.1,3c-2.2,2-5.3,3.1-8.6,3.1C494,164.2,489.3,159.8,489.3,153.1L489.3,153.1z
	 M529.1,157.3v-8.4c-1-1.6-3.3-2.9-5.4-2.9c-3.7,0-6,2.9-6,7s2.3,7.1,6,7.1C525.8,160.2,528.1,158.9,529.1,157.3z M529.1,163.7v-2.9
	c-1.6,2.1-4,3.4-6.8,3.4c-5.4,0-9.4-4.1-9.4-11.2c0-6.9,4-11.1,9.4-11.1c2.7,0,5.1,1.2,6.8,3.5v-11h4.6v29.3L529.1,163.7
	L529.1,163.7z"/>
</svg>
