<?xml version="1.0" encoding="utf-8"?>
<!-- Generator: Adobe Illustrator 28.2.0, SVG Export Plug-In . SVG Version: 6.00 Build 0)  -->
<svg version="1.1" id="Layer_1" xmlns="http://www.w3.org/2000/svg" xmlns:xlink="http://www.w3.org/1999/xlink" x="0px" y="0px"
	 viewBox="0 0 324 256" style="enable-background:new 0 0 324 256;" xml:space="preserve">
<style type="text/css">
	.st0{fill:#FF6100;}
</style>
<path class="st0" d="M5,171.8v57.4h42.6v-50.4c0-22.3,12.6-36.8,43.1-37.9v-42C34.7,99.8,5,128.7,5,171.8z"/>
<path class="st0" d="M251.5,97c-39.6,0.2-68,28.4-68,67c0,38.2,23.7,63.3,63.8,67l27.9-20.9l0.9,0.5v18.7H319v-65.1
	C319,123.5,292.1,96.8,251.5,97z M251.5,190c-14.7,0-25.3-10.8-25.3-25.8s10.6-25.8,25.3-25.8c14.7,0,24.8,10.8,24.8,25.8
	S266,190,251.5,190z"/>
<path class="st0" d="M161.7,98.9h-42.7v130.3h42.7V98.9z"/>
<path class="st0" d="M140.4,24.9c-5.6,0-11.2,1.6-15.9,4.7c-4.7,3.1-8.4,7.5-10.5,12.6c-2.1,5.1-2.8,10.8-1.6,16.2
	c1,5.4,3.8,10.5,7.8,14.3c11.3,11.2,29.5,11,40.5-0.3c1.2-1.2,2.3-2.4,3.1-3.8c7.5-11.2,6.1-26-3.5-35.4c-2.6-2.6-5.8-4.7-9.2-6.1
	S144,24.9,140.4,24.9L140.4,24.9z"/>
</svg>
