<?xml version="1.0" encoding="utf-8"?>
<!-- Generator: Adobe Illustrator 28.2.0, SVG Export Plug-In . SVG Version: 6.00 Build 0)  -->
<svg version="1.1" id="Layer_1" xmlns="http://www.w3.org/2000/svg" xmlns:xlink="http://www.w3.org/1999/xlink" x="0px" y="0px"
	 viewBox="0 0 800 800" style="enable-background:new 0 0 800 800;" xml:space="preserve">
<style type="text/css">
	.st0{fill-rule:evenodd;clip-rule:evenodd;fill:#862165;}
</style>
<g>
	<path class="st0" d="M728.3,292.6V531h65.6V280.9L728.3,292.6"/>
	<path class="st0" d="M632.6,292.6l65.5-11.7V531h-65.5V292.6"/>
	<path class="st0" d="M539.2,531V348.1h65.6V531H539.2"/>
	<path class="st0" d="M539.7,298.4c0-17.7,14.5-32.1,32.3-32.1c17.9,0,32.3,14.4,32.3,32.1c0,17.8-14.5,32.1-32.3,32.1
		C554.2,330.6,539.7,316.2,539.7,298.4"/>
	<path class="st0" d="M502.2,345.4c-60.6,1.9-91.4,29-91.4,82.7V531H477v-83.9c0-32.2,4.2-45.9,42.7-47.3v-53.5
		C513.2,345,502.2,345.4,502.2,345.4L502.2,345.4"/>
	<path class="st0" d="M324.3,347.9c-1.5,3.7-11.9,33.1-37.3,63.7V280.9l-67.7,13.3V531H287v-73.2c19.6,29.2,29.3,73.2,29.3,73.2
		h81.1c-8-33.1-43.1-94.2-43.1-94.2c31.5-39.7,45.3-81.9,47.5-88.9H324.3"/>
	<path class="st0" d="M105.8,374c-8.3-0.5-27.5-1.8-27.5-18.9c0-20.7,27.6-20.7,38-20.7c18.2,0,41.8,5.3,58.7,10.4
		c0,0,9.4,3.3,17.4,6.7l0.7,0.2v-56.7l-1-0.3c-19.9-6.9-43-13.6-85.9-13.6c-73.9,0-100.1,42.8-100.1,79.5c0,21.1,9.1,70.9,93.8,76.6
		c7.2,0.4,26.2,1.5,26.2,19.3c0,14.7-15.6,23.3-41.8,23.3c-28.7,0-56.6-7.3-73.6-14.2v58.4c25.4,6.6,53.9,9.9,87.4,9.9
		c72.3,0,104.7-40.5,104.7-80.6C202.8,407.6,166.6,378,105.8,374L105.8,374"/>
</g>
</svg>
