<?xml version="1.0" encoding="utf-8"?>
<!-- Generator: Adobe Illustrator 28.2.0, SVG Export Plug-In . SVG Version: 6.00 Build 0)  -->
<svg version="1.1" id="Layer_1" xmlns="http://www.w3.org/2000/svg" xmlns:xlink="http://www.w3.org/1999/xlink" x="0px" y="0px"
	 viewBox="0 0 594.3 406.3" style="enable-background:new 0 0 594.3 406.3;" xml:space="preserve">
<style type="text/css">
	.st0{fill:#B8DEC2;}
	.st1{fill:#EE3935;}
	.st2{fill:#0B6936;}
	.st3{fill:#FAEEE5;}
</style>
<g>
	<g>
		<path class="st0" d="M250,222.7c-13.9,1-25.6,9.8-30.6,22.1c-27-22.4-44.3-56.2-44.3-94c0-42.2,21.4-79.4,54-101.3
			c-0.3,2.2-0.4,4.5-0.4,6.8c0,16.8,7.9,31.8,20.1,41.5c-11.5,17.7-18.2,38.9-18.2,61.6C230.6,182.8,237.8,204.6,250,222.7z"/>
		<path class="st0" d="M419.2,150.8c0,30.8-11.4,58.9-30.2,80.3l-84.3-127.3L296.3,91l0-0.1c11.1-4.7,19.5-14.5,22.1-26.5l16-11.5
			l16.4-11.8C391.3,60.9,419.2,102.6,419.2,150.8z"/>
		<path class="st1" d="M330.4,35.8l-15.1,3.6c-1.9-3.8-4.4-7.3-7.5-10.2c-6.8-6.6-16.1-10.7-26.3-10.7c-14.6,0-27.3,8.3-33.5,20.5
			c-2.6,5.2-4.1,11-4.1,17.2c0,11.8,5.5,22.4,14,29.3c-3.3,3.8-6.3,7.9-9.1,12.2C236.5,88,228.7,73,228.7,56.2
			c0-2.3,0.1-4.5,0.4-6.8c3.3-26,25.5-46.1,52.5-46.1c20.9,0,38.9,12.1,47.5,29.6C329.5,33.8,329.9,34.8,330.4,35.8z"/>
		<path class="st2" d="M389.4,231.6c-13.1,8.3-28.6,13.2-45.2,13.2c-46.6,0-84.3-37.8-84.3-84.3c0-28.8,14.4-54.2,36.4-69.4
			L389.4,231.6z"/>
		<path class="st3" d="M389.4,231.6c-13.1,8.3-28.6,13.2-45.2,13.2c-46.6,0-84.3-37.8-84.3-84.3c0-28.8,14.4-54.2,36.4-69.4l0-0.1
			c11.1-4.7,19.5-14.5,22.1-26.5c0.6-2.6,0.9-5.4,0.9-8.2c0-6-1.4-11.8-4-16.8c-0.4-0.7-0.7-1.4-1.1-2.1c-0.1-0.2-0.2-0.4-0.4-0.6
			c-0.3-0.5-0.6-0.9-0.9-1.4c-0.1-0.2-0.3-0.4-0.4-0.6c-0.5-0.7-1-1.4-1.6-2.1c-0.1-0.2-0.3-0.3-0.4-0.5c-0.4-0.5-0.8-0.9-1.2-1.3
			c-0.1-0.1-0.3-0.3-0.4-0.4c-0.4-0.4-0.7-0.8-1.1-1.1h0c-1-1-2-1.9-3.1-2.7c-0.1-0.1-0.3-0.2-0.4-0.3c-1.1-0.9-2.3-1.7-3.6-2.4
			c-0.2-0.1-0.5-0.3-0.7-0.4c-0.3-0.2-0.6-0.3-0.9-0.5c-0.2-0.1-0.4-0.2-0.6-0.3c-0.1,0-0.1-0.1-0.2-0.1c-0.2-0.1-0.4-0.2-0.7-0.3
			c-0.3-0.1-0.5-0.3-0.8-0.4c-0.2-0.1-0.5-0.2-0.7-0.3l-0.2-0.1c-0.3-0.1-0.5-0.2-0.8-0.3c-0.4-0.2-0.8-0.3-1.2-0.5
			c-0.4-0.1-0.7-0.2-1.1-0.4c-0.1,0-0.3-0.1-0.4-0.1c-0.2-0.1-0.5-0.1-0.7-0.2c-0.2-0.1-0.5-0.1-0.7-0.2c-0.2-0.1-0.5-0.1-0.7-0.2
			c-0.2,0-0.4-0.1-0.6-0.1c-0.5-0.1-1.1-0.2-1.6-0.3c-0.2,0-0.4-0.1-0.6-0.1c-0.1,0-0.3,0-0.4-0.1c-0.3,0-0.6-0.1-0.9-0.1
			c-0.3,0-0.5-0.1-0.8-0.1c-0.3,0-0.6-0.1-0.9-0.1c-0.4,0-0.8-0.1-1.2-0.1c-0.2,0-0.5,0-0.7,0c-0.3,0-0.6,0-1,0c-0.3,0-0.6,0-0.9,0
			c-0.2,0-0.4,0-0.5,0c-0.2,0-0.4,0-0.6,0c-0.1,0-0.1,0-0.2,0c-0.2,0-0.5,0-0.7,0c-0.3,0-0.5,0-0.8,0.1c-0.1,0-0.2,0-0.2,0
			c-0.6,0.1-1.1,0.1-1.7,0.2c-0.1,0-0.1,0-0.2,0c-0.3,0-0.6,0.1-0.8,0.1c-0.2,0-0.5,0.1-0.7,0.1c-0.2,0-0.4,0.1-0.6,0.1
			c-0.2,0-0.4,0.1-0.6,0.1c-0.2,0-0.4,0.1-0.6,0.1c-0.1,0-0.1,0-0.2,0c-0.1,0-0.3,0.1-0.4,0.1c-0.2,0-0.3,0.1-0.5,0.1
			c-0.1,0-0.3,0.1-0.4,0.1c-0.2,0.1-0.4,0.1-0.7,0.2c-0.2,0.1-0.5,0.2-0.7,0.2c-0.1,0-0.3,0.1-0.4,0.1c-0.5,0.2-1,0.4-1.6,0.6
			c-0.3,0.1-0.5,0.2-0.8,0.3c-0.3,0.1-0.6,0.3-1,0.4c-0.2,0.1-0.4,0.2-0.6,0.3c-0.7,0.4-1.5,0.7-2.2,1.1c-0.1,0.1-0.3,0.2-0.4,0.2
			c-0.2,0.1-0.4,0.2-0.5,0.3c-0.2,0.1-0.4,0.2-0.5,0.3c-0.3,0.2-0.7,0.4-1,0.6c-0.2,0.1-0.4,0.3-0.7,0.5c-0.2,0.1-0.3,0.2-0.4,0.3
			c-0.4,0.3-0.7,0.5-1.1,0.8c-0.1,0.1-0.3,0.2-0.4,0.3c-0.1,0-0.1,0.1-0.2,0.1c-0.1,0.1-0.3,0.2-0.4,0.3c-0.2,0.1-0.3,0.3-0.5,0.4
			c-0.2,0.1-0.3,0.3-0.5,0.4c-0.2,0.1-0.3,0.3-0.5,0.4c-0.3,0.3-0.6,0.6-0.9,0.9c-0.1,0.1-0.3,0.3-0.4,0.4c-0.3,0.3-0.6,0.6-0.9,1
			c-0.1,0.1-0.2,0.3-0.4,0.4c-0.1,0.1-0.1,0.1-0.2,0.2c-0.1,0.1-0.2,0.2-0.3,0.4c-0.1,0.2-0.3,0.3-0.4,0.5c-0.1,0.1-0.2,0.2-0.3,0.3
			c-0.5,0.6-0.9,1.2-1.4,1.8c-0.1,0.1-0.2,0.2-0.3,0.4c-0.5,0.7-1,1.5-1.4,2.2c-0.2,0.4-0.4,0.7-0.6,1.1c-0.2,0.4-0.4,0.7-0.6,1.1
			c-0.3,0.6-0.6,1.2-0.8,1.8c-0.1,0.1-0.1,0.3-0.2,0.4c-0.1,0.2-0.2,0.5-0.3,0.7c0,0,0,0.1-0.1,0.1c-0.1,0.3-0.2,0.6-0.3,0.8
			c0,0.1,0,0.1-0.1,0.2c-0.1,0.3-0.2,0.7-0.4,1c-0.1,0.3-0.2,0.6-0.3,0.9c0,0,0,0.1,0,0.1c-0.1,0.2-0.1,0.4-0.2,0.6
			c0,0.1-0.1,0.3-0.1,0.4c0,0.1-0.1,0.2-0.1,0.4c-0.1,0.2-0.1,0.5-0.2,0.7c-0.1,0.2-0.1,0.4-0.2,0.6c-0.1,0.3-0.1,0.5-0.2,0.8
			c-0.1,0.3-0.1,0.6-0.2,0.9c0,0.1,0,0.2-0.1,0.3c0,0.2-0.1,0.3-0.1,0.5c0,0.2-0.1,0.3-0.1,0.5c0,0.2-0.1,0.5-0.1,0.7
			c0,0.3-0.1,0.5-0.1,0.8c0,0.1,0,0.2,0,0.3c0,0.3-0.1,0.5-0.1,0.8c0,0.3,0,0.5-0.1,0.8c0,0.1,0,0.2,0,0.3c0,0.3,0,0.6,0,0.8
			c0,0.3,0,0.6,0,0.9c0,11.8,5.5,22.4,14,29.3c-3.3,3.8-6.3,7.9-9.1,12.2c-11.5,17.7-18.2,38.9-18.2,61.6c0,23.5,7.1,45.3,19.4,63.5
			c3.4,5,7.1,9.7,11.3,14.1c15.8,16.8,36.6,28.8,60,33.6h0c7.3,1.5,15,2.3,22.7,2.3c22.4,0,43.3-6.5,60.9-17.7L389.4,231.6z"/>
		<circle class="st2" cx="296.7" cy="49" r="8.5"/>
		<path class="st2" d="M372.2,25.7l-21.4,15.4l-16.4,11.8l-16,11.5c0.6-2.6,0.9-5.4,0.9-8.2c0-6-1.4-11.8-4-16.8l15.1-3.6l4.6-1.1
			L372.2,25.7z"/>
		<path class="st2" d="M261.3,236.8c-12.5,0.3-23.4,7-29.6,17c-4.3-2.7-8.4-5.7-12.3-9c5.1-12.3,16.8-21.1,30.6-22.1
			C253.4,227.7,257.2,232.4,261.3,236.8z"/>
	</g>
	<g>
		<path class="st2" d="M25.7,322.1h-22v-12.4c20,0,37,0,57.1,0v12.4h-22v59.7H25.7V322.1z"/>
		<path class="st2" d="M94.2,331h11.6v50.8H94.4l-0.6-7.4c-2.8,6-10.4,8.9-15.9,9c-14.5,0.1-25.2-9.2-25.2-27
			c0-17.5,11.2-26.7,25.5-26.6c6.5,0,12.8,3.2,15.6,8.2L94.2,331z M64.8,356.4c0,9.7,6.4,15.5,14.5,15.5c19,0,19-30.8,0-30.8
			C71.3,341,64.8,346.7,64.8,356.4z"/>
		<path class="st2" d="M116,403v-72h11.3l0.8,7c3.8-5.7,10.3-8.1,15.9-8.1c15.1,0,25.1,11.6,25.1,26.6c0,14.8-9,26.6-24.7,26.6
			c-5.2,0-12.8-1.6-16.3-7.2V403H116z M157,356.5c0-7.9-5.2-14.4-13.9-14.4c-8.7,0-13.9,6.5-13.9,14.4s5.7,14.4,13.9,14.4
			C151.3,370.9,157,364.4,157,356.5z"/>
		<path class="st2" d="M195,316.7v14.4h13.5V342h-13.6v21.9c0,4.8,2.6,7.2,6.3,7.2c1.9,0,4.1-0.6,5.9-1.5l3.4,10.7
			c-3.5,1.4-6.3,2.1-10,2.2c-10.6,0.4-17.6-5.9-17.6-18.5V342h-9.1v-10.8h9.1v-13.1L195,316.7z"/>
		<path class="st2" d="M256.3,331h11.6v50.8h-11.4l-0.6-7.4c-2.8,6-10.4,8.9-15.9,9c-14.5,0.1-25.2-9.2-25.2-27
			c0-17.5,11.2-26.7,25.5-26.6c6.5,0,12.8,3.2,15.6,8.2L256.3,331z M227,356.4c0,9.7,6.4,15.5,14.5,15.5c19,0,19-30.8,0-30.8
			C233.4,341,227,346.7,227,356.4z"/>
		<path class="st2" d="M278.2,403v-72h11.3l0.8,7c3.8-5.7,10.3-8.1,15.9-8.1c15.1,0,25.1,11.6,25.1,26.6c0,14.8-9,26.6-24.7,26.6
			c-5.2,0-12.8-1.6-16.3-7.2V403H278.2z M319.1,356.5c0-7.9-5.2-14.4-13.9-14.4c-8.7,0-13.9,6.5-13.9,14.4s5.7,14.4,13.9,14.4
			S319.1,364.4,319.1,356.5z"/>
		<path class="st2" d="M405.1,327.2c-1.9-4.1-7.2-8-13.2-8c-7.8,0-11.6,4.2-11.6,9.6c0,6.3,5.7,8,12.4,9.1
			c11.6,1.9,22.5,5.8,22.5,23c0,16.1-11,23-23.5,23c-11.4,0-20.2-4.5-24.3-17.7l8.8-5.9c2.5,7.9,8.9,11.4,15.7,11.4
			c6.6,0,12.8-3,12.8-10.8c0-6.8-5.5-9.6-12.9-10.6c-11.4-1.8-21.9-5.7-21.9-21.8c0-14.8,11.3-20.9,21.6-21
			c8.7,0,17.7,3.2,21.9,14.3L405.1,327.2z"/>
		<path class="st2" d="M435.2,361c0.8,6.3,6.1,10.8,14.6,10.8c4.5,0,10.3-1.8,13.1-4.7l7.7,7.9c-5.2,5.6-13.6,8.2-21,8.2
			c-16.9,0-26.9-10.8-26.9-27.1c0-15.5,10.1-26.6,26-26.6c16.4,0,26.6,10.5,24.7,31.4H435.2z M461.8,350.6
			c-0.8-6.6-5.8-9.9-12.7-9.9c-6.5,0-11.9,3.3-13.7,9.9H461.8z"/>
		<path class="st2" d="M518.7,381.9v-26.6c0-7.7-4.1-13.6-11.8-13.6c-7.4,0-12.5,6.5-12.5,14.2v26h-12v-50.9h10.8l0.8,6.9
			c5-5,9.9-7.6,16.1-7.6c11.5,0,20.7,9,20.7,24.9v26.7H518.7z"/>
		<path class="st2" d="M590.7,309.9v72h-11.3l-0.8-7c-3.8,6.1-9.8,8.1-15.8,8.1c-14.4,0-25.2-9.9-25.2-26.6
			c0-17.5,10.6-26.6,24.9-26.6c5.2,0,13.2,2.9,16.1,8.1v-28.1H590.7z M549.7,356.5c0,8.9,6.1,14.9,13.9,14.9
			c7.6,0,14.2-5.8,14.2-14.9c0-8.9-6.5-14.8-14.2-14.8C555.9,341.7,549.7,347.3,549.7,356.5z"/>
	</g>
</g>
</svg>
