<?xml version="1.0" encoding="utf-8"?>
<!-- Generator: Adobe Illustrator 28.2.0, SVG Export Plug-In . SVG Version: 6.00 Build 0)  -->
<svg version="1.1" id="Layer_1" xmlns="http://www.w3.org/2000/svg" xmlns:xlink="http://www.w3.org/1999/xlink" x="0px" y="0px"
	 viewBox="0 0 371 134" style="enable-background:new 0 0 371 134;" xml:space="preserve">
<style type="text/css">
	.st0{fill:#256296;}
	.st1{fill:#1F3863;}
	.st2{fill:#1C3661;}
	.st3{fill:#276397;}
	.st4{fill:#1D3661;}
	.st5{fill:#F9A646;}
</style>
<g id="HomePay">
	<path class="st0" d="M313,102.7c-4.5,0-8.5,0-12.5,0c-1.1-1-0.7-2.3-1.3-3.5c-5,4.3-10.7,5.6-17.1,3.8c-6.2-1.8-9.7-6.3-9.7-12.5
		c0-5.9,3.2-9.9,9.4-11.9c4.1-1.3,8.4-1,12.6-1.4c1.6-0.1,3.2-0.2,4.7-0.3c0.5-5.9-5.2-7.7-9.7-7.2c-2,0.2-3.9,0.7-5.8,1.3
		c-1.9,0.6-3.7,1.4-5.7,2.3c-0.9-2.2-1.9-4.3-3.1-7.2c-4,15.7-16.2,15.6-28.5,15.3c0,7.3,0,14.2,0,21.4c-4.7,0-9.2,0-13.9,0
		c0-19.3,0-38.7,0-58.6c9.4,0.4,18.7-0.8,28,0.8c8.9,1.6,13.3,7.4,14.6,18.7c3.2-0.9,6.4-1.9,9.6-2.6c5.3-1.2,10.6-1.3,15.9,0.1
		c7.7,2,12.3,7.3,12.5,15.2C313.2,84.8,313,93.6,313,102.7z M246.1,70.7c5-0.8,10.2,1.1,13.3-3.9c1.9-3,1.8-6.3-0.4-9.1
		c-3.5-4.2-8.3-2.5-12.9-2.6C246.1,60.3,246.1,65.1,246.1,70.7z M299.1,84.6c-3-0.4-5.7,0.2-8.3,0.5c-2.6,0.3-4.5,1.9-4.5,4.6
		c0,2.9,1.9,4.5,4.6,5C296.9,95.8,300,92,299.1,84.6z"/>
	<path class="st1" d="M181.2,102.7c-4.7,0-9,0-13.9,0c0-4.4,0-8.9,0-13.3c0-4.2-0.1-8.5-0.3-12.7c-0.2-2.6-1.2-4.9-4.3-5.2
		c-3.2-0.4-5.3,1-6.4,3.9c-0.9,2.3-1.1,4.8-1.1,7.3c0,6.6,0,13.1,0,19.9c-4.6,0-8.9,0-13.6,0c0-7.1,0-14,0-20.9c0-2-0.2-4-0.5-5.9
		c-0.4-2.3-1.5-4-4-4.3c-2.7-0.3-4.9,0.5-6.3,3c-1.5,2.9-1.4,6-1.5,9.1c-0.1,6.3,0,12.6,0,19c-4.8,0-9.1,0-13.6,0
		c0-14,0-27.7,0-41.7c4.4,0,8.7,0,13,0c1.1,1.3,0.1,3,1,4.6c3.3-3.6,7.3-5.9,12.4-5.5c4.9,0.4,8.9,2.1,11.2,7.2
		c3.8-5.5,8.8-7.8,15.2-7.1c6.8,0.8,10.5,4.1,12.1,10.8c0.9,3.9,0.6,7.9,0.6,11.9C181.2,89.3,181.2,95.9,181.2,102.7z"/>
	<path class="st2" d="M10.8,44.1c4.7,0,8.9,0,13.6,0c0,7.4,0,14.8,0,22.4c8,0,15.5,0,23.4,0c0-7.4,0-14.7,0-22.2c4.8,0,9.2,0,13.8,0
		c0,19.4,0,38.8,0,58.4c-4.5,0-8.9,0-13.6,0c0-8,0-15.9,0-24.1c-7.9,0-15.4,0-23.4,0c0,7.9,0,15.9,0,24.1c-4.8,0-9.2,0-13.8,0
		C10.8,83.1,10.8,63.7,10.8,44.1z"/>
	<path class="st3" d="M313.2,60.8c4.7,0,9.2,0,13.9,0c3,8.5,6.1,17,9.5,26.5c2.9-8.2,5.6-15.4,7.9-22.8c1-3.1,2.4-4.2,5.5-3.9
		c3.2,0.3,6.4,0.1,10.2,0.1c-3.1,7.6-6,14.7-8.9,21.8c-3.3,8.2-6.6,16.4-10,24.5c-5.1,12-12.7,14.9-25.3,9.5
		c0.8-3.1,1.7-6.3,2.5-9.3c1.3-0.7,2.1,0.1,3.1,0.2c2,0.2,4.2,0.9,5.5-1.2c1.2-2.1,2.5-4.1,1.4-6.9c-4.8-11.5-9.5-23-14.1-34.5
		C313.8,63.5,313,62.5,313.2,60.8z"/>
	<path class="st2" d="M88.8,103.7C73,103.8,63.1,92.5,65.7,77.3C67.3,67.3,75.1,61,87.1,60c17.2-1.5,29.2,13.7,23.5,29.8
		C107.6,98.4,99.3,103.7,88.8,103.7z M98,81.6c0-6.3-3.9-10.8-9.4-10.8c-5.5,0-9.4,4.5-9.4,10.8c0,6.4,3.9,10.7,9.4,10.7
		C94.2,92.3,98,88,98,81.6z"/>
	<path class="st4" d="M227.4,85.1c-9.5,0-19.1,0-28.7,0c-0.4,8.9,9,10.8,22.7,4.8c1.7,2.2,3.4,4.4,5.1,6.6
		c-6.6,7.5-22.4,9.6-32.1,4.3c-8.5-4.6-12.4-15.7-9.2-26.1c3.3-10.8,15.4-17,27.5-14.1C223.7,63.3,229.6,73,227.4,85.1z M198.4,77
		c5.6,0,11,0,16.4,0c-0.5-5-3.6-8-8.2-8C202.1,68.9,198.9,71.9,198.4,77z"/>
	<path class="st5" d="M180.1,14.9c-0.7,6.5-0.5,12,0.7,17.5c0.2,1-0.2,1.6-1,2.1c-11.8,6.7-19.1,17.6-26.8,28.8
		c-5.7-7.4-12.4-13.5-21.1-18c5-3,9.3-5.6,14-8.5c2.2,4,4.3,7.8,6.8,12.1C158.7,35.1,166.4,23.2,180.1,14.9z"/>
</g>
</svg>
