<?xml version="1.0" encoding="utf-8"?>
<!-- Generator: Adobe Illustrator 26.0.1, SVG Export Plug-In . SVG Version: 6.00 Build 0)  -->
<svg version="1.1" id="Layer_1" xmlns="http://www.w3.org/2000/svg" xmlns:xlink="http://www.w3.org/1999/xlink" x="0px" y="0px"
	 viewBox="0 0 3000 2000" style="enable-background:new 0 0 3000 2000;" xml:space="preserve">
<style type="text/css">
	.st0{display:none;fill:#FFFFFF;}
	.st1{fill:#E9F3FE;}
	.st2{fill:#82B378;}
	.st3{fill:#A8D29F;}
	.st4{fill:#F1A34F;}
	.st5{fill:#D86713;}
	.st6{fill:#4A75CB;}
	.st7{fill:#699FF0;}
	.st8{fill:#FFFFFF;}
	.st9{fill:#163560;}
	.st10{fill:#E49963;}
	.st11{fill:#FFB27D;}
	.st12{fill:#373480;}
	.st13{fill:#575B9F;}
	.st14{fill:#E2E7F2;}
	.st15{fill:#CED4EA;}
	.st16{fill:#BCC5DD;}
	.st17{fill:#1C468A;}
	.st18{fill:#E8945B;}
	.st19{fill:#2B478B;}
	.st20{fill:#233862;}
	.st21{fill:#D9935C;}
	.st22{fill:#466AA5;}
	.st23{fill:#E2810E;}
	.st24{fill:#FFB93E;}
	.st25{fill:#FFA412;}
	.st26{fill:#2E3552;}
	.st27{fill:#1C335C;}
	.st28{fill:#316193;}
	.st29{fill:#EFA856;}
</style>
<g>
	<rect class="st0" width="3000" height="2000"/>
	<path class="st1" d="M2804.4,1524.3c0,0,234.2-438.9-41.5-648.3c-153.8-116.9-363.8,90.6-519.8-223.1
		c-90.8-182.6-408.4-238-567.2,11.3c-158.8,249.2-295.3,248-404.9,201.9c-125.7-52.9-180.9-212-377.6-178.4
		c-227.4,38.9-196.9,274.7-364.5,233.6C206,842.2-33.4,1294.5,189.9,1527.5L2804.4,1524.3z"/>
	<g>
		<path class="st2" d="M1539.3,1258.5c0,0-45.6,33.9-54.5,31.8c-8.9-2.1,33.3-36.6,33.3-36.6c-15.9-7.6-65.3-2.8-65.3-2.8
			s-16.4,53-24.6,48.9c-8.1-4.2,17-46.2,17-46.2c-17.7-1.1-39.4,12.1-39.4,12.1c-29.7,23.5,2,60.4,2,60.4s-6.1,18.3-24.9,34.9
			c0,0-26.8,19.8-28.7,55.2l4.9,0.4c0,0,7.7-33,21.7-48.6c0.5-0.6,1.3-1.4,2.3-2.4c2.3-2.1,3.9-3.7,5-4.9c7-6.7,16.6-15.2,21.2-16.1
			c0,0-0.2-0.9-0.2-2.3c0.1,0.7,0.1,1.5,0.2,2.3c1.6,18.7,37.8,35,60.1,38.3c22.3,3.4,15.4-5.8,7.7-19.4s-32-19.7-37.5-25.9
			c-5.5-6.3,5.9-6.3,19.3-0.1c13.4,6.1,15.3,22.5,36.8,32.8c21.5,10.3,53.9-25.4,53.9-25.4c-17.2-0.9-41.7-19.5-40.8-25.2
			c0.9-5.7,41.6,9.8,48.6,10.6c7,0.7,22.8-7.9,25.2-35.9C1585.3,1266.3,1539.3,1258.5,1539.3,1258.5z"/>
		<g>
			<path class="st3" d="M1297.2,1279.5c0,0,50.4-28.2,26.9-66.5c0,0-18.8-23.5-38.9-29.5c0,0,10.7,57.1,0,58.4s-7.4-64.5-7.4-64.5
				s-53-25.5-73.9-23.5c0,0,32.9,55.7,22.2,54.4c-10.7-1.3-47.7-57.7-47.7-57.7s-54.4-10.1-63.1,22.2c-8.7,32.2,5.4,48.3,13.4,50.4
				c8.1,2,59.8,1.3,58.4,8.1c-1.3,6.7-36.3,17.5-55.7,11.4c0,0,21.5,53,49.7,50.4c28.2-2.7,36.9-20.1,54.4-21.5
				c17.5-1.3,30.2,3.4,21.5,8.1c-8.7,4.7-38.3,1.5-52.4,13.5c-14.1,12-25.5,19.4,0.7,24.7c26.2,5.4,73.2,2,82.6-18.1
				C1297.2,1279.5,1297.2,1279.5,1297.2,1279.5z"/>
			<path class="st2" d="M1310.6,1328.5c-14.1-26.2-13.4-49-13.4-49c-16.1-51-157.1-96.7-157.1-96.7
				c179.3,72.5,147.7,116.8,147.7,116.8c4.8,2.8,12.1,16.3,17.1,26.6c0.7,1.8,1.9,4.2,3.5,7.5h0c0.7,1.5,1.2,2.7,1.6,3.6
				c9.2,23.1,4.3,63,4.3,63l5.6,1.5C1332.4,1361.6,1310.6,1328.5,1310.6,1328.5z"/>
		</g>
		<g>
			<path class="st3" d="M1377.3,1240.6c0,0-66.4-37.2-35.4-87.6c0,0,24.8-31,51.3-38.9c0,0-14.2,75.2,0,77c14.2,1.8,9.7-85,9.7-85
				s69.9-33.6,97.4-31c0,0-43.4,73.5-29.2,71.7c14.2-1.8,62.8-76.1,62.8-76.1s71.7-13.3,83.2,29.2c11.5,42.5-7.1,63.7-17.7,66.4
				c-10.6,2.7-78.8,1.8-77,10.6c1.8,8.8,47.8,23,73.5,15c0,0-28.3,69.9-65.5,66.4s-48.7-26.6-71.7-28.3c-23-1.8-39.8,4.4-28.3,10.6
				c11.5,6.2,50.4,2,69,17.8c18.6,15.8,33.6,25.5-0.9,32.6c-34.5,7.1-96.5,2.7-108.9-23.9
				C1377.3,1240.6,1377.3,1240.6,1377.3,1240.6z"/>
			<path class="st2" d="M1584.4,1113.2c0,0-185.9,60.2-207.1,127.4c0,0,0.9,30.1-17.7,64.6c0,0-28.7,43.5-12.3,96.5l7.4-2
				c0,0-6.4-52.6,5.7-83c0.5-1.1,1.2-2.7,2.1-4.7l0,0c2.2-4.3,3.7-7.5,4.7-9.9c6.6-13.6,16.2-31.3,22.5-35
				C1389.7,1267.2,1348.1,1208.8,1584.4,1113.2z"/>
		</g>
		<path class="st4" d="M1245,1386.6c0,71.8,58.2,130,130,130c71.8,0,130-58.2,130-130H1245z"/>
		<path class="st4" d="M1490.8,1508.7h-231.6c-8.9,0-16,7.2-16,16l0,0h263.6l0,0C1506.9,1515.8,1499.7,1508.7,1490.8,1508.7z"/>
		<path class="st5" d="M1506,1390.6h-263.3c-1.1,0-2-0.9-2-2l0,0c0-1.1,0.9-2,2-2H1506c1.1,0,2,0.9,2,2l0,0
			C1508,1389.7,1507.1,1390.6,1506,1390.6z"/>
	</g>
	<g>
		<path class="st6" d="M1788.3,1524.7H2294c15.9,0,28.8-13,28.8-28.8V484.6c0-15.9-13-28.8-28.8-28.8h-505.7
			c-15.9,0-28.8,13-28.8,28.8v1011.3C1759.5,1511.7,1772.5,1524.7,1788.3,1524.7z"/>
		<path class="st7" d="M1733.7,1524.7h505.7c15.9,0,28.8-13,28.8-28.8V484.6c0-15.9-13-28.8-28.8-28.8h-505.7
			c-15.9,0-28.8,13-28.8,28.8v1011.3C1704.9,1511.7,1717.9,1524.7,1733.7,1524.7z"/>
		<g>
			<path class="st6" d="M1904,507.6h146.4c3.1,0,5.7-2.6,5.7-5.7l0,0c0-3.1-2.6-5.7-5.7-5.7H1904c-3.1,0-5.7,2.6-5.7,5.7l0,0
				C1898.3,505.1,1900.9,507.6,1904,507.6z"/>
			<path class="st6" d="M2076.5,507.6L2076.5,507.6c3.1,0,5.7-2.6,5.7-5.7l0,0c0-3.1-2.6-5.7-5.7-5.7l0,0c-3.1,0-5.7,2.6-5.7,5.7
				l0,0C2070.8,505.1,2073.3,507.6,2076.5,507.6z"/>
		</g>
		<path class="st6" d="M2016.4,1465.6c0-20.3-16.5-36.7-36.7-36.7s-36.7,16.5-36.7,36.7s16.5,36.7,36.7,36.7
			S2016.4,1485.9,2016.4,1465.6z"/>
	</g>
	<rect x="1753" y="540.5" class="st8" width="468.4" height="864.6"/>
	<path class="st6" d="M822.4,566.5h453.3c14.2,0,25.8,11.6,25.8,25.8v906.6c0,14.2-11.6,25.8-25.8,25.8H822.4
		c-14.2,0-25.8-11.6-25.8-25.8V592.3C796.5,578.1,808.2,566.5,822.4,566.5z"/>
	<path class="st7" d="M871.3,566.5h453.3c14.2,0,25.8,11.6,25.8,25.8v906.6c0,14.2-11.6,25.8-25.8,25.8H871.3
		c-14.2,0-25.8-11.6-25.8-25.8V592.3C845.5,578.1,857.1,566.5,871.3,566.5z"/>
	<rect x="863.6" y="643.1" class="st8" width="467.8" height="776.5"/>
	<path class="st6" d="M1040.7,602.7H1172c2.8,0,5.1,2.3,5.1,5.1c0,2.8-2.3,5.1-5.1,5.1h-131.3c-2.8,0-5.1-2.3-5.1-5.1
		C1035.6,605,1037.9,602.7,1040.7,602.7z"/>
	<path class="st6" d="M1017.4,602.7c2.8,0,5.1,2.3,5.1,5.1c0,2.8-2.3,5.1-5.1,5.1c-2.8,0-5.1-2.3-5.1-5.1
		C1012.3,605,1014.6,602.7,1017.4,602.7z"/>
	
		<ellipse transform="matrix(0.2298 -0.9732 0.9732 0.2298 -593.6645 2206.9622)" class="st6" cx="1097.5" cy="1478.5" rx="26.2" ry="26.2"/>
	<g>
		<path class="st9" d="M320.6,1524.1c0,0-42.2,1.5-48.5,0c-0.3-1.2-8.1-50.4-8.1-50.4l-6.5-45.5c-0.9-6.4,6.7-10.6,11.4-6.2
			c2.3,2.1,4.5,5.3,6,9.8c5.3,16,21,41.9,44.2,48.6C343.6,1487.4,320.6,1524.1,320.6,1524.1z"/>
		<path class="st10" d="M540.7,1295.8l-4.2,1.5c0,0-10.9-18.4-33.1-11c0,0-8.9,3.7-3.6,8.6c5.3,4.9,4,2.3,11.2,9.3
			c7.3,7,17.2,10.5,24,8.1l7.6-2.7L540.7,1295.8z"/>
		<path class="st9" d="M728,1449.8c0,0-154.9-118.4-199-119.7s-187,194.4-187,194.4h53.5c0,0,94.3-50.2,127.5-97.9
			c3.3-4.8,10.5-4.6,13.6,0.4c17.2,27.4,62,94.6,91,97.5C658.7,1527.6,728,1449.8,728,1449.8z"/>
		<path class="st11" d="M713.1,1127.7c0,0,1,7.8,2.2,17.3c1.7,12.4,3.9,27.9,5.4,32.7l46.6,11.8l3.4-33.9c0,0-11.7-23.4-11.6-56.5
			L713.1,1127.7z"/>
		<g>
			<path class="st2" d="M753.7,1198.3l-66.2,81.1l-23.2,28.4c0,0-41.5,7.8-63.3,9.7c-15.7,1.4-65.9-5-65.9-5l1.4-15.1
				c0,0,31.1-13.2,45.9-16.3c15.1-3.2,53.2-11.8,53.2-11.8c14.4-5.2,69.2-76,69.2-76L753.7,1198.3z"/>
		</g>
		<path class="st3" d="M796.9,1488l-135.4-11.1c0,0-0.4-2.7-1-7.3c-0.2-1.4-0.3-2.9-0.3-4.4c-0.3-13.5,5-31.8,7.3-49.7
			c1.5-11.8,1.7-23.5-1.9-33.7c-4.2-11.7-6.1-33.8-6.9-54.9c-1.1-26.4-0.5-51-0.5-51.2c-1.4-16.8,2.6-35.5,9.3-53.2
			c13.2-35,37.8-54.8,49.4-66.5c0,0,14.1,3.5,50.9-7.5c1.1-0.3,4.2,4.3,5.6,7c0,0,15.9,20.1,22.4,69.2
			C801.7,1268.5,796.9,1488,796.9,1488z"/>
		<path class="st2" d="M763,1244.7c-0.3,6.2-54.8,179.6-48.1,192.4c32.3,61.9-49.2,34-53.6,18.1c1.5-11.8,7.8-63.3,4.1-73.4
			c-4.2-11.7-6.1-33.8-6.9-54.9c1.4-7.7,4.6-15.6,8.9-23.3C687.7,1300.5,765,1197,763,1244.7z"/>
		<g>
			<path class="st12" d="M492.1,1278.6l16.8-11.5c0.1-0.1,0.3-0.2,0.5-0.2l0,0l3.2-1.3l15.5,48.8l-13.5,10.9l-2.4,1.1c0,0,0,0,0,0
				l0,0l0,0c-1.1,0.4-2.5-0.3-3.1-1.7l-17.5-42.9C490.9,1280.5,491.2,1279.2,492.1,1278.6z"/>
			<path class="st13" d="M531.4,1311.4l-16,13.4c-1.1,0.9-2.9,0.3-3.6-1.4l-17.5-42.9c-0.5-1.2-0.2-2.6,0.7-3.2l16.8-11.5
				c1.1-0.8,2.8-0.1,3.4,1.5l16.7,41C532.5,1309.5,532.2,1310.8,531.4,1311.4z"/>
			<polygon class="st14" points="528.8,1306.2 513,1319.4 497.2,1280.5 513.7,1269.1 			"/>
			<path class="st12" d="M522.6,1315.1c-0.2-0.8,0.1-1.6,0.7-1.9c0.6-0.2,1.3,0.2,1.5,1c0.2,0.8-0.1,1.6-0.7,1.9
				C523.5,1316.3,522.8,1315.9,522.6,1315.1z"/>
			<polygon class="st15" points="499.6,1281.2 513,1271.8 526.9,1305.1 513.3,1315.8 			"/>
			<polygon class="st16" points="503.1,1283.2 512.5,1276.6 522.3,1300 512.7,1307.5 			"/>
		</g>
		<path class="st10" d="M538.8,1319.5l-8.5-0.3c0,0-8.5-17.6-27.9-9.3c0,0-7.8,4.1-3.5,8.6c4.3,4.5,3.3,2.1,9.2,8.7
			c5.9,6.5,14.3,9.5,20.3,6.9l6.6-3L538.8,1319.5z"/>
		<path class="st3" d="M750.4,1156.3c0,0-33.3,14-50.5,44.1c-11.5,20-31.3,54-43.3,74.5c-6.4,10.9-17,18.6-29.3,21.4L587,1305
			l-56.7,14.2c0,0-1.3,2.4-1,6.3c0.5,5.6,4.1,6.7,4.1,6.7s52.9,12.7,71.8,14.2c46.4,3.5,68.4-2.6,75.2-5.1c1.5-0.6,2.9-1.4,4.1-2.4
			c7.1-5.8,34.4-28.6,48.7-50.5c14-21.2,52.5-76.4,52.5-76.4L750.4,1156.3z"/>
		<path class="st17" d="M797.8,1435.6c0,0,13.4,88.9-27.6,88.9c-41,0-450.8,0-450.8,0s-12.4-8.4-13.3-24.4c-0.9-17,4.4-23,4.4-23
			s161.4-5.6,194.1-16.6C668.9,1405.5,797.8,1435.6,797.8,1435.6z"/>
		<path class="st18" d="M713.1,1127.7c0,0,1,7.8,2.2,17.3c43.1-12.6,43.8-45.9,43.8-45.9L713.1,1127.7z"/>
		<path class="st11" d="M706.4,1130.2c0,0,52.3,1.6,52.8-31.1c0.5-32.6,7.5-54.4-25.9-56.7c-33.4-2.4-40.1,10-42.9,20.8
			C687.6,1074.1,692.8,1129,706.4,1130.2z"/>
		<path class="st19" d="M760.1,1111.9c0,0-5.5-0.9-4.6-8.5s0.9-17.6-5.3-15.7c-6.2,1.9-6.5,6.8-9,3.9c-2.5-2.9-2.6-15.1-21-15.9
			c-18.4-0.8-25.9,5.6-34.5,1.8c-8.6-3.8-9-16.7-9-16.7s2.4,4.6,6.1,6.1c0,0-14.3-19.6,2.3-33c16.6-13.4,33.4-4.6,43-4.1
			c21.1,1.3,34.7,2.5,41.6,16.4C776.5,1060.1,773.7,1098.6,760.1,1111.9z"/>
	</g>
	<g>
		<polygon class="st2" points="2076.8,350 2217.2,391.2 2131.5,312.5 2123.6,332.6 2087.8,333.9 		"/>
		<polygon class="st3" points="2217.2,391.2 2106.8,312.4 1990.7,289.6 		"/>
		<polygon class="st3" points="2131.5,312.5 2217.2,391.2 2158.2,279.1 		"/>
	</g>
	<g>
		<path class="st20" d="M2470,563.3c9.3-5.7,24.1,1.1,24.1,1.1c-5.1-7.2-23.8-4.8-23.8-4.8c37.2-7.9,45,15.9,45.6,18.1
			c27-24.4,70.2,27.6,70.2,27.6l-62,82.2c0,0-5.7-13.1-13.1-9c-11.7,6.4-34.2-19.4-27-53.3c0.8-3.7,1.7-7,2.8-10.1
			c-2.4,1.1-5.2,1.9-7.7,1.9c-6.8,0-17-17.3-18.4-23.1C2459.2,588,2460.7,568.9,2470,563.3z"/>
		<path class="st11" d="M2647.4,921.2c39.3-14.5,77.1-81.7,77.1-81.7l-12.4-8.7c-10.3,15.1-56.7,44.1-56.7,44.1
			c-1.1-12.7-2.6-24.3-4.5-34.7c-12.9-71.1-42.4-92.1-50.3-96.6c-1.3-0.7-2-1-2-1s0,0.5,0.1,1.5c0.1,2.1,0.4,6.4,0.8,12.4
			C2602.6,800.5,2614.6,933.3,2647.4,921.2z"/>
		<path class="st11" d="M2457.6,993.7c19.4-43.5,28.7-55.8,29-69.5c0.3-10.8-5.1-22.5-15.5-51.2c-2.4-6.8-4.1-13.7-5.2-20.7
			c-8.2-55.2,23.7-115,43.6-119c5.5-1.5,14.9-21.4,14.8-53.6l2.5,0.5l41.8,8.3c0,0-1,13.2-1,25.6c0,10.3,0.6,20.1,2.9,21.3
			c3,0.3,4.8,0.5,4.8,0.5s34.9,48.4,37.8,93.4c2.9,45-27.9,64.6,0.2,154.5C2642.1,1075.7,2446.8,1017.8,2457.6,993.7z"/>
		<path class="st18" d="M2568.6,688.5c0,0-1,13.2-1,25.6c-23.4-0.7-35.8-22-40.8-33.8L2568.6,688.5z"/>
		<path class="st20" d="M2522.5,675.7c0,0-12.3-19.4-15.2-35.9c-2.1-11.8,3.9-55.7,48-49.3c0,0,12.8,1.3,24.8,9.4
			c9.6,6.5,23.4,20.4,7.9,58.7l-4,12.9L2522.5,675.7z"/>
		<path class="st11" d="M2576.4,700.3c0,0-55.3,0.9-55.4-33.6c0-34.5-7.2-57.6,28.1-59.6c35.3-2,42.2,11.1,45,22.6
			C2597,641.2,2590.8,699.1,2576.4,700.3z"/>
		<path class="st9" d="M2506.6,1411.4c13.9,55.4,34.9,97.9,34.9,97.9l18.3-1.3c0,0-9-42.6-8.4-100.1c0.4-40.2,5.3-87.8,21.2-133.1
			c54.6-156,45.8-269.5,45.8-269.5l-102.7,12l-4.8,0.6c-0.4,47.2-1.6,111.2-2.7,161.3c-0.9,45-1.8,78.8-1.8,78.8
			C2486.6,1300.4,2493.7,1360.4,2506.6,1411.4z"/>
		<path class="st17" d="M2447.6,1402.6c5.9,63,31.9,103.8,31.9,103.8l8.7,6.3c0,0,8.3-44.4,14.1-97.2
			c5.6-50.2,13.2-103.3,21.8-119.6c34.2-64.3,44.6-307.1,44.6-307.1l-104.1-5.2c-10.5,17.6-15,46.5-16.1,79.3
			c-2.7,82.9,16.7,190.9,19.7,206.5c0,0,0,0,0,0c0.2,1.2-0.1,2.4-0.7,3.5C2446.8,1314,2443.8,1361,2447.6,1402.6z"/>
		<path class="st20" d="M2536,652.7c-23.3,6-33.3-0.3-33.3-0.3s17.8-14.2,21.5-38.9c0,0,10.2-32.2,49.8-8c3.6-3.1,10.1-5.4,18.6,5
			c12.8,15.6,1.4,43,1.4,43c-5.3,0.6-6.5-17.5-9.3-26.2c-2-6.5-8.7-13.1-12.1-16.1c-1.1,4.1-12.3,42.7-40,55.6
			c0,0,12.8-11.4,22.2-27.1C2549.4,645.8,2543.1,650.8,2536,652.7z"/>
		<path class="st11" d="M2376.4,1052.4c4.2-2.7,8.3-10.8,9.8-14c12.9-32,27.7-94.2,32.6-105.6c1.8-4.2,5.2-23.8,9.7-49.2
			c8.1-45.4,19.5-109.1,31-134.4c1.4-3,5.3-5.6,10.5-7.8c15.6-6.5,42.3-9.3,42.3-9.3l-14,60.4l-4.1,17.7c0,0-12.4,43.8-22,79.5
			c-4.7,17.3-8.6,32.7-10.3,40.4c-5,23.7-59.8,114.6-59.8,114.6l0,0l0,0c0,0-1.7,1.1-3.6,6.6c-1.9,5.5-17.4,34.9-24.1,34.9
			s-8-10-9.4-16.3C2363.7,1063.8,2371.2,1055.8,2376.4,1052.4z"/>
		<path class="st11" d="M2712.2,830.8c0-1.7-1.4-26.4,3-31.6c4.4-5.2,13.4-12.6,16.2-12.4c2.8,0.2,13.9,14.9,10.6,26.2
			c-3.3,11.3-17.3,26.5-17.3,26.5L2712.2,830.8z"/>
		<g>
			<path class="st13" d="M2692,800.6l25.6,7.7c0.9,0.3,1.7-0.2,2-1.1l14.6-48.9c0.3-0.9-0.2-1.7-1.1-2l-25.6-7.7
				c-0.9-0.3-1.7,0.2-2,1.1l-14.6,48.9C2690.7,799.4,2691.1,800.3,2692,800.6z"/>
			<path class="st12" d="M2698.7,802.6l23.2,7c1.5,0.5,3.1-0.4,3.5-1.9l13.9-46.5c0.5-1.5-0.4-3.1-1.9-3.5l-23.2-7
				c-1.5-0.5-3.1,0.4-3.5,1.9l-13.9,46.5C2696.3,800.5,2697.1,802.1,2698.7,802.6z"/>
		</g>
		<path class="st11" d="M2447.6,1402.6c5.9,63,31.9,103.8,31.9,103.8l8.9,8.1c0,0,8.1-46.1,13.9-99
			C2496.2,1415.9,2469.1,1416.9,2447.6,1402.6z"/>
		<path class="st13" d="M2472,891.9c-6.2,1.7-26,5.4-48.8-7.1c9.4-45.8,22.7-109.9,36.1-135.4c0.6-1.2,1.8-2.4,3.3-3.5
			c-0.1-0.1-0.1-0.2-0.1-0.2c12.5-9.1,38.1-11.9,38.1-11.9s7.9,35,12.9,39.5c5,4.6,77.2,12,78.9,3.7c1.6-7.9-18.8-38.8-20.3-41.5
			c-0.1-0.1,3.3,0.3,3.3,0.3c8.2,1.1,14,1.9,18.2,2.6c8.2,1.4,13.2,4.9,13.7,5.5c9.7,7.4,32.6,30,41.5,84.5c0,0-11.3,15.5-27.2,20.1
			c-0.4,0.1-0.8,0.2-1.3,0.3c2.8,46.2,19.8,123.1,13.6,167.6c-5.9,42.8-95.8,31.8-113.7,27.9c-12.2-2.7-21.7-15.6-28.4-38.6
			c-2.2,16.1-7.2,34.9-18.5,36.1c-18.4,1.9-26-1.3-28.2-8.2c-0.6-2-0.8-4.8-0.6-8.3C2445.7,1001.2,2464,944.6,2472,891.9z"/>
		<path class="st21" d="M2506.6,1411.4c13.9,55.4,34.9,97.9,34.9,97.9l18.3-1.3c0,0-9-42.6-8.4-100.1
			C2545.1,1411,2532.3,1414.2,2506.6,1411.4z"/>
		<g>
			<path class="st20" d="M2530.9,1524.6h11.7c3.9-0.6,6.8-1.7,10.8-2.3c6.1-0.8,8.9,1.7,9.4,2.3c0.1,0.1,0.1,0.1,0.1,0.1h49.5
				c1.2-1.8,0-5.9-1.1-8.9c-0.8-2.1-2.5-3.6-4.6-4.2c-5.2-1.5-15.6-2.9-25.1-11.5c-5.3-4.8-25.7-17.7-25.7-17.7l-0.1,0
				c-0.4,0-2.6,0.7-11.9,8.5c-4.8,4-13-5.7-13-5.7s-1.5,1.3-2.7,3.6c-0.9,1.9-1.6,4.4-1.1,7.6c0.7,4.5-1.6,12.7-3.5,18.4
				c-1.2,3.4-2.1,5.8-2.1,5.8S2520.9,1523.3,2530.9,1524.6z"/>
			<path class="st22" d="M2528.2,1488.8c2.8,2,8.7,5.8,12.5,6.3c5.3,0.7,15.1-12.7,15.1-12.7l-0.1,0c-0.4,0-2.6,0.7-11.9,8.5
				c-4.8,4-13-5.7-13-5.7S2529.4,1486.4,2528.2,1488.8z"/>
			<path class="st22" d="M2530.9,1524.6h11.7c3.9-0.6,6.8-1.7,10.8-2.3c6.1-0.8,8.9,1.7,9.4,2.3c0.1,0.1,0.1,0.1,0.1,0.1h49.5
				c1.2-1.8,0-5.9-1.1-8.9c-1.5-1.3-1.9,5.8-2.8,6.9c-0.8,1.1-40.4,0.4-42.7-1.2c-2.3-1.7-9.1-4.6-18.7-2.3
				c-8.3,2-20.6-3.1-23.6-4.5c-1.2,3.4-2.1,5.8-2.1,5.8S2520.9,1523.3,2530.9,1524.6z"/>
		</g>
		<g>
			<path class="st20" d="M2468.8,1524.6h11.7c3.9-0.6,6.8-1.7,10.8-2.3c6.1-0.8,8.9,1.7,9.4,2.3c0.1,0.1,0.1,0.1,0.1,0.1h49.5
				c1.2-1.8,0-5.9-1.1-8.9c-0.8-2.1-2.5-3.6-4.6-4.2c-5.2-1.5-15.6-2.9-25.1-11.5c-5.3-4.8-25.7-17.7-25.7-17.7l-0.1,0
				c-0.4,0-2.6,0.7-11.9,8.5c-4.8,4-13-5.7-13-5.7s-1.5,1.3-2.7,3.6c-0.9,1.9-1.6,4.4-1.1,7.6c0.7,4.5-1.6,12.7-3.5,18.4
				c-1.2,3.4-2.1,5.8-2.1,5.8S2458.7,1523.3,2468.8,1524.6z"/>
			<path class="st22" d="M2466,1488.8c2.8,2,8.7,5.8,12.5,6.3c5.3,0.7,15.1-12.7,15.1-12.7l-0.1,0c-0.4,0-2.6,0.7-11.9,8.5
				c-4.8,4-13-5.7-13-5.7S2467.2,1486.4,2466,1488.8z"/>
			<path class="st22" d="M2468.8,1524.6h11.7c3.9-0.6,6.8-1.7,10.8-2.3c6.1-0.8,8.9,1.7,9.4,2.3c0.1,0.1,0.1,0.1,0.1,0.1h49.5
				c1.2-1.8,0-5.9-1.1-8.9c-1.5-1.3-1.9,5.8-2.8,6.9c-0.8,1.1-40.4,0.4-42.7-1.2c-2.3-1.7-9.1-4.6-18.7-2.3
				c-8.3,2-20.6-3.1-23.6-4.5c-1.2,3.4-2.1,5.8-2.1,5.8S2458.7,1523.3,2468.8,1524.6z"/>
		</g>
		<path class="st12" d="M2444.5,1025.2c12.4-4.1,28.2-15.1,47.2-39.7c50.4-65.2,4.3-141.7-1.9-143.1c-6.2-1.4-17.8,49.5-17.8,49.5
			C2464,944.6,2445.7,1001.2,2444.5,1025.2z"/>
		<path class="st11" d="M2733.6,788.5c0,0-8.1-7.3-14.7-0.4c-6.6,6.9,2.5,19.3,9.2,22.3c6.7,3,8.9,4.6,8.9,4.6L2733.6,788.5z"/>
		<path class="st8" d="M2565.6,679.8c0,0,1,4.1,11.1,3.4c0,0,8.5-0.5,8.2-5C2584.9,678.2,2576.7,675.1,2565.6,679.8z"/>
	</g>
	<g>
		<path class="st6" d="M1232.4,1107.8H962.5c-10,0-18.1-8.1-18.1-18.1v-167c0-10,8.1-18.1,18.1-18.1h269.9c10,0,18.1,8.1,18.1,18.1
			v167C1250.5,1099.7,1242.4,1107.8,1232.4,1107.8z"/>
		<g>
			<rect x="957.5" y="845.6" class="st2" width="246.5" height="125.9"/>
			<rect x="956.2" y="843.7" class="st2" width="246.5" height="125.9"/>
			<rect x="954.4" y="842.1" class="st2" width="246.5" height="125.9"/>
			<g>
				<rect x="952.7" y="840.6" class="st3" width="246.5" height="125.9"/>
				<path class="st2" d="M962.4,850v107h227.2V850H962.4z M1181,948.7H971v-90.4h210V948.7z"/>
				<path class="st2" d="M962.4,850v24.3c1.7,0.5,3.6,0.8,5.5,0.8c11,0,19.8-8.9,19.8-19.8c0-1.8-0.3-3.6-0.7-5.3H962.4z"/>
				<path class="st2" d="M1189.6,849.9h-24.3c-0.5,1.7-0.8,3.6-0.8,5.5c0,11,8.9,19.8,19.8,19.8c1.8,0,3.6-0.3,5.3-0.7V849.9z"/>
				<path class="st2" d="M1189.6,957h-24.3c-0.5-1.7-0.8-3.6-0.8-5.5c0-11,8.9-19.8,19.8-19.8c1.8,0,3.6,0.3,5.3,0.7V957z"/>
				<path class="st2" d="M962.4,956.9v-24.3c1.7-0.5,3.6-0.8,5.5-0.8c11,0,19.8,8.9,19.8,19.8c0,1.8-0.3,3.6-0.7,5.3H962.4z"/>
				<path class="st2" d="M1102.7,903.5c0,14.7-11.9,26.7-26.7,26.7s-26.7-11.9-26.7-26.7c0-14.7,11.9-26.7,26.7-26.7
					S1102.7,888.8,1102.7,903.5z"/>
			</g>
		</g>
		<g>
			
				<ellipse transform="matrix(0.9879 -0.1553 0.1553 0.9879 -128.2681 192.9316)" class="st23" cx="1170.7" cy="917.4" rx="50.7" ry="50.7"/>
			<path class="st24" d="M1160,867.7c-27.8,3.5-47.5,28.8-44,56.5c3.5,27.8,28.8,47.5,56.5,44c27.8-3.5,47.5-28.8,44-56.5
				C1213.1,883.9,1187.8,864.2,1160,867.7z"/>
			<g>
				<path class="st25" d="M1172.1,964.4c-25.3,3.2-48.4-14.8-51.5-40.1c-3.2-25.3,14.8-48.4,40.1-51.5c25.3-3.2,48.4,14.8,51.5,40.1
					C1215.3,938.1,1197.4,961.2,1172.1,964.4z M1161,875.5c-23.7,3-40.7,24.7-37.7,48.4c3,23.7,24.7,40.7,48.5,37.7
					c23.7-3,40.6-24.7,37.7-48.5C1206.5,889.4,1184.8,872.5,1161,875.5z"/>
			</g>
			<g>
				<path class="st25" d="M1174.4,931.1c0-1-0.2-1.9-0.4-2.6c-0.3-0.8-0.8-1.5-1.4-2.1c-0.6-0.6-1.5-1.2-2.5-1.7
					c-1-0.5-2.3-1-3.7-1.5c-2.5-0.9-4.8-1.8-6.9-2.7c-2.1-1-3.8-2.1-5.3-3.3c-1.5-1.3-2.6-2.7-3.4-4.4c-0.8-1.7-1.2-3.7-1.3-6
					c0-2,0.3-3.9,1-5.6s1.7-3.1,3.1-4.4c1.3-1.2,2.9-2.3,4.8-3.1c1.9-0.8,3.9-1.3,6.3-1.5l0-7.7l6.2,0l0,7.8c2.2,0.3,4.2,0.8,6,1.7
					c1.8,0.9,3.3,2,4.6,3.4c1.3,1.4,2.2,3.1,2.9,5c0.7,1.9,1,4.1,1.1,6.5l-11.1,0.1c0-2.9-0.7-5-1.9-6.4c-1.3-1.4-3-2.1-5.1-2.1
					c-1.2,0-2.2,0.2-3,0.5c-0.8,0.3-1.5,0.8-2.1,1.3c-0.5,0.6-0.9,1.2-1.2,2c-0.3,0.8-0.4,1.6-0.4,2.5s0.1,1.7,0.4,2.4
					c0.3,0.7,0.7,1.4,1.3,2c0.6,0.6,1.5,1.2,2.5,1.7c1,0.5,2.3,1.1,3.9,1.6c2.5,0.9,4.8,1.9,6.8,2.8c2,1,3.8,2.1,5.3,3.3
					c1.5,1.3,2.6,2.7,3.4,4.4c0.8,1.7,1.2,3.7,1.3,6c0,2.1-0.3,4-1.1,5.7c-0.7,1.7-1.7,3.1-3.1,4.4c-1.3,1.2-2.9,2.2-4.8,3
					c-1.9,0.8-4,1.2-6.3,1.5l0,7.1l-6.1,0l0-7.1c-2.1-0.2-4.2-0.7-6.2-1.4c-2-0.7-3.8-1.7-5.3-3.1c-1.5-1.3-2.8-3-3.7-5.1
					c-0.9-2-1.4-4.5-1.4-7.4l11.1-0.1c0,1.7,0.3,3.1,0.7,4.2c0.5,1.1,1.1,2,1.9,2.7c0.8,0.7,1.7,1.1,2.7,1.4c1,0.3,2.1,0.4,3.1,0.4
					c1.2,0,2.3-0.2,3.2-0.5s1.7-0.8,2.3-1.3c0.6-0.6,1.1-1.2,1.4-2C1174.2,932.8,1174.4,932,1174.4,931.1z"/>
			</g>
		</g>
		<path class="st7" d="M1212.4,1123.6H962.5c-10,0-18.1-8.1-18.1-18.1v-167c0-10,8.1-18.1,18.1-18.1h249.9c10,0,18.1,8.1,18.1,18.1
			v167C1230.5,1115.5,1222.4,1123.6,1212.4,1123.6z"/>
		<path class="st6" d="M1239,1049.8h-88.8c-15.3,0-27.8-12.4-27.8-27.8l0,0c0-15.3,12.4-27.8,27.8-27.8h88.8V1049.8z"/>
		<circle class="st1" cx="1150.2" cy="1022.1" r="21.8"/>
	</g>
	<g>
		
			<ellipse transform="matrix(0.999 -4.531493e-02 4.531493e-02 0.999 -32.9671 90.4995)" class="st3" cx="1979.6" cy="772.4" rx="67.6" ry="67.6"/>
		<path class="st8" d="M1940.3,777l22.1,22.1c1.2,1.2,2.8,1.9,4.5,1.9h3.2c1.7,0,3.3-0.7,4.5-1.9l44.3-44.3c4.1-4.1,1.2-11-4.5-11
			h-2.1c-1.7,0-3.3,0.7-4.5,1.8l-36.3,35.5c-2.5,2.5-6.6,2.4-9-0.1l-13.1-13.1c-1.2-1.2-2.9-1.9-4.6-1.9l0,0
			C1939,766.1,1936.2,773,1940.3,777z"/>
	</g>
	<g>
		<g>
			<path class="st3" d="M699.9,797.7c-1.9,0.2-3.8,0.5-5.7,0.7c-2.1,0.3-4.1-1.3-4.3-3.4c-0.3-2.1,1.3-4.1,3.4-4.3c0,0,0,0,0,0
				c3.4-0.4,6.8-0.8,10.3-1.3c0,0,0,0,0,0c2.1-0.3,4.1,1.2,4.4,3.3c0.3,2.1-1.2,4.1-3.3,4.4C703.1,797.2,701.5,797.5,699.9,797.7z
				 M714.9,795.6c-2.1,0.3-4-1.2-4.3-3.3c-0.3-2.1,1.2-4.1,3.3-4.4c3.4-0.5,6.8-1,10.2-1.5c2.2-0.3,4.1,1.1,4.4,3.3
				c0.3,2.1-1.1,4.1-3.3,4.4C721.8,794.6,718.4,795.1,714.9,795.6C715,795.6,714.9,795.6,714.9,795.6z M684,799.5
				C684,799.5,683.9,799.5,684,799.5c-3.6,0.4-7.1,0.7-10.5,1c-2.1,0.2-4-1.4-4.2-3.5c-0.2-2.1,1.4-4,3.5-4.2
				c3.3-0.3,6.8-0.6,10.3-1c2.1-0.2,4.1,1.3,4.3,3.5C687.6,797.4,686.1,799.3,684,799.5z M735.5,792.4c-2.1,0.3-4-1.2-4.3-3.2
				c-0.3-2.1,1.1-4.1,3.2-4.5c3.4-0.6,6.8-1.1,10.2-1.7c2.1-0.4,4.1,1.1,4.5,3.2c0.4,2.1-1.1,4.1-3.2,4.5c-3.5,0.6-6.9,1.2-10.3,1.7
				C735.6,792.4,735.5,792.4,735.5,792.4z M663.3,801.4c-0.1,0-0.2,0-0.2,0c-3.6,0.3-7.1,0.5-10.5,0.6c-2.1,0.1-4-1.6-4.1-3.7
				c-0.1-2.1,1.6-4,3.7-4.1c3.3-0.2,6.8-0.4,10.3-0.6c2.1-0.1,4,1.5,4.2,3.6C666.8,799.3,665.3,801.1,663.3,801.4z M756,788.9
				c-2,0.3-4-1.1-4.3-3.2c-0.4-2.1,1-4.1,3.1-4.5c3.4-0.6,6.8-1.2,10.2-1.9c2.1-0.4,4.1,1,4.5,3.1c0.4,2.1-1,4.1-3.1,4.5
				c-3.5,0.6-6.9,1.3-10.3,1.9C756.1,788.9,756,788.9,756,788.9z M642.5,802.3c-0.1,0-0.3,0-0.4,0c-3.7,0.1-7.2,0.1-10.5,0
				c-2.2,0-3.9-1.8-3.8-4c0-2.2,1.8-3.9,4-3.8c3.2,0.1,6.7,0.1,10.2,0c2.2,0,3.9,1.7,4,3.8C646,800.4,644.5,802.1,642.5,802.3z
				 M776.4,785.1c-2,0.3-3.9-1.1-4.3-3.1c-0.4-2.1,1-4.2,3.1-4.6c3.4-0.6,6.8-1.3,10.2-2c2.1-0.4,4.2,1,4.6,3.1
				c0.4,2.1-1,4.2-3.1,4.6c-3.4,0.7-6.8,1.3-10.2,2C776.6,785.1,776.5,785.1,776.4,785.1z M796.8,781.1c-2,0.3-3.9-1.1-4.3-3.1
				c-0.4-2.1,0.9-4.2,3-4.6c3.4-0.7,6.8-1.4,10.2-2.1c2.1-0.4,4.2,0.9,4.6,3c0.4,2.1-0.9,4.2-3,4.6c-3.4,0.7-6.8,1.4-10.2,2.1
				C797,781.1,796.9,781.1,796.8,781.1z M817.2,776.9c-2,0.3-3.9-1.1-4.3-3.1c-0.4-2.1,0.9-4.2,3-4.6c3.4-0.7,6.7-1.4,10.2-2.2
				c2.1-0.5,4.2,0.9,4.6,3c0.5,2.1-0.9,4.2-3,4.6c-3.4,0.7-6.8,1.5-10.2,2.2C817.4,776.8,817.3,776.9,817.2,776.9z M621.8,801.8
				c-0.3,0-0.5,0-0.8,0c-3.8-0.3-7.3-0.7-10.6-1.2c-2.1-0.3-3.6-2.3-3.3-4.4c0.3-2.1,2.3-3.6,4.4-3.3c3.1,0.5,6.5,0.8,10,1.1
				c2.1,0.2,3.8,2,3.6,4.2C625,800.1,623.6,801.6,621.8,801.8z M837.5,772.5c-2,0.3-3.9-1-4.3-3c-0.5-2.1,0.9-4.2,3-4.6
				c3.4-0.7,6.7-1.5,10.1-2.3c2.1-0.5,4.2,0.8,4.7,2.9c0.5,2.1-0.8,4.2-2.9,4.7c-3.4,0.8-6.8,1.5-10.2,2.3
				C837.7,772.4,837.6,772.5,837.5,772.5z M857.8,767.9c-2,0.3-3.8-1-4.3-3c-0.5-2.1,0.8-4.2,2.9-4.7c3.4-0.8,6.7-1.5,10.1-2.3
				c2.1-0.5,4.2,0.8,4.7,2.9c0.5,2.1-0.8,4.2-2.9,4.7c-3.4,0.8-6.8,1.6-10.1,2.3C858.1,767.9,857.9,767.9,857.8,767.9z M878.1,763.2
				c-2,0.2-3.8-1-4.3-3c-0.5-2.1,0.8-4.2,2.9-4.7c3.4-0.8,6.7-1.6,10.1-2.4c2.1-0.5,4.2,0.8,4.7,2.9c0.5,2.1-0.8,4.2-2.9,4.7
				c-3.4,0.8-6.8,1.6-10.1,2.4C878.3,763.2,878.2,763.2,878.1,763.2z M601.3,798.6c-0.5,0.1-1,0-1.5-0.1c-4-1.1-7.5-2.4-10.5-4
				c-1.9-1-2.6-3.4-1.6-5.3c1-1.9,3.4-2.6,5.3-1.6c2.5,1.3,5.4,2.4,8.9,3.4c2.1,0.6,3.3,2.7,2.7,4.8
				C604.1,797.3,602.8,798.4,601.3,798.6z M898.3,758.4c-1.9,0.2-3.8-1-4.3-3c-0.5-2.1,0.8-4.2,2.9-4.7c3.4-0.8,6.7-1.6,10.1-2.4
				c2.1-0.5,4.2,0.8,4.7,2.9c0.5,2.1-0.8,4.2-2.9,4.7c-3.4,0.8-6.8,1.6-10.1,2.5C898.6,758.4,898.4,758.4,898.3,758.4z M918.5,753.5
				c-1.9,0.2-3.8-1-4.3-2.9c-0.5-2.1,0.8-4.2,2.8-4.7c3.4-0.8,6.7-1.7,10.1-2.5c2.1-0.5,4.2,0.8,4.7,2.8c0.5,2.1-0.8,4.2-2.8,4.7
				c-3.4,0.8-6.7,1.7-10.1,2.5C918.8,753.4,918.6,753.5,918.5,753.5z M938.7,748.4c-1.9,0.2-3.8-1-4.3-2.9c-0.5-2.1,0.7-4.2,2.8-4.7
				c3.4-0.8,6.7-1.7,10.1-2.5c2.1-0.5,4.2,0.7,4.7,2.8c0.5,2.1-0.7,4.2-2.8,4.7c-3.4,0.9-6.7,1.7-10.1,2.6
				C939,748.4,938.8,748.4,938.7,748.4z M958.8,743.3c-1.9,0.2-3.8-1-4.3-2.9c-0.5-2.1,0.7-4.2,2.8-4.7c3.3-0.9,6.7-1.7,10.1-2.6
				c2.1-0.5,4.2,0.7,4.7,2.8c0.5,2.1-0.7,4.2-2.8,4.7c-3.4,0.9-6.7,1.7-10.1,2.6C959.1,743.3,959,743.3,958.8,743.3z M978.9,738.1
				c-1.9,0.2-3.8-1-4.3-2.9c-0.5-2.1,0.7-4.2,2.8-4.8c3.3-0.9,6.7-1.8,10-2.6c2.1-0.5,4.2,0.7,4.8,2.8c0.5,2.1-0.7,4.2-2.8,4.8
				c-3.4,0.9-6.7,1.8-10,2.6C979.2,738.1,979.1,738.1,978.9,738.1z M583.7,788.4c-1.4,0.2-2.8-0.4-3.7-1.6c-0.2-0.3-0.4-0.6-0.7-1
				c-1.9-3-3.5-6-4.7-9c-0.8-2,0.2-4.3,2.2-5.1c2-0.8,4.3,0.2,5.1,2.2c1,2.5,2.3,5.1,4,7.7c0.1,0.2,0.3,0.4,0.4,0.6
				c1.3,1.7,0.9,4.2-0.9,5.4C584.9,788,584.3,788.3,583.7,788.4z M999,732.8c-1.9,0.2-3.7-1-4.3-2.9c-0.6-2.1,0.7-4.2,2.8-4.8
				c3.3-0.9,6.7-1.8,10-2.7c2.1-0.6,4.2,0.7,4.8,2.8c0.6,2.1-0.7,4.2-2.8,4.8c-3.4,0.9-6.7,1.8-10.1,2.7
				C999.3,732.8,999.2,732.8,999,732.8z M1019.1,727.5c-1.9,0.2-3.7-0.9-4.3-2.9c-0.6-2.1,0.7-4.2,2.7-4.8c3.4-0.9,6.7-1.8,10.1-2.7
				c2.1-0.6,4.2,0.7,4.8,2.7c0.6,2.1-0.7,4.2-2.7,4.8c-3.4,0.9-6.7,1.8-10.1,2.7C1019.5,727.4,1019.3,727.4,1019.1,727.5z
				 M1039.2,722c-1.9,0.2-3.7-0.9-4.2-2.8c-0.6-2.1,0.7-4.2,2.7-4.8c3.3-0.9,6.7-1.8,10-2.7c2.1-0.6,4.2,0.7,4.8,2.7
				c0.6,2.1-0.7,4.2-2.7,4.8c-3.3,0.9-6.7,1.8-10,2.7C1039.6,722,1039.4,722,1039.2,722z M1059.3,716.5c-1.9,0.2-3.7-0.9-4.2-2.8
				c-0.6-2.1,0.6-4.2,2.7-4.8c3.3-0.9,6.7-1.8,10-2.8c2.1-0.6,4.2,0.6,4.8,2.7c0.6,2.1-0.6,4.2-2.7,4.8c-3.3,0.9-6.7,1.9-10,2.8
				C1059.6,716.4,1059.5,716.5,1059.3,716.5z M1079.3,710.9c-1.9,0.2-3.7-0.9-4.2-2.8c-0.6-2.1,0.6-4.2,2.7-4.8
				c3.3-0.9,6.7-1.9,10-2.8c2.1-0.6,4.2,0.6,4.8,2.7c0.6,2.1-0.6,4.2-2.7,4.8c-3.3,0.9-6.7,1.9-10,2.8
				C1079.7,710.9,1079.5,710.9,1079.3,710.9z M1099.3,705.3c-1.9,0.2-3.7-0.9-4.2-2.8c-0.6-2.1,0.6-4.2,2.7-4.8
				c3.3-0.9,6.7-1.9,10-2.8c2.1-0.6,4.2,0.6,4.8,2.7c0.6,2.1-0.6,4.2-2.7,4.8c-3.3,0.9-6.7,1.9-10,2.8
				C1099.7,705.3,1099.5,705.3,1099.3,705.3z M1119.3,699.6c-1.9,0.2-3.7-0.9-4.2-2.8c-0.6-2.1,0.6-4.2,2.7-4.8
				c3.3-1,6.7-1.9,10-2.9c2.1-0.6,4.2,0.6,4.8,2.7c0.6,2.1-0.6,4.2-2.7,4.8c-3.3,1-6.7,1.9-10,2.9
				C1119.7,699.6,1119.5,699.6,1119.3,699.6z M576.3,769.1c0,0-0.1,0-0.1,0c-2.1,0.2-4-1.4-4.2-3.5c-0.4-3.8-0.1-7.7,0.8-11.4
				c0.5-2.1,2.6-3.4,4.7-2.9c2.1,0.5,3.4,2.6,2.9,4.7c-0.7,3-0.9,6-0.6,9C579.9,767,578.4,768.9,576.3,769.1z M1139.3,693.9
				c-1.9,0.2-3.7-0.9-4.2-2.8c-0.6-2.1,0.6-4.2,2.7-4.8c3.3-1,6.7-1.9,10-2.9c2.1-0.6,4.2,0.6,4.8,2.7c0.6,2.1-0.6,4.2-2.7,4.8
				c-3.3,1-6.7,1.9-10,2.9C1139.7,693.9,1139.5,693.9,1139.3,693.9z M1159.3,688.1c-1.9,0.2-3.7-0.9-4.2-2.8
				c-0.6-2.1,0.6-4.2,2.7-4.8c3.3-1,6.7-1.9,10-2.9c2.1-0.6,4.2,0.6,4.8,2.6c0.6,2.1-0.6,4.2-2.6,4.8c-3.3,1-6.6,1.9-10,2.9
				C1159.7,688.1,1159.5,688.1,1159.3,688.1z M1179.3,682.3c-1.9,0.2-3.7-0.9-4.2-2.8c-0.6-2.1,0.6-4.2,2.6-4.8c3.3-1,6.7-2,10-2.9
				c2.1-0.6,4.2,0.6,4.8,2.6c0.6,2.1-0.6,4.2-2.6,4.8c-3.3,1-6.6,2-10,2.9C1179.7,682.2,1179.5,682.3,1179.3,682.3z M1199.2,676.4
				c-1.9,0.2-3.7-0.9-4.2-2.8c-0.6-2.1,0.6-4.2,2.6-4.8c3.3-1,6.7-2,10-3c2.1-0.6,4.2,0.6,4.8,2.6c0.6,2.1-0.6,4.2-2.6,4.8
				c-3.3,1-6.6,2-10,3C1199.6,676.4,1199.4,676.4,1199.2,676.4z M1219.1,670.5c-1.9,0.2-3.7-0.9-4.2-2.8c-0.6-2.1,0.6-4.2,2.6-4.8
				c3.3-1,6.7-2,10-3c2.1-0.6,4.2,0.6,4.8,2.6c0.6,2.1-0.6,4.2-2.6,4.8c-3.3,1-6.6,2-10,3C1219.6,670.4,1219.4,670.5,1219.1,670.5z
				 M580.7,749.4c-0.8,0.1-1.6,0-2.4-0.4c-1.9-1-2.6-3.4-1.6-5.3c1.7-3.1,3.8-6.1,6.3-9.1c1.4-1.6,3.8-1.9,5.5-0.5
				c1.6,1.4,1.9,3.8,0.5,5.5c-2.2,2.6-4,5.2-5.4,7.9C583,748.5,581.9,749.2,580.7,749.4z M1239.1,664.6c-1.9,0.2-3.7-0.9-4.2-2.7
				c-0.6-2.1,0.5-4.2,2.6-4.9c3.3-1,6.7-2,10-3c2.1-0.6,4.2,0.5,4.9,2.6c0.6,2.1-0.5,4.2-2.6,4.9c-3.3,1-6.6,2-10,3
				C1239.5,664.5,1239.3,664.5,1239.1,664.6z M1259,658.5c-1.9,0.2-3.7-0.9-4.2-2.7c-0.6-2.1,0.5-4.2,2.6-4.9c3.3-1,6.7-2,9.9-3
				c2.1-0.6,4.2,0.5,4.9,2.6s-0.5,4.2-2.6,4.9c-3.3,1-6.6,2-10,3C1259.4,658.5,1259.2,658.5,1259,658.5z M1278.9,652.5
				c-1.8,0.2-3.7-0.9-4.2-2.7c-0.6-2.1,0.5-4.2,2.6-4.9c3.3-1,6.7-2,9.9-3c2.1-0.6,4.2,0.5,4.9,2.6c0.6,2.1-0.5,4.2-2.6,4.9
				c-3.3,1-6.6,2-10,3C1279.3,652.4,1279.1,652.5,1278.9,652.5z M1298.8,646.4c-1.8,0.2-3.6-0.9-4.2-2.7c-0.6-2.1,0.5-4.2,2.6-4.9
				c3.4-1,6.7-2.1,9.9-3.1c2.1-0.6,4.2,0.5,4.9,2.6c0.6,2.1-0.5,4.2-2.6,4.9c-3.3,1-6.6,2-9.9,3.1
				C1299.2,646.3,1299,646.4,1298.8,646.4z M593.9,733.5c-1.2,0.2-2.5-0.3-3.4-1.3c-1.4-1.6-1.3-4.1,0.3-5.5
				c2.5-2.3,5.3-4.6,8.4-6.8c1.7-1.3,4.2-0.9,5.4,0.8c1.3,1.7,0.9,4.2-0.8,5.4c-2.8,2.1-5.4,4.2-7.8,6.3
				C595.4,733,594.6,733.4,593.9,733.5z M1318.6,640.3c-1.8,0.2-3.6-0.9-4.2-2.7c-0.6-2.1,0.5-4.2,2.6-4.9c3.4-1,6.7-2.1,9.9-3.1
				c2-0.6,4.2,0.5,4.9,2.6c0.6,2.1-0.5,4.2-2.6,4.9c-3.3,1-6.6,2-9.9,3.1C1319.1,640.2,1318.9,640.3,1318.6,640.3z M1338.5,634.1
				c-1.8,0.2-3.6-0.9-4.2-2.7c-0.6-2.1,0.5-4.2,2.6-4.9c3.4-1.1,6.7-2.1,9.9-3.1c2.1-0.6,4.2,0.5,4.9,2.6c0.6,2.1-0.5,4.2-2.6,4.9
				c-3.2,1-6.6,2.1-9.9,3.1C1339,634,1338.7,634.1,1338.5,634.1z M1358.4,627.9c-1.8,0.2-3.6-0.9-4.2-2.7c-0.6-2.1,0.5-4.2,2.6-4.9
				c3.4-1.1,6.7-2.1,9.9-3.1c2-0.6,4.2,0.5,4.9,2.5c0.6,2.1-0.5,4.2-2.5,4.9c-3.2,1-6.5,2.1-9.9,3.1
				C1358.8,627.8,1358.6,627.9,1358.4,627.9z M610.5,721.1c-1.5,0.2-3-0.5-3.8-1.8c-1.1-1.8-0.6-4.2,1.2-5.4
				c2.9-1.8,5.9-3.6,9.2-5.4c1.9-1,4.3-0.4,5.3,1.5c1,1.9,0.4,4.3-1.5,5.3c-3.1,1.7-6,3.4-8.8,5.2
				C611.6,720.8,611.1,721,610.5,721.1z M1378.2,621.6c-1.8,0.2-3.6-0.9-4.2-2.7c-0.6-2.1,0.5-4.2,2.5-4.9c3.4-1.1,6.7-2.1,9.9-3.1
				c2.1-0.7,4.2,0.5,4.9,2.5c0.7,2.1-0.5,4.2-2.5,4.9c-3.2,1-6.5,2.1-9.9,3.1C1378.7,621.6,1378.5,621.6,1378.2,621.6z
				 M1398.1,615.3c-1.8,0.2-3.6-0.9-4.2-2.7c-0.7-2,0.5-4.2,2.5-4.9c3.5-1.1,6.8-2.2,9.9-3.2c2.1-0.7,4.2,0.5,4.9,2.5
				c0.7,2-0.5,4.2-2.5,4.9c-3.1,1-6.5,2.1-9.9,3.2C1398.5,615.3,1398.3,615.3,1398.1,615.3z M628.7,711c-1.6,0.2-3.2-0.6-4-2.1
				c-1-1.9-0.2-4.3,1.8-5.2c3-1.5,6.3-3,9.5-4.5c2-0.9,4.3,0,5.2,2c0.9,2,0,4.3-2,5.2c-3.2,1.4-6.3,2.9-9.3,4.4
				C629.6,710.8,629.1,710.9,628.7,711z M1417.9,609c-1.8,0.2-3.6-0.9-4.2-2.7c-0.7-2,0.5-4.2,2.5-4.9c3.6-1.2,6.9-2.2,9.9-3.2
				c2-0.7,4.2,0.5,4.9,2.5c0.7,2-0.5,4.2-2.5,4.9c-3,1-6.3,2-9.9,3.2C1418.4,608.9,1418.2,609,1417.9,609z M1437.8,602.6
				c-1.8,0.2-3.6-0.9-4.2-2.7c-0.7-2,0.5-4.2,2.5-4.9c6.1-2,9.4-3.1,9.4-3.1c2-0.7,4.2,0.4,4.9,2.5c0.7,2-0.4,4.2-2.5,4.9
				c0,0-3.3,1.1-9.4,3.1C1438.3,602.5,1438,602.5,1437.8,602.6z M647.7,702.4c-1.7,0.2-3.4-0.7-4.1-2.4c-0.8-2,0.1-4.3,2.1-5.1
				c3.1-1.3,6.4-2.6,9.8-3.9c2-0.8,4.3,0.2,5,2.2c0.8,2-0.2,4.3-2.2,5c-3.3,1.3-6.5,2.5-9.6,3.8C648.4,702.3,648,702.4,647.7,702.4z
				 M667.1,695c-1.8,0.2-3.5-0.8-4.2-2.6c-0.7-2,0.3-4.3,2.4-5c3.2-1.1,6.6-2.3,9.9-3.4c2-0.7,4.2,0.4,4.9,2.5
				c0.7,2-0.4,4.2-2.5,4.9c-3.3,1.1-6.6,2.2-9.8,3.4C667.7,694.9,667.4,694.9,667.1,695z M686.9,688.4c-1.8,0.2-3.6-0.9-4.2-2.7
				c-0.6-2.1,0.5-4.2,2.6-4.9c3.3-1,6.6-2,10-3.1c2.1-0.6,4.2,0.6,4.8,2.6c0.6,2.1-0.6,4.2-2.6,4.8c-3.4,1-6.7,2-9.9,3
				C687.3,688.3,687.1,688.3,686.9,688.4z M706.9,682.4c-1.9,0.2-3.7-0.9-4.2-2.8c-0.6-2.1,0.6-4.2,2.7-4.8
				c3.3-0.9,6.7-1.9,10.1-2.7c2.1-0.5,4.2,0.7,4.8,2.8c0.6,2.1-0.7,4.2-2.8,4.8c-3.3,0.9-6.7,1.8-10,2.7
				C707.2,682.4,707.1,682.4,706.9,682.4z M727,677.1c-1.9,0.2-3.8-1-4.3-2.9c-0.5-2.1,0.7-4.2,2.8-4.7c3.3-0.8,6.8-1.7,10.2-2.5
				c2.1-0.5,4.2,0.8,4.7,2.9c0.5,2.1-0.8,4.2-2.9,4.7c-3.4,0.8-6.8,1.6-10.1,2.5C727.3,677.1,727.2,677.1,727,677.1z M747.3,672.3
				c-2,0.3-3.8-1-4.3-3c-0.5-2.1,0.9-4.2,3-4.7c3.4-0.8,6.9-1.5,10.2-2.2c2.1-0.4,4.2,0.9,4.6,3c0.4,2.1-0.9,4.2-3,4.6
				c-3.3,0.7-6.8,1.4-10.1,2.2C747.5,672.3,747.4,672.3,747.3,672.3z M767.7,668c-2,0.3-3.9-1.1-4.3-3.1c-0.4-2.1,1-4.2,3.1-4.6
				c6.5-1.3,10.3-1.9,10.4-1.9c2.1-0.4,4.1,1.1,4.5,3.2c0.4,2.1-1.1,4.1-3.2,4.5c0,0-3.8,0.7-10.2,1.9
				C767.9,668,767.8,668,767.7,668z"/>
		</g>
		<g>
			<polygon class="st2" points="1492.6,655 1628.3,553.3 1495.8,578.3 1509,599.5 1485.3,633.6 			"/>
			<polygon class="st3" points="1628.3,553.3 1478.5,601 1376.7,692.9 			"/>
			<polygon class="st3" points="1495.8,578.3 1628.3,553.3 1483.4,530.2 			"/>
		</g>
	</g>
	<g>
		<path class="st3" d="M1262.8,1336.4H932.1c-8.4,0-15.2-6.8-15.2-15.2v-58.3c0-8.4,6.8-15.2,15.2-15.2h330.7
			c8.4,0,15.2,6.8,15.2,15.2v58.3C1278,1329.6,1271.2,1336.4,1262.8,1336.4z"/>
		<g>
			<path class="st8" d="M980.3,1272c0.4,0,0.8,0.2,1.1,0.5c0.3,0.3,0.5,0.7,0.5,1.1v4.1c0,0.4-0.2,0.8-0.5,1.1
				c-0.3,0.3-0.7,0.5-1.1,0.5H970v31.4c0,0.4-0.2,0.8-0.5,1.1c-0.3,0.3-0.7,0.5-1.1,0.5h-4.6c-0.4,0-0.8-0.2-1.1-0.5
				c-0.3-0.3-0.5-0.7-0.5-1.1v-31.4h-10.3c-0.4,0-0.8-0.2-1.1-0.5c-0.3-0.3-0.5-0.7-0.5-1.1v-4.1c0-0.4,0.2-0.8,0.5-1.1
				c0.3-0.3,0.7-0.5,1.1-0.5H980.3z"/>
			<path class="st8" d="M1003.8,1272c4.8,0,8.4,1.1,10.9,3.3c2.5,2.2,3.7,5.3,3.7,9.2c0,2.8-0.6,5.2-1.9,7.1c-1.3,2-3.2,3.4-5.6,4.4
				l7.9,14.1c0.1,0.2,0.2,0.4,0.2,0.6c0,0.3-0.1,0.6-0.4,0.9c-0.2,0.2-0.5,0.4-0.9,0.4h-4.9c-0.8,0-1.3-0.2-1.7-0.5
				c-0.4-0.4-0.6-0.7-0.8-1l-7.5-13.3h-7.6v13.3c0,0.4-0.2,0.8-0.5,1.1c-0.3,0.3-0.7,0.5-1.1,0.5h-4.6c-0.4,0-0.8-0.2-1.1-0.5
				c-0.3-0.3-0.5-0.7-0.5-1.1v-37c0-0.4,0.2-0.8,0.5-1.1c0.3-0.3,0.7-0.5,1.1-0.5H1003.8z M995.3,1290h8.3c2.2,0,3.9-0.4,5.2-1.1
				c1.3-0.8,1.9-2.2,1.9-4.3c0-2.1-0.6-3.6-1.9-4.3c-1.3-0.7-3-1.1-5.2-1.1h-8.3V1290z"/>
			<path class="st8" d="M1044.7,1272c0.6,0,1.1,0.2,1.4,0.5c0.3,0.3,0.6,0.8,0.8,1.5l14,36.2c0,0.1,0.1,0.2,0.1,0.4
				c0,0.4-0.2,0.8-0.5,1.1c-0.3,0.3-0.7,0.5-1.1,0.5h-4.1c-0.8,0-1.3-0.2-1.6-0.5c-0.3-0.3-0.5-0.6-0.6-0.9l-2.5-6.4h-18.1l-2.5,6.4
				c-0.1,0.3-0.3,0.6-0.6,0.9c-0.3,0.3-0.8,0.5-1.6,0.5h-4.1c-0.4,0-0.8-0.2-1.1-0.5c-0.3-0.3-0.5-0.7-0.5-1.1c0-0.2,0-0.3,0.1-0.4
				l14-36.2c0.2-0.6,0.5-1.1,0.8-1.5c0.3-0.3,0.8-0.5,1.4-0.5H1044.7z M1047.8,1297.1l-6.3-16.3l-6.3,16.3H1047.8z"/>
			<path class="st8" d="M1092.1,1312.1c-0.6,0-1.1-0.2-1.5-0.5c-0.3-0.3-0.6-0.6-0.7-0.8l-16-23.8v23.6c0,0.4-0.2,0.8-0.5,1.1
				c-0.3,0.3-0.7,0.5-1.1,0.5h-4.6c-0.4,0-0.8-0.2-1.1-0.5c-0.3-0.3-0.5-0.7-0.5-1.1v-37c0-0.4,0.2-0.8,0.5-1.1
				c0.3-0.3,0.7-0.5,1.1-0.5h4c0.6,0,1.1,0.2,1.5,0.5c0.3,0.3,0.6,0.6,0.7,0.8l16,23.8v-23.6c0-0.4,0.2-0.8,0.5-1.1
				c0.3-0.3,0.7-0.5,1.1-0.5h4.6c0.4,0,0.8,0.2,1.1,0.5c0.3,0.3,0.5,0.7,0.5,1.1v37c0,0.4-0.2,0.8-0.5,1.1c-0.3,0.3-0.7,0.5-1.1,0.5
				H1092.1z"/>
			<path class="st8" d="M1120.3,1271.4c2.6,0,4.8,0.3,6.8,1s3.6,1.5,4.9,2.6c1.3,1,2.3,2.2,2.9,3.4c0.7,1.2,1,2.4,1.1,3.5
				c0,0.5-0.1,0.8-0.4,1.1c-0.3,0.3-0.7,0.4-1.1,0.4h-4c-0.6,0-1.1-0.1-1.5-0.4c-0.3-0.2-0.6-0.6-0.9-1c-0.6-1-1.4-1.8-2.6-2.5
				c-1.2-0.7-2.9-1.1-5.2-1.1c-1,0-1.9,0.1-2.8,0.3c-0.9,0.2-1.7,0.5-2.3,0.9c-0.7,0.4-1.2,0.9-1.6,1.5c-0.4,0.6-0.6,1.2-0.6,1.9
				c0,0.9,0.2,1.6,0.5,2.1c0.4,0.6,1,1,1.8,1.4c0.9,0.4,2,0.8,3.4,1.1c1.4,0.3,3.2,0.7,5.3,1.2c2.3,0.5,4.3,1.1,5.9,1.7
				c1.7,0.7,3,1.5,4.1,2.4c1,0.9,1.8,2,2.3,3.2c0.5,1.2,0.8,2.6,0.8,4.2c0,1.7-0.4,3.3-1.1,4.8c-0.8,1.5-1.9,2.7-3.3,3.8
				c-1.4,1-3.1,1.9-5.2,2.5c-2.1,0.6-4.4,0.9-6.9,0.9c-2.1,0-4.2-0.3-6.1-0.8c-1.9-0.5-3.7-1.3-5.2-2.2c-1.5-1-2.7-2.1-3.6-3.5
				c-0.9-1.4-1.4-2.9-1.5-4.6c0-0.5,0.1-0.8,0.4-1.1c0.3-0.3,0.7-0.4,1.1-0.4h4c0.6,0,1.1,0.1,1.5,0.3c0.3,0.2,0.6,0.6,0.9,1
				c0.3,0.5,0.6,1,1,1.5c0.4,0.5,0.9,0.9,1.5,1.3c0.6,0.4,1.5,0.7,2.4,0.9c1,0.2,2.2,0.4,3.6,0.4c1.1,0,2.3-0.1,3.3-0.3
				c1.1-0.2,2-0.5,2.8-0.9c0.8-0.4,1.4-0.9,1.9-1.5c0.5-0.6,0.7-1.3,0.7-2.2c0-0.8-0.3-1.5-0.8-2.1c-0.5-0.5-1.3-1-2.4-1.4
				c-1.1-0.4-2.4-0.7-4-1.1c-1.6-0.3-3.5-0.8-5.6-1.3c-1.9-0.5-3.6-1-5-1.6c-1.4-0.6-2.6-1.4-3.5-2.3c-0.9-0.9-1.6-2-2.1-3.2
				c-0.5-1.2-0.7-2.7-0.7-4.4c0-1.7,0.4-3.3,1.1-4.8c0.8-1.4,1.8-2.7,3.1-3.7c1.3-1,2.9-1.8,4.8-2.4
				C1116.2,1271.7,1118.2,1271.4,1120.3,1271.4z"/>
			<path class="st8" d="M1169.7,1272c0.4,0,0.8,0.2,1.1,0.5c0.3,0.3,0.5,0.7,0.5,1.1v4.1c0,0.4-0.2,0.8-0.5,1.1
				c-0.3,0.3-0.7,0.5-1.1,0.5h-18.3v11.1h17.1c0.4,0,0.8,0.2,1.1,0.5c0.3,0.3,0.5,0.7,0.5,1.1v4.1c0,0.4-0.2,0.8-0.5,1.1
				c-0.3,0.3-0.7,0.5-1.1,0.5h-17.1v13.1c0,0.4-0.2,0.8-0.5,1.1c-0.3,0.3-0.7,0.5-1.1,0.5h-4.6c-0.4,0-0.8-0.2-1.1-0.5
				c-0.3-0.3-0.5-0.7-0.5-1.1v-37c0-0.4,0.2-0.8,0.5-1.1c0.3-0.3,0.7-0.5,1.1-0.5H1169.7z"/>
			<path class="st8" d="M1204.5,1304.9c0.4,0,0.8,0.2,1.1,0.5c0.3,0.3,0.5,0.7,0.5,1.1v4.1c0,0.4-0.2,0.8-0.5,1.1
				c-0.3,0.3-0.7,0.5-1.1,0.5h-25.1c-0.4,0-0.8-0.2-1.1-0.5c-0.3-0.3-0.5-0.7-0.5-1.1v-37c0-0.4,0.2-0.8,0.5-1.1
				c0.3-0.3,0.7-0.5,1.1-0.5h24.7c0.4,0,0.8,0.2,1.1,0.5c0.3,0.3,0.5,0.7,0.5,1.1v4.1c0,0.4-0.2,0.8-0.5,1.1
				c-0.3,0.3-0.7,0.5-1.1,0.5h-18.5v9.1h17.2c0.4,0,0.8,0.2,1.1,0.5c0.3,0.3,0.5,0.7,0.5,1.1v4.1c0,0.4-0.2,0.8-0.5,1.1
				c-0.3,0.3-0.7,0.5-1.1,0.5h-17.2v9.5H1204.5z"/>
			<path class="st8" d="M1229.5,1272c4.8,0,8.4,1.1,10.9,3.3c2.5,2.2,3.7,5.3,3.7,9.2c0,2.8-0.6,5.2-1.9,7.1c-1.3,2-3.2,3.4-5.6,4.4
				l7.9,14.1c0.1,0.2,0.2,0.4,0.2,0.6c0,0.3-0.1,0.6-0.4,0.9c-0.2,0.2-0.5,0.4-0.9,0.4h-4.9c-0.8,0-1.3-0.2-1.7-0.5s-0.6-0.7-0.8-1
				l-7.5-13.3h-7.6v13.3c0,0.4-0.2,0.8-0.5,1.1c-0.3,0.3-0.7,0.5-1.1,0.5h-4.6c-0.4,0-0.8-0.2-1.1-0.5c-0.3-0.3-0.5-0.7-0.5-1.1v-37
				c0-0.4,0.2-0.8,0.5-1.1c0.3-0.3,0.7-0.5,1.1-0.5H1229.5z M1220.9,1290h8.3c2.2,0,3.9-0.4,5.2-1.1c1.3-0.8,1.9-2.2,1.9-4.3
				c0-2.1-0.6-3.6-1.9-4.3c-1.3-0.7-3-1.1-5.2-1.1h-8.3V1290z"/>
		</g>
	</g>
	<path class="st26" d="M83.7,1529.6h2832.7c1.5,0,2.7-1.2,2.7-2.7l0,0c0-1.5-1.2-2.7-2.7-2.7H83.7c-1.5,0-2.7,1.2-2.7,2.7l0,0
		C80.9,1528.3,82.2,1529.6,83.7,1529.6z"/>
</g>
<g>
	<path class="st27" d="M1851.9,1125.4c-8.4,0-16.2,2.7-22.5,7.3l0,0V1098h-15.8v65.7c0,21.1,17.1,38.3,38.3,38.3
		s38.3-17.1,38.3-38.3S1873.1,1125.4,1851.9,1125.4z M1851.9,1186.8c-12.8,0-23.1-10.4-23.1-23.1c0-12.8,10.4-23.1,23.1-23.1
		s23.1,10.4,23.1,23.1C1875.1,1176.4,1864.7,1186.8,1851.9,1186.8z"/>
	<path class="st27" d="M1896.4,1098h15.4v67.7c0,0,3.7,20.7,24.4,20.7v15.5c0,0-31.4,1-39.8-33V1098z"/>
	<path class="st28" d="M2065,1141.2c0,0-31.6,0-42.2,0c-1,0-2.9-1.6-2.9-2.6c0-4.5,0-12.6,0-12.6h66.3v15.6l-43.6,43.6h43.6v16.7
		h-66.3V1186"/>
	<path class="st28" d="M2129.7,1186.7c0,0-16.6,0.9-21.2-15.5v-0.2h58.5c0.4-2.3,0.7-4.6,0.7-7c0-21-17.4-38-38.8-38
		s-38.8,17-38.8,38c0,21,17.4,38,38.8,38c16.2,0,30.1-9.8,35.9-23.6h-16.5C2148.3,1178.3,2141.1,1186.7,2129.7,1186.7z
		 M2130.8,1140.4c16.6,0,19.6,14.9,19.6,14.9h-19.6h-19.6C2111.2,1155.3,2114.2,1140.4,2130.8,1140.4z"/>
	<path class="st29" d="M1964,1093c0,0,3.8,10.1-3.4,21.2l-21.6,30c0,0-11.2,19.8,0,36.3c0,0,8.2,18.7,31.9,21.5
		c0,0,14.4,1.4,25.4-6.8v6.2h15.3v-40c0,0-2.4-26-19.7-31.7l-1,10.6c0,0-1.3,6.4-0.1,8.1c12.4,18.2,1.8,41.9-23.2,36.9
		c-9.7-1.9-16.5-14.2,15.6-36.4c5.4-3.8,5.7-11.4,5.7-15.7c0.1-9.8-7.4-15.6-6.9-13.8c1.3,5.1-1.3,19.9-7.4,20.1
		c-13.4,0.6-6.4-13.3-2.4-25.6c3.7-11.6-6.3-24-6.3-24S1960.1,1084.4,1964,1093z"/>
</g>
<path class="st29" d="M508.6,1286.7c0,0,1,0.9,0.8,2.5l-0.7,4.5c0,0-0.1,2.8,2,4c0,0,1.9,1.6,4.7,0.6c0,0,1.6-0.6,2.4-2.1l0.3,0.7
	l1.7-0.8l-2.2-4.4c0,0-1.7-2.7-3.9-2.4l0.5,1.2c0,0,0.2,0.8,0.4,0.9c2.4,1.3,2.5,4.5-0.5,5.3c-1.2,0.3-2.6-0.6-0.3-4.8
	c0.4-0.7,0-1.6-0.2-2c-0.5-1.1-1.7-1.3-1.5-1.1c0.4,0.5,0.9,2.2,0.3,2.6c-1.4,0.8-1.4-1.1-1.7-2.7c-0.2-1.5-2-2.3-2-2.3
	S507.8,1285.9,508.6,1286.7z"/>
</svg>
