<?xml version="1.0" encoding="utf-8"?>
<!-- Generator: Adobe Illustrator 26.0.1, SVG Export Plug-In . SVG Version: 6.00 Build 0)  -->
<svg version="1.1" xmlns="http://www.w3.org/2000/svg" xmlns:xlink="http://www.w3.org/1999/xlink" x="0px" y="0px"
	 viewBox="0 0 3710 3710" style="enable-background:new 0 0 3710 3710;" xml:space="preserve">
<style type="text/css">
	.st0{display:none;}
	.st1{display:inline;}
	.st2{fill:#FFFFFF;}
	.st3{fill:#F4F7FA;}
	.st4{fill:url(#SVGID_1_);}
	.st5{opacity:0.8;}
	.st6{fill:url(#SVGID_00000012455232212248061500000007434014100844863892_);}
	.st7{opacity:0.7;fill:#D8DEE8;}
	.st8{fill:url(#SVGID_00000148631574308092917530000000639521594492380607_);}
	.st9{fill:url(#SVGID_00000028293283135961200110000015492673668870741156_);}
	.st10{fill:url(#SVGID_00000094581945160474528800000014140963128994895491_);}
	.st11{fill:url(#SVGID_00000098943149142406726330000003905927372854023860_);}
	.st12{fill:url(#SVGID_00000119111996676460894040000000229838671465608376_);}
	.st13{opacity:0.3;fill:url(#SVGID_00000057136774272754381450000014595247123840938632_);}
	.st14{fill:url(#SVGID_00000072993052811907237450000001202073736745811122_);}
	.st15{fill:url(#SVGID_00000034065295571602716350000014516589119200740744_);}
	.st16{fill:url(#SVGID_00000182527157701095560270000000263992916261203360_);}
	.st17{opacity:0.3;fill:url(#SVGID_00000121960246952014673030000006148462484002077344_);}
	.st18{fill:url(#SVGID_00000105405211352197535380000014370261132690056351_);}
	.st19{fill:url(#SVGID_00000090271368623431936520000000446990233442933164_);}
	.st20{fill:url(#SVGID_00000069360440038645067060000001634501952774116766_);}
	.st21{fill:url(#SVGID_00000137091739800590505390000014332194784929533345_);}
	.st22{fill:url(#SVGID_00000017488980892198199530000010048277291417318825_);}
	.st23{opacity:0.3;fill:url(#SVGID_00000088845842641065155230000009092785792819427464_);}
	.st24{fill:url(#SVGID_00000041266663432941603240000002391624081607350170_);}
	.st25{fill:url(#SVGID_00000072248340900275396810000000784979722196331148_);}
	.st26{fill:url(#SVGID_00000116196696487003933510000012663899930103793545_);}
	.st27{fill:url(#SVGID_00000166662576320615446370000011224403118493571745_);}
	.st28{fill:#26264F;}
	.st29{fill:#D8DEE8;}
	.st30{opacity:0.3;}
	.st31{fill:url(#SVGID_00000101068820523182114250000014605870105540917634_);}
	.st32{fill:url(#SVGID_00000059996413613892542050000007342606874144747949_);}
	.st33{fill:url(#SVGID_00000152947539621675846470000011508112415606113173_);}
	.st34{fill:url(#SVGID_00000065058519566301400910000017317862314968829097_);}
	.st35{fill:url(#SVGID_00000143617320027166904390000003371249691076905628_);}
	.st36{fill:url(#SVGID_00000091011774961207209150000004845496094245959820_);}
	.st37{opacity:0.2;fill:url(#SVGID_00000049180006957322404240000017876518912542570386_);}
	.st38{fill:url(#SVGID_00000057856005458312802100000010402674214403395980_);}
	.st39{fill:url(#SVGID_00000085214775909627391830000004935906420724211073_);}
	.st40{opacity:0.7;}
	.st41{fill:url(#SVGID_00000022558478640300747350000015686995292248264110_);}
	.st42{fill:url(#SVGID_00000155135703242720534690000014791551808497103271_);}
	.st43{fill:url(#SVGID_00000082331235189502032480000017677727418460241302_);}
	.st44{fill:url(#SVGID_00000147210622134454703450000005187330492888338830_);}
	.st45{fill:url(#SVGID_00000168075475527929909600000005219183690022905221_);}
	.st46{fill:#FEC045;}
	.st47{fill:url(#SVGID_00000137826716243724485000000009496518135089310081_);}
	.st48{opacity:0.15;fill:url(#SVGID_00000109750226291916448310000012667065491990827703_);}
	.st49{opacity:0.42;}
	.st50{fill:url(#SVGID_00000028321291098375707760000001181592646371796619_);}
	.st51{fill:url(#SVGID_00000163770910434734395630000017139670675279260585_);}
	.st52{opacity:0.26;fill:url(#SVGID_00000121970652536415780710000001676810671506755474_);}
	.st53{opacity:0.53;}
	.st54{fill:url(#SVGID_00000073718660887557633240000004522404084641435035_);}
	.st55{fill:url(#SVGID_00000127729246831500844120000007717187704039637410_);}
	.st56{fill:url(#SVGID_00000097495799311960691410000005056898305177226659_);}
	.st57{fill:url(#SVGID_00000127019983413095903490000013390636693473322904_);}
	.st58{fill:url(#SVGID_00000008828322080787323960000006478389689168229034_);}
	.st59{opacity:0.3;fill:url(#SVGID_00000168827097753835416540000007579859737790670763_);}
	.st60{fill:url(#SVGID_00000058561530876700121510000000133645799056645029_);}
	.st61{fill:url(#SVGID_00000050645522937893712040000016063243972540815248_);}
	.st62{fill:url(#SVGID_00000088827980402394236600000013340652810918111419_);}
	.st63{fill:url(#SVGID_00000176764504125368263260000014338467865824203658_);}
	.st64{fill:url(#SVGID_00000052805707279674257870000000210678497787840128_);}
	.st65{opacity:0.3;fill:url(#SVGID_00000114034531047371057990000005219857609413946767_);}
	.st66{fill:url(#SVGID_00000065043696461716273120000001146670152554265279_);}
	.st67{opacity:0.2;fill:url(#SVGID_00000047040757451469696850000012307157269315824828_);}
	.st68{fill:url(#SVGID_00000084514614742085820090000005986602240765094054_);}
	.st69{fill:url(#SVGID_00000010999126883082103500000005228828669149278856_);}
	.st70{fill:#ED1C24;}
	.st71{fill:#F7941D;}
	.st72{fill:url(#SVGID_00000042711530435403482310000018191753310614948525_);}
</style>
<g id="Background" class="st0">
	<g class="st1">
		<g>
			<rect class="st2" width="3710" height="3710"/>
		</g>
	</g>
</g>
<g id="Illustration">
	<g>
		<path class="st3" d="M1582.8,3397.5C765.5,3273.8,101.4,2501.1,222,1642.3C325,909.8,967.1,339.8,1737.2,286
			c55.8-3.9,112.2-5.1,169.1-3.5c429.6,12.4,811.3,184.2,1093.6,444.3c281,258.8,463.5,604.9,496.8,968
			C3585.1,2660.9,2599.3,3551.5,1582.8,3397.5z"/>
		<g>
			<g>
				
					<linearGradient id="SVGID_1_" gradientUnits="userSpaceOnUse" x1="394.9765" y1="1748.8969" x2="-97.107" y2="5558.5508" gradientTransform="matrix(-1 0 0 1 976.0522 0)">
					<stop  offset="0" style="stop-color:#FF9085"/>
					<stop  offset="1" style="stop-color:#FB6FBB"/>
				</linearGradient>
				<path class="st4" d="M815.8,3353.1c-191.1-24.6-433.4-89.1-530.7-271c-23.2-43.3-46.4-127.4,12.1-159
					c53.4-28.9,122.5,1.6,162.2,39.3c29.2,27.7,52,89.5,84.8,109c48,28.6,73.8-49.4,72.8-81.7c-2.3-72-90.8-101.5-149.7-117.1
					c-97.7-26-211.5-48.2-205.4-158.3c6.1-110.1,113.5-176.2,196.1-128c68.1,39.7,58.5,124.4,105,175.3
					c41.3,45.2,55.7-28.1,52.9-64.1c-6-78.1-74.6-134.5-125.1-186.8c-57.1-59.1-120.2-178.1-59.3-256.3c35-45,124-55.5,176.6-47.9
					c257.4,37.2,86.7,370.3,133.5,407.5c46.8,37.2,91.1-27.9,91-126.8c-0.1-98.9,15-171.9,118.3-140.2
					c103.2,31.7,122.9,290.1,5,389.4c-117.9,99.3,7.4,207.7,39,136.5c22.8-51.4,42.9-186,109-200.7c110-24.5,108.4,200.1,76.7,252.4
					c-44.4,73.3-144.8,89.2-200.8,152.5c-16.3,18.4-53,63.9-38.8,90.7c19.9,37.5,75.5-2.6,95.9-20c45.9-39,109.4-171.6,174.1-83.6
					C1290.7,3172.7,1157.2,3333.9,815.8,3353.1z"/>
				<g class="st5">
					<path class="st2" d="M788.3,3336.9c4.5,0,8.2-5.1,8.3-9.6c0.1-3.9,5.4-396.4-165.7-862.4c-1.6-4.3-6.3-6.9-10.6-5.3
						c-4.3,1.6-6.5,6.1-4.9,10.4c170,463.1,164.8,853.2,164.7,857c-0.1,4.6,3.5,9.9,8.1,9.9C788.2,3336.9,788.2,3336.9,788.3,3336.9
						z"/>
				</g>
			</g>
			
				<linearGradient id="SVGID_00000150092371602990076020000004996238395837785252_" gradientUnits="userSpaceOnUse" x1="4802.1948" y1="840.8647" x2="4484.5386" y2="3300.123" gradientTransform="matrix(-0.7599 0.65 0.65 0.7599 3327.0662 -1195.7555)">
				<stop  offset="0" style="stop-color:#AA80F9"/>
				<stop  offset="0.9964" style="stop-color:#6165D7"/>
			</linearGradient>
			<path style="fill:url(#SVGID_00000150092371602990076020000004996238395837785252_);" d="M663.7,3320.9
				c6.4-40.2,83.2-51.6,114.2-57.5c18-3.4,43.5-6.9,52.7-25.4c9.7-19.5-5-34.5-23.9-38c-33.8-6.2-70.2,15.3-101.6,25.1
				c-33.8,10.5-68.8,15.4-102.2,0.9c-26.7-11.6-54-39-59.8-67.9c-16.1-80,64.1-75.4,116.3-64.2c25.3,5.5,75.2,9.6,79.6-26.2
				c4.8-38.1-43.7-57.3-73.7-58.4c-39.1-1.5-77.6,7.1-116.4,9.9c-35,2.5-76.4-1.3-86.2-41.6c-7.5-31.1,10-66.9,35.3-85.3
				c58.5-42.7,135.6,30.1,198,30c22.1-0.1,58.5-16.2,64.6-40c6.2-24.1-25.2-40.4-42.4-49.2c-51-26.1-285.1-59.5-201.2-160.6
				c21.1-25.4,61.9-46.8,94.8-47.7c62.1-1.7,131.9,40.4,179.7,76.8c75.3,57.2,141.1,135.9,183.8,220.2
				c94.5,186.4,48.7,311.4,48.7,311.4c-27.4,45.2-69.8,92.1-116.5,117.6c-54.9,29.9-139.9,43.1-199.6,19.8
				C688.8,3363,659.8,3345.7,663.7,3320.9z"/>
		</g>
		<path class="st7" d="M3219.2,2210.1l-79.3,5.4c-9.1-35.4-21.1-69.6-35.9-102.2l65.8-44.2c18-12,22.6-36.4,10.3-54.5l-76.7-112.9
			c-12.3-18.1-36.8-23-54.9-11l-66.7,44.5c-25.3-25.9-52.8-49.7-82.3-71.1l35.2-72.2c9.5-19.5,1.2-43.1-18.5-52.8l-123.6-60.8
			c-19.8-9.7-43.6-1.8-53.1,17.7l-35.4,72.4c-34.6-10.1-70.5-17.1-107.1-21.2l-6.2-81.2c-1.7-21.8-20.9-38.4-42.9-37.1l-138.1,8.1
			c-22.1,1.3-38.7,20.1-37.1,42l6.2,81.5c-36,8.5-70.7,19.9-103.9,34.2l-46.6-67.9c-12.6-18.3-37.7-23.3-56.1-11.2l-115.6,75.9
			c-18.5,12.2-23.3,36.9-10.7,55.2l46.7,67.9c-26.5,25.1-50.8,52.4-72.5,81.7l-74.8-36.1c-20.2-9.8-44.6-1.7-54.4,18.1l-61.2,123.8
			c-9.8,19.8-1.3,43.8,19,53.5l74.2,35.6c-10.1,34.8-17.1,70.8-20.9,107.7l-82.2,5.5c-22.5,1.5-39.4,20.6-37.7,42.7l10.5,138
			c1.7,22.1,21.3,38.7,43.8,37.1l81.5-5.7c9.2,36.2,21.4,71.1,36.6,104.3l-67.1,44.8c-18.6,12.4-23.4,37.3-10.8,55.6l79.2,114.1
			c12.7,18.2,38,22.9,56.5,10.4l66.5-44.7c26.1,26.4,54.6,50.5,84.9,72.1l-34.8,71.1c-9.7,19.9-1.2,43.7,18.9,53.2l125.9,59.3
			c20.1,9.5,44.2,1,53.9-18.8l34.3-70.5c35.5,9.8,72.2,16.5,109.7,20l5.9,77.9c1.7,21.9,20.9,38.2,43,36.4l137.9-10.9
			c22-1.7,38.5-20.8,36.8-42.6l-5.9-77.7c36.3-9.2,71.3-21.3,104.5-36.4l44,64c12.4,18,37.1,22.6,55.2,10.2l113.1-77.1
			c18.1-12.3,22.7-36.8,10.4-54.8l-44.2-64.4c26.1-25.5,50-53.2,71.3-82.8l70.6,33.9c19.6,9.4,43.2,1.2,52.6-18.4l58.9-122.3
			c9.4-19.5,1.2-43-18.4-52.5l-70.7-34.2c9.6-34.5,16.2-70.1,19.7-106.6l78.7-5.5c21.6-1.5,37.9-20.3,36.2-41.9l-10.3-135.2
			C3259.7,2225,3240.8,2208.6,3219.2,2210.1z M2504.2,1967.1c222.3-14.1,415,152.3,431.6,371.7c16.6,219.3-148.9,410.5-371,427
			c-223.5,16.6-419.2-149.6-436.1-371.4C2112,2172.7,2280.6,1981.3,2504.2,1967.1z"/>
		<path class="st7" d="M2968.5,1010.4l-43.6,2.9c-5-19.5-11.6-38.3-19.7-56.2l36.2-24.3c9.9-6.6,12.4-20,5.7-29.9l-42.2-62.1
			c-6.8-9.9-20.3-12.6-30.2-6l-36.7,24.5c-13.9-14.3-29-27.3-45.2-39.1l19.3-39.7c5.2-10.7,0.7-23.7-10.2-29l-67.9-33.4
			c-10.9-5.4-24-1-29.2,9.7l-19.5,39.8c-19-5.5-38.7-9.4-58.9-11.7l-3.4-44.7c-0.9-12-11.5-21.1-23.6-20.4l-75.9,4.5
			c-12.2,0.7-21.3,11-20.4,23.1l3.4,44.8c-19.8,4.7-38.9,10.9-57.1,18.8l-25.6-37.3c-6.9-10.1-20.7-12.8-30.9-6.2l-63.6,41.7
			c-10.2,6.7-12.8,20.3-5.9,30.4l25.7,37.3c-14.6,13.8-27.9,28.8-39.9,44.9l-41.1-19.9c-11.1-5.4-24.5-0.9-29.9,9.9l-33.6,68.1
			c-5.4,10.9-0.7,24.1,10.5,29.4l40.8,19.6c-5.6,19.1-9.4,38.9-11.5,59.2l-45.2,3c-12.4,0.8-21.7,11.3-20.7,23.5l5.8,75.8
			c0.9,12.1,11.7,21.3,24.1,20.4l44.8-3.2c5.1,19.9,11.8,39.1,20.1,57.4l-36.9,24.6c-10.2,6.8-12.9,20.5-5.9,30.6l43.6,62.7
			c7,10,20.9,12.6,31.1,5.7l36.6-24.6c14.4,14.5,30,27.8,46.7,39.6l-19.1,39.1c-5.3,10.9-0.7,24,10.4,29.3l69.2,32.6
			c11,5.2,24.3,0.6,29.6-10.3l18.9-38.7c19.5,5.4,39.7,9.1,60.3,11l3.3,42.8c0.9,12,11.5,21,23.7,20l75.8-6
			c12.1-1,21.2-11.4,20.3-23.4l-3.2-42.7c19.9-5.1,39.2-11.7,57.5-20l24.2,35.2c6.8,9.9,20.4,12.4,30.4,5.6l62.2-42.4
			c9.9-6.8,12.5-20.3,5.7-30.1l-24.3-35.4c14.4-14,27.5-29.3,39.2-45.5l38.8,18.6c10.8,5.2,23.7,0.7,28.9-10.1l32.4-67.2
			c5.2-10.7,0.6-23.7-10.1-28.9l-38.9-18.8c5.3-19,8.9-38.6,10.8-58.6l43.2-3c11.9-0.8,20.8-11.2,19.9-23l-5.6-74.3
			C2990.8,1018.6,2980.4,1009.6,2968.5,1010.4z M2575.5,876.8c122.2-7.8,228.2,83.7,237.3,204.3c9.2,120.6-81.9,225.7-204,234.8
			c-122.8,9.1-230.5-82.2-239.7-204.2C2359.8,989.9,2452.5,884.7,2575.5,876.8z"/>
		<g>
			
				<linearGradient id="SVGID_00000072963672263569018670000003120219717528688514_" gradientUnits="userSpaceOnUse" x1="1753.7888" y1="3306.2932" x2="1887.7778" y2="3306.2932" gradientTransform="matrix(0.9989 4.640000e-02 -4.640000e-02 0.9989 1331.4767 -58.4637)">
				<stop  offset="0" style="stop-color:#444B8C"/>
				<stop  offset="0.9964" style="stop-color:#26264F"/>
			</linearGradient>
			<path style="fill:url(#SVGID_00000072963672263569018670000003120219717528688514_);" d="M3040.7,3261.5
				c23.8,19.3,25.2,33,24.4,39.6c-1.2,10.8-9.4,14.9-28.8,35.2c-26.2,27.5-22.2,31.1-35.6,41.1c-29.5,21.9-71.2,20.5-73.7,13
				c-1.8-5.2,17.1-9.5,38.6-34.4c19.8-22.9,26.5-45.7,28.3-52.4c3.3-12.1,4.1-22.6,4.3-29.9L3040.7,3261.5z"/>
			
				<linearGradient id="SVGID_00000118361273623095030030000013643087598832379529_" gradientUnits="userSpaceOnUse" x1="1857.9292" y1="3146.0449" x2="1790.6238" y2="3269.1646" gradientTransform="matrix(0.9989 4.640000e-02 -4.640000e-02 0.9989 1331.4767 -58.4637)">
				<stop  offset="0" style="stop-color:#FFC444"/>
				<stop  offset="0.9964" style="stop-color:#F36F56"/>
			</linearGradient>
			<path style="fill:url(#SVGID_00000118361273623095030030000013643087598832379529_);" d="M2960.9,3202.8l46.9,81.8
				c11.3,5,22.1,2.5,32.1-12.1l-18.3-99.4L2960.9,3202.8z"/>
			
				<linearGradient id="SVGID_00000065048809201355744900000017739055285230360250_" gradientUnits="userSpaceOnUse" x1="1606.8312" y1="3289.3918" x2="1843.783" y2="2255.8752" gradientTransform="matrix(0.9989 4.640000e-02 -4.640000e-02 0.9989 1331.4767 -58.4637)">
				<stop  offset="0" style="stop-color:#AA80F9"/>
				<stop  offset="0.9964" style="stop-color:#6165D7"/>
			</linearGradient>
			<path style="fill:url(#SVGID_00000065048809201355744900000017739055285230360250_);" d="M2904,2153.6
				c-45.7,77.2-119.9,226.2-134.9,427.7c-14.8,198.9,35.4,350.4,56.4,407c39.4,105.9,107.8,217.1,147.6,270.1
				c26.8-11.2,42.6-28.8,69.4-40c-4-14.6-16.5-62.8-24.3-91.5c-6.1-22.2-17.3-63.4-19.6-72.2c-19.3-73.7-4.1-128.9-9.4-220
				c-6.2-106.2-30.5-93.9-26.9-157.7c5.5-95.2,59.4-117.5,121.4-255.3c42.4-94.4,86.9-193.5,46-247.6
				C3078.3,2105.8,2921.5,2148.6,2904,2153.6z"/>
			
				<linearGradient id="SVGID_00000167364226979341673980000014425824730226332331_" gradientUnits="userSpaceOnUse" x1="1894.5201" y1="3379.7529" x2="2078.9009" y2="3379.7529" gradientTransform="matrix(1 0 0 1 1174.6333 0)">
				<stop  offset="0" style="stop-color:#444B8C"/>
				<stop  offset="0.9964" style="stop-color:#26264F"/>
			</linearGradient>
			<path style="fill:url(#SVGID_00000167364226979341673980000014425824730226332331_);" d="M3234.9,3336.3
				c14.3,9.1,22.9,30.7,16.4,44.3c-6.4,13.4-22.7,9.2-62.4,21.3c-42.5,13.1-50.9,26.2-82.2,26.2c-12.6,0-35.6-2.2-37.5-10.7
				c-1.3-6,8.4-11.9,40.4-33.5c45.5-30.6,45-31.4,55.2-36.1C3190.4,3336.1,3216,3324.3,3234.9,3336.3z"/>
			
				<linearGradient id="SVGID_00000034778729120252854450000003989784127462660227_" gradientUnits="userSpaceOnUse" x1="1994.8619" y1="3370.3899" x2="2065.9182" y2="3223.3201" gradientTransform="matrix(1 0 0 1 1174.6333 0)">
				<stop  offset="0" style="stop-color:#FFC444"/>
				<stop  offset="0.9964" style="stop-color:#F36F56"/>
			</linearGradient>
			<path style="fill:url(#SVGID_00000034778729120252854450000003989784127462660227_);" d="M3167,3271.5l17.4,79.6
				c2.4,3.6,27.3,12.1,44.6,0l-6.4-79.6H3167z"/>
			
				<linearGradient id="SVGID_00000021827559573094375210000017203774668540093583_" gradientUnits="userSpaceOnUse" x1="1610.1128" y1="3290.1443" x2="1847.0647" y2="2256.6277" gradientTransform="matrix(0.9989 4.640000e-02 -4.640000e-02 0.9989 1331.4767 -58.4637)">
				<stop  offset="0" style="stop-color:#AA80F9"/>
				<stop  offset="0.9964" style="stop-color:#6165D7"/>
			</linearGradient>
			<path style="opacity:0.3;fill:url(#SVGID_00000021827559573094375210000017203774668540093583_);" d="M3129.8,2174
				c-51.5-68.2-208.3-25.3-225.8-20.3c-18.8,31.7-42.4,75.8-64.7,130.4c55.6-10.9,79.7-1,90.9,12.2c43.6,51.2-93,164.1-64.9,335.5
				c11,67,39.7,97.2,34.4,179.1c-3.9,60.9-22.8,91.8-35.9,136.4c-7.9,26.8-13.9,59.7-14.2,99.4c39.3,86.4,90.9,168.5,123.4,211.8
				c26.8-11.2,42.6-28.8,69.4-40c-4-14.6-16.5-62.8-24.3-91.5c-6.1-22.2-17.3-63.4-19.6-72.2c-19.3-73.7-4.1-128.9-9.4-220
				c-6.2-106.2-30.5-93.9-26.9-157.7c5.5-95.2,59.4-117.5,121.4-255.3C3126.2,2327.2,3170.7,2228.1,3129.8,2174z"/>
			
				<linearGradient id="SVGID_00000084516556309086204590000012815227010725067176_" gradientUnits="userSpaceOnUse" x1="1886.1254" y1="2855.5913" x2="2304.7175" y2="2195.6926" gradientTransform="matrix(1 0 0 1 1174.6333 0)">
				<stop  offset="0" style="stop-color:#AA80F9"/>
				<stop  offset="0.9964" style="stop-color:#6165D7"/>
			</linearGradient>
			<path style="fill:url(#SVGID_00000084516556309086204590000012815227010725067176_);" d="M3026.4,2195.5
				c-4.4,177.7,2.3,383.5,31.5,610.4c23.8,184.7,58.4,351.4,96.5,497.6c5.3,3,23.8,12.6,47.5,8.1c16.8-3.2,28-11.9,33-16.3
				c-4.2-29.9-8.4-75.1-4.9-129.7c5.9-93.9,28-113,37.5-210.2c8.3-85.2-0.4-154.8-4.7-187.1c-13.1-99.3-30.8-101.4-31.2-160.9
				c-0.5-91.6,41.3-124.4,64.4-211.7c15.4-58.2,23.5-145.2-15.1-264.4C3196.1,2152.8,3111.2,2174.1,3026.4,2195.5z"/>
			
				<linearGradient id="SVGID_00000183970933060763234390000011424377770401264289_" gradientUnits="userSpaceOnUse" x1="1571.679" y1="1412.4257" x2="1707.6808" y2="1894.8065" gradientTransform="matrix(1 0 0 1 1174.6333 0)">
				<stop  offset="0" style="stop-color:#311944"/>
				<stop  offset="1" style="stop-color:#893976"/>
			</linearGradient>
			<path style="fill:url(#SVGID_00000183970933060763234390000011424377770401264289_);" d="M2935.8,1486.6
				c-31.1,17.5-74.4,46.5-114.7,92.6c-93,106.5-150.5,281.8-90.7,339.1c40.7,39,137.1,27.2,170.3-19.1c24.4-34.1,6.8-75.9-1.6-135.3
				C2890,1700,2890.3,1607.2,2935.8,1486.6z"/>
			
				<linearGradient id="SVGID_00000013168737453759374400000011577441324448742546_" gradientUnits="userSpaceOnUse" x1="1806.5656" y1="1347.2048" x2="2073.6946" y2="2294.6768" gradientTransform="matrix(1 0 0 1 1174.6333 0)">
				<stop  offset="0" style="stop-color:#311944"/>
				<stop  offset="1" style="stop-color:#893976"/>
			</linearGradient>
			<path style="fill:url(#SVGID_00000013168737453759374400000011577441324448742546_);" d="M3296.9,2174.3
				c-34.4-453.9-144.2-639.7-134.6-694.9c-13.8-9.9-68.4-25.7-192.1-9.4c-10.6,3.9-38.8,15.3-66.7,40.8c0,0-6.5,5.9-15.4,16.3
				c86.9,16.4,175.4,65.9,207.3,136c55.2,134-47.3,283.8,0,402.1c24.9,62.1,64.6,117.2,112.1,168.7
				C3261.7,2220.4,3298.9,2200.4,3296.9,2174.3z"/>
			
				<linearGradient id="SVGID_00000159457357767898557830000017984938084378614917_" gradientUnits="userSpaceOnUse" x1="1940.0464" y1="2889.7954" x2="2358.6387" y2="2229.8962" gradientTransform="matrix(1 0 0 1 1174.6333 0)">
				<stop  offset="0" style="stop-color:#AA80F9"/>
				<stop  offset="0.9964" style="stop-color:#6165D7"/>
			</linearGradient>
			<path style="opacity:0.3;fill:url(#SVGID_00000159457357767898557830000017984938084378614917_);" d="M3280.9,2131.4
				c-24.8,6.2-49.7,12.5-74.5,18.7c13,44.7,25.5,111.9,10.5,188.1c-20.7,105.3-74.2,128.3-82.1,223.3
				c-7.1,85.4,33.2,102.8,52.5,216.7c19.8,116.7-10.2,171.6-16.4,269.2c-4.3,66.8,2.7,154.2,43.3,260.6c10-4,17.1-9.5,20.7-12.7
				c-4.2-29.9-8.4-75.1-4.9-129.7c5.9-93.9,28-113,37.5-210.2c8.3-85.2-0.4-154.8-4.7-187.1c-13.1-99.3-30.8-101.4-31.2-160.9
				c-0.5-91.6,41.3-124.4,64.4-211.7C3311.4,2337.6,3319.5,2250.6,3280.9,2131.4z"/>
			
				<linearGradient id="SVGID_00000088827275640535225650000003629874629789787805_" gradientUnits="userSpaceOnUse" x1="1652.9873" y1="1259.4994" x2="1920.123" y2="2206.9951" gradientTransform="matrix(1 0 0 1 1174.6333 0)">
				<stop  offset="0" style="stop-color:#311944"/>
				<stop  offset="1" style="stop-color:#893976"/>
			</linearGradient>
			<path style="fill:url(#SVGID_00000088827275640535225650000003629874629789787805_);" d="M2903.5,1510.8c0,0-32.9,29.9-52.1,73.9
				c-28.9,66.3,2.2,123.2,11.6,231.4c10.2,118.7-4.2,316.5-37.7,387.4c-0.6,1.2-2,4.8-1.4,9.2c9,68.5,480,53,473.1-38.4
				c-34.4-453.9-144.2-639.7-134.6-694.9c-13.8-9.9-68.4-25.7-192.1-9.4C2959.6,1473.8,2931.4,1485.2,2903.5,1510.8z"/>
			<g>
				
					<linearGradient id="SVGID_00000181788711560435679010000001969955486198602899_" gradientUnits="userSpaceOnUse" x1="601.0333" y1="1614.8223" x2="609.5635" y2="1387.606" gradientTransform="matrix(-0.917 0.3988 0.3988 0.917 2982.0386 -184.8945)">
					<stop  offset="0" style="stop-color:#FFC444"/>
					<stop  offset="0.9964" style="stop-color:#F36F56"/>
				</linearGradient>
				<path style="fill:url(#SVGID_00000181788711560435679010000001969955486198602899_);" d="M3043.5,1355.9c0,0,30.4,95.5,40.3,107
					c9.9,11.5-39.5,41.5-77.4,28c-34.8-12.4,0-65.4,0-65.4L3043.5,1355.9z"/>
				<g>
					
						<linearGradient id="SVGID_00000103251415445513673610000009220890635570301058_" gradientUnits="userSpaceOnUse" x1="2256.446" y1="1230.2623" x2="2366.2661" y2="1369.7637" gradientTransform="matrix(0.8225 0.5688 -0.5688 0.8225 1858.2712 -1085.3732)">
						<stop  offset="0" style="stop-color:#444B8C"/>
						<stop  offset="0.9964" style="stop-color:#26264F"/>
					</linearGradient>
					<path style="fill:url(#SVGID_00000103251415445513673610000009220890635570301058_);" d="M2949.1,1333.7
						c-11.9-18.8-10.3-49.8,6.7-68.2c14.6-15.8,35.6-16.5,48.2-16.9c36.5-1.3,80.9,17.5,94,52c7.8,20.5-15.8,59.8-19.6,66.9
						c-4.3,8-11,10.4-17.6,16.2c-9.1,8.1-23.3,20.9-46.6,42.4c-1.1-7-3-15.7-6.2-25.2c-1.3-3.7-6.4-18-14.8-30.2
						C2976.2,1346.2,2960.4,1351.5,2949.1,1333.7z"/>
					
						<linearGradient id="SVGID_00000033339321907702640550000005371122991327621306_" gradientUnits="userSpaceOnUse" x1="242.3943" y1="1607.1603" x2="237.4565" y2="2005.0001" gradientTransform="matrix(-0.9894 -0.1449 -0.1449 0.9894 3485.9355 -215.3695)">
						<stop  offset="0" style="stop-color:#FFC444"/>
						<stop  offset="0.9964" style="stop-color:#F36F56"/>
					</linearGradient>
					<path style="fill:url(#SVGID_00000033339321907702640550000005371122991327621306_);" d="M3046.4,1409c0,0-26.9,37.1-74,30.2
						c-42.1-6.2-40.7-101.7-12-119.6c9.6-6,27.9-7.3,42.2-2c8.5,3.1,11.1,7,25.1,11.8c12.9,4.5,16.7,3.3,20.4,7
						c4.6,4.6,7.4,15.1-3.1,42.2c8.7-7.5,18.7-9.9,25.3-6.1c1.1,0.6,3.8,2.8,5.2,5.9C3080.6,1389.7,3069.6,1402.8,3046.4,1409z"/>
					
						<linearGradient id="SVGID_00000001658605903910355790000008161510014526268300_" gradientUnits="userSpaceOnUse" x1="1123.4476" y1="1684.4746" x2="1129.0364" y2="1734.2975" gradientTransform="matrix(0.9965 8.410000e-02 -8.410000e-02 0.9965 1987.8906 -391.9519)">
						<stop  offset="0" style="stop-color:#FFC444"/>
						<stop  offset="1" style="stop-color:#F36F56"/>
					</linearGradient>
					<path style="fill:url(#SVGID_00000001658605903910355790000008161510014526268300_);" d="M2954.8,1393.2c0,0,8.8,5.5,24.6,5.9
						c0.8,0,1.6,0.3,1.7,0.7c0.2,1.5-10.4,7.4-19.6,4.1c-6.5-2.4-11.1-9.1-10.1-10.6C2951.8,1392.7,2953.3,1392.9,2954.8,1393.2z"/>
				</g>
			</g>
			
				<linearGradient id="SVGID_00000158741704209692456220000013878862718845763714_" gradientUnits="userSpaceOnUse" x1="1681.8308" y1="1251.3687" x2="1948.9667" y2="2198.865" gradientTransform="matrix(1 0 0 1 1174.6333 0)">
				<stop  offset="0" style="stop-color:#311944"/>
				<stop  offset="1" style="stop-color:#893976"/>
			</linearGradient>
			<path style="opacity:0.3;fill:url(#SVGID_00000158741704209692456220000013878862718845763714_);" d="M3164.1,1773.5
				c-51.4,18-119.6,68.8-124.2,133.7c-7,99.8,141.6,154.5,121.8,224.5c-5.4,19.1-22.5,36.3-133.7,76.4
				c-45,16.2-86.8,29.5-124.8,40.5c136.1,20.1,398.9-5.8,393.7-74.3c-13.2-173.8-37.4-308.1-61.8-411
				C3210.5,1762.3,3186.5,1765.6,3164.1,1773.5z"/>
			
				<linearGradient id="SVGID_00000014594610081946421560000015204842733219475851_" gradientUnits="userSpaceOnUse" x1="2681.9668" y1="948.2129" x2="2877.7422" y2="1642.6022" gradientTransform="matrix(0.9424 0.3345 -0.3345 0.9424 1043.4957 -484.9011)">
				<stop  offset="0" style="stop-color:#311944"/>
				<stop  offset="1" style="stop-color:#893976"/>
			</linearGradient>
			<path style="fill:url(#SVGID_00000014594610081946421560000015204842733219475851_);" d="M3002.3,1977.7
				c83.6,84.9,203,111.6,294.7,69.2c127.4-59,147.1-226.2,117.4-330.8c-49.6-174.7-265.8-276.6-333.9-230
				c-49.3,33.7-48.8,163.9,9.9,229c52.8,58.6,133.8,43.8,155.9,103.5c16.5,44.7-15.4,89.8-18.1,93.5c-35.5,48.6-112.8,65.1-186,31.7
				C3028.9,1955,3015.6,1966.3,3002.3,1977.7z"/>
			
				<linearGradient id="SVGID_00000096778134865015296660000017317520392474118274_" gradientUnits="userSpaceOnUse" x1="1711.6455" y1="1919.3773" x2="1717.6857" y2="1758.4882" gradientTransform="matrix(1 0 0 1 1174.6333 0)">
				<stop  offset="0" style="stop-color:#FFC444"/>
				<stop  offset="0.9964" style="stop-color:#F36F56"/>
			</linearGradient>
			<path style="fill:url(#SVGID_00000096778134865015296660000017317520392474118274_);" d="M2836.8,1831.4
				c6.8-21.9,28.9-33.1,46.3-35.5c17-2.4,45.1,1.5,56.3,23.8c10.5,20.8,2.2,50-21.8,65.8c-3.4-8.4-9.4-19.4-20.1-22.8
				c-19.6-6.2-36.6,19.4-51.1,12.7C2834.8,1870,2831.8,1847.4,2836.8,1831.4z"/>
			<path class="st2" d="M2917.1,1963.9l64.3,11.2c12.5,2.2,23.2-9,20.5-21.3l-23.4-108.8c-1.7-7.9-8.5-13.6-16.5-14.1l-77-4.1
				c-12.7-0.7-22,11.8-17.8,23.8l36.1,101.8C2905.4,1958.4,2910.7,1962.8,2917.1,1963.9z"/>
			
				<linearGradient id="SVGID_00000151512082885357815570000002486688639980295311_" gradientUnits="userSpaceOnUse" x1="1792.715" y1="2006.2639" x2="1797.8431" y2="1869.6674" gradientTransform="matrix(1 0 0 1 1174.6333 0)">
				<stop  offset="0" style="stop-color:#FFC444"/>
				<stop  offset="0.9964" style="stop-color:#F36F56"/>
			</linearGradient>
			<path style="fill:url(#SVGID_00000151512082885357815570000002486688639980295311_);" d="M3029.3,1954.7
				c-5.3-37.9-21.3-47.8-27-50.6c-9.7-4.7-14.5-1.1-48.3-1.6c-30.2-0.5-37.4-3.6-41.2,1.6c-7.2,9.8,7.6,35.5,24.5,50.6
				c23.6,21.2,53,23,65,23L3029.3,1954.7z"/>
		</g>
		<g>
			<g>
				<g>
					<g>
						<g>
							
								<linearGradient id="SVGID_00000020377258453698394260000007595972912843415717_" gradientUnits="userSpaceOnUse" x1="2646.1221" y1="1844.5977" x2="4557.5039" y2="1844.5977" gradientTransform="matrix(0.9998 1.990000e-02 -1.990000e-02 0.9998 -2122.78 -41.8984)">
								<stop  offset="0" style="stop-color:#444B8C"/>
								<stop  offset="0.9964" style="stop-color:#26264F"/>
							</linearGradient>
							<path style="fill:url(#SVGID_00000020377258453698394260000007595972912843415717_);" d="M2091.5,432.2l278.4,2800.1
								c4.1,41.7-24.6,78.2-63.9,81L949.5,3426.9c-82.7,2.9-127.3-41.6-131.8-85.8L516,377.2c-4.5-44.5,36.8-83.9,120.3-82.2
								l1375,58C2051.3,354.5,2087.3,390.1,2091.5,432.2z"/>
							<path class="st28" d="M2153.1,428.6l279.6,2814.5c4.2,41.9-24.7,78.6-64.2,81.5L962.2,3427.6c-43.9,3.2-83.6-30.4-88.1-74.8
								l-303-2979.6c-4.6-44.8,28.3-80,72.9-78.3l1428.7,54C2112.8,350.5,2148.9,386.3,2153.1,428.6z"/>
							<path class="st29" d="M2123.5,583.9l259.3,2608.6c3.9,39.2-23.1,73.3-60.1,76l-1322.8,94c-40.8,2.9-77.8-28.5-82-69.8
								L638.4,540.6c-4.2-41.7,26.3-74.7,67.7-73.3l1342.2,42.7C2085.8,511.1,2119.6,544.4,2123.5,583.9z"/>
						</g>
						<path class="st2" d="M1412.1,411.4c1.5,15.1-9.1,26.9-23.8,26.4c-14.7-0.5-27.8-13.1-29.3-28.2c-1.5-15.1,9.1-26.9,23.8-26.4
							C1397.5,383.7,1410.6,396.3,1412.1,411.4z"/>
					</g>
				</g>
				<g class="st30">
					<path class="st3" d="M1281.9,1785.2c-139.8-413,103.5-621-34.3-1003.5c-75-208.1-225-363.2-390.1-478.6L644,294.9
						c-44.6-1.7-77.5,33.6-72.9,78.3l303,2979.6c4.5,44.4,44.2,78,88.1,74.8l1214.2-89c-3.8-311.1-82.9-532.5-170.8-689.9
						C1764.1,2216.2,1426.6,2212.8,1281.9,1785.2z"/>
				</g>
			</g>
			<g>
				<g>
					
						<linearGradient id="SVGID_00000137812024574698982370000008273346427387397792_" gradientUnits="userSpaceOnUse" x1="-1724.0437" y1="-1414.2521" x2="-1062.0403" y2="784.3294" gradientTransform="matrix(0.6379 -0.7701 0.7701 0.6379 3203.0696 875.1782)">
						<stop  offset="0" style="stop-color:#AA80F9"/>
						<stop  offset="0.9964" style="stop-color:#6165D7"/>
					</linearGradient>
					<path style="fill:url(#SVGID_00000137812024574698982370000008273346427387397792_);" d="M2081.9,794.8
						c209.4,173.5,418.8,346.9,628.2,520.4c-540.2,242.9-477.3,985.4-1017.5,1228.3c-209.4-173.5-418.8-346.9-628.2-520.4
						C1604.6,1780.2,1541.7,1037.7,2081.9,794.8z"/>
					<path class="st2" d="M2604.2,1306.3c-458.3,258.2-441,910.4-899.3,1168.6c-178.2-147.6-356.4-295.3-534.7-442.9
						c458.3-258.2,441-910.4,899.3-1168.6C2247.7,1011,2426,1158.6,2604.2,1306.3z"/>
					<g>
						<g>
							
								<linearGradient id="SVGID_00000132052072603921576360000005339003203428274070_" gradientUnits="userSpaceOnUse" x1="-2315.157" y1="-1303.0389" x2="-1523.7419" y2="1325.3317" gradientTransform="matrix(0.6379 -0.7701 0.7701 0.6379 3203.0696 875.1782)">
								<stop  offset="0" style="stop-color:#AA80F9"/>
								<stop  offset="0.9964" style="stop-color:#6165D7"/>
							</linearGradient>
							<path style="fill:url(#SVGID_00000132052072603921576360000005339003203428274070_);" d="M1265.3,1955.8
								c2.4,1.9,4.4,3.8,6.6,5.9c0.2,0.2,0.4,0.3,0.5,0.5c24.4,23.5,35.8,53.1,33,81.5c-2.4,24.8-15.9,48.5-41.3,66
								c-3.7,2.5-7.7,4.9-11.9,7.2c-15.9,8.6-34.2,14.3-53.6,17.4c-44.7-37-89.4-74.1-134.2-111.1c57.4-25.8,108-57.3,153.3-93.2
								C1233.9,1934.7,1251.2,1944.1,1265.3,1955.8z"/>
							
								<linearGradient id="SVGID_00000007426259599957279180000012665008045465479567_" gradientUnits="userSpaceOnUse" x1="-2553.4172" y1="-1418.2432" x2="-1720.4125" y2="1348.2511" gradientTransform="matrix(0.6379 -0.7701 0.7701 0.6379 3203.0696 875.1782)">
								<stop  offset="0" style="stop-color:#AA80F9"/>
								<stop  offset="0.9964" style="stop-color:#6165D7"/>
							</linearGradient>
							<path style="fill:url(#SVGID_00000007426259599957279180000012665008045465479567_);" d="M1812.4,2409.1
								c14.7,12.2,24.5,25.5,32.7,41.8c-45.1,35.7-95.4,66.9-152.6,92.6c-45.8-37.9-91.5-75.8-137.3-113.7
								c10.6-10.4,24-20.1,40-28.7c4.2-2.3,8.5-4.4,12.9-6.4c65.2-29.9,145.2-29.9,198.5,9.8c0.2,0.1,0.4,0.3,0.6,0.5
								C1809,2406.3,1810.8,2407.7,1812.4,2409.1z"/>
						</g>
						<g>
							
								<linearGradient id="SVGID_00000013173935930685331560000005198333727112356269_" gradientUnits="userSpaceOnUse" x1="-1034.0228" y1="-1874.9764" x2="-205.056" y2="878.1075" gradientTransform="matrix(0.6379 -0.7701 0.7701 0.6379 3203.0696 875.1782)">
								<stop  offset="0" style="stop-color:#AA80F9"/>
								<stop  offset="0.9964" style="stop-color:#6165D7"/>
							</linearGradient>
							<path style="fill:url(#SVGID_00000013173935930685331560000005198333727112356269_);" d="M2081.9,794.8
								c44.7,37,89.4,74.1,134.2,111.1c-10.6,10.4-24,20.1-40,28.7c-4.2,2.3-8.5,4.4-12.9,6.4c-64.5,29.6-143.3,30.1-196.6-8.4
								c-2.5-1.8-4.5-3.3-6.9-5.3c-14.1-11.7-25.5-26-31.1-39.3C1973.9,852,2024.5,820.6,2081.9,794.8z"/>
							
								<linearGradient id="SVGID_00000101794848493636113450000004785591059262183870_" gradientUnits="userSpaceOnUse" x1="-1241.5862" y1="-1890.184" x2="-445.9193" y2="752.3078" gradientTransform="matrix(0.6379 -0.7701 0.7701 0.6379 3203.0696 875.1782)">
								<stop  offset="0" style="stop-color:#AA80F9"/>
								<stop  offset="0.9964" style="stop-color:#6165D7"/>
							</linearGradient>
							<path style="fill:url(#SVGID_00000101794848493636113450000004785591059262183870_);" d="M2572.8,1201.4
								c45.8,37.9,91.5,75.8,137.3,113.7c-57.1,25.7-107.5,57-152.6,92.6c-19.9-7-36-15.1-50.7-27.3c-1.6-1.4-3.4-2.9-4.9-4.3
								c-0.2-0.2-0.4-0.3-0.6-0.5c-23.8-21.9-36-49.6-35.5-76.7c0.5-27.2,13.9-53.7,41.7-72.8c3.7-2.5,7.6-5,11.8-7.3
								C2535.3,1210.3,2553.4,1204.5,2572.8,1201.4z"/>
						</g>
					</g>
					
						<linearGradient id="SVGID_00000166633475942725015590000009676372059997200038_" gradientUnits="userSpaceOnUse" x1="-1516.2905" y1="-725.2961" x2="-1385.3723" y2="-290.5033" gradientTransform="matrix(0.6379 -0.7701 0.7701 0.6379 3203.0696 875.1782)">
						<stop  offset="0" style="stop-color:#AA80F9"/>
						<stop  offset="0.9964" style="stop-color:#6165D7"/>
					</linearGradient>
					<path style="fill:url(#SVGID_00000166633475942725015590000009676372059997200038_);" d="M1996.7,1452.3
						c100.3,83.1,129.9,245.3,72.1,367.3c-57.8,122-191.5,148.9-292.6,65.1c-100.3-83.1-129.9-245.3-72.1-367.3
						C1761.9,1395.4,1895.5,1368.5,1996.7,1452.3z"/>
					<g>
						<path class="st2" d="M1923.2,1597.9c-17.6,4.1-35.9,16.1-57,40.7c-14.9-12.3-29.7-24.6-44.6-36.9c0.6-1,1.2-2,1.7-3.1
							c5.8-10,12.4-18.9,19.4-26.4c4-4.3,8.3-8.4,12.8-12c5-4,5-12.7,0.1-17.6c-6.1-6.2-12.3-12.3-18.4-18.5c-3.9-3.8-9.4-4-13-0.3
							c-6,6.1-12,12.9-17.4,19.6c-7.4,9.1-14.2,18.6-20.7,29c-5.2-4.3-10.4-8.6-15.6-12.9c-4.6-3.8-10.5-3.2-13.6,1.9
							c-3.1,5.1-1.6,11.8,3,15.6c5.3,4.4,10.6,8.8,15.9,13.2c-12.7,26.3-18.1,50.8-15.6,73.1c2.5,22.4,12.5,40.9,30.2,55.5
							c17.1,14.2,34.4,19.1,52,14.9c17.5-4.2,35.6-17.6,54.3-40.1c16.5,13.8,33,27.5,49.5,41.3c-6.5,11.3-13.8,21.6-21.9,31.1
							c-5.2,6-10.8,11.7-16.7,16.9c-5.1,4.5-5.1,13.6,0,18.7c7.9,7.8,15.9,15.7,23.8,23.5c4,3.9,9.5,3.8,13.1-0.1
							c5.9-6.5,11.6-13.5,17-21c7.3-10.1,14.3-21.5,20.9-33.7c0.8-1.5,1.6-3,2.4-4.5c5.7,4.7,11.3,9.4,17,14
							c4.6,3.8,10.5,3.2,13.1-2.2c0-0.1,0.1-0.1,0.1-0.2c2.6-5.4,1.1-12.1-3.4-15.8c-5.7-4.7-11.5-9.5-17.2-14.2
							c8.2-19.5,12.7-38.2,13.4-55.6c0.3-7.5,0-15-1.1-22.2c-3.6-23.6-14.3-42.6-32.2-57.4
							C1957.9,1598.4,1940.8,1593.8,1923.2,1597.9z M1910.1,1677.5c7.1-7.3,14.2-12.4,20.3-13.6c6.2-1.2,12.3,0.5,18.3,5.5
							c6.6,5.5,10.4,12.3,11.7,20.2c1.2,7.9-0.3,16.2-4.8,25.6C1940.4,1702.7,1925.3,1690.1,1910.1,1677.5z M1834.8,1666.9
							c-5.6,1.4-11.1-0.2-16.4-4.5c-5.6-4.6-8.9-10.7-10-18.1c-1.1-7.4,0.6-16.4,3.7-24.3c13.6,11.3,27.3,22.6,40.9,33.9
							C1846.3,1661.5,1840.4,1665.5,1834.8,1666.9z"/>
					</g>
					
						<linearGradient id="SVGID_00000059991477517002128770000005069040811945601941_" gradientUnits="userSpaceOnUse" x1="-2248.3826" y1="-460.6085" x2="-653.3098" y2="-460.6085" gradientTransform="matrix(0.6379 -0.7701 0.7701 0.6379 3203.0696 875.1782)">
						<stop  offset="0" style="stop-color:#AA80F9"/>
						<stop  offset="0.9964" style="stop-color:#6165D7"/>
					</linearGradient>
					<path style="opacity:0.2;fill:url(#SVGID_00000059991477517002128770000005069040811945601941_);" d="M2708.1,1313.5
						c0.7,0.6,1.4,1.1,2,1.7c-540.2,242.9-477.3,985.4-1017.5,1228.3c-205-169.8-409.9-339.6-614.9-509.4c29.8-3.2,62-5,96.7-4.5
						c40.1,0.7,83.5,4.7,131,14c52.7,10.4,110.4,27.5,174.3,54.5c315.7,134,406.4,21.2,461.1-169.3c15-50.5,28-106.1,43.7-162.6
						c6.9-24.9,14.7-49.9,23.3-74.8c16.9-48.7,37.3-96.7,61.9-141.3c80.4-152.6,221.5-255.8,396.1-251.2c32,0.4,64.6,4.2,97.3,11.3
						c8.5,1.8,17.5,3.2,26.9,4.2C2624,1318.2,2663.5,1316.7,2708.1,1313.5z"/>
				</g>
			</g>
			<g>
				
					<linearGradient id="SVGID_00000127045799240378262950000007636110078129919881_" gradientUnits="userSpaceOnUse" x1="-3964.6646" y1="-768.1909" x2="-5431.5894" y2="-902.4687" gradientTransform="matrix(0.3746 -0.924 0.9606 0.2746 4179.5039 -2299.4614)">
					<stop  offset="0" style="stop-color:#311944"/>
					<stop  offset="1" style="stop-color:#893976"/>
				</linearGradient>
				<path style="fill:url(#SVGID_00000127045799240378262950000007636110078129919881_);" d="M2181.4,1424.5
					c18.7,7.4,28.5,27.3,21.6,44.1l-434,1067.1c-7.4,18.1-33.4,31.2-52.8,23.2l-707-294c-18.9-7.9-26.8-35.3-19-53.1l437.6-1050.3
					c7.2-16.5,28.1-24,46.4-16.8L2181.4,1424.5z"/>
				
					<linearGradient id="SVGID_00000026878987539636887840000003275088771758117551_" gradientUnits="userSpaceOnUse" x1="-5282.2012" y1="-908.5967" x2="-3207.3149" y2="-831.4128" gradientTransform="matrix(0.367 -0.9283 0.9606 0.2746 4184.6396 -2295.6353)">
					<stop  offset="3.597120e-03" style="stop-color:#E38DDD"/>
					<stop  offset="1" style="stop-color:#9571F6"/>
				</linearGradient>
				<path style="fill:url(#SVGID_00000026878987539636887840000003275088771758117551_);" d="M2192.9,1403.4
					c18.9,7.5,28.6,27.5,21.7,44.5l-442,1080.7c-7.5,18.3-29.5,26.6-49,18.5l-711.4-295.6c-19-7.9-28.2-29-20.4-46.9l442.3-1065.6
					c7.3-16.6,28.3-24.3,46.8-16.9L2192.9,1403.4z"/>
				<g class="st40">
					<path class="st3" d="M1659,2142.8l-74.9,175.4c-3.3,7.8-12.7,12-20.7,9.3l-44.2-14.8c-8.1-2.7-11.9-11.3-8.5-19.1l75.4-175.3
						c3.3-7.7,12.6-11.8,20.6-9.1l43.8,14.8C1658.4,2126.6,1662.3,2135.1,1659,2142.8z"/>
					<path class="st3" d="M1757.5,1912l-73.5,172.2c-3.3,7.7-12.5,11.8-20.5,9.1l-43.7-14.7c-8-2.7-11.8-11.2-8.5-18.9l74-172.1
						c3.3-7.6,12.4-11.6,20.3-8.9l43.4,14.7C1756.9,1896,1760.7,1904.4,1757.5,1912z"/>
					<path class="st3" d="M1854.3,1685.4l-72.2,169.1c-3.2,7.5-12.3,11.5-20.2,8.9l-43.3-14.7c-7.9-2.7-11.7-11-8.5-18.6l72.7-169
						c3.2-7.4,12.2-11.3,20.1-8.7l42.9,14.6C1853.6,1669.7,1857.4,1677.9,1854.3,1685.4z"/>
					<path class="st3" d="M1949.3,1462.9l-70.9,166c-3.2,7.4-12.2,11.3-20,8.6l-42.9-14.6c-7.8-2.7-11.6-10.9-8.4-18.3l71.4-165.9
						c3.1-7.3,12.1-11.1,19.8-8.4l42.5,14.5C1948.6,1447.4,1952.4,1455.5,1949.3,1462.9z"/>
				</g>
				<g>
					
						<linearGradient id="SVGID_00000098191147072185012340000001255480741575019918_" gradientUnits="userSpaceOnUse" x1="-5393.1875" y1="-1161.0199" x2="-4748.085" y2="-795.3159" gradientTransform="matrix(0.367 -0.9283 0.9606 0.2746 4184.6396 -2295.6353)">
						<stop  offset="0" style="stop-color:#F57E53"/>
						<stop  offset="4.537139e-03" style="stop-color:#F58152"/>
						<stop  offset="4.198170e-02" style="stop-color:#F99A4D"/>
						<stop  offset="8.401687e-02" style="stop-color:#FCAD49"/>
						<stop  offset="0.1333" style="stop-color:#FEBA46"/>
						<stop  offset="0.1962" style="stop-color:#FFC244"/>
						<stop  offset="0.3183" style="stop-color:#FFC444"/>
						<stop  offset="0.455" style="stop-color:#FDB946"/>
						<stop  offset="0.6941" style="stop-color:#F99C4C"/>
						<stop  offset="0.9964" style="stop-color:#F36F56"/>
					</linearGradient>
					<path style="fill:url(#SVGID_00000098191147072185012340000001255480741575019918_);" d="M1447.5,2154.7l-35.3,83.2
						c-6.4,15.1-24.9,22-41.1,15.4l-88.2-36.5c-16.1-6.7-24-24.5-17.6-39.6l35.6-82.8c6.4-15,24.9-21.8,41-15.2l87.9,36.1
						C1445.9,2122,1453.9,2139.7,1447.5,2154.7z"/>
					
						<linearGradient id="SVGID_00000089574123811790161520000005751576131935276971_" gradientUnits="userSpaceOnUse" x1="-5184.8418" y1="-944.8481" x2="-5042.5688" y2="-944.8481" gradientTransform="matrix(0.3746 -0.924 0.9606 0.2746 4179.5039 -2299.4614)">
						<stop  offset="0" style="stop-color:#FF9085"/>
						<stop  offset="1" style="stop-color:#FB6FBB"/>
					</linearGradient>
					<path style="fill:url(#SVGID_00000089574123811790161520000005751576131935276971_);" d="M1436.5,2157.1l-30.4,71.4
						c-5.9,14-23,20.4-38,14.2l-75.8-31.3c-14.9-6.2-22.2-22.6-16.2-36.5l30.6-71.2c6-13.9,22.9-20.2,37.8-14l75.5,31.1
						C1435.1,2126.9,1442.4,2143.2,1436.5,2157.1z M1280,2176.4c-5.2,12,1.1,26.1,14,31.4l75.8,31.3c12.9,5.3,27.6-0.1,32.7-12.2
						l30.4-71.4c5.1-12-1.2-26-14.1-31.3l-75.5-31.1c-12.8-5.3-27.4,0.1-32.6,12.1L1280,2176.4z"/>
					<g>
						<g>
							<path class="st3" d="M1302.6,2213.5l50.7-118.2L1302.6,2213.5z"/>
							
								<linearGradient id="SVGID_00000010271742509151459990000007057709792707327116_" gradientUnits="userSpaceOnUse" x1="-5161.8135" y1="-1026.4637" x2="-5032.9038" y2="-1026.4637" gradientTransform="matrix(0.367 -0.9283 0.9606 0.2746 4184.6396 -2295.6353)">
								<stop  offset="0" style="stop-color:#FF9085"/>
								<stop  offset="1" style="stop-color:#FB6FBB"/>
							</linearGradient>
							<polygon style="fill:url(#SVGID_00000010271742509151459990000007057709792707327116_);" points="1355.1,2096 1304.4,2214.3 
								1300.7,2212.7 1351.3,2094.5 							"/>
						</g>
						<g>
							<path class="st3" d="M1331,2225.3l50.6-118.3L1331,2225.3z"/>
							
								<linearGradient id="SVGID_00000094593096771069517870000004369111640100240569_" gradientUnits="userSpaceOnUse" x1="-5165.3242" y1="-995.5365" x2="-5036.3477" y2="-995.5365" gradientTransform="matrix(0.367 -0.9283 0.9606 0.2746 4184.6396 -2295.6353)">
								<stop  offset="0" style="stop-color:#FF9085"/>
								<stop  offset="1" style="stop-color:#FB6FBB"/>
							</linearGradient>
							<polygon style="fill:url(#SVGID_00000094593096771069517870000004369111640100240569_);" points="1383.5,2107.7 1332.9,2226 
								1329.2,2224.5 1379.7,2106.2 							"/>
						</g>
						<g>
							<path class="st3" d="M1359.5,2237l50.5-118.4L1359.5,2237z"/>
							
								<linearGradient id="SVGID_00000108990247407887305900000007033009006028468883_" gradientUnits="userSpaceOnUse" x1="-5168.8384" y1="-964.5832" x2="-5039.7939" y2="-964.5832" gradientTransform="matrix(0.367 -0.9283 0.9606 0.2746 4184.6396 -2295.6353)">
								<stop  offset="0" style="stop-color:#FF9085"/>
								<stop  offset="1" style="stop-color:#FB6FBB"/>
							</linearGradient>
							<polygon style="fill:url(#SVGID_00000108990247407887305900000007033009006028468883_);" points="1411.9,2119.4 
								1361.4,2237.8 1357.7,2236.3 1408.1,2117.8 							"/>
						</g>
					</g>
					<g>
						<path class="st46" d="M1412.8,2169.8l-14.1,33.1c-3.6,8.4-13.9,12.3-22.9,8.5l-66.1-27.3c-9-3.7-13.4-13.6-9.8-22l14.2-33
							c3.6-8.4,13.9-12.2,22.9-8.5l66,27.2C1412,2151.5,1416.4,2161.4,1412.8,2169.8z"/>
						
							<linearGradient id="SVGID_00000088820712857380156220000007253030278294624397_" gradientUnits="userSpaceOnUse" x1="-5154.2788" y1="-944.8208" x2="-5072.8945" y2="-944.8208" gradientTransform="matrix(0.3746 -0.924 0.9606 0.2746 4179.5039 -2299.4614)">
							<stop  offset="0" style="stop-color:#FF9085"/>
							<stop  offset="1" style="stop-color:#FB6FBB"/>
						</linearGradient>
						<path style="fill:url(#SVGID_00000088820712857380156220000007253030278294624397_);" d="M1414.7,2170.6l-14.1,33.1
							c-4,9.4-15.5,13.7-25.5,9.5l-66.1-27.3c-10.1-4.2-15-15.2-10.9-24.5l14.2-33c4-9.4,15.4-13.6,25.5-9.5l66,27.2
							C1413.8,2150.2,1418.7,2161.2,1414.7,2170.6z M1301.8,2162.9c-3.2,7.4,0.7,16.2,8.7,19.5l66.1,27.3c8,3.3,17.1-0.1,20.3-7.6
							l14.1-33.1c3.2-7.4-0.8-16.2-8.7-19.5l-66-27.2c-8-3.3-17,0.1-20.2,7.5L1301.8,2162.9z"/>
					</g>
				</g>
				
					<linearGradient id="SVGID_00000002358611922765838800000010032954673077292166_" gradientUnits="userSpaceOnUse" x1="-5294.1279" y1="-646.3163" x2="-3282.5938" y2="-571.4891" gradientTransform="matrix(0.367 -0.9283 0.9606 0.2746 4184.6396 -2295.6353)">
					<stop  offset="0" style="stop-color:#FB6FBB"/>
					<stop  offset="1" style="stop-color:#FF9085"/>
				</linearGradient>
				<path style="opacity:0.15;fill:url(#SVGID_00000002358611922765838800000010032954673077292166_);" d="M1737.5,2096.6
					c-25.8,93.8-48.6,150.9-97.5,205.7c-67.2,75.2-150.9,109.5-203.2,125.7l286.8,119.2c19.5,8.1,41.5-0.2,49-18.5l442-1080.7
					c7-17-2.8-37-21.7-44.5l-114-45.1c-173.8,118.5-239.4,239.3-266.7,329.9C1779.2,1797.6,1798.7,1873.8,1737.5,2096.6z"/>
				<g class="st49">
					
						<linearGradient id="SVGID_00000141431726919665270100000001372023473388691624_" gradientUnits="userSpaceOnUse" x1="-5236.2764" y1="-554.6385" x2="-4951.0693" y2="-554.6385" gradientTransform="matrix(0.3746 -0.924 0.9606 0.2746 4179.5039 -2299.4614)">
						<stop  offset="0" style="stop-color:#FB6FBB"/>
						<stop  offset="1" style="stop-color:#FF9085"/>
					</linearGradient>
					<path style="fill:url(#SVGID_00000141431726919665270100000001372023473388691624_);" d="M1817.9,2145.7l-99.8,241.9
						c-1.9,4.6-7.5,6.7-12.4,4.7l-40.6-16.8c-4.9-2-7.4-7.5-5.5-12.1l100.2-241.5c1.9-4.5,7.4-6.6,12.3-4.6l40.3,16.5
						C1817.2,2135.9,1819.7,2141.2,1817.9,2145.7z"/>
					
						<linearGradient id="SVGID_00000075150692660001710460000009524315483022518425_" gradientUnits="userSpaceOnUse" x1="-4819.4126" y1="-550.4111" x2="-4448.0386" y2="-550.4111" gradientTransform="matrix(0.3746 -0.924 0.9606 0.2746 4179.5039 -2299.4614)">
						<stop  offset="0" style="stop-color:#FB6FBB"/>
						<stop  offset="1" style="stop-color:#FF9085"/>
					</linearGradient>
					<path style="fill:url(#SVGID_00000075150692660001710460000009524315483022518425_);" d="M2010.7,1681.7l-132.8,321.8
						c-1.9,4.6-7.5,6.7-12.4,4.7l-40.6-16.5c-4.9-2-7.4-7.4-5.5-12l133.3-321.3c1.9-4.5,7.4-6.6,12.3-4.6l40.2,16.1
						C2010.1,1671.9,2012.6,1677.2,2010.7,1681.7z"/>
				</g>
				
					<linearGradient id="SVGID_00000010282284128789443010000005286947324655630744_" gradientUnits="userSpaceOnUse" x1="-4035.7715" y1="-1676.9011" x2="-3837.4749" y2="-1676.9011" gradientTransform="matrix(0.2591 -0.9498 0.998 0.1641 4255.0259 -2080.0344)">
					<stop  offset="0" style="stop-color:#FF9085"/>
					<stop  offset="1" style="stop-color:#FB6FBB"/>
				</linearGradient>
				<path style="opacity:0.26;fill:url(#SVGID_00000010282284128789443010000005286947324655630744_);" d="M1598.5,1293.7
					c48.9,19.5,71.5,76.1,50.5,126c-20.8,49.4-76.6,73.5-124.6,54.2c-48-19.2-70.8-74.7-50.9-124.3
					C1493.6,1299.4,1549.6,1274.2,1598.5,1293.7z"/>
				<g class="st53">
					<path class="st3" d="M1415.8,2047.5c3.2,7.8-0.5,16.8-8.4,20.1c-7.9,3.3-16.9-0.3-20.1-8.2c-3.1-7.8,0.7-16.8,8.6-20.1
						C1403.7,2036.1,1412.6,2039.7,1415.8,2047.5z"/>
					<g>
						<path class="st3" d="M1490.1,2025.7c-0.5,1.4-1.6,2.5-3,3.1c-2.9,1.2-6.3-0.2-7.5-3.1c-18.7-43.1-68.7-63.5-112.9-46.1
							c-3,1.2-6.4-0.2-7.5-3.1c-1.2-2.9,0.3-6.1,3.3-7.3c49.9-19.5,106.3,3.5,127.6,52.1C1490.7,2022.8,1490.6,2024.4,1490.1,2025.7
							z"/>
						<path class="st3" d="M1469.1,2034.6c-0.5,1.4-1.6,2.5-3.1,3.1c-2.9,1.2-6.3-0.2-7.6-3.1c-13.6-32-50.7-47.1-83.3-34
							c-3,1.2-6.4-0.2-7.6-3.1c-1.2-2.9,0.3-6.2,3.3-7.4c38.4-15.3,82,2.5,98.1,40.1C1469.7,2031.7,1469.6,2033.2,1469.1,2034.6z"/>
						<path class="st3" d="M1447.8,2043.6c-0.6,1.4-1.6,2.5-3.1,3.2c-3,1.3-6.4-0.1-7.6-3.1c-8.6-20.6-32.4-30.3-53.3-21.8
							c-3,1.2-6.4-0.2-7.6-3.1c-1.2-2.9,0.3-6.3,3.3-7.5c13-5.3,27.2-5.3,40.1,0c12.8,5.2,22.9,15.2,28.3,28
							C1448.4,2040.6,1448.4,2042.2,1447.8,2043.6z"/>
					</g>
				</g>
			</g>
			<g>
				
					<linearGradient id="SVGID_00000114763003158445685900000007592819960465847171_" gradientUnits="userSpaceOnUse" x1="1153.7528" y1="1959.4414" x2="737.6039" y2="2092.9961">
					<stop  offset="0" style="stop-color:#FCB148"/>
					<stop  offset="5.207239e-02" style="stop-color:#FDBA46"/>
					<stop  offset="0.1424" style="stop-color:#FFC244"/>
					<stop  offset="0.3183" style="stop-color:#FFC444"/>
					<stop  offset="0.4849" style="stop-color:#FDB946"/>
					<stop  offset="0.7754" style="stop-color:#F99C4D"/>
					<stop  offset="0.8658" style="stop-color:#F8924F"/>
					<stop  offset="1" style="stop-color:#F8924F"/>
				</linearGradient>
				<path style="fill:url(#SVGID_00000114763003158445685900000007592819960465847171_);" d="M1632.8,1944.3
					c0,193.1-151,344.9-343.9,339c-200.8-6.2-369.7-179.6-369.7-387.1c0-207.5,168.9-358.2,369.7-337.3
					C1481.9,1579.1,1632.8,1751.3,1632.8,1944.3z"/>
				
					<linearGradient id="SVGID_00000029024294168732788910000007790101377905108637_" gradientUnits="userSpaceOnUse" x1="1490.3929" y1="1545.2068" x2="1118.8807" y2="2364.832">
					<stop  offset="0" style="stop-color:#FFDB44"/>
					<stop  offset="1" style="stop-color:#FEEF06"/>
				</linearGradient>
				<path style="fill:url(#SVGID_00000029024294168732788910000007790101377905108637_);" d="M1685,1927.7
					c0,193.1-151,344.9-343.9,339c-200.8-6.2-369.7-179.6-369.7-387.1c0-207.5,168.9-358.2,369.7-337.3
					C1534,1562.4,1685,1734.6,1685,1927.7z"/>
				
					<linearGradient id="SVGID_00000148660516455540021890000014898271175900026047_" gradientUnits="userSpaceOnUse" x1="1422.0532" y1="2410.6414" x2="1350.3691" y2="2019.0338">
					<stop  offset="0" style="stop-color:#FCB148"/>
					<stop  offset="5.207239e-02" style="stop-color:#FDBA46"/>
					<stop  offset="0.1424" style="stop-color:#FFC244"/>
					<stop  offset="0.3183" style="stop-color:#FFC444"/>
					<stop  offset="0.4849" style="stop-color:#FDB946"/>
					<stop  offset="0.7754" style="stop-color:#F99C4D"/>
					<stop  offset="0.8658" style="stop-color:#F8924F"/>
					<stop  offset="1" style="stop-color:#F8924F"/>
				</linearGradient>
				<path style="fill:url(#SVGID_00000148660516455540021890000014898271175900026047_);" d="M1669.8,1926.7
					c0,184.6-144.4,329.5-328.8,323.5c-191.5-6.2-352.2-171.7-352.2-369.4s160.8-341.6,352.2-321.9
					C1525.4,1577.7,1669.8,1742.1,1669.8,1926.7z"/>
				
					<linearGradient id="SVGID_00000023281366107575858880000004941175021027648950_" gradientUnits="userSpaceOnUse" x1="1270.0693" y1="1776.7814" x2="1565.4889" y2="2403.9006">
					<stop  offset="0" style="stop-color:#FCB148"/>
					<stop  offset="5.207239e-02" style="stop-color:#FDBA46"/>
					<stop  offset="0.1424" style="stop-color:#FFC244"/>
					<stop  offset="0.3183" style="stop-color:#FFC444"/>
					<stop  offset="0.4849" style="stop-color:#FDB946"/>
					<stop  offset="0.7754" style="stop-color:#F99C4D"/>
					<stop  offset="0.8658" style="stop-color:#F8924F"/>
					<stop  offset="1" style="stop-color:#F8924F"/>
				</linearGradient>
				<path style="fill:url(#SVGID_00000023281366107575858880000004941175021027648950_);" d="M1659,1925.9
					c0,178.5-139.8,318.4-317.9,312.5c-184.8-6.2-339.8-166.1-339.8-356.8c0-190.8,155-329.7,339.8-311
					C1519.2,1588.6,1659,1747.5,1659,1925.9z"/>
				<g>
					
						<linearGradient id="SVGID_00000000909234236099754420000001251206395794964356_" gradientUnits="userSpaceOnUse" x1="1258.2996" y1="1641.8334" x2="1406.8466" y2="2198.5618">
						<stop  offset="0" style="stop-color:#FFDB44"/>
						<stop  offset="1" style="stop-color:#FEEF06"/>
					</linearGradient>
					<path style="fill:url(#SVGID_00000000909234236099754420000001251206395794964356_);" d="M1339.2,1631.3L1339.2,1631.3
						c9.5,0.9,17.2,9.4,17.2,19.1v32.9c19,2.1,37.9,5.4,56.9,9.9c14,3.3,27.9,7.2,41.8,11.8c8.3,2.7,13.9,11.1,13.1,19.7l-4,41.2
						c-1.1,10.9-11.9,17.4-22.1,12.8c-9.1-4.1-18.4-7.5-28-10.4c-16.7-5.1-34.3-8.3-52.9-9.9l-4.8-0.4v94.1
						c49.5,13.8,85.8,32.4,109.2,55.9c23.4,23.3,35,52.3,35,87.2c0,37.7-12.9,67.9-38.7,90.7c-26,22.9-62.4,35.8-109.5,38.5v36.3
						c0,9.6-7.7,17.1-17.2,16.8l-0.3,0c-9.5-0.4-17.2-8.5-17.2-18.2v-35.8l-7.6-0.3c-22.1-1-43.2-3.2-63.4-6.8
						c-15-2.6-29.6-6-43.8-10.1c-8.6-2.5-14.5-10.7-13.7-19.5l4.7-53c1-11.5,12.5-18.1,23.4-13.8c12.7,5,25.5,9.2,38.5,12.7
						c20.3,5.3,40.8,8.8,61.6,10.3l0.3-104.7c-47.5-11.7-83-29.1-106.4-52.2c-23.5-23.2-35.2-52.8-35.2-88.8
						c0-37.3,12.8-66.1,38.2-86.3c25.3-20.1,61.3-30.1,107.7-30.1v-33.6C1322,1637.5,1329.7,1630.4,1339.2,1631.3z M1322,1756.9
						c-14.7,1.1-26.1,5.1-34.3,12.1c-8.2,7-12.3,16.4-12.3,28.2c0,11.2,3.8,20.6,11.4,28.1c7.6,7.5,19.3,13.5,35.2,18V1756.9z
						 M1352.5,1946.5v96c15.9,0,28.2-3.8,36.7-11.4c8.5-7.6,12.8-18.4,12.8-32.3c0-12.7-4-23.2-11.9-31.6
						C1382.1,1958.8,1369.6,1951.9,1352.5,1946.5z"/>
				</g>
				
					<linearGradient id="SVGID_00000060027210277449433500000007931525408677949072_" gradientUnits="userSpaceOnUse" x1="1183.1578" y1="1817.3655" x2="1477.9813" y2="2443.2195">
					<stop  offset="0" style="stop-color:#FCB148"/>
					<stop  offset="5.207239e-02" style="stop-color:#FDBA46"/>
					<stop  offset="0.1424" style="stop-color:#FFC244"/>
					<stop  offset="0.3183" style="stop-color:#FFC444"/>
					<stop  offset="0.4849" style="stop-color:#FDB946"/>
					<stop  offset="0.7754" style="stop-color:#F99C4D"/>
					<stop  offset="0.8658" style="stop-color:#F8924F"/>
					<stop  offset="1" style="stop-color:#F8924F"/>
				</linearGradient>
				<path style="opacity:0.3;fill:url(#SVGID_00000060027210277449433500000007931525408677949072_);" d="M1283.5,1969.6
					c10.7-106.1,108.2-151,95.5-248.6c-7.8-60.1-53.4-110.8-104.3-150.4c-154.2,16.2-273.5,143.9-273.5,310.9
					c0,190.8,155,350.6,339.8,356.8c17.9,0.6,35.5-0.3,52.5-2.6C1320.2,2162.8,1274.3,2060.8,1283.5,1969.6z"/>
			</g>
			<g>
				
					<linearGradient id="SVGID_00000107569504706652900930000004512498375239177099_" gradientUnits="userSpaceOnUse" x1="1126.1997" y1="1184.9578" x2="845.9176" y2="1274.9088">
					<stop  offset="0" style="stop-color:#FCB148"/>
					<stop  offset="5.207239e-02" style="stop-color:#FDBA46"/>
					<stop  offset="0.1424" style="stop-color:#FFC244"/>
					<stop  offset="0.3183" style="stop-color:#FFC444"/>
					<stop  offset="0.4849" style="stop-color:#FDB946"/>
					<stop  offset="0.7754" style="stop-color:#F99C4D"/>
					<stop  offset="0.8658" style="stop-color:#F8924F"/>
					<stop  offset="1" style="stop-color:#F8924F"/>
				</linearGradient>
				<path style="fill:url(#SVGID_00000107569504706652900930000004512498375239177099_);" d="M1448.9,1174.8
					c0,130-101.7,232.3-231.6,228.3c-135.2-4.2-249-121-249-260.7c0-139.8,113.7-241.2,249-227.2
					C1347.2,928.8,1448.9,1044.8,1448.9,1174.8z"/>
				
					<linearGradient id="SVGID_00000117635718210525585900000000943076457365718159_" gradientUnits="userSpaceOnUse" x1="1352.9315" y1="905.9651" x2="1102.7129" y2="1457.994">
					<stop  offset="0" style="stop-color:#FFDB44"/>
					<stop  offset="1" style="stop-color:#FEEF06"/>
				</linearGradient>
				<path style="fill:url(#SVGID_00000117635718210525585900000000943076457365718159_);" d="M1484,1163.6
					c0,130-101.7,232.3-231.6,228.3c-135.2-4.2-249-121-249-260.7c0-139.8,113.7-241.2,249-227.2
					C1382.3,917.6,1484,1033.5,1484,1163.6z"/>
				
					<linearGradient id="SVGID_00000133496587566670730470000014408859463169469596_" gradientUnits="userSpaceOnUse" x1="1306.9037" y1="1488.8472" x2="1258.6234" y2="1225.0941">
					<stop  offset="0" style="stop-color:#FCB148"/>
					<stop  offset="5.207239e-02" style="stop-color:#FDBA46"/>
					<stop  offset="0.1424" style="stop-color:#FFC244"/>
					<stop  offset="0.3183" style="stop-color:#FFC444"/>
					<stop  offset="0.4849" style="stop-color:#FDB946"/>
					<stop  offset="0.7754" style="stop-color:#F99C4D"/>
					<stop  offset="0.8658" style="stop-color:#F8924F"/>
					<stop  offset="1" style="stop-color:#F8924F"/>
				</linearGradient>
				<path style="fill:url(#SVGID_00000133496587566670730470000014408859463169469596_);" d="M1473.8,1162.9
					c0,124.3-97.3,221.9-221.4,217.9c-129-4.2-237.2-115.6-237.2-248.8s108.3-230,237.2-216.8
					C1376.5,927.9,1473.8,1038.6,1473.8,1162.9z"/>
				
					<linearGradient id="SVGID_00000030458494385931442260000013646780707704871356_" gradientUnits="userSpaceOnUse" x1="1204.5405" y1="1061.9338" x2="1403.5096" y2="1484.3074">
					<stop  offset="0" style="stop-color:#FCB148"/>
					<stop  offset="5.207239e-02" style="stop-color:#FDBA46"/>
					<stop  offset="0.1424" style="stop-color:#FFC244"/>
					<stop  offset="0.3183" style="stop-color:#FFC444"/>
					<stop  offset="0.4849" style="stop-color:#FDB946"/>
					<stop  offset="0.7754" style="stop-color:#F99C4D"/>
					<stop  offset="0.8658" style="stop-color:#F8924F"/>
					<stop  offset="1" style="stop-color:#F8924F"/>
				</linearGradient>
				<path style="fill:url(#SVGID_00000030458494385931442260000013646780707704871356_);" d="M1466.5,1162.4
					c0,120.2-94.1,214.5-214.1,210.5c-124.5-4.2-228.9-111.8-228.9-240.3s104.4-222.1,228.9-209.5
					C1372.3,935.2,1466.5,1042.2,1466.5,1162.4z"/>
				<g>
					
						<linearGradient id="SVGID_00000010275193163838495070000007309627921007599019_" gradientUnits="userSpaceOnUse" x1="1196.6134" y1="971.0445" x2="1296.6619" y2="1346.0087">
						<stop  offset="0" style="stop-color:#FFDB44"/>
						<stop  offset="1" style="stop-color:#FEEF06"/>
					</linearGradient>
					<path style="fill:url(#SVGID_00000010275193163838495070000007309627921007599019_);" d="M1251.1,964L1251.1,964
						c6.4,0.6,11.6,6.4,11.6,12.8v22.1c12.8,1.4,25.6,3.6,38.4,6.7c9.4,2.2,18.8,4.9,28.1,7.9c5.6,1.8,9.4,7.5,8.8,13.3l-2.7,27.8
						c-0.7,7.4-8,11.7-14.9,8.6c-6.1-2.7-12.4-5.1-18.9-7c-11.2-3.4-23.1-5.6-35.6-6.7l-3.3-0.3v63.4c33.3,9.3,57.8,21.9,73.6,37.6
						c15.7,15.7,23.6,35.3,23.6,58.7c0,25.4-8.7,45.7-26.1,61.1c-17.5,15.4-42,24.1-73.7,26v24.4c0,6.5-5.2,11.5-11.6,11.3l-0.2,0
						c-6.4-0.3-11.6-5.7-11.6-12.2v-24.1l-5.1-0.2c-14.9-0.7-29.1-2.2-42.7-4.6c-10.1-1.8-19.9-4-29.5-6.8
						c-5.8-1.7-9.8-7.2-9.3-13.2l3.2-35.7c0.7-7.7,8.4-12.2,15.8-9.3c8.5,3.4,17.2,6.2,26,8.5c13.7,3.6,27.5,5.9,41.5,6.9l0.2-70.5
						c-32-7.9-55.9-19.6-71.6-35.1c-15.8-15.6-23.7-35.6-23.7-59.8c0-25.1,8.6-44.5,25.7-58.1c17-13.5,41.3-20.3,72.5-20.3v-22.6
						C1239.5,968.1,1244.7,963.4,1251.1,964z M1239.5,1048.6c-9.9,0.7-17.6,3.4-23.1,8.1c-5.5,4.7-8.3,11.1-8.3,19
						c0,7.5,2.6,13.8,7.7,18.9c5.1,5.1,13,9.1,23.7,12.1V1048.6z M1260,1176.2v64.7c10.7,0,19-2.5,24.7-7.7
						c5.7-5.1,8.6-12.4,8.6-21.8c0-8.5-2.7-15.6-8-21.3C1280,1184.5,1271.6,1179.9,1260,1176.2z"/>
				</g>
				
					<linearGradient id="SVGID_00000137824350917924030020000003268705662358886063_" gradientUnits="userSpaceOnUse" x1="1146.0044" y1="1089.2677" x2="1344.5721" y2="1510.7891">
					<stop  offset="0" style="stop-color:#FCB148"/>
					<stop  offset="5.207239e-02" style="stop-color:#FDBA46"/>
					<stop  offset="0.1424" style="stop-color:#FFC244"/>
					<stop  offset="0.3183" style="stop-color:#FFC444"/>
					<stop  offset="0.4849" style="stop-color:#FDB946"/>
					<stop  offset="0.7754" style="stop-color:#F99C4D"/>
					<stop  offset="0.8658" style="stop-color:#F8924F"/>
					<stop  offset="1" style="stop-color:#F8924F"/>
				</linearGradient>
				<path style="opacity:0.3;fill:url(#SVGID_00000137824350917924030020000003268705662358886063_);" d="M1213.6,1191.8
					c7.2-71.5,72.9-101.7,64.3-167.4c-5.3-40.5-36-74.6-70.2-101.3c-103.9,10.9-184.2,96.9-184.2,209.4
					c0,128.5,104.4,236.1,228.9,240.3c12.1,0.4,23.9-0.2,35.4-1.7C1238.3,1321.9,1207.4,1253.2,1213.6,1191.8z"/>
			</g>
			<g>
				
					<linearGradient id="SVGID_00000006683995701552772280000001104240753902261183_" gradientUnits="userSpaceOnUse" x1="1781.5139" y1="917.6194" x2="1416.3855" y2="4135.6924">
					<stop  offset="0" style="stop-color:#AB316D"/>
					<stop  offset="1" style="stop-color:#792D3D"/>
				</linearGradient>
				<path style="fill:url(#SVGID_00000006683995701552772280000001104240753902261183_);" d="M2198.3,2148.5l77.5,904.9
					c2,23.3-5.1,45.3-20,61c-12.7,13.5-29.8,22.7-49.8,24.3l-1141.6,96.1c-48.4,4.1-89.8-30.3-93.2-76.4l-71.7-962.7
					c-3.4-45.3,32.6-84.7,80.7-86.3l1134.5-36.9C2157.7,2071,2194.7,2105.8,2198.3,2148.5z"/>
				
					<linearGradient id="SVGID_00000045592334680791741110000002334059935856530858_" gradientUnits="userSpaceOnUse" x1="5394.8071" y1="1188.595" x2="202.6078" y2="3147.9131">
					<stop  offset="0" style="stop-color:#AB316D"/>
					<stop  offset="1" style="stop-color:#792D3D"/>
				</linearGradient>
				<path style="opacity:0.2;fill:url(#SVGID_00000045592334680791741110000002334059935856530858_);" d="M2257.1,3114.3
					c-12.7,13.5-30.3,22.6-50.2,24.3l-1142,96.2c-48.4,4.1-90.2-30.3-93.6-76.4l-71.7-962.7c-3.4-45.3,32.6-84.7,80.7-86.3l13.2-0.4
					c4.8,24.8,11.2,52.7,17.4,79.5c0.9,3.7,1.7,7.7,2.6,11.3c7.1,30.9,13.2,56.3,14.3,59.6c35.6,106.6,85.9,229.1,192.3,288.7
					c162.5,91.1,368.2,74.8,539.1,124.7c112.5,32.9,228,77.3,317.6,151.6c65.4,54.3,120.6,121.3,152.9,199.7
					C2241.1,3052.3,2250.2,3082.9,2257.1,3114.3z"/>
				<g class="st40">
					<path class="st2" d="M2114.8,3099.2C2114.8,3099.2,2114.7,3099.2,2114.8,3099.2l-39.4,2.4c-4.5,0.4-8.4-3.3-8.8-7.8
						c-0.4-4.5,2.9-7.8,7.4-8.1l39.2-2.6c0,0,0,0,0,0c6.7,0,13.3-2.7,19.6-4.7c4.2-1.4,8.8,0.5,10.2,4.7c1.4,4.2-0.8,9.4-5,10.8
						C2130.5,3096.4,2122.8,3099.2,2114.8,3099.2z M2013.8,3105.9l-61.9,5.1c-4.5,0.4-8.5-3-8.9-7.5c-0.4-4.5,3-8.4,7.5-8.8l61.9-5
						c4.5-0.4,8.4,3,8.8,7.4C2021.6,3101.6,2018.3,3105.6,2013.8,3105.9z M1889.6,3116.1l-62.6,5.1c-4.6,0.4-8.6-3-9-7.5
						c-0.4-4.5,3-8.5,7.6-8.8l62.6-5.1c4.5-0.4,8.5,3,8.9,7.5C1897.6,3111.8,1894.2,3115.7,1889.6,3116.1z M1764,3126.4l-63.4,5.2
						c-4.6,0.4-8.7-3-9.1-7.5c-0.4-4.5,3.1-8.5,7.7-8.9l63.4-5.1c4.6-0.4,8.6,3,9,7.5C1772,3122,1768.6,3126,1764,3126.4z
						 M1636.8,3136.8l-64.2,5.3c-4.7,0.4-8.8-3-9.2-7.6s3.1-8.6,7.8-9l64.2-5.2c4.7-0.4,8.7,3,9.1,7.6
						C1645,3132.4,1641.5,3136.4,1636.8,3136.8z M1508.1,3147.3l-64.9,5.3c-4.7,0.4-8.9-3-9.2-7.6c-0.4-4.6,3.2-8.6,7.9-9l64.9-5.3
						c4.7-0.4,8.8,3,9.2,7.6C1516.4,3142.9,1512.8,3146.9,1508.1,3147.3z M1377.8,3158l-65.7,5.4c-4.8,0.4-9-3-9.3-7.7
						c-0.4-4.6,3.2-8.7,8.1-9.1l65.7-5.3c4.8-0.4,8.9,3,9.3,7.6C1386.2,3153.5,1382.6,3157.6,1377.8,3158z M1246,3168.8l-66.5,5.4
						c-4.9,0.4-9.1-3.1-9.5-7.7s3.3-8.7,8.2-9.1l66.5-5.4c4.8-0.4,9,3,9.4,7.7C1254.4,3164.3,1250.8,3168.4,1246,3168.8z
						 M1112.5,3177.7c-0.6,0-1.2,0-1.8,0c-24.3-2.7-47.2-13.4-64.5-30c-3.4-3.3-3.4-8.7,0.1-12c3.5-3.3,9.2-3.3,12.6,0
						c14.5,13.9,33.7,22.9,54,25.2c4.9,0.5,8.3,4.8,7.7,9.4C1120.1,3174.3,1116.6,3177.4,1112.5,3177.7z M2183.5,3056.9
						c-1.7,0.1-3.5-0.3-5.1-1.3c-3.7-2.5-4.7-7.5-2.3-11.2c10.4-15.7,15-33.9,13.4-52.8c-0.4-4.4,2.9-8.3,7.3-8.6
						c4.4-0.3,8.3,3,8.7,7.4c1.9,22.5-3.6,44.2-15.9,62.9C2188.2,3055.5,2185.9,3056.7,2183.5,3056.9z M1024.9,3093
						c-4.8,0.4-9.2-2.7-9.7-7.3c-0.1-1.2-0.4-2.3-0.5-3.6l-4.5-60.7c-0.4-4.7,2.6-8.8,7.5-9.2c4.9-0.4,8.4,3.1,8.8,7.8l4.6,60.7
						c0.1,1.1,1.1,2,1.2,3c0.5,4.7-2.6,8.9-7.5,9.3C1024.7,3093,1025,3093,1024.9,3093z M2196.5,2968.4c-4.4,0.3-6.8-3-7.2-7.4
						l-5.2-60.7c-0.4-4.4,1.4-8.3,5.8-8.6c4.4-0.3,6.8,3,7.2,7.4l5.2,60.6C2202.7,2964.2,2200.9,2968.1,2196.5,2968.4z
						 M1014.2,2965.1c-4.9,0.4-8.4-3.1-8.8-7.8l-4.8-64c-0.3-4.7,2.6-8.8,7.5-9.1c4.9-0.3,8.4,3.1,8.8,7.8l4.8,64
						C1022,2960.6,1019.1,2964.7,1014.2,2965.1z M2186.2,2847.2c-4.4,0.3-6.8-3-7.2-7.4l-5.1-60.5c-0.4-4.4,1.4-8.2,5.8-8.5
						c4.4-0.3,6.8,3,7.2,7.4l5.1,60.5C2192.4,2843,2190.6,2846.9,2186.2,2847.2z M1004.6,2837.1c-4.9,0.3-8.4-3.2-8.8-7.8l-4.8-63.9
						c-0.3-4.7,2.6-8.7,7.5-9c4.9-0.3,8.4,3.2,8.8,7.8l4.8,63.8C1012.4,2832.7,1009.5,2836.8,1004.6,2837.1z M2175.9,2726.2
						c-4.4,0.3-6.8-3.1-7.2-7.5l-5.1-60.4c-0.4-4.4,1.4-8.2,5.8-8.4c4.4-0.3,6.8,3.1,7.2,7.5l5.1,60.4
						C2182.1,2722.1,2180.3,2725.9,2175.9,2726.2z M995,2709.4c-4.9,0.3-8.4-3.2-8.8-7.9l-4.8-63.8c-0.3-4.6,2.6-8.7,7.5-8.9
						c4.9-0.3,8.4,3.2,8.8,7.9l4.8,63.7C1002.9,2705.1,999.9,2709.1,995,2709.4z M2165.6,2605.5c-4.4,0.3-6.8-3.1-7.2-7.5l-5.1-60.3
						c-0.4-4.4,1.4-8.1,5.8-8.4c4.4-0.2,6.8,3.1,7.2,7.5l5.1,60.2C2171.8,2601.5,2170,2605.2,2165.6,2605.5z M985.4,2582
						c-4.9,0.3-8.4-3.3-8.8-7.9l-4.8-63.6c-0.3-4.6,2.6-8.6,7.5-8.8c4.9-0.2,8.4,3.3,8.8,7.9l4.8,63.6
						C993.3,2577.7,990.4,2581.7,985.4,2582z M2155.4,2485c-4.4,0.2-6.8-3.2-7.2-7.5l-5.1-60.2c-0.4-4.4,1.4-8.1,5.8-8.3
						c4.4-0.2,6.8,3.2,7.1,7.6l5.1,60.1C2161.6,2481,2159.8,2484.8,2155.4,2485z M975.9,2454.8c-4.9,0.2-8.4-3.3-8.8-7.9l-4.8-63.5
						c-0.3-4.6,2.6-8.5,7.5-8.8c4.9-0.2,8.4,3.3,8.8,8l4.8,63.4C983.8,2450.6,980.8,2454.6,975.9,2454.8z M2145.2,2364.7
						c-4.4,0.2-6.8-3.2-7.2-7.6l-5.1-60c-0.4-4.4,1.4-8,5.8-8.2c4.4-0.2,6.8,3.2,7.1,7.6l5.1,60
						C2151.3,2360.8,2149.6,2364.5,2145.2,2364.7z M966.4,2327.9c-4.9,0.2-8.4-3.4-8.8-8l-3.6-47.7c-0.4-5.7-0.2-11.4,0.4-17
						c0.5-4.6,4.9-7.8,9.8-7.3c4.9,0.6,7.6,4.8,7.2,9.3c-0.5,4.7-1.4,9.5-1,14.3l3.6,47.6C974.2,2323.8,971.3,2327.7,966.4,2327.9z
						 M2135,2244.7c-4.4,0.2-6.8-3.2-7.2-7.6l-1-11.6c-1.3-14.8-7.7-29.1-16.4-41.5c-2.6-3.7-2.3-8.6,1.3-10.9
						c3.6-2.4,8-1.3,10.6,2.3c10.3,14.7,16,31.9,17.5,49.5l1,11.6C2141.1,2240.9,2139.4,2244.6,2135,2244.7z M991.5,2208.9
						c-2.4,0.1-4.9-0.7-6.7-2.5c-3.6-3.3-3.7-8.6-0.3-11.8c16.9-16.2,39.5-26.5,63.6-29c4.8-0.4,9.3,2.8,10,7.3
						c0.7,4.6-2.6,8.7-7.5,9.2c-20.2,2.1-39.1,10.8-53.3,24.3C995.7,2208,993.6,2208.8,991.5,2208.9z M2067.8,2151.4
						c-1,0-1.9-0.1-2.9-0.4c-9.8-3.3-20.1-4.8-30.4-4.4l-27.3,1c-4.4,0.2-8.4-3.3-8.7-7.7c-0.4-4.4,2.9-8.1,7.4-8.2l27.3-1
						c12.3-0.4,24.5,1.3,36.2,5.3c4.3,1.4,6.7,5.9,5.5,10.1C2073.9,2149.2,2071,2151.3,2067.8,2151.4z M1946,2149.7l-61.6,2.2
						c-4.5,0.2-8.4-3.3-8.8-7.7c-0.4-4.4,3-8.1,7.5-8.3l61.6-2.2c4.5-0.2,8.4,3.3,8.8,7.7C1953.8,2145.9,1950.5,2149.6,1946,2149.7z
						 M1822.5,2154.2l-62.3,2.2c-4.6,0.2-8.5-3.3-8.9-7.7c-0.4-4.4,3-8.2,7.6-8.3l62.3-2.2c4.5-0.2,8.5,3.3,8.9,7.7
						C1830.4,2150.3,1827,2154,1822.5,2154.2z M1697.6,2158.7l-63,2.3c-4.6,0.2-8.6-3.3-9-7.8c-0.4-4.5,3.1-8.2,7.7-8.4l63-2.2
						c4.6-0.2,8.6,3.3,8.9,7.8C1705.6,2154.8,1702.1,2158.5,1697.6,2158.7z M1571.1,2163.2l-63.8,2.3c-4.7,0.2-8.7-3.3-9.1-7.8
						c-0.4-4.5,3.1-8.3,7.8-8.4l63.8-2.2c4.6-0.2,8.7,3.3,9,7.8C1579.2,2159.3,1575.8,2163,1571.1,2163.2z M1443.2,2167.8l-64.6,2.3
						c-4.7,0.2-8.8-3.4-9.2-7.9c-0.4-4.5,3.2-8.3,7.9-8.5l64.5-2.3c4.7-0.2,8.8,3.4,9.1,7.9
						C1451.4,2163.9,1447.9,2167.6,1443.2,2167.8z M1313.7,2172.5l-65.3,2.3c-4.8,0.2-8.9-3.4-9.3-7.9c-0.4-4.5,3.2-8.4,8-8.5
						l65.3-2.3c4.7-0.2,8.9,3.4,9.2,7.9C1322,2168.5,1318.4,2172.3,1313.7,2172.5z M1182.6,2177.2l-66.1,2.4c-4.8,0.2-9-3.4-9.4-8
						c-0.3-4.6,3.3-8.4,8.1-8.6l66.1-2.3c4.8-0.2,9,3.4,9.3,7.9C1191,2173.2,1187.4,2177,1182.6,2177.2z"/>
				</g>
				
					<linearGradient id="SVGID_00000163783481408368435030000000334375172195447181_" gradientUnits="userSpaceOnUse" x1="3380.8979" y1="2173.3945" x2="1744.8013" y2="2790.7888">
					<stop  offset="0" style="stop-color:#AB316D"/>
					<stop  offset="1" style="stop-color:#792D3D"/>
				</linearGradient>
				<path style="fill:url(#SVGID_00000163783481408368435030000000334375172195447181_);" d="M2244.3,2397.6
					c-7-4.2-15.3-4.9-22.6-1.8l-232.1,99.3c-33.3,14.4-56,48.1-53,84.4l8,96.4c3.2,38.6,34.4,70.9,72.7,79.3l240.2,52.6
					c7.6,1.7,15.8-0.3,21.6-5.4c5.8-5.1,9.1-12.6,8.5-20.3l-31.4-365C2255.5,2409.2,2251.3,2401.9,2244.3,2397.6z"/>
				
					<linearGradient id="SVGID_00000089548405193328611490000018112203136680929666_" gradientUnits="userSpaceOnUse" x1="2354.5461" y1="2501.8479" x2="1944.0625" y2="2656.7471">
					<stop  offset="0" style="stop-color:#FFC444"/>
					<stop  offset="0.9964" style="stop-color:#F36F56"/>
				</linearGradient>
				<path style="fill:url(#SVGID_00000089548405193328611490000018112203136680929666_);" d="M2091,2616.8
					c2.3,26.7-17.7,49.6-44.6,51.3c-27,1.6-50.8-18.8-53-45.6c-2.2-26.8,17.9-49.7,44.9-51.3
					C2065.1,2569.8,2088.7,2590.2,2091,2616.8z"/>
			</g>
		</g>
	</g>
	<g id="g1438" transform="translate(-1266.194 -110.295) scale(2.59472)">
		<g id="g1406" transform="translate(481.988 41.407)">
			<g id="g1390">
				<path id="path1386" class="st70" d="M590,247l-48.4-0.8c-1,0-1.5,0.7-1.5,1.4l-0.1,3.8c0,1,0.7,1.5,1.4,1.5l36.2,0.6l-0.3,20.1
					c-0.9-1.5-2.1-2.9-3.3-4.4c-4.2-4.4-8.8-6.6-13.6-6.7c-3.8-0.1-7,1.8-9.7,5.1c-2.2,2.8-3.5,6.2-3.5,9.3s0.4,7.2,2.7,11.1
					c2.8,4.6,7.6,6.1,11.9,6.2c5.5,0.1,10.1-3.7,10.2-8.7c0-2.9-1.4-5.3-4-7l-2.6-1.5l-0.1,4.3c-0.3,1.2-2.2,2.8-4.4,2.8
					c-1.9,0-3.6-0.8-4.8-2c-0.7-0.7-1.2-2.2-0.9-3.1c0-1.4,0.5-2.6,1.5-3.8c1.2-1.4,2.4-2.1,4.4-2.1c4.8,0.1,8.8,2.3,12.1,7.2
					c2.6,4.1,3.9,8,3.9,12.3l-0.2,10.1l7.1,4.4c0.2,0.2,0.5,0.2,0.7,0.3c1,0,1.5-0.7,1.5-1.4l0.9-52l2.9,0c1,0,1.5-0.7,1.5-1.4
					l0.1-3.8C591.7,247.7,591,247,590,247L590,247z"/>
				<path id="path1388" class="st70" d="M686.9,248.6l-61.4-1c-1,0-1.5,0.7-1.5,1.4l-0.1,6.7c-5.9-6.3-11.1-9.5-15.9-9.6
					c-4.6-0.1-8.4,0.8-11.8,3.4c-3.2,2.3-5.1,5.4-5.2,9c-0.2,10.8,11.8,10.7,15,9.4c0.5-0.2,1.2-0.7,1.9-0.7c2.4,0,3.3,2,3.3,3.7
					c0,2.4-3.7,4.5-8,4.4c-2.4,0-3.8-0.8-4.8-2.2l-1.9-2.9l-1.3,3.3c-0.3,0.7-0.7,1.7-0.8,2.9c0,2.4,1.1,4.8,3.5,7
					c2.1,2,4.7,3,7.6,3c4.6,0.1,8.4-1.5,10.9-4.9c2.2-2.6,3.2-5.7,3.3-9.3c0-1.9-0.7-4.1-2.3-6.5c-1.9-2.9-4.2-4.4-6.9-4.4
					c-1,0-2.2,0.2-3.4,0.7c-0.5,0.2-1.4,0.5-1.7,0.5c-0.5,0-1.2-0.3-1.7-1c-0.5-0.5-0.9-1.2-0.9-2.4c0-2.6,2.5-5.2,6.8-5.2l0.2,0
					c2.9,0,5.7,1.5,8.3,4.2c2.1,2.2,3.8,4.4,5.2,6.8l-0.6,38.1l7.1,4.4c0.2,0.2,0.5,0.2,0.7,0.3c1,0,1.5-0.7,1.5-1.4l0.8-51.6
					l11,0.2l-0.5,33.3l8.6,3.7l0.5,0c0.7,0,1.4-0.5,1.5-1.4l0-0.2c1.6-9.8,6-16.5,13.3-20.4l0,1.9c0,1.4-0.1,5,0.1,7
					c0,1.2,0,1.9,0.2,2.6c-0.1,3.8,0.3,9.6,1.5,13.9c2.3,8.2,6.3,10.2,9.2,10.2l0.2,0c1.7,0,3.1-0.4,4.1-1.4
					c0.5-0.5,1.2-1.4,1.2-3.1c0-1.4-0.2-2.6-0.7-3.6l-0.7-1.2l-1.4,0.2c-1.4,0.5-2.2,0.4-2.2,0.2l-0.2,0c-0.5,0-0.5,0-0.7-0.3
					c-0.5-0.2-1.4-1-2.1-3.6c-0.4-1.9-0.6-4.6-0.6-6c0.2-10.8,2.5-18.9,6.1-20.5l0.2,0c0.5-0.2,1-0.7,1-1.4c0-0.2,0-0.5-0.2-0.7
					l0-0.2c-1.6-3.4-5.2-5.8-10-7.1l-1,0c-3.8,0.7-8.4,3.2-14.3,7.9c-1.5,1.2-2.9,2.4-4.1,3.5l0.2-13.2l33.6,0.5
					c1,0,1.5-0.7,1.5-1.4l0.1-3.8C688.6,249.3,687.9,248.6,686.9,248.6L686.9,248.6z"/>
			</g>
			<path id="path1392" class="st70" d="M524,263.6c0,1.7-0.1,3.1-0.3,4.6c-0.6,6.7-2.4,12.9-5.1,18.6c-1,2.4-2.2,4.5-3.7,6.7
				c-10.3,15.7-28.2,25.9-48.4,25.6c-8.6-0.1-16.8-2.2-23.9-5.7c-19-9.2-32.1-29.1-31.8-51.6c0.4-22.3,13.6-41.3,32.2-50.1
				c-1.5,1.9-2.9,3.8-4.2,5.9c0,0.2-0.2,0.2-0.2,0.5c-0.7,0.7-1.5,1.2-2.2,1.9c-1,0.7-1.7,1.7-2.7,2.4l-0.5,0.5l-0.5,0.5
				c-0.2,0.2-0.5,0.7-1,0.9c-0.5,0.7-1.2,1.4-1.7,2.1c-2.4,3.1-4.4,6.4-5.9,10c-0.2,0.2-0.3,0.7-0.5,1c-0.2,0.5-0.3,1-0.5,1.2
				c0,0.2-0.2,0.5-0.3,0.7c-0.3,0.7-0.5,1.2-0.8,1.9c-0.2,0.5-0.3,1-0.5,1.2c0,0.2-0.2,0.5-0.3,0.7c0,0.5-0.3,1-0.3,1.4l-0.8,4.3
				c0,0.5,0,0.7-0.3,1.2l-0.1,5.8c-0.3,15.3,6.5,29.4,17.6,38.4c8.5,7.1,19.2,11.6,31,11.8c10.8,0.2,20.7-3,28.9-8.9
				c6.1-4.2,11-9.7,14.7-16.1c0.5-1,1-1.7,1.5-2.6c3-5.9,4.8-12.4,4.9-19.3l0-1.7c0-1.7,0.1-3.1-0.2-4.8l0.2,0.2
				c0.7,0.7,1.4,1.2,2.1,2c0.7-1.2,1.5-2.1,2.2-3.3c0.4,2.2,0.6,4.3,0.8,6.7C524.1,260.3,524,262,524,263.6L524,263.6z"/>
			<path id="path1394" class="st71" d="M474.9,217.5l-10.2-19.6c-17.6,7.6-29.9,24.9-30.2,45.3c-0.2,10.3,2.8,20,7.9,28
				c-0.4-2.6-0.4-5.3-0.3-8.2C442.6,242.2,456.1,224.6,474.9,217.5z"/>
			<path id="path1396" class="st70" d="M483.1,227.2c4.3-1.1,9.1-1.5,13.7-1.5c2.9,0,6,0.3,8.6,0.9l-0.1-8.6l-0.2-17.3
				c-1.9-0.3-4.1-0.5-6.2-0.6c-9.6-0.2-18.5,2.8-25.8,7.7l5.6,10.6c-10.4,3.4-18.9,10.5-24.3,19.8c-2.7,4.5-4.7,9.8-5.5,15.3
				c1.5-2.9,3.2-5.5,5.2-7.8C461.1,236.7,471.3,229.9,483.1,227.2z"/>
			<path id="path1398" class="st71" d="M508.5,217.8l0.3,12.2c-4.1-1.3-8.1-2.1-12.7-2.1c-8.4-0.1-16.3,2.1-23.4,6.1
				c-8.7,5.1-15.6,13.4-19.1,23.2c3.4-4.5,7.6-8.5,12.4-11.6c7-4.4,15.5-6.9,24.3-6.8c6.7,0.1,12.9,1.7,18.6,4.4
				c4.3,2,8.1,4.7,11.4,8.1l6.9-10l8.8-13C528.5,222,519,218,508.5,217.8L508.5,217.8z"/>
			<path id="path1400" class="st71" d="M518.6,257.8l0,1.7c-0.2,10.1-4.4,18.4-4.9,19.3c-0.5,1-1,1.7-1.5,2.6
				c-3.7,6.4-8.6,11.9-14.7,16.1c-8.2,5.6-18.1,9.1-28.9,8.9c-11.8-0.2-22.7-4.4-31-11.8c-10.9-9.3-17.9-23.1-17.6-38.4l0.1-5.8
				c0-0.5,0-0.7,0.3-1.2l0.8-4.3c0-0.5,0.3-1,0.3-1.4c0-0.2,0.2-0.5,0.3-0.7c0.2-0.5,0.3-1,0.5-1.2c0.3-0.7,0.5-1.4,0.8-1.9
				c0-0.2,0.2-0.5,0.3-0.7c0.2-0.5,0.3-1,0.5-1.2c0.2-0.2,0.3-0.7,0.5-1c1.5-3.6,3.7-6.9,5.9-10c0.5-0.7,1.2-1.4,1.7-2.1
				c0.2-0.2,0.5-0.7,1-0.9c0.2-0.2,0.2-0.5,0.5-0.5c0.2-0.2,0.2-0.5,0.5-0.5c0.7-0.9,1.7-1.7,2.7-2.4c0.7-0.7,1.5-1.2,2.2-1.9
				c0,0.2-0.2,0.2-0.2,0.5c0,0.2-0.2,0.5-0.2,0.5c-3,5.7-5,12.6-5.8,19.8c-0.3,1.9-0.3,3.8-0.3,6c-0.4,25.9,14.3,47,33,47.3l1.9,0
				c2.6,0,5.3-0.4,7.9-0.8c12.8-3.1,22.3-14.7,22.5-28.4l0-0.7c-0.1-8.2-3.3-15.6-8.8-20.8c3.8,0.1,7.7,0.8,11.2,1.9
				c6.9,1.8,13.1,5.3,18.6,9.7l0.2,0.2C518.4,254.7,518.6,256.4,518.6,257.8L518.6,257.8z"/>
			<g id="g1404">
				<path id="path1402" class="st71" d="M518.6,257.8l0,1.7c-0.2,10.6-5.1,19.6-5.1,19.6c-0.5,1-1,1.7-1.5,2.6
					c-3.7,6.4-8.8,11.8-14.9,16.1c-8.5,6.1-18.6,9-29.2,8.9c-11.5-0.2-22.5-4.4-31.2-11.8c-11.4-9.5-17.8-23.8-17.6-38.7
					c0.2-14.9,7.2-28.9,18.9-38.1l0.5-0.5c0,0.2-0.2,0.2-0.2,0.5c0,0.2-0.2,0.2-0.2,0.5c-11.4,9.2-18.1,22.7-18.4,37.6
					c-0.2,14.9,6,28.6,17.4,38.4c8.5,7.3,19.7,11.4,31,11.5c10.3,0.2,20.4-2.8,28.9-8.9c6.1-4.2,11-9.7,14.7-16.1
					c0.5-1,1-1.7,1.2-2.6c0,0,4.9-8.8,5.1-19.3l0-1.7c0-1.7,0.1-3.1-0.2-4.8l0-0.2l0.2,0.2l0.2,0.2
					C518.6,254.9,518.6,256.4,518.6,257.8L518.6,257.8z"/>
			</g>
		</g>
	</g>
	
		<linearGradient id="SVGID_00000003806694764418730500000009552836647097214854_" gradientUnits="userSpaceOnUse" x1="1343.0846" y1="2621.0835" x2="1787.4111" y2="2621.0835">
		<stop  offset="0" style="stop-color:#FB6FBB"/>
		<stop  offset="1" style="stop-color:#FF9085"/>
	</linearGradient>
	<path style="fill:url(#SVGID_00000003806694764418730500000009552836647097214854_);" d="M1491.8,2330.7c0,0,24.1,55.7-13.2,119.3
		l-112.8,173.6c0,0-57.1,114,9.8,203.1c0,0,51.1,102.3,184.2,111.9c0,0,81,3.9,140.4-45.1l1.7,34.5l85.5-4.1l-10.8-223.6
		c0,0-20.2-144.9-118.7-172.3l-2.9,59.5c0,0-5.5,36.2,1.4,45.3c74.4,98.6,21.6,234.3-119.9,213.1c-54.8-8.2-96.2-75,77.3-207.7
		c29.4-22.5,28.9-65.1,27.8-89.5c-2.3-54.7-45.5-85.1-42.6-75.6c8.7,28.1-1.9,111.5-35.9,114.5c-75.1,6.7-39.4-72.5-20.5-142.4
		c17.8-65.7-41.8-132.8-41.8-132.8S1467.7,2283.6,1491.8,2330.7z"/>
	<path class="st7" d="M2484.2,2135.3c0,0,18.5,42.7-10.1,91.4l-86.4,133c0,0-43.8,87.3,7.5,155.6c0,0,39.1,78.3,141.1,85.7
		c0,0,62,3,107.6-34.6l1.3,26.5l65.5-3.2l-8.3-171.3c0,0-15.5-111-91-132l-2.2,45.6c0,0-4.2,27.7,1,34.7
		c57,75.5,16.5,179.4-91.9,163.2c-42-6.3-73.7-57.5,59.3-159.1c22.5-17.2,22.1-49.9,21.3-68.6c-1.8-41.9-34.9-65.2-32.6-57.9
		c6.7,21.6-1.5,85.4-27.5,87.7c-57.5,5.1-30.2-55.5-15.7-109.1c13.6-50.3-32-101.8-32-101.8S2465.7,2099.2,2484.2,2135.3z"/>
</g>
</svg>
