<?xml version="1.0" encoding="utf-8"?>
<!-- Generator: Adobe Illustrator 26.0.1, SVG Export Plug-In . SVG Version: 6.00 Build 0)  -->
<svg version="1.1" xmlns="http://www.w3.org/2000/svg" xmlns:xlink="http://www.w3.org/1999/xlink" x="0px" y="0px"
	 viewBox="0 0 500 500" style="enable-background:new 0 0 500 500;" xml:space="preserve">
<style type="text/css">
	.st0{display:none;}
	.st1{fill:#E4F1FF;}
	.st2{fill:none;stroke:#1C004F;stroke-width:0.5;stroke-linecap:round;stroke-miterlimit:10;}
	.st3{fill:#9FCCFB;}
	.st4{fill:none;stroke:#FFFFFF;stroke-width:0.5;stroke-miterlimit:10;}
	.st5{fill:#1C004F;}
	.st6{fill:#FFFFFF;}
	.st7{fill:#B4D8F9;}
	.st8{fill:#71B7E2;}
	.st9{fill:#FF725E;}
	.st10{fill:#8CC2F2;}
	.st11{fill:#8EC3F4;}
	.st12{fill:#4E6CFC;}
	.st13{opacity:0.35;fill:#9FCCFB;}
	
		.st14{clip-path:url(#SVGID_00000003795952227371135650000014972854777656320186_);fill:none;stroke:#8EC3F4;stroke-width:0.5;stroke-linecap:round;stroke-miterlimit:10;}
	
		.st15{clip-path:url(#SVGID_00000003795952227371135650000014972854777656320186_);fill:none;stroke:#8EC3F4;stroke-width:0.5;stroke-miterlimit:10;}
	.st16{fill:none;stroke:#1A2E9D;stroke-width:0.5;stroke-linecap:round;stroke-miterlimit:10;}
	.st17{fill:#21212A;}
	.st18{opacity:0.35;}
	.st19{fill:none;stroke:#4E6CFC;stroke-width:1.5236;stroke-linecap:round;stroke-miterlimit:10;}
	.st20{fill:#DE001D;}
	.st21{fill:none;stroke:#B70825;stroke-width:0.5;stroke-linecap:round;stroke-miterlimit:10;}
	.st22{fill:#F7C2A0;}
	.st23{fill:#E8977B;}
	.st24{fill:#556BFF;}
	.st25{fill:none;stroke:#3B6295;stroke-width:0.5;stroke-linecap:round;stroke-miterlimit:10;}
	.st26{fill:#FFFEFC;}
	.st27{fill:none;stroke:#F18884;stroke-width:0.5;stroke-linecap:round;stroke-miterlimit:10;}
	.st28{fill:none;stroke:#FFFFFF;stroke-width:0.5;stroke-linecap:round;stroke-miterlimit:10;}
	.st29{fill:none;stroke:#315782;stroke-width:0.5;stroke-linecap:round;stroke-miterlimit:10;}
</style>
<g id="BACKGROUND" class="st0">
</g>
<g id="OBJECTS">
	<g>
		<path class="st1" d="M282.7,381H148.2c-36.2,0-68.8-23.7-80.4-59.2c-0.3-0.8-0.5-1.6-0.8-2.4C57,286.8,51.6,249,84.9,198.4
			c33.4-50.6,10.5-98,53.4-115.3c42.9-17.3,77.7,4.3,126.5-16.7s146.5-19.7,152.5,65.4c6,85.1-17.9,81.4-8.3,109.8
			C418.5,270,450.6,388.4,282.7,381z"/>
		<ellipse class="st1" cx="157" cy="428.5" rx="90.5" ry="24.2"/>
	</g>
	<line class="st2" x1="65.4" y1="380.9" x2="433.9" y2="380.9"/>
	<g>
		<path class="st3" d="M114.8,437.7l75.3,0.1c2.4,0,4.4-2,4.4-4.4l0.1-74.5l-79.7-0.1L114.8,437.7z"/>
		<path class="st3" d="M114.9,358.8l79.7,0.1l-25.1-20c-1.7-1.4-3.9-2.1-6.1-2.1l-66.7-0.1c-1.7,0-2.5,2-1.3,3.1L114.9,358.8z"/>
		<path class="st3" d="M92.5,411.6l-0.2-68.5c0-5.2,3.4-6.1,3.4-6.1l-0.6,1.3c-0.3,0.7,0.3,1.4,0.9,1.9l19,18.6l-0.1,78.9L95,417.6
			C93.4,416,92.5,413.9,92.5,411.6z"/>
		<path class="st4" d="M137.1,358.8l-18.9,0c-1.8,0-3.3,1.5-3.3,3.3l0,19.9"/>
		<line class="st4" x1="114.9" y1="394.6" x2="114.8" y2="434.4"/>
		<line class="st4" x1="103.2" y1="347.4" x2="114.8" y2="358.8"/>
		<path class="st4" d="M95.6,337l-0.6,1.3c-0.3,0.7,0.3,1.4,0.9,1.9l5.3,5.2"/>
	</g>
	<g>
		<path class="st5" d="M301.2,381.3H196.7c-9.4,0-16.9-7.6-16.9-16.9V134.9c0-9.4,7.6-16.9,16.9-16.9h104.6
			c9.4,0,16.9,7.6,16.9,16.9v229.4C318.2,373.7,310.6,381.3,301.2,381.3z"/>
		<path class="st6" d="M302.2,374.8H195.7c-5.5,0-9.9-4.5-9.9-9.9V134.5c0-5.5,4.5-9.9,9.9-9.9h106.6c5.5,0,9.9,4.5,9.9,9.9v230.4
			C312.2,370.3,307.7,374.8,302.2,374.8z"/>
		<path class="st5" d="M270,139.6h-42.1c-5.2,0-9.4-4.2-9.4-9.4v-8.4c0-0.3,0.2-0.5,0.5-0.5h60.4v8.9
			C279.4,135.4,275.2,139.6,270,139.6z"/>
	</g>
	<g>
		<g>
			<g>
				<g>
					<g>
						<g>
							<g>
								<path class="st7" d="M217.2,109.5c0.1,16.6-13.3,30.2-29.9,30.3c-16.6,0.1-30.2-13.3-30.3-29.9
									c-0.1-16.6,13.3-30.2,29.9-30.3C203.5,79.4,217.1,92.8,217.2,109.5z"/>
							</g>
						</g>
					</g>
				</g>
				<g>
					<g>
						<g>
							<g>
								<path class="st8" d="M209.5,109c0.1,12.6-10.1,22.9-22.8,23c-12.6,0.1-22.9-10.1-23-22.8c-0.1-12.6,10.1-22.9,22.8-23
									C199.1,86.2,209.4,96.4,209.5,109z"/>
							</g>
						</g>
					</g>
				</g>
				<g>
					<g>
						<g>
							<g>
								<path class="st9" d="M210.1,110c0.1,12.5-10,22.6-22.5,22.7c-12.5,0.1-22.6-10-22.7-22.5c-0.1-12.5,10-22.6,22.5-22.7
									C199.9,87.5,210,97.5,210.1,110z"/>
							</g>
						</g>
					</g>
				</g>
				<g>
					<g>
						<g>
							<g>
								<path class="st10" d="M210.1,110c0.1,12.5-10,22.6-22.5,22.7c-12.5,0.1-22.6-10-22.7-22.5c-0.1-12.5,10-22.6,22.5-22.7
									C199.9,87.5,210,97.5,210.1,110z"/>
							</g>
						</g>
					</g>
				</g>
				<g>
					<g>
						<g>
							<g>
								<g>
									<g>
										<path class="st8" d="M188.4,108.1l0-5.8c0,0,0,0,0,0c1,0.1,2,0.4,3.1,0.8c0.9,0.4,1.4,0.9,1.4,0.9l0.1-0.2l0.9-2.1
											l0.2-0.5l-1-1.1l-0.5,0.2c-1.3-0.6-2.7-1.1-4.2-1.2l0-3.2l-1-0.8l0,0.8l-1.4,0l0,3.2c-4.5,0.5-6.6,3-6.6,5.9
											c0,4,3.4,5,6.6,5.7l0,5.7c-2.2-0.2-4.3-1-5.7-2.1l-1.3,2.9c1.5,1.3,4.2,2.2,7,2.3l0,2.4l-1.1,0l1.1,0.8l2.3,0l0-3.2
											c4.5-0.5,6.6-3,6.6-5.9C195.1,109.9,191.6,108.9,188.4,108.1z M186.1,107.6c-1.7-0.5-2.9-1.1-2.9-2.5
											c0-1.3,0.8-2.3,2.9-2.6L186.1,107.6z M188.4,102.4L188.4,102.4L188.4,102.4C188.4,102.4,188.4,102.4,188.4,102.4z
											 M188.5,116.7l0-5.1c1.7,0.5,3,1.1,3,2.5C191.4,115.4,190.6,116.3,188.5,116.7z"/>
									</g>
								</g>
							</g>
						</g>
					</g>
				</g>
				<g>
					<g>
						<g>
							<g>
								<g>
									<path class="st6" d="M187.5,119l0,3.2l-2.3,0l0-3.2c-2.8-0.2-5.5-1.1-7-2.3l1.3-2.9c1.4,1.1,3.6,2,5.7,2.1l0-5.7
										c-3.2-0.8-6.6-1.8-6.6-5.7c0-2.9,2.1-5.5,6.6-5.9l0-3.2l2.3,0l0,3.2c2.1,0.1,4.3,0.7,5.8,1.7l-1.2,2.9
										c-1.5-0.9-3.1-1.4-4.6-1.5l0,5.8c3.2,0.8,6.7,1.7,6.7,5.7C194.1,116,192,118.5,187.5,119z M185.1,106.8l0-5.1
										c-2,0.3-2.9,1.4-2.9,2.6C182.2,105.7,183.4,106.3,185.1,106.8z M190.5,113.4c0-1.4-1.3-2.1-3-2.5l0,5.1
										C189.6,115.6,190.5,114.6,190.5,113.4z"/>
								</g>
							</g>
						</g>
					</g>
				</g>
			</g>
			<g>
				<g>
					<g>
						<g>
							<g>
								<path class="st7" d="M268.7,81.5c0.1,10.5-8.4,19.1-19,19.2c-10.5,0.1-19.1-8.4-19.2-19c-0.1-10.5,8.4-19.1,19-19.2
									C260,62.5,268.6,71,268.7,81.5z"/>
							</g>
						</g>
					</g>
				</g>
				<g>
					<g>
						<g>
							<g>
								
									<ellipse transform="matrix(0.9885 -0.1514 0.1514 0.9885 -9.4411 38.6756)" class="st8" cx="249.3" cy="81.3" rx="14.5" ry="14.5"/>
							</g>
						</g>
					</g>
				</g>
				<g>
					<g>
						<g>
							<g>
								<path class="st9" d="M264.2,81.9c0,7.9-6.3,14.3-14.2,14.4c-7.9,0-14.3-6.3-14.4-14.2c0-7.9,6.3-14.3,14.2-14.4
									C257.7,67.6,264.1,74,264.2,81.9z"/>
							</g>
						</g>
					</g>
				</g>
				<g>
					<g>
						<g>
							<g>
								<path class="st10" d="M264.2,81.9c0,7.9-6.3,14.3-14.2,14.4c-7.9,0-14.3-6.3-14.4-14.2c0-7.9,6.3-14.3,14.2-14.4
									C257.7,67.6,264.1,74,264.2,81.9z"/>
							</g>
						</g>
					</g>
				</g>
				<g>
					<path class="st11" d="M256.9,87.4c0,0.8-0.1,1.6-0.4,2.3s-0.6,1.3-1.1,1.8c-0.5,0.5-1.1,0.9-1.8,1.2c-0.7,0.3-1.5,0.4-2.4,0.4
						c-0.1,0-0.3,0-0.5-0.1c-0.2-0.1-0.5-0.2-0.8-0.4c-0.3-0.2-0.6-0.4-0.9-0.7c-0.3-0.3-0.6-0.7-0.8-1.1c-0.2-0.4-0.5-1-0.6-1.6
						c-0.2-0.6-0.2-1.3-0.2-2.1v-5.7h-3.5V80h3.5v-4.1l-0.1,0c-0.2,0.1-0.4,0.2-0.6,0.2c-0.1,0-0.3,0-0.4-0.1
						c-0.1-0.1-0.3-0.1-0.4-0.2c-0.1-0.1-0.2-0.2-0.3-0.4c-0.1-0.1-0.1-0.3-0.1-0.5c0-0.2,0-0.3,0.1-0.5c0.1-0.2,0.2-0.3,0.3-0.5
						c0.1-0.1,0.3-0.3,0.5-0.4c0.2-0.1,0.4-0.1,0.7-0.1c0.4,0,0.7,0.1,0.9,0.3c0.2,0.2,0.4,0.4,0.6,0.7c0.2,0.3,0.3,0.6,0.3,1
						c0.1,0.4,0.1,0.7,0.1,1.1V80h9.5v1.5h-9.5v5.7c0,0.5,0,1,0.1,1.4c0.1,0.4,0.2,0.8,0.4,1.1c0.1,0.3,0.3,0.6,0.5,0.8
						c0.2,0.2,0.4,0.4,0.5,0.6c0.2,0.1,0.3,0.3,0.5,0.3c0.1,0.1,0.3,0.1,0.3,0.1c0.4,0,0.9-0.1,1.3-0.3c0.5-0.2,0.9-0.5,1.2-0.8
						c0.4-0.3,0.7-0.8,0.9-1.3c0.2-0.5,0.4-1,0.4-1.6c0-0.3,0-0.6-0.1-0.9s-0.2-0.6-0.3-0.9c-0.1,0.2-0.3,0.4-0.5,0.5
						c-0.2,0.2-0.4,0.3-0.6,0.4c-0.2,0.1-0.4,0.2-0.6,0.2c-0.2,0.1-0.4,0.1-0.6,0.1c-0.2,0-0.4,0-0.6-0.1c-0.2-0.1-0.3-0.2-0.4-0.3
						c-0.1-0.1-0.2-0.3-0.3-0.5c-0.1-0.2-0.1-0.3-0.1-0.5c0-0.3,0.1-0.6,0.2-0.9c0.1-0.3,0.3-0.5,0.6-0.7c0.2-0.2,0.5-0.3,0.8-0.4
						c0.3-0.1,0.6-0.2,0.9-0.2c0.5,0,1,0.1,1.4,0.3c0.4,0.2,0.7,0.5,1,0.9c0.3,0.4,0.5,0.8,0.6,1.3
						C256.8,86.4,256.9,86.9,256.9,87.4z"/>
				</g>
				<g>
					<path class="st6" d="M255.3,85.8c0,0.8-0.1,1.5-0.4,2.1c-0.2,0.7-0.6,1.2-1,1.7c-0.5,0.5-1,0.9-1.7,1.1
						c-0.7,0.3-1.4,0.4-2.2,0.4c-0.1,0-0.2,0-0.5-0.1c-0.2-0.1-0.4-0.2-0.7-0.4c-0.3-0.2-0.5-0.4-0.8-0.7c-0.3-0.3-0.5-0.6-0.8-1
						c-0.2-0.4-0.4-0.9-0.6-1.5c-0.1-0.6-0.2-1.2-0.2-2v-5.3h-3.3v-1.4h3.3V75l-0.1,0c-0.2,0.1-0.3,0.2-0.5,0.2
						c-0.1,0-0.3,0-0.4-0.1c-0.1-0.1-0.2-0.1-0.3-0.2c-0.1-0.1-0.2-0.2-0.2-0.3c-0.1-0.1-0.1-0.3-0.1-0.4c0-0.1,0-0.3,0.1-0.5
						c0.1-0.2,0.2-0.3,0.3-0.4c0.1-0.1,0.3-0.2,0.5-0.3c0.2-0.1,0.4-0.1,0.6-0.1c0.3,0,0.6,0.1,0.8,0.3c0.2,0.2,0.4,0.4,0.6,0.7
						c0.1,0.3,0.2,0.6,0.3,0.9c0.1,0.3,0.1,0.7,0.1,1v3.3h8.8v1.4h-8.8v5.3c0,0.5,0,1,0.1,1.3c0.1,0.4,0.2,0.7,0.3,1
						c0.1,0.3,0.3,0.6,0.5,0.8c0.2,0.2,0.3,0.4,0.5,0.5c0.2,0.1,0.3,0.2,0.4,0.3c0.1,0.1,0.2,0.1,0.3,0.1c0.4,0,0.8-0.1,1.2-0.3
						c0.4-0.2,0.8-0.4,1.1-0.8c0.3-0.3,0.6-0.7,0.8-1.2c0.2-0.5,0.3-1,0.3-1.5c0-0.3,0-0.5-0.1-0.8c-0.1-0.3-0.2-0.6-0.3-0.9
						c-0.1,0.2-0.3,0.4-0.5,0.5c-0.2,0.1-0.3,0.3-0.5,0.4c-0.2,0.1-0.4,0.2-0.6,0.2c-0.2,0-0.4,0.1-0.5,0.1c-0.2,0-0.4,0-0.6-0.1
						c-0.2-0.1-0.3-0.2-0.4-0.3c-0.1-0.1-0.2-0.3-0.2-0.4c-0.1-0.2-0.1-0.3-0.1-0.5c0-0.3,0.1-0.6,0.2-0.9c0.1-0.3,0.3-0.5,0.5-0.6
						c0.2-0.2,0.5-0.3,0.7-0.4c0.3-0.1,0.5-0.1,0.8-0.1c0.5,0,0.9,0.1,1.3,0.3c0.4,0.2,0.7,0.5,0.9,0.9c0.2,0.4,0.4,0.8,0.6,1.2
						C255.3,84.9,255.3,85.3,255.3,85.8z"/>
				</g>
			</g>
		</g>
		<g>
			<path class="st3" d="M390.6,267.2h45.9c2.2,0,4.1-1.8,4.1-4.1v-47.4c0-2.2-1.8-4.1-4.1-4.1h-45.9c-2.2,0-4.1,1.8-4.1,4.1v47.4
				C386.6,265.4,388.4,267.2,390.6,267.2z"/>
			<path class="st12" d="M436.5,211.7h-45.9c-2.2,0-4.1,1.8-4.1,4.1v11.9h54v-11.9C440.6,213.5,438.8,211.7,436.5,211.7z"/>
			<path class="st1" d="M425.7,241.6h7.2c0.4,0,0.8-0.4,0.8-0.8v-7.2c0-0.4-0.4-0.8-0.8-0.8h-7.2c-0.4,0-0.8,0.4-0.8,0.8v7.2
				C424.9,241.2,425.3,241.6,425.7,241.6z"/>
			<path class="st6" d="M415.4,241.6h7.2c0.4,0,0.8-0.4,0.8-0.8v-7.2c0-0.4-0.4-0.8-0.8-0.8h-7.2c-0.4,0-0.8,0.4-0.8,0.8v7.2
				C414.6,241.2,415,241.6,415.4,241.6z"/>
			<g>
				<path class="st11" d="M400.7,215.9c-1,0-1.8-0.8-1.8-1.8v-6.4c0-1,0.8-1.8,1.8-1.8c1,0,1.8,0.8,1.8,1.8v6.4
					C402.5,215,401.7,215.9,400.7,215.9z"/>
			</g>
			<g>
				<path class="st11" d="M409.8,215.9c-1,0-1.8-0.8-1.8-1.8v-6.4c0-1,0.8-1.8,1.8-1.8c1,0,1.8,0.8,1.8,1.8v6.4
					C411.6,215.1,410.8,215.9,409.8,215.9z"/>
			</g>
			<g>
				<path class="st11" d="M418.5,215.9c-1,0-1.8-0.8-1.8-1.8v-6.4c0-1,0.8-1.8,1.8-1.8c1,0,1.8,0.8,1.8,1.8v6.4
					C420.3,215.1,419.5,215.9,418.5,215.9z"/>
			</g>
			<path class="st1" d="M405,241.6h7.2c0.4,0,0.8-0.4,0.8-0.8v-7.2c0-0.4-0.4-0.8-0.8-0.8H405c-0.4,0-0.8,0.4-0.8,0.8v7.2
				C404.2,241.2,404.6,241.6,405,241.6z"/>
			<path class="st1" d="M394.7,241.6h7.2c0.4,0,0.8-0.4,0.8-0.8v-7.2c0-0.4-0.4-0.8-0.8-0.8h-7.2c-0.4,0-0.8,0.4-0.8,0.8v7.2
				C393.9,241.2,394.3,241.6,394.7,241.6z"/>
			<path class="st1" d="M425.7,251.3h7.2c0.4,0,0.8-0.4,0.8-0.8v-7.2c0-0.4-0.4-0.8-0.8-0.8h-7.2c-0.4,0-0.8,0.4-0.8,0.8v7.2
				C424.9,251,425.2,251.3,425.7,251.3z"/>
			<path class="st6" d="M415.3,251.3h7.2c0.4,0,0.8-0.4,0.8-0.8v-7.2c0-0.4-0.4-0.8-0.8-0.8h-7.2c-0.4,0-0.8,0.4-0.8,0.8v7.2
				C414.6,251,414.9,251.3,415.3,251.3z"/>
			<path class="st1" d="M405,251.3h7.2c0.4,0,0.8-0.4,0.8-0.8v-7.2c0-0.4-0.4-0.8-0.8-0.8H405c-0.4,0-0.8,0.4-0.8,0.8v7.2
				C404.2,251,404.5,251.3,405,251.3z"/>
			<path class="st1" d="M394.6,251.3h7.2c0.4,0,0.8-0.4,0.8-0.8v-7.2c0-0.4-0.4-0.8-0.8-0.8h-7.2c-0.4,0-0.8,0.4-0.8,0.8v7.2
				C393.9,251,394.2,251.3,394.6,251.3z"/>
			<path class="st1" d="M425.6,261.2h7.2c0.4,0,0.8-0.4,0.8-0.8v-7.2c0-0.4-0.4-0.8-0.8-0.8h-7.2c-0.4,0-0.8,0.4-0.8,0.8v7.2
				C424.8,260.9,425.1,261.2,425.6,261.2z"/>
			<path class="st6" d="M415.3,261.2h7.2c0.4,0,0.8-0.4,0.8-0.8v-7.2c0-0.4-0.4-0.8-0.8-0.8h-7.2c-0.4,0-0.8,0.4-0.8,0.8v7.2
				C414.5,260.9,414.8,261.2,415.3,261.2z"/>
			<path class="st1" d="M404.9,261.2h7.2c0.4,0,0.8-0.4,0.8-0.8v-7.2c0-0.4-0.4-0.8-0.8-0.8h-7.2c-0.4,0-0.8,0.4-0.8,0.8v7.2
				C404.1,260.9,404.4,261.2,404.9,261.2z"/>
			<path class="st1" d="M394.6,261.2h7.2c0.4,0,0.8-0.4,0.8-0.8v-7.2c0-0.4-0.4-0.8-0.8-0.8h-7.2c-0.4,0-0.8,0.4-0.8,0.8v7.2
				C393.8,260.9,394.1,261.2,394.6,261.2z"/>
			<g>
				<path class="st11" d="M427.3,215.9c-1,0-1.8-0.8-1.8-1.8v-6.4c0-1,0.8-1.8,1.8-1.8c1,0,1.8,0.8,1.8,1.8v6.4
					C429.1,215.1,428.3,215.9,427.3,215.9z"/>
			</g>
		</g>
		<g>
			<path class="st13" d="M350.8,172.5H219c-4.3,0-7.7,3.5-7.7,7.7v1.2v67.3c0,4.3,3.5,7.7,7.7,7.7h131.7c4.3,0,7.7-3.5,7.7-7.7
				v-12.2v-56.4C358.5,176,355,172.5,350.8,172.5z"/>
			<g>
				<path class="st3" d="M347.3,253.9H215.6c-4.3,0-7.7-3.5-7.7-7.7v-68.6c0-4.3,3.5-7.7,7.7-7.7h131.7c4.3,0,7.7,3.5,7.7,7.7v68.6
					C355.1,250.4,351.6,253.9,347.3,253.9z"/>
				<path class="st11" d="M355.1,177.6c0-4.3-3.5-7.7-7.7-7.7H215.6c-4.3,0-7.7,3.5-7.7,7.7v1.2c16.1,0.7,47.4,6,69.2,34
					c25.1,32.2,58.8,29.1,78.1,21.2V177.6z"/>
				<path class="st6" d="M241.3,216.7h-18.4c-1.6,0-2.9-1.3-2.9-2.9v-9.6c0-1.6,1.3-2.9,2.9-2.9h18.4c1.6,0,2.9,1.3,2.9,2.9v9.6
					C244.3,215.3,242.9,216.7,241.3,216.7z"/>
				<path class="st5" d="M345,184.8h-26.6c-0.7,0-1.2-0.5-1.2-1.2v-5.1c0-0.7,0.5-1.2,1.2-1.2H345c0.7,0,1.2,0.5,1.2,1.2v5.1
					C346.2,184.3,345.6,184.8,345,184.8z"/>
				<path class="st6" d="M244.5,229.8h-22.8c-1.4,0-2.6-1.2-2.6-2.6l0,0c0-1.4,1.2-2.6,2.6-2.6h22.8c1.4,0,2.6,1.2,2.6,2.6l0,0
					C247,228.6,245.9,229.8,244.5,229.8z"/>
				<path class="st6" d="M276.7,229.8h-22.8c-1.4,0-2.6-1.2-2.6-2.6l0,0c0-1.4,1.2-2.6,2.6-2.6h22.8c1.4,0,2.6,1.2,2.6,2.6l0,0
					C279.3,228.6,278.1,229.8,276.7,229.8z"/>
				<path class="st6" d="M309.2,229.8h-22.8c-1.4,0-2.6-1.2-2.6-2.6l0,0c0-1.4,1.2-2.6,2.6-2.6h22.8c1.4,0,2.6,1.2,2.6,2.6l0,0
					C311.8,228.6,310.6,229.8,309.2,229.8z"/>
				<path class="st6" d="M341.5,229.8h-22.8c-1.4,0-2.6-1.2-2.6-2.6l0,0c0-1.4,1.2-2.6,2.6-2.6h22.8c1.4,0,2.6,1.2,2.6,2.6l0,0
					C344.1,228.6,342.9,229.8,341.5,229.8z"/>
				<path class="st5" d="M251.7,247.2H222c-0.9,0-1.6-0.7-1.6-1.6l0,0c0-0.9,0.7-1.6,1.6-1.6h29.6c0.9,0,1.6,0.7,1.6,1.6l0,0
					C253.2,246.5,252.5,247.2,251.7,247.2z"/>
				<path class="st5" d="M341.4,247.2h-14.6c-0.9,0-1.6-0.7-1.6-1.6l0,0c0-0.9,0.7-1.6,1.6-1.6h14.6c0.9,0,1.6,0.7,1.6,1.6l0,0
					C343,246.5,342.3,247.2,341.4,247.2z"/>
				<g>
					<defs>
						<path id="SVGID_1_" d="M241.3,216.7h-18.4c-1.6,0-2.9-1.3-2.9-2.9v-9.6c0-1.6,1.3-2.9,2.9-2.9h18.4c1.6,0,2.9,1.3,2.9,2.9v9.6
							C244.3,215.3,242.9,216.7,241.3,216.7z"/>
					</defs>
					<clipPath id="SVGID_00000039091967797311431950000005257901855316665269_">
						<use xlink:href="#SVGID_1_"  style="overflow:visible;"/>
					</clipPath>
					
						<path style="clip-path:url(#SVGID_00000039091967797311431950000005257901855316665269_);fill:none;stroke:#8EC3F4;stroke-width:0.5;stroke-linecap:round;stroke-miterlimit:10;" d="
						M224.4,200.9c2.2,2.8,5.6,9-0.3,16.2"/>
					
						<line style="clip-path:url(#SVGID_00000039091967797311431950000005257901855316665269_);fill:none;stroke:#8EC3F4;stroke-width:0.5;stroke-miterlimit:10;" x1="218.4" y1="208.8" x2="227.3" y2="208.8"/>
					
						<path style="clip-path:url(#SVGID_00000039091967797311431950000005257901855316665269_);fill:none;stroke:#8EC3F4;stroke-width:0.5;stroke-linecap:round;stroke-miterlimit:10;" d="
						M239.2,200.9c-2.2,2.8-5.6,9,0.3,16.2"/>
					
						<line style="clip-path:url(#SVGID_00000039091967797311431950000005257901855316665269_);fill:none;stroke:#8EC3F4;stroke-width:0.5;stroke-miterlimit:10;" x1="245.2" y1="208.8" x2="236.2" y2="208.8"/>
				</g>
			</g>
		</g>
		<g>
			<g>
				<path class="st6" d="M371.6,115.1c-6.6-6.9-7.1-9.3,3.2-19.5c10.3-10.1,8.7-24.1,8.7-24.1l-19.8-0.4v0l-0.6,0l-0.6,0v0
					l-19.8,0.4c0,0-1.6,14,8.7,24.1c10.3,10.1,9.8,12.6,3.2,19.5c-6.6,6.9-15.6,13.7-15.3,26.4h23.2h1.1h23.2
					C387.2,128.8,378.2,122.1,371.6,115.1z"/>
				<path class="st12" d="M387.3,145H339c-1.5,0-2.7-1.2-2.7-2.7l0,0c0-1.5,1.2-2.7,2.7-2.7h48.3c1.5,0,2.7,1.2,2.7,2.7l0,0
					C389.9,143.8,388.7,145,387.3,145z"/>
				<path class="st12" d="M387.3,73.7H339c-1.5,0-2.7-1.2-2.7-2.7l0,0c0-1.5,1.2-2.7,2.7-2.7h48.3c1.5,0,2.7,1.2,2.7,2.7l0,0
					C389.9,72.5,388.7,73.7,387.3,73.7z"/>
			</g>
			<path class="st3" d="M354,92h18.7c0.6,0,1,0.7,0.6,1.2l-8.5,9.6c-0.1,0.1-0.2,0.3-0.2,0.5v29.1c0,0.4,0.3,0.7,0.7,0.7h15.9
				c0.3,0,0.6,0.2,0.7,0.5l1.1,3.2c0.2,0.5-0.2,0.9-0.7,0.9H344c-0.5,0-0.8-0.4-0.7-0.9l0.9-3.2c0.1-0.3,0.4-0.5,0.7-0.5l16.4-0.1
				c0.4,0,0.7-0.3,0.7-0.7v-28.8c0-0.2-0.1-0.3-0.2-0.4l-8.5-9.8C353,92.7,353.3,92,354,92z"/>
		</g>
		<g>
			<g id="_x3C_Group_x3E__00000129189239097836037190000007050095679799202437_">
				<path id="_x3C_Path_x3E__00000127004766677986551730000003523047634743146890_" class="st12" d="M358.7,343.2
					c0,0,0.2-22,13.8-23.6c13.6-1.6,18.3,2.5,20.1,3.2c1.9,0.7-3,1.7-7.2,5.8c-4.1,4.1-4.1,9.1-13.5,10.8
					c-9.4,1.7-12.8,8.5-12.8,8.5L358.7,343.2z"/>
				<path id="_x3C_Path_x3E__00000111154163654685330060000017324678429827178412_" class="st16" d="M359.1,348
					c0,0,4.4-22.6,25.4-23.5"/>
			</g>
			<g id="_x3C_Group_x3E__00000057841454533619677480000010332105292027553204_">
				<path id="_x3C_Path_x3E__00000023249338477839663100000012025947548543048616_" class="st12" d="M359.8,335.4c0,0,2-19-9.5-21.7
					c-11.6-2.7-16,0.3-17.7,0.8c-1.7,0.5,2.4,1.8,5.6,5.7c3.2,3.9,2.6,8.3,10.5,10.6c7.9,2.4,10.2,8.6,10.2,8.6L359.8,335.4z"/>
				<path id="_x3C_Path_x3E__00000169522446785322816250000014805843895233261489_" class="st16" d="M359,339.4
					c0,0-1.5-19.9-19.6-22.8"/>
			</g>
			<g>
				<g>
					<path class="st5" d="M361.1,292c0,0,0,0.1,0.1,0.2c0,0.2,0.1,0.4,0.1,0.6c0,0.3,0.1,0.6,0.2,1.1c0.1,0.4,0.1,0.9,0.2,1.4
						c0.2,2.2,0.4,5.4,0.2,9.3c-0.2,3.9-0.8,8.6-1.4,13.7c-0.7,5.1-1.2,10.8-1.3,16.8c-0.3,12,1.2,22.8,2.8,30.4
						c0.8,3.8,1.6,6.9,2.1,9c0.3,1,0.5,1.9,0.7,2.4c0.1,0.3,0.1,0.5,0.2,0.6c0,0.1,0.1,0.2,0,0.2c0,0-1.6-4.6-3.2-12.3
						c-1.6-7.7-3.1-18.5-2.9-30.5c0.1-6,0.7-11.7,1.3-16.8c0.7-5.1,1.3-9.8,1.5-13.7c0.2-3.9,0.1-7.1-0.1-9.3
						c-0.1-0.5-0.1-1-0.1-1.4c-0.1-0.4-0.1-0.8-0.2-1.1c0-0.3-0.1-0.5-0.1-0.7C361.1,292.1,361.1,292,361.1,292z"/>
				</g>
			</g>
			<path class="st17" d="M373.9,357.9h-26.1c-0.6,0-1.1-0.5-1.1-1.1v-3.1c0-0.6,0.5-1.1,1.1-1.1h26.1c0.6,0,1.1,0.5,1.1,1.1v3.1
				C375,357.4,374.5,357.9,373.9,357.9z"/>
			<path class="st17" d="M368.1,380.7h-13.4c-1.1,0-2-0.8-2.2-1.8l-3.8-21.8h24.4l-2.8,21.7C370.1,379.8,369.2,380.7,368.1,380.7z"
				/>
			<g id="_x3C_Group_x3E__00000115516425068506358190000013653754119552492980_">
				<path id="_x3C_Path_x3E__00000147186917931563912930000002552327294493076893_" class="st12" d="M360.7,312.2
					c0,0,1.8-14.4,10.9-14.4c9,0,11.8,3.1,13,3.7c1.2,0.6-2.1,0.9-5.2,3.2c-3,2.3-3.4,5.7-9.7,6c-6.3,0.3-9.1,4.6-9.1,4.6
					L360.7,312.2z"/>
				<path id="_x3C_Path_x3E__00000035504799823082130360000001693996610431302034_" class="st16" d="M360.7,315.4
					c0,0,4.6-14.5,18.5-13.4"/>
			</g>
			<g id="_x3C_Group_x3E__00000059307280953920876490000003870961844426934919_">
				<path id="_x3C_Path_x3E__00000167366550571504357660000007572623739909767103_" class="st12" d="M362.5,301.4
					c0,0,3.4-14.1-5.1-17.3c-8.5-3.2-12.1-1.3-13.4-1.1c-1.3,0.2,1.7,1.6,3.7,4.9c2,3.3,1.2,6.5,6.9,9c5.7,2.5,6.9,7.5,6.9,7.5
					L362.5,301.4z"/>
				<path id="_x3C_Path_x3E__00000167355882994394677020000015208752568880680116_" class="st16" d="M361.5,304.3
					c0,0,0.8-15.2-12.6-19.1"/>
			</g>
		</g>
		<g>
			<path class="st12" d="M144.7,145.2c0-1.9-1.5-3.4-3.4-3.4H91.9c-1.9,0-3.4,1.5-3.4,3.4v26.7c0,1.9,1.5,3.4,3.4,3.4h40.8l3.8,5.2
				c1.2,1.6,3.3,1.5,4.2-0.3l3.3-6.3c0.4-0.6,0.7-1.3,0.7-2V145.2z"/>
			<path class="st6" d="M135.3,153.8H97.5c-0.6,0-1.1-0.5-1.1-1.1l0,0c0-0.6,0.5-1.1,1.1-1.1h37.8c0.6,0,1.1,0.5,1.1,1.1l0,0
				C136.4,153.4,135.9,153.8,135.3,153.8z"/>
			<path class="st6" d="M123.8,158.9H97.5c-0.6,0-1.1-0.5-1.1-1.1l0,0c0-0.6,0.5-1.1,1.1-1.1h26.3c0.6,0,1.1,0.5,1.1,1.1l0,0
				C124.9,158.4,124.4,158.9,123.8,158.9z"/>
			<path class="st6" d="M130.2,164H97.5c-0.6,0-1.1-0.5-1.1-1.1l0,0c0-0.6,0.5-1.1,1.1-1.1h32.7c0.6,0,1.1,0.5,1.1,1.1l0,0
				C131.3,163.5,130.8,164,130.2,164z"/>
		</g>
		<g>
			<g class="st18">
				<g>
					<g>
						<g>
							
								<ellipse transform="matrix(3.031508e-02 -0.9995 0.9995 3.031508e-02 -72.4783 561.3144)" class="st3" cx="253.1" cy="318" rx="29.6" ry="29.6"/>
						</g>
					</g>
				</g>
			</g>
			<g>
				<g>
					<g>
						<g>
							<g>
								
									<ellipse transform="matrix(5.531141e-02 -0.9985 0.9985 5.531141e-02 -78.7517 548.6348)" class="st7" cx="250.6" cy="315.9" rx="29.9" ry="29.9"/>
							</g>
						</g>
					</g>
				</g>
				<g>
					<g>
						<g>
							<g>
								
									<ellipse transform="matrix(0.9778 -0.2094 0.2094 0.9778 -60.5144 59.3616)" class="st8" cx="250.1" cy="315.5" rx="22.7" ry="22.7"/>
							</g>
						</g>
					</g>
				</g>
				<g>
					<g>
						<g>
							<g>
								<path class="st9" d="M273.4,316.3c0.1,12.4-9.9,22.5-22.3,22.5c-12.4,0.1-22.5-9.9-22.5-22.3c-0.1-12.4,9.9-22.5,22.3-22.5
									C263.3,293.9,273.4,303.9,273.4,316.3z"/>
							</g>
						</g>
					</g>
				</g>
				<g>
					<g>
						<g>
							<g>
								<path class="st10" d="M273.4,316.3c0.1,12.4-9.9,22.5-22.3,22.5c-12.4,0.1-22.5-9.9-22.5-22.3c-0.1-12.4,9.9-22.5,22.3-22.5
									C263.3,293.9,273.4,303.9,273.4,316.3z"/>
							</g>
						</g>
					</g>
				</g>
				<g>
					<path class="st11" d="M259.8,323.7c0,1.1-0.2,2.2-0.5,3.2c-0.4,1-0.9,1.8-1.5,2.5s-1.5,1.3-2.5,1.7c-1,0.4-2.1,0.6-3.3,0.6
						c-0.1,0-0.4-0.1-0.7-0.2c-0.3-0.1-0.7-0.3-1-0.5c-0.4-0.2-0.8-0.6-1.2-1c-0.4-0.4-0.8-0.9-1.1-1.5c-0.3-0.6-0.6-1.3-0.8-2.2
						c-0.2-0.8-0.3-1.8-0.3-2.9v-7.8h-4.9v-2.1h4.9v-5.7l-0.1,0c-0.2,0.2-0.5,0.2-0.8,0.2c-0.2,0-0.4,0-0.6-0.1
						c-0.2-0.1-0.4-0.2-0.5-0.3c-0.2-0.1-0.3-0.3-0.4-0.5c-0.1-0.2-0.1-0.4-0.1-0.6c0-0.2,0-0.4,0.1-0.7c0.1-0.2,0.2-0.5,0.4-0.7
						c0.2-0.2,0.4-0.4,0.7-0.5c0.3-0.1,0.6-0.2,1-0.2c0.5,0,0.9,0.1,1.2,0.4c0.3,0.2,0.6,0.6,0.8,1c0.2,0.4,0.4,0.9,0.5,1.4
						c0.1,0.5,0.1,1,0.1,1.5v4.9h13.1v2.1h-13.1v7.8c0,0.7,0.1,1.4,0.2,2c0.1,0.6,0.3,1.1,0.5,1.5c0.2,0.4,0.4,0.8,0.7,1.1
						c0.2,0.3,0.5,0.6,0.7,0.8c0.2,0.2,0.5,0.3,0.7,0.4c0.2,0.1,0.4,0.1,0.5,0.1c0.6,0,1.2-0.1,1.8-0.4s1.2-0.6,1.7-1.1
						c0.5-0.5,0.9-1.1,1.3-1.7c0.3-0.7,0.5-1.4,0.5-2.2c0-0.4,0-0.8-0.1-1.2c-0.1-0.4-0.2-0.8-0.4-1.3c-0.2,0.3-0.4,0.5-0.7,0.7
						c-0.2,0.2-0.5,0.4-0.8,0.5c-0.3,0.1-0.6,0.3-0.8,0.3c-0.3,0.1-0.6,0.1-0.8,0.1c-0.3,0-0.6-0.1-0.8-0.2
						c-0.2-0.1-0.4-0.2-0.6-0.4c-0.2-0.2-0.3-0.4-0.4-0.6c-0.1-0.2-0.1-0.5-0.1-0.7c0-0.5,0.1-0.9,0.3-1.3c0.2-0.4,0.4-0.7,0.8-1
						c0.3-0.3,0.7-0.5,1.1-0.6s0.8-0.2,1.2-0.2c0.7,0,1.4,0.2,1.9,0.5c0.6,0.3,1,0.7,1.4,1.3c0.4,0.5,0.6,1.1,0.8,1.8
						C259.7,322.3,259.8,323,259.8,323.7z"/>
				</g>
				<g>
					<path class="st6" d="M258.6,322.1c0,1.2-0.2,2.2-0.5,3.2c-0.4,1-0.9,1.8-1.6,2.5c-0.7,0.7-1.5,1.3-2.5,1.7
						c-1,0.4-2.1,0.6-3.3,0.6c-0.1,0-0.4-0.1-0.7-0.2c-0.3-0.1-0.7-0.3-1.1-0.5c-0.4-0.3-0.8-0.6-1.2-1c-0.4-0.4-0.8-0.9-1.1-1.5
						c-0.3-0.6-0.6-1.4-0.9-2.2c-0.2-0.8-0.3-1.8-0.3-2.9v-7.9h-4.9v-2.1h4.9v-5.7l-0.1,0c-0.3,0.2-0.5,0.2-0.8,0.2
						c-0.2,0-0.4,0-0.6-0.1c-0.2-0.1-0.4-0.2-0.5-0.3c-0.2-0.1-0.3-0.3-0.4-0.5c-0.1-0.2-0.1-0.4-0.1-0.6c0-0.2,0-0.4,0.1-0.7
						c0.1-0.2,0.2-0.5,0.4-0.7c0.2-0.2,0.4-0.4,0.7-0.5s0.6-0.2,1-0.2c0.5,0,0.9,0.1,1.3,0.4c0.3,0.3,0.6,0.6,0.8,1
						c0.2,0.4,0.4,0.9,0.5,1.4c0.1,0.5,0.1,1,0.1,1.5v4.9H261v2.1h-13.2v7.9c0,0.8,0.1,1.4,0.2,2c0.1,0.6,0.3,1.1,0.5,1.6
						c0.2,0.5,0.4,0.8,0.7,1.1c0.3,0.3,0.5,0.6,0.7,0.8c0.2,0.2,0.5,0.3,0.7,0.4c0.2,0.1,0.4,0.1,0.5,0.1c0.6,0,1.2-0.1,1.8-0.4
						c0.6-0.3,1.2-0.6,1.7-1.1c0.5-0.5,0.9-1.1,1.3-1.7c0.3-0.7,0.5-1.4,0.5-2.3c0-0.4,0-0.8-0.1-1.2c-0.1-0.4-0.2-0.8-0.4-1.3
						c-0.2,0.3-0.4,0.5-0.7,0.7c-0.3,0.2-0.5,0.4-0.8,0.5c-0.3,0.1-0.6,0.3-0.8,0.3c-0.3,0.1-0.6,0.1-0.8,0.1
						c-0.3,0-0.6-0.1-0.8-0.2c-0.2-0.1-0.5-0.3-0.6-0.4c-0.2-0.2-0.3-0.4-0.4-0.6c-0.1-0.2-0.1-0.5-0.1-0.7c0-0.5,0.1-0.9,0.3-1.3
						c0.2-0.4,0.4-0.7,0.8-1c0.3-0.3,0.7-0.5,1.1-0.6c0.4-0.1,0.8-0.2,1.2-0.2c0.8,0,1.4,0.2,2,0.5c0.6,0.3,1,0.7,1.4,1.3
						c0.4,0.5,0.6,1.1,0.8,1.8S258.6,321.4,258.6,322.1z"/>
				</g>
			</g>
			<g>
				<circle class="st1" cx="273.2" cy="294.5" r="12.2"/>
				<path class="st19" d="M269.1,294.2l1.6,3.7c0.2,0.4,0.7,0.5,0.9,0.2l6.1-6.6"/>
				<circle class="st4" cx="273.2" cy="294.5" r="10.1"/>
			</g>
		</g>
	</g>
	<g>
		<path class="st20" d="M112.4,201.1c0,0,3.7-10.2,19.2-5.8c10.4,2.9,16.4,11.2,15.7,23.3c-0.7,12.8,7.3,8.8,2.6,27.3
			c-3.2,12.5,11.9,22.8-1.8,42.4c-11.1,15.9-74,6.7-73.4-20.6c0.3-12.9,11.1-6.9,11.7-27.7c0.3-8.9,17.1-5.9,14.9-19.3
			C100.3,213.8,105.6,200.2,112.4,201.1z"/>
		<path class="st21" d="M131.4,240.8c0,0,4.3,2.6,3.2,8.4c-1.1,5.7-1.5,11.1,3.4,15.3"/>
		<path class="st21" d="M142.9,227.5c1.1,4.6,3,7.7,0.3,13.9c-5.8,13.2,5.8,15.9,0.2,28c-2,4.3-2.8,8.1-3.2,11.3"/>
		<polygon class="st22" points="145.3,292.7 165.2,292.7 159.1,286.1 146.1,288.1 		"/>
		<path class="st21" d="M109.2,234.9c0,0-5.7,3.2-4.9,9.1c1,8.1-7,9.3-5,14.4"/>
		<path class="st21" d="M106.7,213.3c0,0-2.3,5-1.7,10.1c1.2,10.4-12.9,10.6-13,21.1c-0.1,6.6-5.5,10.6-9.1,14.4"/>
		<polygon id="_x3C_Path_x3E__00000020362313313429574110000009973829366033665680_" class="st23" points="203.7,411.9 203.6,424 
			192.4,424.1 190.7,414.2 		"/>
		<polygon id="_x3C_Path_x3E__00000137118393383351872080000006894182123488554369_" class="st23" points="170.2,415.7 169.1,428.9 
			157.1,430 155.1,420 		"/>
		<path class="st24" d="M120.4,326.2c12.8,6.9,39.6,20.6,54.8,23.3c1.2,0.2,2.2,1.2,2.4,2.5l9.2,63c0.2,1.1,1,2.1,2.1,2.4
			c3.5,1,11.5,2.4,17.6-4.2c0.6-0.6,0.9-1.4,0.8-2.2c-0.6-9.3-4.9-69.3-7.9-77.2c-3.1-8-46.4-16.4-51.7-17.4c-0.3-0.1-0.7-0.1-1.1,0
			l-25.3,4.5C118.5,321.3,117.9,324.9,120.4,326.2z"/>
		<path class="st24" d="M101.8,330.3c0.1,0-10.4,19.7,41.9,24.3c1.2,0.1,2,1.1,2.1,2.3l6.5,63.5c0.1,1,0.8,1.9,1.7,2.2
			c3.3,1.1,11.1,2.8,18.1-3.3c0.6-0.5,1-1.3,1-2.1c-0.3-9.3-2-69.5-4.7-77.4c-2.6-7.7-41.2-17.2-49.8-19.3c-1-0.2-2.1,0.2-2.7,1
			L101.8,330.3z"/>
		<path class="st25" d="M155,418.9"/>
		<path class="st25" d="M140.4,355.2"/>
		<path class="st26" d="M99.3,249.6c16.3-4.9,36.1-0.6,39.4,0.3c3.7,1.1,8.3,5.6,13.3,15.5c5,10,5,10,5,10l-10,3v38.1l0,0
			c-8.9,7.6-19.7,12.7-31.1,14.9l-13.5,2.4c-1.3,0.2-2.5-0.8-2.5-2.1l1.5-48.5l-17,0.9C84.5,284.2,83.7,254.3,99.3,249.6z"/>
		<path class="st22" d="M133.1,284.9l-30.4,8.4l-1.2-10l-14.2,0.6c0,0-3.2,24.6,5.2,25.1c12.7,0.8,45.6-15.3,45.6-15.3L133.1,284.9z
			"/>
		<path class="st22" d="M128.2,208.2c1.7-0.7,4.2-0.1,5.4,1.2c3.5,3.6,7.8,9.8,6.3,17.8c-1.7,9.2-3.9,15-9,14.9
			c-1.7,0-2.4,1.3-2.4,2.8l-0.3,4.8l0,0c-1.5,8.4-13.9,9.7-17.4,1.7l-0.6-1.3c-0.4-1-0.4-2,0-3c1.5-3.1,5.1-8.4,1.1-20.2
			c-0.3-0.8-1.5-3.6-0.7-5.5c0.7-1.7,2.8-1.9,4.2-0.7c0.3,0.3,0.7,0.3,1.5-0.2C119,218.6,119.2,211.8,128.2,208.2z"/>
		<path class="st20" d="M129.3,208c0,0,0.1,3.1,5.3,5.8c6.3,3.3,2.4,7.2,5.4,11.8c3.1,4.9,0.4-4.4,0.4-4.4l-0.9-10.6
			c-1.8-6.9-4.4-11.4-11-10c-3.5,0.7-7,2.1-8.8,4.4c-4.8,6.3-5.9,20.5-5.9,20.5s5.3,0.1,8.1-6.6C125.1,211.4,124.7,210.2,129.3,208z
			"/>
		<path class="st5" d="M159.5,293.4h-12.1c-1,0-1.8-0.8-1.8-1.8v-26.3c0-1,0.8-1.8,1.8-1.8h12.1c1,0,1.8,0.8,1.8,1.8v26.3
			C161.3,292.6,160.4,293.4,159.5,293.4z"/>
		<g>
			<g>
				<g>
					<g>
						<path class="st22" d="M169.9,283.5L169.9,283.5c-3.3-4.6-7.9-13.2-9.4-13.4c-0.8-0.1-1.1,0.6-0.7,2.4c1.1,5.2,2.9,6.2-2,5.4
							c-0.7-0.1-4.3-0.8-6.2-1.2c-1.4-0.3-2.7,1.1-2.1,2.5c0.2,0.4,0.4,0.8,0.8,1.2c0,0-1.1,3.2,1.9,4c0,0,0.4,3.7,2.7,3.8
							c0,0,2.5,1.5,7.6,3.7l0,0c2.4,1.6,5.5,1.1,7.3-1.1l0.4-0.5C171.8,288.3,171.7,285.4,169.9,283.5z"/>
					</g>
				</g>
			</g>
			<path class="st27" d="M150.8,280.4c1.7,0.5,4.3,1.3,5.9,1.3"/>
			<path class="st27" d="M152.6,284.5c0,0,3,1.1,5.1,1"/>
		</g>
		<g>
			<g>
				<g>
					<path class="st22" d="M133.1,284.9l3.7-2.7c2.7-5.3,7.6-14.9,8.5-14.5c1,0.5,1.2,1.6,0.6,3.7c-1.6,5.1-0.8,7.5,2.1,7.3
						c1-0.1,9.5-0.1,9.5-0.1s2,1.8-0.7,3.9c0,0,0.6,3.4-2.6,3.6c0,0-1,3.5-3.3,3.3c0,0-2.7,1.1-8.1,2.3l-4.6,2L133.1,284.9z"/>
				</g>
			</g>
		</g>
		<path class="st27" d="M156.2,282.4c-1.8,0.2-4.5,0.6-6.1,0.2"/>
		<path class="st27" d="M153.7,286.1c0,0-3.2,0.6-5.2,0.1"/>
		<g>
			<g>
				<g>
					<path class="st27" d="M145.3,267.7c1,0.5,1.2,1.6,0.6,3.7c-1.6,5.1-0.8,7.5,2.1,7.3c1-0.1,9.5-0.1,9.5-0.1s2,1.8-0.7,3.9
						c0,0,0.6,3.4-2.6,3.6c0,0-1,3.5-3.3,3.3c0,0-2.7,1.1-8.1,2.3"/>
				</g>
			</g>
		</g>
		<g>
			<g>
				<g>
					<path class="st27" d="M154.8,288.2c1.2,0.6,5.6,2.8,7.6,3.7l0,0"/>
				</g>
			</g>
		</g>
		<path class="st5" d="M204.7,421.9c0,0-3.6,2.9-13.7,1.3c0,0-0.7,6.3-3.5,9.6c-2.7,3.3,5.2,7.3,11.2,5.4c6-1.9,10.4,2.6,16.3,1.8
			c5.9-0.7,14.4-7.1,11.3-9.1c-3.2-1.9-14.4-1.8-17.2-6.2C207.6,422.3,204.7,421.9,204.7,421.9z"/>
		<path class="st28" d="M212.2,437.7c5.4,1.6,11.5-4.7,11.5-4.7"/>
		<path class="st28" d="M190,433.9c0,0,2.1,2.6,7.1,2.1c4.9-0.5,9.7,0.1,15.1,1.7"/>
		<path class="st5" d="M170.5,426.5c0,0-5.6,4-15.6,1.9c0,0,0.1,6-2.8,9.1c-2.9,3.1,4.8,7.6,10.9,6.1c6.1-1.5,10.3,3.1,16.2,2.7
			c5.9-0.4,14.8-6.3,11.8-8.4c-3-2.1-15.4-3.5-17.9-8C171.5,427.2,170.5,426.5,170.5,426.5z"/>
		<path class="st28" d="M176.5,443.7c5.3,1.9,11.7-4,11.7-4"/>
		<path class="st28" d="M154.5,438.7c0,0,2,2.7,7,2.4c5-0.2,9.7,0.6,15,2.6"/>
		<path class="st28" d="M170.1,351.6c-0.5-5.8-1.1-10.2-1.7-11.9c-1.5-4.4-14.8-9.4-27.5-13.3"/>
		<path class="st28" d="M169.7,382.9c-0.4-9.1-0.9-18.7-1.4-26.7"/>
		<path class="st28" d="M159.2,421.3c3.3-0.2,7.1-1.2,10.7-4.3c0.6-0.5,1-1.3,1-2.1c-0.1-3-0.3-11.3-0.7-21.4"/>
		<path class="st4" d="M146.6,316.3"/>
		<path class="st4" d="M155.4,339.3c0,0,0.3,8.3,10,11.3"/>
		<path class="st4" d="M188.5,332.3c0,0,2,7.7,10.1,11.9"/>
		<path class="st4" d="M190.7,414.2c0,0,7.6,0.2,13.8-4.5"/>
		<path class="st29" d="M108.4,251.2c0,0,1.7,10,14.6,7.4"/>
		<path class="st29" d="M129.7,251.9c0,0,0.1,2.8-3.6,5"/>
		<line class="st29" x1="86.9" y1="281.8" x2="97.5" y2="281.7"/>
		<line class="st29" x1="101.6" y1="283.1" x2="102.7" y2="276"/>
		<path class="st29" d="M117.7,326.8c-4.1,1.1-8.6,2-13.7,2.6"/>
		<path class="st29" d="M143.1,314.5c0,0-6.1,5.6-18.6,10.1"/>
		<path class="st29" d="M126.9,318.6c-2.7,1-5.5,1.7-8.2,1.8"/>
		<path class="st29" d="M143,308.7c0,0-4.7,4.1-10.9,7.5"/>
		<path class="st4" d="M119.5,333.7c0,0,3.4,7.4-2.3,12.8"/>
	</g>
	<g>
		<path class="st11" d="M390.5,182.5c0,2-0.3,3.9-0.9,5.6c-0.6,1.7-1.5,3.2-2.7,4.4c-1.2,1.2-2.6,2.2-4.3,2.9c-1.7,0.7-3.6,1-5.7,1
			c-0.2,0-0.6-0.1-1.2-0.3c-0.5-0.2-1.2-0.5-1.8-0.9s-1.4-1-2.1-1.7c-0.7-0.7-1.4-1.6-2-2.7c-0.6-1.1-1.1-2.3-1.5-3.8
			c-0.4-1.5-0.6-3.2-0.6-5.1v-13.7h-8.6v-3.7h8.6v-10l-0.2,0c-0.4,0.3-0.9,0.4-1.4,0.4c-0.4,0-0.7-0.1-1-0.2
			c-0.3-0.2-0.6-0.4-0.9-0.6c-0.3-0.3-0.5-0.5-0.6-0.9c-0.2-0.3-0.2-0.7-0.2-1.1c0-0.4,0.1-0.8,0.2-1.2c0.2-0.4,0.4-0.8,0.7-1.2
			c0.3-0.4,0.7-0.6,1.2-0.9s1-0.3,1.7-0.3c0.9,0,1.6,0.2,2.2,0.7c0.6,0.4,1.1,1,1.4,1.7c0.4,0.7,0.6,1.5,0.8,2.4
			c0.2,0.9,0.2,1.8,0.2,2.7v8.5h22.8v3.7h-22.8v13.7c0,1.3,0.1,2.5,0.3,3.5c0.2,1,0.5,1.9,0.9,2.7c0.4,0.8,0.8,1.5,1.2,2
			c0.4,0.5,0.9,1,1.3,1.3c0.4,0.4,0.8,0.6,1.2,0.8c0.4,0.2,0.6,0.2,0.8,0.2c1,0,2.1-0.2,3.2-0.7s2.1-1.1,3-2c0.9-0.8,1.6-1.9,2.2-3
			c0.6-1.2,0.9-2.5,0.9-3.9c0-0.7-0.1-1.4-0.2-2.1c-0.2-0.7-0.4-1.5-0.7-2.3c-0.4,0.5-0.7,0.9-1.2,1.3c-0.4,0.4-0.9,0.7-1.4,0.9
			c-0.5,0.3-1,0.4-1.5,0.6c-0.5,0.1-1,0.2-1.4,0.2c-0.6,0-1-0.1-1.5-0.3c-0.4-0.2-0.8-0.4-1.1-0.8c-0.3-0.3-0.5-0.7-0.6-1.1
			c-0.1-0.4-0.2-0.8-0.2-1.3c0-0.8,0.2-1.6,0.5-2.2c0.3-0.7,0.8-1.2,1.3-1.7c0.6-0.5,1.2-0.8,1.9-1.1c0.7-0.2,1.4-0.4,2.2-0.4
			c1.3,0,2.4,0.3,3.4,0.8c1,0.6,1.8,1.3,2.4,2.2c0.6,0.9,1.1,2,1.4,3.1C390.3,180.1,390.5,181.3,390.5,182.5z"/>
	</g>
	<g>
		<g>
			<path class="st3" d="M330.1,218.7c-7.8,0-14.1-6.3-14.1-14.1c0-7.8,6.3-14.1,14.1-14.1c7.8,0,14.1,6.3,14.1,14.1
				C344.2,212.4,337.9,218.7,330.1,218.7z M330.1,191.3c-7.3,0-13.3,6-13.3,13.3c0,7.3,6,13.3,13.3,13.3c7.3,0,13.3-6,13.3-13.3
				C343.4,197.3,337.4,191.3,330.1,191.3z"/>
		</g>
		<g>
			<path class="st3" d="M322.5,197.6c0.3,0,0.5-0.2,0.5-0.5c0-0.3-0.2-0.5-0.5-0.5c-0.3,0-0.5,0.2-0.5,0.5
				C322,197.4,322.2,197.6,322.5,197.6 M322.5,196.8c0.1,0,0.3,0.1,0.3,0.3c0,0.1-0.1,0.3-0.3,0.3c-0.1,0-0.3-0.1-0.3-0.3
				C322.3,196.9,322.4,196.8,322.5,196.8"/>
		</g>
		<g>
			<polyline class="st3" points="322.6,197.9 322.6,198.2 323.9,197.9 323.9,197.6 322.6,197.9 			"/>
		</g>
		<g>
			<path class="st3" d="M338.9,197.9c0.1-0.3-0.1-0.6-0.4-0.6c-0.3-0.1-0.6,0.1-0.6,0.4c-0.1,0.3,0.1,0.6,0.4,0.6
				C338.5,198.4,338.8,198.2,338.9,197.9 M338.1,197.7c0-0.1,0.2-0.2,0.3-0.2c0.1,0,0.2,0.2,0.2,0.3c0,0.1-0.2,0.2-0.3,0.2
				C338.1,198,338.1,197.9,338.1,197.7"/>
		</g>
		<g>
			<polyline class="st3" points="337.5,197.7 337.2,197.7 337.3,199 337.6,199 337.5,197.7 			"/>
		</g>
		<g>
			<path class="st3" d="M321.5,197.9l-0.2-0.2c0,0-1,1.1-1.6,2.6l0.3,0.1c0,0,0.4-0.9,0.7-1.3l0.2,0.1l-0.2,1.3l0.3,0.1l1.1-0.6
				l0.2-0.3l-1.4-0.9c0.1-0.1,0.2-0.4,0.3-0.5l1.4,1l0.2-0.2l-1.4-1L321.5,197.9 M321.1,199.5l0.6,0.4l-0.7,0.4L321.1,199.5z"/>
		</g>
		<g>
			<path class="st3" d="M338.2,196.9c-0.9-1-2-1.8-3.3-2.4l-0.1,0.2c0.4,0.2,0.8,0.4,1.2,0.7l-0.1,0.2l-1.2-0.2l-0.1,0.4l0.5,1.1
				l0.3,0.2l0.9-1.4c0.2,0.1,0.3,0.2,0.5,0.4c-0.1,0-0.3,0-0.4,0.2c-0.1,0.2-0.1,0.3-0.1,0.4c0,0.1-0.1,0.3-0.1,0.4
				c-0.1,0.1-0.2,0.2-0.4,0.1l-0.1,0.3l0.2,0.1c0.1,0,0.4,0,0.5-0.3c0.1-0.2,0.1-0.5,0.2-0.7c0.1-0.2,0.3-0.3,0.5-0.3
				c0.2,0.1,0.3,0.3,0.5,0.4l-1.2,1.2l0.2,0.2l1.1-1.3c0.1,0.1,0.2,0.2,0.3,0.3L338.2,196.9 M335.2,196.5l-0.3-0.7l0.7,0.2
				L335.2,196.5z"/>
		</g>
		<g>
			<path class="st3" d="M332.3,193.9c0,0,0-0.3-0.5-0.4c-0.4-0.1-0.5,0.2-0.5,0.2s-0.1-0.3-0.5-0.4c-0.2,0-0.4,0-0.5,0
				c-2.7,0-5.2,0.9-7.2,2.5l0.2,0.2c0.5-0.4,1.1-0.8,1.6-1.1l0.2,0.4c-0.6-0.1-0.7,0.3-0.6,0.5l0,0c-0.1,0-0.3,0-0.3,0
				c-0.3,0.1-0.4,0.5-0.2,0.8c0.3,0.4,0.8,0.2,0.8,0.2v-0.3c0,0-0.4,0-0.5-0.1c-0.1-0.1,0-0.3,0.1-0.3c0,0,0.2-0.1,0.4,0.1l0.2-0.1
				c0,0-0.2-0.3,0-0.5c0.1-0.1,0.3,0,0.5,0.1l0.4,0.7l0.3-0.1l-0.8-1.5c0.2-0.1,0.4-0.2,0.6-0.3l0.7,1.5l0.3-0.1l-0.7-1.6
				c0.3-0.1,0.7-0.2,1-0.3c-0.1,0.1-0.2,0.4-0.1,0.8c0.1,0.4,0.3,0.7,0.9,0.8l0.1-0.3c0,0-0.6-0.1-0.7-0.6c0-0.3,0.1-0.6,0.2-0.7
				c0.3-0.1,0.7-0.1,1-0.2l0,1.2l0.4,0.2c0,0,0.3-0.6,0.7-0.7l0,0.9l0.2,0l0.1,0l0.1-1.1l-0.2-0.2c0,0-0.6,0.3-0.8,0.6l0-0.9
				c0.5-0.1,0.9-0.1,1.4-0.1c0.2,0,0.4,0,0.6,0c0.1,0,0.3,0.1,0.3,0.4c0,0.3-0.5,0.3-0.5,0.3l0,0.3c0,0,0.4,0.1,0.6-0.2
				c0,0,0.2,0.4,0.6,0.3l0-0.3c0,0-0.4,0-0.3-0.4c0.1-0.3,0.3-0.4,0.4-0.4c0.2,0,0.5,0.3,0.4,0.8l-0.2,0.9l0.3,0.1l0,0l0.4-1.7
				l0.3,0.1l0.1-0.3c0,0-0.5-0.1-0.6-0.2L332.3,193.9"/>
		</g>
		<g>
			<path class="st3" d="M339.2,198.1l-0.2,0.1c0.3,0.4,0.5,0.7,0.6,1l-0.2,0.1l-1-0.9l-0.3,0.3l-0.1,1.2l0.2,0.3l1-0.5
				c0.1,0.1,0.2,0.6,0.1,0.7c-0.2,0.1-0.5,0-0.5,0l0,0.3c0,0,0.4,0.1,0.6,0c0.4-0.2,0.2-0.9,0.1-1.1l0.2-0.1c0.2,0.3,0.3,0.7,0.5,1
				l0.3-0.1C340.2,199.7,339.8,198.9,339.2,198.1 M338.4,199.9l0.1-0.7l0.6,0.4L338.4,199.9z"/>
		</g>
		<g>
			<path class="st3" d="M327.1,211c0.4,0,0.6-0.2,0.7-0.3c0.1-0.1,0.2-0.2,0.3-0.2c0.1,0,0.2,0.1,0.3,0.2c0.2,0.2,0.4,0.4,0.7,0.4
				c0.3,0,0.5-0.2,0.7-0.4c0.1-0.1,0.2-0.2,0.3-0.2c0.2,0,0.3,0.1,0.4,0.2c0.1,0.1,0.3,0.3,0.7,0.3c0.4,0,0.5-0.2,0.7-0.3
				c0.1-0.1,0.2-0.2,0.3-0.2c0.1,0,0.2,0.1,0.3,0.2c0.2,0.2,0.5,0.5,1,0.2l0,0l0.2-0.2c0.1,0,0.1-0.1,0-0.2c0-0.1-0.1-0.1-0.2,0
				l-0.2,0.1c-0.4,0.2-0.5,0-0.7-0.2c-0.1-0.1-0.3-0.3-0.5-0.3c-0.2,0-0.3,0.1-0.5,0.2c-0.1,0.1-0.3,0.3-0.5,0.3
				c-0.3,0-0.4-0.1-0.5-0.2c-0.1-0.1-0.3-0.3-0.6-0.3c-0.2,0-0.3,0.1-0.5,0.3c-0.2,0.2-0.3,0.3-0.5,0.3c-0.3,0-0.4-0.2-0.6-0.3
				c-0.1-0.1-0.3-0.3-0.5-0.3c-0.2,0-0.4,0.1-0.5,0.3c-0.1,0.2-0.2,0.3-0.5,0.3c-0.1,0-0.4-0.2-0.5-0.3c0,0-0.1,0-0.2,0
				c0,0,0,0.1,0,0.2C326.5,210.6,326.8,211,327.1,211"/>
		</g>
		<g>
			<path class="st3" d="M334.5,211.6c-0.1,0-0.1,0-0.2,0c-0.1,0.1-0.3,0.4-0.5,0.4c-0.2,0-0.3-0.1-0.5-0.2c-0.1-0.1-0.3-0.2-0.4-0.2
				c-0.3,0-0.6,0.3-0.6,0.4l0,0c-0.3,0.2-0.5,0-0.6-0.2c-0.1-0.1-0.2-0.3-0.4-0.3c-0.2,0-0.3,0.1-0.5,0.2c-0.1,0.1-0.3,0.3-0.5,0.3
				c-0.2,0-0.3-0.1-0.4-0.2c-0.1-0.1-0.2-0.3-0.5-0.3c-0.2,0-0.3,0.1-0.4,0.3c-0.1,0.2-0.3,0.3-0.5,0.3c-0.3,0-0.4-0.1-0.5-0.3
				c-0.1-0.1-0.2-0.3-0.4-0.3c-0.2,0-0.4,0.1-0.5,0.3c-0.1,0.1-0.2,0.3-0.5,0.3c-0.1,0-0.3-0.2-0.4-0.3c0,0-0.1-0.1-0.2,0
				c0,0-0.1,0.1,0,0.2c0.1,0.1,0.4,0.4,0.6,0.4c0.4,0,0.6-0.2,0.7-0.3c0.1-0.1,0.2-0.2,0.3-0.2c0.1,0,0.2,0.1,0.3,0.2
				c0.2,0.2,0.3,0.4,0.7,0.4c0.3,0,0.5-0.2,0.7-0.4c0.1-0.1,0.2-0.2,0.3-0.2c0.2,0,0.2,0.1,0.3,0.2c0.1,0.1,0.3,0.3,0.6,0.3
				c0.3,0,0.5-0.2,0.7-0.3c0.1-0.1,0.2-0.2,0.3-0.2c0.1,0,0.2,0.1,0.2,0.2c0.2,0.2,0.4,0.5,1,0.2l0,0l0.1-0.1l0,0
				c0.1-0.1,0.3-0.3,0.4-0.3c0.1,0,0.2,0.1,0.3,0.2c0.2,0.1,0.3,0.2,0.6,0.3c0.4,0,0.7-0.5,0.7-0.5
				C334.5,211.7,334.5,211.6,334.5,211.6"/>
		</g>
		<g>
			<path class="st3" d="M333,215.8c0,0-0.6-0.8-1.7-0.6c-0.5,0.1-0.8,0.5-0.8,0.9l0,0.1c0,0.2,0.1,0.3,0.2,0.4
				c-0.2,0.3-0.4,0.5-0.5,0.8v-1c0,0,0-0.1,0.1-0.1c0.1-0.2,0.4-0.7,0.4-1.4c0-0.1,0-0.2,0-0.3c-0.1-0.6-0.3-0.9-0.4-1.2
				c-0.1-0.1-0.1-0.2-0.1-0.2c0,0,0-0.1-0.1-0.1c0,0-0.1,0-0.1,0.1c0,0,0,0.2-0.2,0.4c-0.1,0.2-0.4,0.6-0.4,1.2
				c0,0.6,0.2,1.3,0.6,1.7v0.8c-0.1-0.2-0.3-0.4-0.5-0.6c0,0,0-0.1,0-0.2c0-0.3-0.1-0.7-0.5-0.9c-1-0.5-1.8,0.5-1.8,0.5l0,0.1l0.1,0
				c1-0.1,1.7,0.2,2.1,0.6l0.1,0.1l0,0c0.4,0.3,0.5,0.7,0.6,0.9v0.4c0,0,0,0.1,0.1,0.1c0,0,0.1,0,0.1-0.1c0-0.1,0.3-2.2,2.7-1.9
				L333,215.8L333,215.8 M328.9,215.4l0.1,0.7c-0.1,0-0.2-0.1-0.3-0.1l-0.1-0.6C328.7,215.3,328.8,215.3,328.9,215.4 M327.5,215.7
				c0.2-0.2,0.6-0.4,1-0.4l0.1,0.6C328.2,215.8,327.9,215.7,327.5,215.7 M329.4,216.3c-0.1-0.1-0.2-0.2-0.4-0.3l-0.1-0.7l0,0
				c0.4,0.2,0.4,0.5,0.4,0.8C329.4,216.3,329.4,216.3,329.4,216.3 M330.2,216l0-0.4l0.3-0.4C330.4,215.6,330.3,215.8,330.2,216
				 M329.6,214.3l0.4,0.3l0,0.4c-0.1-0.1-0.5-0.4-0.5-0.4l0,0C329.6,214.5,329.6,214.4,329.6,214.3 M329.7,213.9l0.3,0.3l0,0.3
				c-0.1-0.1-0.4-0.3-0.4-0.3v0C329.6,214.1,329.7,214,329.7,213.9 M330.5,214.2c0,0-0.3,0.2-0.3,0.3l0-0.3l0.3-0.3
				C330.4,214,330.4,214.1,330.5,214.2 M330.5,215.1l-0.3,0.4l0-0.4v0l0.4-0.3C330.5,214.9,330.5,215,330.5,215.1 M330.5,214.5
				c0,0.1,0,0.1,0,0.2c-0.1,0.1-0.3,0.2-0.4,0.3l0-0.4l0.4-0.3C330.5,214.3,330.5,214.4,330.5,214.5 M329.6,214.7l0.5,0.4l0,0.4
				l-0.5-0.5C329.6,214.9,329.6,214.8,329.6,214.7 M330.3,213.8c0,0-0.2,0.2-0.2,0.3l0-0.7l0,0C330.2,213.5,330.3,213.6,330.3,213.8
				 M329.9,213.5c0,0,0.1-0.1,0.1-0.1l0,0.7c-0.1-0.1-0.2-0.2-0.3-0.3C329.8,213.7,329.9,213.6,329.9,213.5 M329.6,215.1l0.4,0.5
				l0,0.5C329.8,215.9,329.7,215.5,329.6,215.1 M331.3,215.4c0.1,0,0.1,0,0.2,0l-0.1,0.7c-0.1,0.1-0.2,0.1-0.3,0.2L331.3,215.4
				L331.3,215.4 M330.8,216.4L330.8,216.4c0,0-0.1-0.1-0.1-0.3l0-0.1c0-0.3,0.1-0.6,0.5-0.7l-0.2,0.9
				C330.9,216.3,330.8,216.4,330.8,216.4 M331.4,216l0.1-0.6c0.5,0,0.9,0.3,1.1,0.4C332.2,215.7,331.8,215.8,331.4,216"/>
		</g>
		<g>
			<path class="st3" d="M337.9,210.2c0-0.1,0-0.1,0-0.2c0,0-0.1,0-0.1,0c0,0-0.1,0-0.2,0.1l-0.3,0.1l0-0.1c0.3-0.2,0.4-0.6,0.5-1
				c0.1-0.5-0.1-0.9-0.1-0.9c0,0,0-0.1,0-0.1c0-0.1,0-0.2-0.1-0.2l-0.1,0c0-0.4,0-0.8-0.1-1c0-0.1-0.1-0.1-0.1-0.2
				c-0.1-0.1-0.1-0.2-0.2-0.2c0,0-0.1,0-0.1,0.1c0,0,0,0-0.1,0.1l0-0.1c0.1,0,0.2-0.1,0.3-0.3l0.1-0.1c0.1-0.2,0.2-0.5,0.1-0.8
				c0,0,0-0.1,0-0.1l0-0.1c0,0,0-0.1,0-0.1c-0.1,0-0.1,0-0.2,0c0-0.1,0.1-0.1,0.1-0.2c0.2-0.4,0.1-0.7,0-0.8l0,0l0-0.1
				c0-0.1,0-0.1-0.1-0.2c0.1-0.4,0-0.8-0.1-0.9l-0.1-0.1c0-0.1-0.1-0.1-0.1-0.1c-0.1,0-0.1,0.1-0.1,0.1c0,0,0,0.1-0.1,0.1
				c-0.1,0.1-0.2,0.2-0.2,0.4c0,0.2,0.1,0.5,0.2,0.7c-0.1,0.1-0.2,0.4-0.3,0.6c-0.1-0.1-0.2-0.1-0.3-0.1l0,0l0,0
				c-0.1,0-0.1-0.1-0.2,0c0,0,0,0.1,0,0.1c0,0.1,0,0.4,0,0.5c0,0.3,0.5,0.7,0.6,0.9c0,0.1,0,0.1,0,0.2c-0.1-0.1-0.1-0.1-0.2-0.1
				c-0.1,0-0.1,0-0.1,0l-0.1,0c0,0-0.1,0-0.1,0c0,0.1,0,0.1,0,0.2l0,0l0,0.1c0,0.1,0,0.2,0,0.5c0.1,0.3,0.4,0.7,0.5,0.8
				c0,0-0.1,0-0.1,0c-0.1,0-0.1,0-0.2,0c-0.1,0-0.2,0-0.2,0c0,0,0,0.1,0,0.1c0,0,0,0.1,0,0.1c0,0.1,0,0.2,0,0.4
				c0.1,0.2,0.2,0.5,0.3,0.7h0l0,0l-0.1,0c-0.1,0-0.1,0-0.2,0c-0.1,0-0.1,0.1-0.1,0.2c0,0,0,0.1,0,0.1l0,0.1c0,0.1,0,0.4,0.2,0.7
				c0.2,0.3,0.5,0.5,0.6,0.5c-0.1,0.1-0.2,0.2-0.3,0.3l-0.1-0.1c-0.1-0.1-0.1-0.1-0.2-0.1c-0.1,0-0.1,0.1-0.1,0.1l0,0l0,0
				c-0.1,0.1-0.3,0.3-0.4,0.8c0,0,0,0.1,0,0.1c0,0.3,0.1,0.6,0.1,0.7c-0.1,0-0.1,0.1-0.2,0.1c0-0.2-0.1-0.4-0.2-0.5l0,0
				c0-0.1-0.1-0.2-0.1-0.2c0,0,0-0.1-0.1-0.1c0,0-0.1,0-0.1,0.1l0,0c-0.1,0-0.2,0.1-0.4,0.4c-0.2,0.2-0.2,0.6-0.2,0.8
				c0,0.1,0,0.3,0,0.3c-0.2,0-0.4,0.1-0.5,0.2c0.1-0.5-0.1-0.8-0.2-0.8c0,0,0-0.1,0-0.1c0,0,0-0.1-0.1-0.1l-0.1,0c0,0,0,0.1-0.1,0.1
				c-0.2,0.1-0.5,0.3-0.6,0.8c-0.1,0.4,0,0.7,0,0.8c-0.2,0.1-0.6,0.1-0.9,0.1l-0.1,0c-0.4,0-0.7,0.1-0.7,0.1c0,0-0.1,0.1,0,0.1
				c0,0,0.1,0.1,0.1,0c0,0,0.3-0.1,0.6-0.1l0.1,0c0.4,0,0.8,0,1-0.1c0.3,0,0.5-0.2,0.7-0.4c0.1,0.1,0.4,0.2,0.9,0.2
				c0.3,0,0.7,0,0.8-0.4c0-0.1,0.1-0.1,0.2-0.2l0-0.1l-0.1-0.1l0,0l0,0c-0.1-0.1-0.1-0.1-0.3-0.2c0-0.1,0.1-0.1,0.1-0.2
				c0.3,0.1,0.6,0.1,0.9,0.1c0.4-0.1,0.6-0.2,0.8-0.5c0.1-0.1,0.1-0.2,0.1-0.2l0-0.1l0-0.1c0,0-0.1-0.1-0.3-0.1
				c-0.1,0-0.3-0.1-0.4-0.1c0-0.1,0.1-0.2,0.1-0.5c0-0.1,0-0.2,0-0.3c0.1,0,0.2,0,0.5-0.2c0.6-0.4,0.6-0.7,0.6-0.8v-0.1
				C337.9,210.3,337.9,210.3,337.9,210.2 M337,209.3c0-0.2,0.1-0.7,0.3-0.9l0.2-0.2l0,0l-0.3,1.3c0,0,0-0.1-0.1-0.1
				C337.1,209.4,337.1,209.3,337,209.3L337,209.3 M337.8,208.8c0,0.1,0,0.2,0,0.3c-0.1,0.3-0.2,0.6-0.4,0.8c0-0.1,0-0.1-0.1-0.2
				l0.4-1.5l0,0C337.6,208.3,337.8,208.5,337.8,208.8 M337.3,207c0.1,0.1,0.1,0.3,0.1,0.6c0,0.2,0,0.4-0.1,0.5l0,0l-0.2,0.2l0,0
				c0,0,0-0.1,0-0.1l0,0l0.1-1.4C337.2,206.9,337.3,207,337.3,207 M337.1,206.8L337,208c-0.1-0.2-0.2-0.3-0.3-0.4
				c0-0.1,0-0.5,0.1-0.7C336.9,206.9,337,206.9,337.1,206.8L337.1,206.8 M337.2,206.1l-0.1,0.1c-0.1,0.2-0.2,0.2-0.2,0.3
				c0,0-0.1-0.1-0.1-0.1c0-0.1,0.2-0.7,0.4-1l0,0.1c0,0.1,0.1,0.1,0.1,0.2C337.3,205.8,337.2,205.9,337.2,206.1 M337.1,204.7
				c-0.1,0.2-0.2,0.4-0.3,0.4c0-0.1-0.1-0.1-0.1-0.2c0-0.1,0.2-0.7,0.4-1l0,0l0,0.1c0,0.1,0.1,0.1,0.1,0.3
				C337.2,204.5,337.2,204.6,337.1,204.7 M337.1,203.4c0,0.1,0,0.2-0.1,0.4l-0.1,0l0,0l0-0.8l0,0C337,203,337.1,203.2,337.1,203.4
				 M336.6,203.3c0-0.1,0.1-0.2,0.1-0.3l0,0l0,0.9l0,0C336.7,203.7,336.6,203.5,336.6,203.3L336.6,203.3 M336.8,204
				c0.1,0,0.2-0.1,0.2-0.1c-0.2,0.3-0.3,0.7-0.4,0.9c0-0.1-0.1-0.1-0.1-0.2C336.5,204.4,336.7,204.1,336.8,204 M336.1,204.6
				L336.1,204.6c0.2,0,0.4,0.2,0.6,0.7c-0.1,0.1-0.1,0.1-0.1,0.2C336.4,205.3,336.2,204.9,336.1,204.6L336.1,204.6 M336,205.1
				L336,205.1c0,0,0-0.2,0-0.3c0.2,0.3,0.4,0.7,0.5,0.8c0,0.1,0,0.1,0,0.2C336.3,205.6,336,205.3,336,205.1 M336.6,206.1
				c0,0,0-0.1,0-0.2l0,0l0,0c0-0.2,0.1-0.4,0.3-0.5c0.1-0.1,0.2-0.1,0.3-0.2l0,0l0,0c-0.2,0.2-0.4,0.8-0.5,1.1L336.6,206.1
				L336.6,206.1L336.6,206.1 M336.9,206.8c-0.1,0-0.1,0.1-0.2,0.2l0,0l-0.5-0.8l0,0C336.4,206.1,336.8,206.5,336.9,206.8
				 M336.1,206.4c0-0.1,0-0.1,0-0.1l0-0.1l0.5,0.9c0,0.1,0,0.2-0.1,0.3c-0.1-0.1-0.4-0.4-0.4-0.7
				C336.1,206.6,336.1,206.5,336.1,206.4 M336.4,207.7c0.1,0,0.4,0.2,0.6,0.8l0,0c0,0.1-0.1,0.2-0.1,0.3c-0.1-0.3-0.4-0.8-0.7-1.2
				C336.3,207.7,336.4,207.7,336.4,207.7 M336.2,207.8L336.2,207.8l0-0.1c0.4,0.5,0.7,1.2,0.8,1.3l0,0.1c-0.1-0.2-0.3-0.2-0.4-0.3
				c0-0.1-0.3-0.5-0.3-0.7C336.2,208,336.2,207.9,336.2,207.8 M336.3,209c0.1,0,0.4,0,0.6,0.5c0.2,0.4,0.2,0.6,0.2,0.7l-0.1,0
				C337,210,336.5,209.3,336.3,209L336.3,209L336.3,209L336.3,209z M336.3,209.8c-0.1-0.2-0.1-0.3-0.1-0.5c0-0.1,0-0.1,0-0.2l0-0.1
				c0,0,0-0.1,0-0.1c0.3,0.3,0.7,1,0.9,1.3l-0.1,0C336.8,210.3,336.5,210.2,336.3,209.8 M337.4,210.3l0.2,0
				c-0.3,0.2-0.7,0.6-0.9,0.8c0-0.1,0-0.1-0.1-0.1C336.6,210.9,336.9,210.4,337.4,210.3 M336.6,211.6L336.6,211.6
				c0,0.4-0.1,0.5-0.1,0.5c-0.1,0-0.1,0-0.2,0c0-0.2,0-0.8,0.1-1.4C336.5,211,336.6,211.3,336.6,211.6 M335.9,211.6c0,0,0-0.1,0-0.1
				c0-0.4,0.2-0.6,0.3-0.7c-0.1,0.6-0.1,1.2-0.1,1.4c-0.1,0-0.1,0-0.1,0.1C336,212.1,335.9,211.8,335.9,211.6 M334.8,213
				c0-0.2,0-0.5,0.2-0.8c0.1-0.2,0.2-0.3,0.3-0.3c-0.2,0.5-0.3,1.2-0.3,1.4h-0.1c0,0-0.1,0-0.1,0C334.8,213.3,334.8,213.1,334.8,213
				 M334.9,213.5c0.5,0,0.6,0.1,0.7,0.2c-0.7,0.2-1.3,0.2-1.5,0.2C334.1,213.7,334.4,213.5,334.9,213.5 M333.8,212.7L333.8,212.7
				L333.8,212.7z M333.2,213.6c0.1-0.4,0.4-0.6,0.5-0.7l0,0c-0.1,0.5-0.4,1.1-0.6,1.3c0-0.1-0.1-0.2-0.1-0.3
				C333.1,213.8,333.1,213.7,333.2,213.6 M333.3,214.4L333.3,214.4L333.3,214.4c0.1-0.3,0.5-1,0.6-1.5c0,0,0.1,0.2,0.1,0.4
				c0,0.1,0,0.2-0.1,0.4c0,0,0,0.1-0.1,0.2l-0.1,0.1l0,0l0,0C333.7,214.2,333.5,214.4,333.3,214.4 M334.8,214.1
				c-0.3,0-0.5,0-0.7-0.1c0.2,0,0.8,0,1.4-0.2l0,0.1C335.4,214.1,335.1,214.1,334.8,214.1 M335.1,213.3c0-0.2,0.1-0.9,0.3-1.4l0,0
				l0,0c0,0.1,0.2,0.3,0.2,0.6c0,0.1,0,0.3-0.1,0.4c-0.1,0.2-0.1,0.3-0.2,0.3l0,0C335.2,213.3,335.1,213.3,335.1,213.3 M337.1,212.6
				c-0.1,0.2-0.3,0.4-0.7,0.4c-0.3,0-0.6,0-0.8-0.1l0-0.1C335.8,212.9,336.4,212.9,337.1,212.6L337.1,212.6 M337.1,212.4
				c-0.6,0.3-1.3,0.4-1.5,0.4c0-0.1,0-0.1,0-0.2l0,0c0,0,0.1-0.1,0.2-0.2l0,0l0.1-0.1c0.2-0.1,0.6-0.2,1,0
				C337.1,212.4,337.1,212.4,337.1,212.4 M337.7,210.5c0,0.1,0,0.4-0.5,0.7c-0.2,0.1-0.4,0.1-0.4,0.1l0-0.1c0.2-0.1,0.7-0.7,1-0.9
				l0,0.1L337.7,210.5L337.7,210.5L337.7,210.5z"/>
		</g>
		<g>
			<path class="st3" d="M322.3,210.4L322.3,210.4c0,0.2,0,0.5,0.6,0.9c0.2,0.1,0.4,0.2,0.5,0.2c0,0.1,0,0.2,0,0.3
				c0,0.2,0.1,0.4,0.1,0.5c-0.1,0-0.2,0-0.4,0.1c-0.2,0.1-0.3,0.1-0.3,0.1l0,0.1l0,0.1c0,0,0.1,0.1,0.1,0.2c0.1,0.3,0.4,0.5,0.8,0.5
				c0.3,0.1,0.7,0,0.9-0.1c0.1,0.1,0.1,0.2,0.1,0.2c-0.2,0.1-0.3,0.1-0.3,0.2l0,0l0,0l-0.1,0.1l0,0.1c0.1,0,0.2,0.1,0.2,0.2
				c0.1,0.3,0.6,0.4,0.8,0.4c0.5,0,0.7-0.1,0.9-0.2c0.1,0.2,0.4,0.4,0.7,0.4c0.2,0.2,0.7,0.2,1,0.1l0.1,0c0.4,0,0.6,0.1,0.6,0.1
				c0,0,0.1,0,0.1,0c0,0,0-0.1,0-0.1c0,0-0.3-0.1-0.7-0.1l-0.1,0c-0.3,0-0.7,0-0.9-0.1c0-0.1,0.2-0.5,0-0.8
				c-0.1-0.5-0.5-0.7-0.6-0.8c-0.1,0-0.1-0.1-0.1-0.1l-0.1,0c0,0-0.1,0-0.1,0.1c0,0,0,0,0,0.1c0,0-0.3,0.3-0.2,0.8
				c-0.1-0.1-0.3-0.2-0.5-0.2c0-0.1,0-0.2,0-0.3c0-0.3,0-0.6-0.2-0.8c-0.2-0.3-0.3-0.4-0.4-0.4l0,0c0,0,0-0.1-0.1-0.1
				c0,0-0.1,0-0.1,0.1c0,0,0,0.1-0.1,0.2l0,0c-0.1,0.2-0.2,0.4-0.2,0.5c0,0-0.1-0.1-0.2-0.1c0-0.1,0.1-0.5,0.1-0.7c0,0,0-0.1,0-0.1
				c0-0.5-0.3-0.7-0.4-0.8l0,0l0,0c0,0,0-0.1-0.1-0.1c-0.1,0-0.1,0-0.2,0.1l-0.1,0.1c-0.1-0.1-0.1-0.2-0.3-0.3
				c0.2-0.1,0.5-0.2,0.6-0.5c0.2-0.3,0.2-0.6,0.2-0.7l0-0.1c0,0,0-0.1,0-0.1c0-0.1,0-0.2-0.1-0.2c0,0-0.1,0-0.2,0l-0.1,0l0,0h0
				c0.1-0.2,0.2-0.4,0.3-0.7c0.1-0.2,0-0.3,0-0.4c0,0,0-0.1,0-0.1c0-0.1,0-0.1,0-0.1c0,0-0.1,0-0.2,0c-0.1,0-0.1,0-0.2,0
				c0,0-0.1,0-0.1,0c0.1-0.1,0.4-0.5,0.5-0.8c0.1-0.3,0-0.4,0-0.5l0-0.1l0,0c0-0.1,0-0.2,0-0.2c0,0-0.1,0-0.1,0l-0.1,0
				c0,0,0,0-0.1,0c0,0-0.1,0-0.2,0.1c0,0,0-0.1,0-0.2c0.2-0.1,0.7-0.5,0.6-0.9c0-0.1,0-0.4,0-0.5c0-0.1,0-0.1,0-0.1
				c-0.1,0-0.1,0-0.2,0l0,0l0,0c-0.1,0-0.2,0-0.3,0.1c0-0.2-0.1-0.5-0.3-0.6c0.1-0.1,0.2-0.4,0.2-0.7c0-0.2-0.1-0.3-0.2-0.4
				c0-0.1-0.1-0.1-0.1-0.1c0,0,0-0.1-0.1-0.1c-0.1,0-0.1,0.1-0.1,0.1l-0.1,0.1c-0.1,0.1-0.2,0.5-0.1,0.9c-0.1,0-0.1,0.1-0.1,0.2
				l0,0.1l0,0c-0.1,0.1-0.2,0.4,0,0.8c0.1,0.1,0.1,0.2,0.1,0.2c-0.1,0-0.2-0.1-0.2,0c0,0-0.1,0.1,0,0.1l0,0.1c0,0.1,0,0.1,0,0.1
				c-0.2,0.3-0.1,0.6,0.1,0.8l0.1,0.1c0.1,0.2,0.2,0.3,0.3,0.3l0,0.1c0,0-0.1,0-0.1-0.1c0-0.1-0.1-0.1-0.1-0.1
				c-0.1,0-0.1,0.1-0.2,0.2c0,0.1-0.1,0.2-0.1,0.2c-0.1,0.1-0.1,0.6-0.1,1l-0.1,0c-0.1,0-0.1,0.1-0.1,0.2c0,0,0,0.1,0,0.1
				c0,0-0.2,0.4-0.1,0.9c0.1,0.3,0.2,0.7,0.5,1l0,0.1l-0.3-0.1c-0.1,0-0.2,0-0.2-0.1c-0.1,0-0.1,0-0.1,0c-0.1,0,0,0.1,0,0.2
				C322.3,210.3,322.3,210.3,322.3,210.4 M323.1,209.3c0,0,0,0.1-0.1,0.1c0,0,0,0.1-0.1,0.1l-0.3-1.3l0,0l0.2,0.2
				C323,208.6,323.1,209.1,323.1,209.3L323.1,209.3 M322.5,208.3L322.5,208.3l0.4,1.4c0,0.1,0,0.1-0.1,0.2c-0.2-0.2-0.3-0.6-0.4-0.8
				c0-0.1,0-0.2,0-0.3C322.4,208.5,322.5,208.3,322.5,208.3 M323,206.8l0.1,1.4l0,0c0,0,0,0.1,0,0.1l0,0l-0.2-0.2l0,0
				c-0.1-0.1-0.1-0.3-0.1-0.5c0-0.3,0-0.5,0.1-0.6C322.9,207,322.9,206.9,323,206.8 M323.1,206.8c0.1,0,0.2,0.1,0.2,0.2
				c0.1,0.1,0.1,0.5,0.1,0.7c-0.1,0.1-0.2,0.2-0.3,0.4L323.1,206.8L323.1,206.8 M322.9,205.6c0-0.1,0-0.1,0.1-0.2l0-0.1
				c0.2,0.3,0.4,0.8,0.4,1c0,0-0.1,0.1-0.1,0.1c-0.1,0-0.2-0.1-0.2-0.3l-0.1-0.1C322.9,205.9,322.9,205.8,322.9,205.6 M323,204.3
				c0-0.1,0-0.2,0.1-0.3l0-0.1l0,0c0.2,0.3,0.4,0.9,0.4,1c0,0.1-0.1,0.1-0.1,0.2c-0.1-0.1-0.1-0.2-0.3-0.4
				C323,204.6,323,204.5,323,204.3 M323.2,203L323.2,203l0,0.8l0,0l0,0c0-0.1-0.1-0.2-0.1-0.4C323.1,203.2,323.2,203,323.2,203
				 M323.5,203.3c0,0.2-0.1,0.4-0.1,0.5l0,0l0-0.9l0,0C323.5,203.1,323.5,203.1,323.5,203.3L323.5,203.3 M323.7,204.6
				c0,0-0.1,0.1-0.1,0.2c-0.1-0.2-0.2-0.6-0.4-0.9c0.1,0,0.1,0,0.2,0.1C323.5,204.1,323.6,204.4,323.7,204.6 M324.1,204.6
				c-0.1,0.3-0.4,0.7-0.5,0.8c0-0.1-0.1-0.1-0.1-0.2C323.7,204.8,323.9,204.6,324.1,204.6L324.1,204.6L324.1,204.6 M323.7,205.7
				c0-0.1,0-0.1,0-0.2c0.1-0.1,0.4-0.5,0.5-0.8c0,0.1,0,0.2,0,0.3v0C324.2,205.3,323.9,205.6,323.7,205.7 M323.5,206.1L323.5,206.1
				L323.5,206.1c-0.1-0.1-0.4-0.7-0.6-1l0,0v0c0.1,0,0.2,0.1,0.3,0.2c0.2,0.1,0.3,0.3,0.3,0.5l0,0l0,0
				C323.6,206,323.5,206.1,323.5,206.1L323.5,206.1 M323.9,206.1L323.9,206.1l-0.5,0.8l0,0c0-0.1-0.1-0.1-0.2-0.2
				C323.4,206.5,323.8,206.1,323.9,206.1 M324,206.7c-0.1,0.2-0.3,0.5-0.4,0.7c0-0.1,0-0.2-0.1-0.3l0.5-0.9l0,0.1c0,0,0,0.1,0,0.1
				C324,206.5,324,206.6,324,206.7 M323.9,207.7c-0.3,0.4-0.6,0.9-0.7,1.2c0-0.1-0.1-0.2-0.1-0.3l0,0c0.2-0.7,0.5-0.8,0.6-0.8
				C323.8,207.7,323.8,207.7,323.9,207.7 M324,208.1c-0.1,0.3-0.3,0.6-0.3,0.7c-0.1,0-0.2,0.1-0.4,0.3l0-0.1
				c0.1-0.2,0.4-0.9,0.8-1.3l0,0l0,0.1C324,207.9,324,208,324,208.1 M323.9,209L323.9,209c-0.2,0.3-0.7,1.1-0.8,1.3l-0.1,0
				c0-0.1,0.1-0.4,0.2-0.7C323.5,208.9,323.8,209,323.9,209L323.9,209L323.9,209z M323.2,210.3L323.2,210.3c0.1-0.2,0.5-1,0.8-1.3
				c0,0,0,0.1,0,0.1l0,0.1c0,0,0,0.1,0,0.2c0,0.1,0,0.3-0.1,0.5C323.7,210.2,323.3,210.3,323.2,210.3 M323.6,210.9
				c0,0,0,0.1-0.1,0.1c-0.2-0.2-0.6-0.6-0.9-0.8l0.2,0C323.3,210.4,323.5,210.9,323.6,210.9 M323.8,210.8c0.1,0.5,0.1,1.2,0.1,1.4
				c-0.1,0-0.1,0-0.2,0c0,0-0.1-0.1-0.1-0.5l0,0C323.5,211.3,323.7,211,323.8,210.8 M324.2,212.3c0,0-0.1,0-0.1-0.1
				c0-0.2,0-0.8-0.1-1.4c0.1,0.1,0.3,0.3,0.3,0.7c0,0,0,0.1,0,0.1C324.2,211.8,324.2,212.1,324.2,212.3 M325.4,213.3
				c0,0-0.1,0-0.1,0h-0.1c0-0.2-0.1-0.9-0.3-1.4c0.1,0,0.2,0.1,0.3,0.3c0.1,0.2,0.2,0.5,0.2,0.8
				C325.4,213.1,325.4,213.3,325.4,213.3 M326.1,213.9c-0.2,0-0.8,0-1.5-0.2c0.1-0.1,0.2-0.2,0.7-0.2
				C325.8,213.5,326,213.7,326.1,213.9 M326.4,212.7L326.4,212.7L326.4,212.7z M327.1,213.9c0,0.1,0,0.3-0.1,0.3
				c-0.1-0.3-0.4-0.9-0.6-1.3l0,0c0.1,0.1,0.4,0.3,0.5,0.7C327.1,213.7,327.1,213.8,327.1,213.9 M326.4,214L326.4,214L326.4,214
				L326.4,214c-0.1-0.2-0.1-0.3-0.1-0.3c0-0.1-0.1-0.3-0.1-0.4c0-0.3,0.1-0.4,0.1-0.4c0.1,0.5,0.5,1.2,0.6,1.5l0,0l0,0
				C326.7,214.4,326.5,214.2,326.4,214 M324.7,213.9L324.7,213.9c0.6,0.1,1.2,0.2,1.4,0.2c-0.2,0.1-0.4,0.1-0.7,0.1
				C325.1,214.1,324.8,214.1,324.7,213.9 M325,213.3L325,213.3c-0.1-0.1-0.1-0.1-0.2-0.3c-0.1-0.1-0.1-0.3-0.1-0.4
				c0-0.3,0.1-0.5,0.2-0.6l0,0l0,0c0.2,0.5,0.3,1.2,0.3,1.4C325.1,213.3,325,213.3,325,213.3 M323,212.6c0.7,0.3,1.3,0.4,1.5,0.4
				l0,0.1c-0.2,0.1-0.5,0.1-0.8,0.1C323.4,213,323.2,212.9,323,212.6L323,212.6 M323.2,212.4c0.4-0.1,0.7-0.1,1,0l0.1,0.1l0,0
				c0.1,0.1,0.2,0.2,0.2,0.2l0,0c0,0.1,0,0.1,0,0.2c-0.2,0-0.8-0.1-1.5-0.4C323.1,212.4,323.1,212.4,323.2,212.4 M322.5,210.4
				L322.5,210.4l0-0.1c0.3,0.2,0.8,0.7,1,0.9l0,0.1c-0.1,0-0.2,0-0.4-0.1C322.5,210.8,322.5,210.6,322.5,210.4L322.5,210.4"/>
		</g>
		<g>
			<polyline class="st3" points="331.9,215.3 331.8,215.9 331.9,215.9 332,215.3 331.9,215.3 			"/>
		</g>
		<g>
			<polyline class="st3" points="328.1,215.3 328,215.3 328,215.8 328.2,215.8 328.1,215.3 			"/>
		</g>
		<g>
			<path class="st3" d="M335.5,201.4h1.1l-3.3-1.8l0,0l0,0l-2.7-1.5l-0.4-0.2l1.2-0.7h-2.9l1.2,0.7l-6.3,3.5h1.1l0,0
				c3,3.9,2.6,6.4,2.5,6.9h-0.7l-0.5,1.5l8.2,0l-0.4-1.5H333C332.9,207.9,332.5,205.3,335.5,201.4L335.5,201.4 M334.9,201.2l0.3-0.3
				l0.5,0.3H334.9z M334.6,200.8c0,0-0.1,0-0.1,0l-0.4,0.3h-0.2l0.7-0.6l0.4,0.2l-0.4,0.4h-0.2l0.2-0.2
				C334.6,200.9,334.7,200.9,334.6,200.8 M333.6,200.8c0,0-0.1,0-0.1,0l-0.4,0.3h-0.2l0.7-0.6l0,0h0.7l-0.7,0.6h-0.2l0.2-0.2
				C333.6,200.9,333.6,200.9,333.6,200.8 M332.6,200.8c0,0-0.1,0-0.1,0l-0.4,0.3h-0.2l0.7-0.6l0,0h0.7l-0.7,0.6h-0.2l0.2-0.2
				C332.6,200.9,332.6,200.9,332.6,200.8 M331.6,200.8c0,0-0.1,0-0.1,0l-0.4,0.3h-0.2l0.7-0.6l0,0h0.7l-0.7,0.6h-0.2l0.2-0.2
				C331.6,200.9,331.6,200.9,331.6,200.8 M330.6,200.8c0,0-0.1,0-0.1,0l-0.4,0.3h-0.1l0.7-0.6l0,0h0.7l-0.7,0.6h-0.3l0.2-0.2
				C330.6,200.9,330.6,200.9,330.6,200.8 M329.6,200.8c0,0-0.1,0-0.1,0l-0.4,0.3h-0.2l0.7-0.6l0,0h0.7l-0.7,0.6h-0.2l0.2-0.2
				C329.7,200.9,329.7,200.9,329.6,200.8 M328.6,200.8c0,0-0.1,0-0.1,0l-0.4,0.3h-0.2l0.7-0.6l0,0h0.7l-0.7,0.6h-0.2l0.2-0.2
				C328.7,200.9,328.7,200.9,328.6,200.8 M327.6,200.8c0,0-0.1,0-0.1,0l-0.4,0.3h-0.2l0.7-0.6l0,0h0.7l-0.7,0.6h-0.2l0.2-0.2
				C327.7,200.9,327.7,200.9,327.6,200.8 M326.6,200.8c0,0-0.1,0-0.1,0l-0.4,0.3h-0.2l0.7-0.6l0,0h0.7l-0.7,0.6h-0.2l0.2-0.2
				C326.7,200.9,326.7,200.9,326.6,200.8 M330.9,198.5l-0.2,0.2h-0.2l0.3-0.3L330.9,198.5z M331.2,198.7h-0.3l0.1-0.1L331.2,198.7z
				 M332.3,199.3l-0.3,0.2h-0.2l0.2-0.2c0,0,0-0.1,0-0.1c0,0-0.1,0-0.1,0l-0.4,0.3h-0.2l0.5-0.5L332.3,199.3z M332.7,199.5h-0.3
				l0.1-0.1L332.7,199.5z M333.6,200l-0.3,0.3H333l0.4-0.4L333.6,200z M333.9,200.2l-0.2,0.1h-0.2l0.2-0.2L333.9,200.2z
				 M334.1,200.3L334.1,200.3L334.1,200.3L334.1,200.3z M332.7,200.3h-0.2l0.2-0.2c0,0,0-0.1,0-0.1c0,0-0.1,0-0.1,0l-0.4,0.3H332
				l0.6-0.6h0.4l0.1,0.1L332.7,200.3z M331.5,200.3l0.2-0.2c0,0,0-0.1,0-0.1c0,0-0.1,0-0.1,0l-0.4,0.3H331l0.6-0.6h0.7l-0.6,0.6
				H331.5z M330.5,200.3l0.2-0.2c0,0,0-0.1,0-0.1c0,0-0.1,0-0.1,0l-0.4,0.3H330l0.6-0.6h0.7l-0.6,0.6H330.5z M329.5,200.3l0.2-0.2
				c0,0,0-0.1,0-0.1c0,0-0.1,0-0.1,0l-0.4,0.3H329l0.6-0.6h0.7l-0.6,0.6H329.5z M328.5,200.3l0.2-0.2c0,0,0-0.1,0-0.1
				c0,0-0.1,0-0.1,0l-0.4,0.3H328l0.6-0.6h0.7l-0.6,0.6H328.5z M327.5,200.3l0.2-0.2c0,0,0-0.1,0-0.1c0,0-0.1,0-0.1,0l-0.4,0.3H327
				l0.6-0.6h0.7l-0.6,0.6H327.5z M329.7,198.9l-0.6,0.6h-0.2l0.2-0.2c0,0,0-0.1,0-0.1c0,0-0.1,0-0.1,0l-0.3,0.3l0,0l0,0h-0.2
				l0.6-0.6L329.7,198.9L329.7,198.9z M330.7,198.9l-0.6,0.6h-0.2l0.2-0.2c0,0,0-0.1,0-0.1c0,0-0.1,0-0.1,0l-0.4,0.3h-0.2l0.6-0.6
				H330.7z M331.6,199l-0.6,0.6h-0.2l0.2-0.2c0,0,0-0.1,0-0.1c0,0-0.1,0-0.1,0l-0.4,0.3h-0.2l0.6-0.6L331.6,199L331.6,199z
				 M330.6,198.3l-0.4,0.4h-0.2l0.2-0.2c0,0,0-0.1,0-0.1c0,0-0.1,0-0.1,0l-0.4,0.3h-0.2l0.4-0.4L330.6,198.3L330.6,198.3z
				 M329.2,198.7h-0.2l0.6-0.3L329.2,198.7z M328.7,198.9l-0.6,0.6h-0.3l0.2-0.2c0,0,0-0.1,0-0.1l0.5-0.3
				C328.5,198.9,328.7,198.9,328.7,198.9z M327.5,199.5L327.5,199.5L327.5,199.5L327.5,199.5z M327.3,199.7l-0.6,0.6h-0.2l0.2-0.2
				c0,0,0-0.1,0-0.1l0,0l0.4-0.2L327.3,199.7L327.3,199.7z M326.2,200.3h-0.2l0.5-0.3L326.2,200.3z M329.5,197.5h1.1
				c-0.3,0.1-0.5,0.3-0.6,0.3C330,197.7,329.8,197.6,329.5,197.5 M324.5,201.2l1.2-0.6h0.6l-0.7,0.6h-0.3l0.2-0.2c0,0,0-0.1,0-0.1
				c0,0-0.1,0-0.1,0l-0.4,0.3H324.5z M334.4,202.6c-0.2,0.3-0.4,0.6-0.5,0.9h-7.5c-0.2-0.3-0.3-0.6-0.5-0.9
				C325.8,202.6,334.4,202.6,334.4,202.6z M332.8,208.3h-5.4c0-0.2,0.1-0.4,0.1-0.8h5.2C332.7,207.9,332.7,208.2,332.8,208.3
				 M332.7,207.2h-5.2c0-0.3,0-0.6-0.1-0.9h5.5C332.7,206.6,332.7,207,332.7,207.2 M327.3,206c-0.1-0.3-0.1-0.5-0.2-0.8h6.1
				c-0.1,0.3-0.2,0.6-0.2,0.8H327.3z M327,204.9c-0.1-0.3-0.3-0.7-0.5-1.1h7.2c-0.2,0.4-0.4,0.8-0.5,1.1H327z M333.5,208.6
				c0,0.1,0.2,0.8,0.3,1c-0.3,0-7.2,0-7.5,0c0.1-0.2,0.3-0.8,0.3-1H333.5 M334.5,202.4h-8.9c-0.2-0.3-0.4-0.6-0.7-0.9h10.2
				C335,201.8,334.7,202.1,334.5,202.4"/>
		</g>
	</g>
</g>
</svg>
