<?xml version="1.0" encoding="utf-8"?>
<!-- Generator: Adobe Illustrator 26.0.1, SVG Export Plug-In . SVG Version: 6.00 Build 0)  -->
<svg version="1.1" id="Layer_1" xmlns="http://www.w3.org/2000/svg" xmlns:xlink="http://www.w3.org/1999/xlink" x="0px" y="0px"
	 viewBox="0 0 500 500" style="enable-background:new 0 0 500 500;" xml:space="preserve">
<style type="text/css">
	.st0{display:none;}
	.st1{fill:#E4F1FF;}
	.st2{fill:none;stroke:#1C004F;stroke-width:0.5;stroke-linecap:round;stroke-miterlimit:10;}
	.st3{fill:#9FCCFB;}
	.st4{fill:none;stroke:#FFFFFF;stroke-width:0.5;stroke-miterlimit:10;}
	.st5{fill:#1C004F;}
	.st6{fill:#FFFFFF;}
	.st7{fill:#B4D8F9;}
	.st8{fill:#71B7E2;}
	.st9{fill:#FF725E;}
	.st10{fill:#8CC2F2;}
	.st11{fill:#8EC3F4;}
	.st12{fill:#4E6CFC;}
	.st13{opacity:0.35;fill:#9FCCFB;enable-background:new    ;}
	.st14{fill:#93C9F9;}
	
		.st15{clip-path:url(#SVGID_00000059309543295600668120000005837131361915615165_);fill:none;stroke:#8EC3F4;stroke-width:0.5;stroke-linecap:round;stroke-miterlimit:10;}
	
		.st16{clip-path:url(#SVGID_00000150077283030565565980000003768045878641950869_);fill:none;stroke:#8EC3F4;stroke-width:0.5;stroke-miterlimit:10;}
	
		.st17{clip-path:url(#SVGID_00000103956621038775227660000004211736612184360321_);fill:none;stroke:#8EC3F4;stroke-width:0.5;stroke-linecap:round;stroke-miterlimit:10;}
	
		.st18{clip-path:url(#SVGID_00000153699988783757778960000007451421318940711838_);fill:none;stroke:#8EC3F4;stroke-width:0.5;stroke-miterlimit:10;}
	.st19{fill:none;stroke:#1A2E9D;stroke-width:0.5;stroke-linecap:round;stroke-miterlimit:10;}
	.st20{fill:#21212A;}
	.st21{opacity:0.35;}
	.st22{fill:none;stroke:#4E6CFC;stroke-width:1.5236;stroke-linecap:round;stroke-miterlimit:10;}
	.st23{fill:#DE001D;}
	.st24{fill:none;stroke:#B70825;stroke-width:0.5;stroke-linecap:round;stroke-miterlimit:10;}
	.st25{fill:#F7C2A0;}
	.st26{fill:#E8977B;}
	.st27{fill:#556BFF;}
	.st28{fill:none;stroke:#3B6295;stroke-width:0.5;stroke-linecap:round;stroke-miterlimit:10;}
	.st29{fill:#FFFEFC;}
	.st30{fill:none;stroke:#F18884;stroke-width:0.5;stroke-linecap:round;stroke-miterlimit:10;}
	.st31{fill:none;stroke:#FFFFFF;stroke-width:0.5;stroke-linecap:round;stroke-miterlimit:10;}
	.st32{fill:none;stroke:#315782;stroke-width:0.5;stroke-linecap:round;stroke-miterlimit:10;}
	.st33{opacity:0.7;enable-background:new    ;}
</style>
<g id="BACKGROUND" class="st0">
</g>
<g id="OBJECTS">
	<g>
		<path class="st1" d="M282.7,381H148.2c-36.2,0-68.8-23.7-80.4-59.2c-0.3-0.8-0.5-1.6-0.8-2.4c-10-32.6-15.4-70.4,17.9-121
			c33.4-50.6,10.5-98,53.4-115.3s77.7,4.3,126.5-16.7s146.5-19.7,152.5,65.4s-17.9,81.4-8.3,109.8C418.5,270,450.6,388.4,282.7,381z
			"/>
		<ellipse class="st1" cx="157" cy="428.5" rx="90.5" ry="24.2"/>
	</g>
	<line class="st2" x1="65.4" y1="380.9" x2="433.9" y2="380.9"/>
	<g>
		<path class="st3" d="M114.8,437.7l75.3,0.1c2.4,0,4.4-2,4.4-4.4l0.1-74.5l-79.7-0.1L114.8,437.7z"/>
		<path class="st3" d="M114.9,358.8l79.7,0.1l-25.1-20c-1.7-1.4-3.9-2.1-6.1-2.1l-66.7-0.1c-1.7,0-2.5,2-1.3,3.1L114.9,358.8z"/>
		<path class="st3" d="M92.5,411.6l-0.2-68.5c0-5.2,3.4-6.1,3.4-6.1l-0.6,1.3c-0.3,0.7,0.3,1.4,0.9,1.9l19,18.6l-0.1,78.9L95,417.6
			C93.4,416,92.5,413.9,92.5,411.6z"/>
		<path class="st4" d="M137.1,358.8h-18.9c-1.8,0-3.3,1.5-3.3,3.3V382"/>
		<line class="st4" x1="114.9" y1="394.6" x2="114.8" y2="434.4"/>
		<line class="st4" x1="103.2" y1="347.4" x2="114.8" y2="358.8"/>
		<path class="st4" d="M95.6,337l-0.6,1.3c-0.3,0.7,0.3,1.4,0.9,1.9l5.3,5.2"/>
	</g>
	<g>
		<path class="st5" d="M301.2,381.3H196.7c-9.4,0-16.9-7.6-16.9-16.9V134.9c0-9.4,7.6-16.9,16.9-16.9h104.6
			c9.4,0,16.9,7.6,16.9,16.9v229.4C318.2,373.7,310.6,381.3,301.2,381.3z"/>
		<path class="st6" d="M302.2,374.8H195.7c-5.5,0-9.9-4.5-9.9-9.9V134.5c0-5.5,4.5-9.9,9.9-9.9h106.6c5.5,0,9.9,4.5,9.9,9.9v230.4
			C312.2,370.3,307.7,374.8,302.2,374.8z"/>
		<path class="st5" d="M270,139.6h-42.1c-5.2,0-9.4-4.2-9.4-9.4v-8.4c0-0.3,0.2-0.5,0.5-0.5h60.4v8.9
			C279.4,135.4,275.2,139.6,270,139.6z"/>
	</g>
	<g>
		<g>
			<g>
				<g>
					<g>
						<g>
							<g>
								<path class="st7" d="M217.2,109.5c0.1,16.6-13.3,30.2-29.9,30.3s-30.2-13.3-30.3-29.9s13.3-30.2,29.9-30.3
									C203.5,79.4,217.1,92.8,217.2,109.5z"/>
							</g>
						</g>
					</g>
				</g>
				<g>
					<g>
						<g>
							<g>
								<path class="st8" d="M209.5,109c0.1,12.6-10.1,22.9-22.8,23c-12.6,0.1-22.9-10.1-23-22.8c-0.1-12.6,10.1-22.9,22.8-23
									C199.1,86.2,209.4,96.4,209.5,109z"/>
							</g>
						</g>
					</g>
				</g>
				<g>
					<g>
						<g>
							<g>
								<path class="st9" d="M210.1,110c0.1,12.5-10,22.6-22.5,22.7c-12.5,0.1-22.6-10-22.7-22.5c-0.1-12.5,10-22.6,22.5-22.7
									C199.9,87.5,210,97.5,210.1,110z"/>
							</g>
						</g>
					</g>
				</g>
				<g>
					<g>
						<g>
							<g>
								<path class="st10" d="M210.1,110c0.1,12.5-10,22.6-22.5,22.7c-12.5,0.1-22.6-10-22.7-22.5c-0.1-12.5,10-22.6,22.5-22.7
									C199.9,87.5,210,97.5,210.1,110z"/>
							</g>
						</g>
					</g>
				</g>
				<g>
					<g>
						<g>
							<g>
								<g>
									<g>
										<path class="st8" d="M188.4,108.1v-5.8l0,0c1,0.1,2,0.4,3.1,0.8c0.9,0.4,1.4,0.9,1.4,0.9l0.1-0.2l0.9-2.1l0.2-0.5l-1-1.1
											l-0.5,0.2c-1.3-0.6-2.7-1.1-4.2-1.2v-3.2l-1-0.8v0.8H186v3.2c-4.5,0.5-6.6,3-6.6,5.9c0,4,3.4,5,6.6,5.7v5.7
											c-2.2-0.2-4.3-1-5.7-2.1l-1.3,2.9c1.5,1.3,4.2,2.2,7,2.3v2.4h-1.1l1.1,0.8h2.3v-3.2c4.5-0.5,6.6-3,6.6-5.9
											C195.1,109.9,191.6,108.9,188.4,108.1z M186.1,107.6c-1.7-0.5-2.9-1.1-2.9-2.5c0-1.3,0.8-2.3,2.9-2.6V107.6z M188.4,102.4
											L188.4,102.4L188.4,102.4L188.4,102.4z M188.5,116.7v-5.1c1.7,0.5,3,1.1,3,2.5C191.4,115.4,190.6,116.3,188.5,116.7z"/>
									</g>
								</g>
							</g>
						</g>
					</g>
				</g>
				<g>
					<g>
						<g>
							<g>
								<g>
									<path class="st6" d="M187.5,119v3.2h-2.3V119c-2.8-0.2-5.5-1.1-7-2.3l1.3-2.9c1.4,1.1,3.6,2,5.7,2.1v-5.7
										c-3.2-0.8-6.6-1.8-6.6-5.7c0-2.9,2.1-5.5,6.6-5.9v-3.2h2.3v3.2c2.1,0.1,4.3,0.7,5.8,1.7l-1.2,2.9c-1.5-0.9-3.1-1.4-4.6-1.5
										v5.8c3.2,0.8,6.7,1.7,6.7,5.7C194.1,116,192,118.5,187.5,119z M185.1,106.8v-5.1c-2,0.3-2.9,1.4-2.9,2.6
										C182.2,105.7,183.4,106.3,185.1,106.8z M190.5,113.4c0-1.4-1.3-2.1-3-2.5v5.1C189.6,115.6,190.5,114.6,190.5,113.4z"/>
								</g>
							</g>
						</g>
					</g>
				</g>
			</g>
			<g>
				<g>
					<g>
						<g>
							<g>
								<path class="st7" d="M268.7,81.5c0.1,10.5-8.4,19.1-19,19.2c-10.5,0.1-19.1-8.4-19.2-19c-0.1-10.5,8.4-19.1,19-19.2
									C260,62.5,268.6,71,268.7,81.5z"/>
							</g>
						</g>
					</g>
				</g>
				<g>
					<g>
						<g>
							<g>
								
									<ellipse transform="matrix(8.894903e-03 -1 1 8.894903e-03 165.7898 329.8644)" class="st8" cx="249.3" cy="81.3" rx="14.5" ry="14.5"/>
							</g>
						</g>
					</g>
				</g>
				<g>
					<g>
						<g>
							<g>
								<path class="st9" d="M264.2,81.9c0,7.9-6.3,14.3-14.2,14.4c-7.9,0-14.3-6.3-14.4-14.2c0-7.9,6.3-14.3,14.2-14.4
									C257.7,67.6,264.1,74,264.2,81.9z"/>
							</g>
						</g>
					</g>
				</g>
				<g>
					<g>
						<g>
							<g>
								<path class="st10" d="M264.2,81.9c0,7.9-6.3,14.3-14.2,14.4c-7.9,0-14.3-6.3-14.4-14.2c0-7.9,6.3-14.3,14.2-14.4
									C257.7,67.6,264.1,74,264.2,81.9z"/>
							</g>
						</g>
					</g>
				</g>
				<g>
					<path class="st11" d="M256.9,87.4c0,0.8-0.1,1.6-0.4,2.3s-0.6,1.3-1.1,1.8s-1.1,0.9-1.8,1.2c-0.7,0.3-1.5,0.4-2.4,0.4
						c-0.1,0-0.3,0-0.5-0.1s-0.5-0.2-0.8-0.4c-0.3-0.2-0.6-0.4-0.9-0.7c-0.3-0.3-0.6-0.7-0.8-1.1s-0.5-1-0.6-1.6
						c-0.2-0.6-0.2-1.3-0.2-2.1v-5.7h-3.5V80h3.5v-4.1h-0.1c-0.2,0.1-0.4,0.2-0.6,0.2c-0.1,0-0.3,0-0.4-0.1
						c-0.1-0.1-0.3-0.1-0.4-0.2c-0.1-0.1-0.2-0.2-0.3-0.4c-0.1-0.1-0.1-0.3-0.1-0.5s0-0.3,0.1-0.5s0.2-0.3,0.3-0.5
						c0.1-0.1,0.3-0.3,0.5-0.4s0.4-0.1,0.7-0.1c0.4,0,0.7,0.1,0.9,0.3c0.2,0.2,0.4,0.4,0.6,0.7c0.2,0.3,0.3,0.6,0.3,1
						c0.1,0.4,0.1,0.7,0.1,1.1V80h9.5v1.5H249v5.7c0,0.5,0,1,0.1,1.4s0.2,0.8,0.4,1.1c0.1,0.3,0.3,0.6,0.5,0.8
						c0.2,0.2,0.4,0.4,0.5,0.6c0.2,0.1,0.3,0.3,0.5,0.3c0.1,0.1,0.3,0.1,0.3,0.1c0.4,0,0.9-0.1,1.3-0.3c0.5-0.2,0.9-0.5,1.2-0.8
						c0.4-0.3,0.7-0.8,0.9-1.3s0.4-1,0.4-1.6c0-0.3,0-0.6-0.1-0.9s-0.2-0.6-0.3-0.9c-0.1,0.2-0.3,0.4-0.5,0.5
						c-0.2,0.2-0.4,0.3-0.6,0.4c-0.2,0.1-0.4,0.2-0.6,0.2c-0.2,0.1-0.4,0.1-0.6,0.1c-0.2,0-0.4,0-0.6-0.1c-0.2-0.1-0.3-0.2-0.4-0.3
						c-0.1-0.1-0.2-0.3-0.3-0.5s-0.1-0.3-0.1-0.5c0-0.3,0.1-0.6,0.2-0.9c0.1-0.3,0.3-0.5,0.6-0.7c0.2-0.2,0.5-0.3,0.8-0.4
						s0.6-0.2,0.9-0.2c0.5,0,1,0.1,1.4,0.3c0.4,0.2,0.7,0.5,1,0.9s0.5,0.8,0.6,1.3C256.8,86.4,256.9,86.9,256.9,87.4z"/>
				</g>
				<g>
					<path class="st6" d="M255.3,85.8c0,0.8-0.1,1.5-0.4,2.1c-0.2,0.7-0.6,1.2-1,1.7c-0.5,0.5-1,0.9-1.7,1.1
						c-0.7,0.3-1.4,0.4-2.2,0.4c-0.1,0-0.2,0-0.5-0.1c-0.2-0.1-0.4-0.2-0.7-0.4c-0.3-0.2-0.5-0.4-0.8-0.7c-0.3-0.3-0.5-0.6-0.8-1
						c-0.2-0.4-0.4-0.9-0.6-1.5c-0.1-0.6-0.2-1.2-0.2-2v-5.3h-3.3v-1.4h3.3V75h-0.1c-0.2,0.1-0.3,0.2-0.5,0.2c-0.1,0-0.3,0-0.4-0.1
						c-0.1-0.1-0.2-0.1-0.3-0.2s-0.2-0.2-0.2-0.3c-0.1-0.1-0.1-0.3-0.1-0.4s0-0.3,0.1-0.5s0.2-0.3,0.3-0.4s0.3-0.2,0.5-0.3
						c0.2-0.1,0.4-0.1,0.6-0.1c0.3,0,0.6,0.1,0.8,0.3c0.2,0.2,0.4,0.4,0.6,0.7c0.1,0.3,0.2,0.6,0.3,0.9s0.1,0.7,0.1,1v3.3h8.8v1.4
						h-8.8v5.3c0,0.5,0,1,0.1,1.3c0.1,0.4,0.2,0.7,0.3,1s0.3,0.6,0.5,0.8c0.2,0.2,0.3,0.4,0.5,0.5s0.3,0.2,0.4,0.3
						c0.1,0.1,0.2,0.1,0.3,0.1c0.4,0,0.8-0.1,1.2-0.3c0.4-0.2,0.8-0.4,1.1-0.8c0.3-0.3,0.6-0.7,0.8-1.2s0.3-1,0.3-1.5
						c0-0.3,0-0.5-0.1-0.8s-0.2-0.6-0.3-0.9c-0.1,0.2-0.3,0.4-0.5,0.5s-0.3,0.3-0.5,0.4s-0.4,0.2-0.6,0.2c-0.2,0-0.4,0.1-0.5,0.1
						c-0.2,0-0.4,0-0.6-0.1c-0.2-0.1-0.3-0.2-0.4-0.3c-0.1-0.1-0.2-0.3-0.2-0.4c-0.1-0.2-0.1-0.3-0.1-0.5c0-0.3,0.1-0.6,0.2-0.9
						c0.1-0.3,0.3-0.5,0.5-0.6c0.2-0.2,0.5-0.3,0.7-0.4c0.3-0.1,0.5-0.1,0.8-0.1c0.5,0,0.9,0.1,1.3,0.3c0.4,0.2,0.7,0.5,0.9,0.9
						s0.4,0.8,0.6,1.2C255.3,84.9,255.3,85.3,255.3,85.8z"/>
				</g>
			</g>
		</g>
		<g>
			<path class="st3" d="M390.6,267.2h45.9c2.2,0,4.1-1.8,4.1-4.1v-47.4c0-2.2-1.8-4.1-4.1-4.1h-45.9c-2.2,0-4.1,1.8-4.1,4.1v47.4
				C386.6,265.4,388.4,267.2,390.6,267.2z"/>
			<path class="st12" d="M436.5,211.7h-45.9c-2.2,0-4.1,1.8-4.1,4.1v11.9h54v-11.9C440.6,213.5,438.8,211.7,436.5,211.7z"/>
			<path class="st1" d="M425.7,241.6h7.2c0.4,0,0.8-0.4,0.8-0.8v-7.2c0-0.4-0.4-0.8-0.8-0.8h-7.2c-0.4,0-0.8,0.4-0.8,0.8v7.2
				C424.9,241.2,425.3,241.6,425.7,241.6z"/>
			<path class="st6" d="M415.4,241.6h7.2c0.4,0,0.8-0.4,0.8-0.8v-7.2c0-0.4-0.4-0.8-0.8-0.8h-7.2c-0.4,0-0.8,0.4-0.8,0.8v7.2
				C414.6,241.2,415,241.6,415.4,241.6z"/>
			<g>
				<path class="st11" d="M400.7,215.9c-1,0-1.8-0.8-1.8-1.8v-6.4c0-1,0.8-1.8,1.8-1.8s1.8,0.8,1.8,1.8v6.4
					C402.5,215,401.7,215.9,400.7,215.9z"/>
			</g>
			<g>
				<path class="st11" d="M409.8,215.9c-1,0-1.8-0.8-1.8-1.8v-6.4c0-1,0.8-1.8,1.8-1.8s1.8,0.8,1.8,1.8v6.4
					C411.6,215.1,410.8,215.9,409.8,215.9z"/>
			</g>
			<g>
				<path class="st11" d="M418.5,215.9c-1,0-1.8-0.8-1.8-1.8v-6.4c0-1,0.8-1.8,1.8-1.8s1.8,0.8,1.8,1.8v6.4
					C420.3,215.1,419.5,215.9,418.5,215.9z"/>
			</g>
			<path class="st1" d="M405,241.6h7.2c0.4,0,0.8-0.4,0.8-0.8v-7.2c0-0.4-0.4-0.8-0.8-0.8H405c-0.4,0-0.8,0.4-0.8,0.8v7.2
				C404.2,241.2,404.6,241.6,405,241.6z"/>
			<path class="st1" d="M394.7,241.6h7.2c0.4,0,0.8-0.4,0.8-0.8v-7.2c0-0.4-0.4-0.8-0.8-0.8h-7.2c-0.4,0-0.8,0.4-0.8,0.8v7.2
				C393.9,241.2,394.3,241.6,394.7,241.6z"/>
			<path class="st1" d="M425.7,251.3h7.2c0.4,0,0.8-0.4,0.8-0.8v-7.2c0-0.4-0.4-0.8-0.8-0.8h-7.2c-0.4,0-0.8,0.4-0.8,0.8v7.2
				C424.9,251,425.2,251.3,425.7,251.3z"/>
			<path class="st6" d="M415.3,251.3h7.2c0.4,0,0.8-0.4,0.8-0.8v-7.2c0-0.4-0.4-0.8-0.8-0.8h-7.2c-0.4,0-0.8,0.4-0.8,0.8v7.2
				C414.6,251,414.9,251.3,415.3,251.3z"/>
			<path class="st1" d="M405,251.3h7.2c0.4,0,0.8-0.4,0.8-0.8v-7.2c0-0.4-0.4-0.8-0.8-0.8H405c-0.4,0-0.8,0.4-0.8,0.8v7.2
				C404.2,251,404.5,251.3,405,251.3z"/>
			<path class="st1" d="M394.6,251.3h7.2c0.4,0,0.8-0.4,0.8-0.8v-7.2c0-0.4-0.4-0.8-0.8-0.8h-7.2c-0.4,0-0.8,0.4-0.8,0.8v7.2
				C393.9,251,394.2,251.3,394.6,251.3z"/>
			<path class="st1" d="M425.6,261.2h7.2c0.4,0,0.8-0.4,0.8-0.8v-7.2c0-0.4-0.4-0.8-0.8-0.8h-7.2c-0.4,0-0.8,0.4-0.8,0.8v7.2
				C424.8,260.9,425.1,261.2,425.6,261.2z"/>
			<path class="st6" d="M415.3,261.2h7.2c0.4,0,0.8-0.4,0.8-0.8v-7.2c0-0.4-0.4-0.8-0.8-0.8h-7.2c-0.4,0-0.8,0.4-0.8,0.8v7.2
				C414.5,260.9,414.8,261.2,415.3,261.2z"/>
			<path class="st1" d="M404.9,261.2h7.2c0.4,0,0.8-0.4,0.8-0.8v-7.2c0-0.4-0.4-0.8-0.8-0.8h-7.2c-0.4,0-0.8,0.4-0.8,0.8v7.2
				C404.1,260.9,404.4,261.2,404.9,261.2z"/>
			<path class="st1" d="M394.6,261.2h7.2c0.4,0,0.8-0.4,0.8-0.8v-7.2c0-0.4-0.4-0.8-0.8-0.8h-7.2c-0.4,0-0.8,0.4-0.8,0.8v7.2
				C393.8,260.9,394.1,261.2,394.6,261.2z"/>
			<g>
				<path class="st11" d="M427.3,215.9c-1,0-1.8-0.8-1.8-1.8v-6.4c0-1,0.8-1.8,1.8-1.8s1.8,0.8,1.8,1.8v6.4
					C429.1,215.1,428.3,215.9,427.3,215.9z"/>
			</g>
		</g>
		<g>
			<path class="st13" d="M350.8,172.5H219c-4.3,0-7.7,3.5-7.7,7.7v1.2v67.3c0,4.3,3.5,7.7,7.7,7.7h131.7c4.3,0,7.7-3.5,7.7-7.7
				v-12.2v-56.4C358.5,176,355,172.5,350.8,172.5z"/>
			<g>
				<path class="st3" d="M347.3,253.9H215.6c-4.3,0-7.7-3.5-7.7-7.7v-68.6c0-4.3,3.5-7.7,7.7-7.7h131.7c4.3,0,7.7,3.5,7.7,7.7v68.6
					C355.1,250.4,351.6,253.9,347.3,253.9z"/>
				<path class="st11" d="M355.1,177.6c0-4.3-3.5-7.7-7.7-7.7H215.6c-4.3,0-7.7,3.5-7.7,7.7v1.2c16.1,0.7,47.4,6,69.2,34
					c25.1,32.2,58.8,29.1,78.1,21.2v-56.4H355.1z"/>
				<g>
					<path class="st14" d="M276.4,243.6l39.1,8.3c0,0-39.9-25-39.1-82V243.6z"/>
					<path class="st11" d="M276.4,243.6l-25.3,3.1c0,0,25.3-27.3,25.3-46L276.4,243.6z"/>
				</g>
				<path class="st6" d="M241.3,216.7h-18.4c-1.6,0-2.9-1.3-2.9-2.9v-9.6c0-1.6,1.3-2.9,2.9-2.9h18.4c1.6,0,2.9,1.3,2.9,2.9v9.6
					C244.3,215.3,242.9,216.7,241.3,216.7z"/>
				<path class="st5" d="M343,184.8h-26.6c-0.7,0-1.2-0.5-1.2-1.2v-5.1c0-0.7,0.5-1.2,1.2-1.2H343c0.7,0,1.2,0.5,1.2,1.2v5.1
					C344.2,184.3,343.6,184.8,343,184.8z"/>
				<path class="st6" d="M244.5,229.8h-22.8c-1.4,0-2.6-1.2-2.6-2.6l0,0c0-1.4,1.2-2.6,2.6-2.6h22.8c1.4,0,2.6,1.2,2.6,2.6l0,0
					C247,228.6,245.9,229.8,244.5,229.8z"/>
				<path class="st6" d="M276.7,229.8h-22.8c-1.4,0-2.6-1.2-2.6-2.6l0,0c0-1.4,1.2-2.6,2.6-2.6h22.8c1.4,0,2.6,1.2,2.6,2.6l0,0
					C279.3,228.6,278.1,229.8,276.7,229.8z"/>
				<path class="st6" d="M309.2,229.8h-22.8c-1.4,0-2.6-1.2-2.6-2.6l0,0c0-1.4,1.2-2.6,2.6-2.6h22.8c1.4,0,2.6,1.2,2.6,2.6l0,0
					C311.8,228.6,310.6,229.8,309.2,229.8z"/>
				<path class="st6" d="M341.5,229.8h-22.8c-1.4,0-2.6-1.2-2.6-2.6l0,0c0-1.4,1.2-2.6,2.6-2.6h22.8c1.4,0,2.6,1.2,2.6,2.6l0,0
					C344.1,228.6,342.9,229.8,341.5,229.8z"/>
				<path class="st5" d="M251.7,247.2H222c-0.9,0-1.6-0.7-1.6-1.6l0,0c0-0.9,0.7-1.6,1.6-1.6h29.6c0.9,0,1.6,0.7,1.6,1.6l0,0
					C253.2,246.5,252.5,247.2,251.7,247.2z"/>
				<path class="st5" d="M341.4,247.2h-14.6c-0.9,0-1.6-0.7-1.6-1.6l0,0c0-0.9,0.7-1.6,1.6-1.6h14.6c0.9,0,1.6,0.7,1.6,1.6l0,0
					C343,246.5,342.3,247.2,341.4,247.2z"/>
				<g>
					<g>
						<defs>
							<path id="SVGID_1_" d="M241.3,216.7h-18.4c-1.6,0-2.9-1.3-2.9-2.9v-9.6c0-1.6,1.3-2.9,2.9-2.9h18.4c1.6,0,2.9,1.3,2.9,2.9
								v9.6C244.3,215.3,242.9,216.7,241.3,216.7z"/>
						</defs>
						<clipPath id="SVGID_00000069366268573082091020000018200011834554678420_">
							<use xlink:href="#SVGID_1_"  style="overflow:visible;"/>
						</clipPath>
						
							<path style="clip-path:url(#SVGID_00000069366268573082091020000018200011834554678420_);fill:none;stroke:#8EC3F4;stroke-width:0.5;stroke-linecap:round;stroke-miterlimit:10;" d="
							M224.4,200.9c2.2,2.8,5.6,9-0.3,16.2"/>
					</g>
					<g>
						<defs>
							<path id="SVGID_00000068677276494553083590000015393143240506377635_" d="M241.3,216.7h-18.4c-1.6,0-2.9-1.3-2.9-2.9v-9.6
								c0-1.6,1.3-2.9,2.9-2.9h18.4c1.6,0,2.9,1.3,2.9,2.9v9.6C244.3,215.3,242.9,216.7,241.3,216.7z"/>
						</defs>
						<clipPath id="SVGID_00000039814561070524451790000001198417050623464858_">
							<use xlink:href="#SVGID_00000068677276494553083590000015393143240506377635_"  style="overflow:visible;"/>
						</clipPath>
						
							<line style="clip-path:url(#SVGID_00000039814561070524451790000001198417050623464858_);fill:none;stroke:#8EC3F4;stroke-width:0.5;stroke-miterlimit:10;" x1="218.4" y1="208.8" x2="227.3" y2="208.8"/>
					</g>
					<g>
						<defs>
							<path id="SVGID_00000078034512533192853400000007756436104735717017_" d="M241.3,216.7h-18.4c-1.6,0-2.9-1.3-2.9-2.9v-9.6
								c0-1.6,1.3-2.9,2.9-2.9h18.4c1.6,0,2.9,1.3,2.9,2.9v9.6C244.3,215.3,242.9,216.7,241.3,216.7z"/>
						</defs>
						<clipPath id="SVGID_00000142861332309709613770000013869891413239361937_">
							<use xlink:href="#SVGID_00000078034512533192853400000007756436104735717017_"  style="overflow:visible;"/>
						</clipPath>
						
							<path style="clip-path:url(#SVGID_00000142861332309709613770000013869891413239361937_);fill:none;stroke:#8EC3F4;stroke-width:0.5;stroke-linecap:round;stroke-miterlimit:10;" d="
							M239.2,200.9c-2.2,2.8-5.6,9,0.3,16.2"/>
					</g>
					<g>
						<defs>
							<path id="SVGID_00000175305600073762562640000015447902002723246252_" d="M241.3,216.7h-18.4c-1.6,0-2.9-1.3-2.9-2.9v-9.6
								c0-1.6,1.3-2.9,2.9-2.9h18.4c1.6,0,2.9,1.3,2.9,2.9v9.6C244.3,215.3,242.9,216.7,241.3,216.7z"/>
						</defs>
						<clipPath id="SVGID_00000025405167331434368370000010997063006711363460_">
							<use xlink:href="#SVGID_00000175305600073762562640000015447902002723246252_"  style="overflow:visible;"/>
						</clipPath>
						
							<line style="clip-path:url(#SVGID_00000025405167331434368370000010997063006711363460_);fill:none;stroke:#8EC3F4;stroke-width:0.5;stroke-miterlimit:10;" x1="245.2" y1="208.8" x2="236.2" y2="208.8"/>
					</g>
				</g>
			</g>
		</g>
		<g>
			<g>
				<path class="st6" d="M371.6,115.1c-6.6-6.9-7.1-9.3,3.2-19.5c10.3-10.1,8.7-24.1,8.7-24.1l-19.8-0.4l0,0h-0.6h-0.6l0,0
					l-19.8,0.4c0,0-1.6,14,8.7,24.1c10.3,10.1,9.8,12.6,3.2,19.5c-6.6,6.9-15.6,13.7-15.3,26.4h23.2h1.1h23.2
					C387.2,128.8,378.2,122.1,371.6,115.1z"/>
				<path class="st12" d="M387.3,145H339c-1.5,0-2.7-1.2-2.7-2.7l0,0c0-1.5,1.2-2.7,2.7-2.7h48.3c1.5,0,2.7,1.2,2.7,2.7l0,0
					C389.9,143.8,388.7,145,387.3,145z"/>
				<path class="st12" d="M387.3,73.7H339c-1.5,0-2.7-1.2-2.7-2.7l0,0c0-1.5,1.2-2.7,2.7-2.7h48.3c1.5,0,2.7,1.2,2.7,2.7l0,0
					C389.9,72.5,388.7,73.7,387.3,73.7z"/>
			</g>
			<path class="st3" d="M354,92h18.7c0.6,0,1,0.7,0.6,1.2l-8.5,9.6c-0.1,0.1-0.2,0.3-0.2,0.5v29.1c0,0.4,0.3,0.7,0.7,0.7h15.9
				c0.3,0,0.6,0.2,0.7,0.5l1.1,3.2c0.2,0.5-0.2,0.9-0.7,0.9H344c-0.5,0-0.8-0.4-0.7-0.9l0.9-3.2c0.1-0.3,0.4-0.5,0.7-0.5l16.4-0.1
				c0.4,0,0.7-0.3,0.7-0.7v-28.8c0-0.2-0.1-0.3-0.2-0.4l-8.5-9.8C353,92.7,353.3,92,354,92z"/>
		</g>
		<g>
			<g id="_x3C_Group_x3E__00000129189239097836037190000007050095679799202437_">
				<path id="_x3C_Path_x3E__00000127004766677986551730000003523047634743146890_" class="st12" d="M358.7,343.2
					c0,0,0.2-22,13.8-23.6c13.6-1.6,18.3,2.5,20.1,3.2c1.9,0.7-3,1.7-7.2,5.8c-4.1,4.1-4.1,9.1-13.5,10.8
					c-9.4,1.7-12.8,8.5-12.8,8.5L358.7,343.2z"/>
				<path id="_x3C_Path_x3E__00000111154163654685330060000017324678429827178412_" class="st19" d="M359.1,348
					c0,0,4.4-22.6,25.4-23.5"/>
			</g>
			<g id="_x3C_Group_x3E__00000057841454533619677480000010332105292027553204_">
				<path id="_x3C_Path_x3E__00000023249338477839663100000012025947548543048616_" class="st12" d="M359.8,335.4c0,0,2-19-9.5-21.7
					c-11.6-2.7-16,0.3-17.7,0.8s2.4,1.8,5.6,5.7c3.2,3.9,2.6,8.3,10.5,10.6c7.9,2.4,10.2,8.6,10.2,8.6L359.8,335.4z"/>
				<path id="_x3C_Path_x3E__00000169522446785322816250000014805843895233261489_" class="st19" d="M359,339.4
					c0,0-1.5-19.9-19.6-22.8"/>
			</g>
			<g>
				<g>
					<path class="st5" d="M361.1,292c0,0,0,0.1,0.1,0.2c0,0.2,0.1,0.4,0.1,0.6c0,0.3,0.1,0.6,0.2,1.1c0.1,0.4,0.1,0.9,0.2,1.4
						c0.2,2.2,0.4,5.4,0.2,9.3c-0.2,3.9-0.8,8.6-1.4,13.7c-0.7,5.1-1.2,10.8-1.3,16.8c-0.3,12,1.2,22.8,2.8,30.4
						c0.8,3.8,1.6,6.9,2.1,9c0.3,1,0.5,1.9,0.7,2.4c0.1,0.3,0.1,0.5,0.2,0.6c0,0.1,0.1,0.2,0,0.2c0,0-1.6-4.6-3.2-12.3
						c-1.6-7.7-3.1-18.5-2.9-30.5c0.1-6,0.7-11.7,1.3-16.8c0.7-5.1,1.3-9.8,1.5-13.7c0.2-3.9,0.1-7.1-0.1-9.3
						c-0.1-0.5-0.1-1-0.1-1.4c-0.1-0.4-0.1-0.8-0.2-1.1c0-0.3-0.1-0.5-0.1-0.7C361.1,292.1,361.1,292,361.1,292z"/>
				</g>
			</g>
			<path class="st20" d="M373.9,357.9h-26.1c-0.6,0-1.1-0.5-1.1-1.1v-3.1c0-0.6,0.5-1.1,1.1-1.1h26.1c0.6,0,1.1,0.5,1.1,1.1v3.1
				C375,357.4,374.5,357.9,373.9,357.9z"/>
			<path class="st20" d="M368.1,380.7h-13.4c-1.1,0-2-0.8-2.2-1.8l-3.8-21.8h24.4l-2.8,21.7C370.1,379.8,369.2,380.7,368.1,380.7z"
				/>
			<g id="_x3C_Group_x3E__00000115516425068506358190000013653754119552492980_">
				<path id="_x3C_Path_x3E__00000147186917931563912930000002552327294493076893_" class="st12" d="M360.7,312.2
					c0,0,1.8-14.4,10.9-14.4c9,0,11.8,3.1,13,3.7s-2.1,0.9-5.2,3.2c-3,2.3-3.4,5.7-9.7,6c-6.3,0.3-9.1,4.6-9.1,4.6L360.7,312.2z"/>
				<path id="_x3C_Path_x3E__00000035504799823082130360000001693996610431302034_" class="st19" d="M360.7,315.4
					c0,0,4.6-14.5,18.5-13.4"/>
			</g>
			<g id="_x3C_Group_x3E__00000059307280953920876490000003870961844426934919_">
				<path id="_x3C_Path_x3E__00000167366550571504357660000007572623739909767103_" class="st12" d="M362.5,301.4
					c0,0,3.4-14.1-5.1-17.3c-8.5-3.2-12.1-1.3-13.4-1.1c-1.3,0.2,1.7,1.6,3.7,4.9s1.2,6.5,6.9,9c5.7,2.5,6.9,7.5,6.9,7.5
					L362.5,301.4z"/>
				<path id="_x3C_Path_x3E__00000167355882994394677020000015208752568880680116_" class="st19" d="M361.5,304.3
					c0,0,0.8-15.2-12.6-19.1"/>
			</g>
		</g>
		<g>
			<path class="st12" d="M144.7,145.2c0-1.9-1.5-3.4-3.4-3.4H91.9c-1.9,0-3.4,1.5-3.4,3.4v26.7c0,1.9,1.5,3.4,3.4,3.4h40.8l3.8,5.2
				c1.2,1.6,3.3,1.5,4.2-0.3l3.3-6.3c0.4-0.6,0.7-1.3,0.7-2V145.2z"/>
			<path class="st6" d="M135.3,153.8H97.5c-0.6,0-1.1-0.5-1.1-1.1l0,0c0-0.6,0.5-1.1,1.1-1.1h37.8c0.6,0,1.1,0.5,1.1,1.1l0,0
				C136.4,153.4,135.9,153.8,135.3,153.8z"/>
			<path class="st6" d="M123.8,158.9H97.5c-0.6,0-1.1-0.5-1.1-1.1l0,0c0-0.6,0.5-1.1,1.1-1.1h26.3c0.6,0,1.1,0.5,1.1,1.1l0,0
				C124.9,158.4,124.4,158.9,123.8,158.9z"/>
			<path class="st6" d="M130.2,164H97.5c-0.6,0-1.1-0.5-1.1-1.1l0,0c0-0.6,0.5-1.1,1.1-1.1h32.7c0.6,0,1.1,0.5,1.1,1.1l0,0
				C131.3,163.5,130.8,164,130.2,164z"/>
		</g>
		<g>
			<g class="st21">
				<g>
					<g>
						<g>
							<ellipse class="st3" cx="253" cy="318" rx="29.6" ry="29.6"/>
						</g>
					</g>
				</g>
			</g>
			<g>
				<g>
					<g>
						<g>
							<g>
								<ellipse class="st7" cx="250.5" cy="315.9" rx="29.9" ry="29.9"/>
							</g>
						</g>
					</g>
				</g>
				<g>
					<g>
						<g>
							<g>
								<ellipse class="st8" cx="250.1" cy="315.5" rx="22.7" ry="22.7"/>
							</g>
						</g>
					</g>
				</g>
				<g>
					<g>
						<g>
							<g>
								<path class="st9" d="M273.4,316.3c0.1,12.4-9.9,22.5-22.3,22.5c-12.4,0.1-22.5-9.9-22.5-22.3c-0.1-12.4,9.9-22.5,22.3-22.5
									C263.3,293.9,273.4,303.9,273.4,316.3z"/>
							</g>
						</g>
					</g>
				</g>
				<g>
					<g>
						<g>
							<g>
								<path class="st10" d="M273.4,316.3c0.1,12.4-9.9,22.5-22.3,22.5c-12.4,0.1-22.5-9.9-22.5-22.3c-0.1-12.4,9.9-22.5,22.3-22.5
									C263.3,293.9,273.4,303.9,273.4,316.3z"/>
							</g>
						</g>
					</g>
				</g>
				<g>
					<path class="st11" d="M259.8,323.7c0,1.1-0.2,2.2-0.5,3.2c-0.4,1-0.9,1.8-1.5,2.5s-1.5,1.3-2.5,1.7c-1,0.4-2.1,0.6-3.3,0.6
						c-0.1,0-0.4-0.1-0.7-0.2s-0.7-0.3-1-0.5c-0.4-0.2-0.8-0.6-1.2-1s-0.8-0.9-1.1-1.5s-0.6-1.3-0.8-2.2c-0.2-0.8-0.3-1.8-0.3-2.9
						v-7.8H242v-2.1h4.9v-5.7h-0.1c-0.2,0.2-0.5,0.2-0.8,0.2c-0.2,0-0.4,0-0.6-0.1c-0.2-0.1-0.4-0.2-0.5-0.3
						c-0.2-0.1-0.3-0.3-0.4-0.5c-0.1-0.2-0.1-0.4-0.1-0.6s0-0.4,0.1-0.7c0.1-0.2,0.2-0.5,0.4-0.7s0.4-0.4,0.7-0.5s0.6-0.2,1-0.2
						c0.5,0,0.9,0.1,1.2,0.4c0.3,0.2,0.6,0.6,0.8,1s0.4,0.9,0.5,1.4s0.1,1,0.1,1.5v4.9h13.1v2.1h-13.1v7.8c0,0.7,0.1,1.4,0.2,2
						c0.1,0.6,0.3,1.1,0.5,1.5s0.4,0.8,0.7,1.1c0.2,0.3,0.5,0.6,0.7,0.8c0.2,0.2,0.5,0.3,0.7,0.4s0.4,0.1,0.5,0.1
						c0.6,0,1.2-0.1,1.8-0.4s1.2-0.6,1.7-1.1s0.9-1.1,1.3-1.7c0.3-0.7,0.5-1.4,0.5-2.2c0-0.4,0-0.8-0.1-1.2
						c-0.1-0.4-0.2-0.8-0.4-1.3c-0.2,0.3-0.4,0.5-0.7,0.7c-0.2,0.2-0.5,0.4-0.8,0.5s-0.6,0.3-0.8,0.3c-0.3,0.1-0.6,0.1-0.8,0.1
						c-0.3,0-0.6-0.1-0.8-0.2s-0.4-0.2-0.6-0.4c-0.2-0.2-0.3-0.4-0.4-0.6c-0.1-0.2-0.1-0.5-0.1-0.7c0-0.5,0.1-0.9,0.3-1.3
						s0.4-0.7,0.8-1c0.3-0.3,0.7-0.5,1.1-0.6s0.8-0.2,1.2-0.2c0.7,0,1.4,0.2,1.9,0.5c0.6,0.3,1,0.7,1.4,1.3c0.4,0.5,0.6,1.1,0.8,1.8
						C259.7,322.3,259.8,323,259.8,323.7z"/>
				</g>
				<g>
					<path class="st6" d="M258.6,322.1c0,1.2-0.2,2.2-0.5,3.2c-0.4,1-0.9,1.8-1.6,2.5c-0.7,0.7-1.5,1.3-2.5,1.7
						c-1,0.4-2.1,0.6-3.3,0.6c-0.1,0-0.4-0.1-0.7-0.2s-0.7-0.3-1.1-0.5c-0.4-0.3-0.8-0.6-1.2-1s-0.8-0.9-1.1-1.5s-0.6-1.4-0.9-2.2
						c-0.2-0.8-0.3-1.8-0.3-2.9v-7.9h-4.9v-2.1h4.9v-5.7h-0.1c-0.3,0.2-0.5,0.2-0.8,0.2c-0.2,0-0.4,0-0.6-0.1
						c-0.2-0.1-0.4-0.2-0.5-0.3c-0.2-0.1-0.3-0.3-0.4-0.5c-0.1-0.2-0.1-0.4-0.1-0.6s0-0.4,0.1-0.7c0.1-0.2,0.2-0.5,0.4-0.7
						s0.4-0.4,0.7-0.5s0.6-0.2,1-0.2c0.5,0,0.9,0.1,1.3,0.4c0.3,0.3,0.6,0.6,0.8,1s0.4,0.9,0.5,1.4s0.1,1,0.1,1.5v4.9H261v2.1h-13.2
						v7.9c0,0.8,0.1,1.4,0.2,2c0.1,0.6,0.3,1.1,0.5,1.6s0.4,0.8,0.7,1.1c0.3,0.3,0.5,0.6,0.7,0.8c0.2,0.2,0.5,0.3,0.7,0.4
						s0.4,0.1,0.5,0.1c0.6,0,1.2-0.1,1.8-0.4s1.2-0.6,1.7-1.1s0.9-1.1,1.3-1.7c0.3-0.7,0.5-1.4,0.5-2.3c0-0.4,0-0.8-0.1-1.2
						c-0.1-0.4-0.2-0.8-0.4-1.3c-0.2,0.3-0.4,0.5-0.7,0.7s-0.5,0.4-0.8,0.5s-0.6,0.3-0.8,0.3c-0.3,0.1-0.6,0.1-0.8,0.1
						c-0.3,0-0.6-0.1-0.8-0.2s-0.5-0.3-0.6-0.4c-0.2-0.2-0.3-0.4-0.4-0.6c-0.1-0.2-0.1-0.5-0.1-0.7c0-0.5,0.1-0.9,0.3-1.3
						s0.4-0.7,0.8-1c0.3-0.3,0.7-0.5,1.1-0.6c0.4-0.1,0.8-0.2,1.2-0.2c0.8,0,1.4,0.2,2,0.5s1,0.7,1.4,1.3c0.4,0.5,0.6,1.1,0.8,1.8
						S258.6,321.4,258.6,322.1z"/>
				</g>
			</g>
			<g>
				<circle class="st1" cx="273.2" cy="294.5" r="12.2"/>
				<path class="st22" d="M269.1,294.2l1.6,3.7c0.2,0.4,0.7,0.5,0.9,0.2l6.1-6.6"/>
				<circle class="st4" cx="273.2" cy="294.5" r="10.1"/>
			</g>
		</g>
	</g>
	<g>
		<path class="st23" d="M112.4,201.1c0,0,3.7-10.2,19.2-5.8c10.4,2.9,16.4,11.2,15.7,23.3c-0.7,12.8,7.3,8.8,2.6,27.3
			c-3.2,12.5,11.9,22.8-1.8,42.4c-11.1,15.9-74,6.7-73.4-20.6c0.3-12.9,11.1-6.9,11.7-27.7c0.3-8.9,17.1-5.9,14.9-19.3
			C100.3,213.8,105.6,200.2,112.4,201.1z"/>
		<path class="st24" d="M131.4,240.8c0,0,4.3,2.6,3.2,8.4c-1.1,5.7-1.5,11.1,3.4,15.3"/>
		<path class="st24" d="M142.9,227.5c1.1,4.6,3,7.7,0.3,13.9c-5.8,13.2,5.8,15.9,0.2,28c-2,4.3-2.8,8.1-3.2,11.3"/>
		<polygon class="st25" points="145.3,292.7 165.2,292.7 159.1,286.1 146.1,288.1 		"/>
		<path class="st24" d="M109.2,234.9c0,0-5.7,3.2-4.9,9.1c1,8.1-7,9.3-5,14.4"/>
		<path class="st24" d="M106.7,213.3c0,0-2.3,5-1.7,10.1c1.2,10.4-12.9,10.6-13,21.1c-0.1,6.6-5.5,10.6-9.1,14.4"/>
		<polygon id="_x3C_Path_x3E__00000020362313313429574110000009973829366033665680_" class="st26" points="203.7,411.9 203.6,424 
			192.4,424.1 190.7,414.2 		"/>
		<polygon id="_x3C_Path_x3E__00000137118393383351872080000006894182123488554369_" class="st26" points="170.2,415.7 169.1,428.9 
			157.1,430 155.1,420 		"/>
		<path class="st27" d="M120.4,326.2c12.8,6.9,39.6,20.6,54.8,23.3c1.2,0.2,2.2,1.2,2.4,2.5l9.2,63c0.2,1.1,1,2.1,2.1,2.4
			c3.5,1,11.5,2.4,17.6-4.2c0.6-0.6,0.9-1.4,0.8-2.2c-0.6-9.3-4.9-69.3-7.9-77.2c-3.1-8-46.4-16.4-51.7-17.4c-0.3-0.1-0.7-0.1-1.1,0
			l-25.3,4.5C118.5,321.3,117.9,324.9,120.4,326.2z"/>
		<path class="st27" d="M101.8,330.3c0.1,0-10.4,19.7,41.9,24.3c1.2,0.1,2,1.1,2.1,2.3l6.5,63.5c0.1,1,0.8,1.9,1.7,2.2
			c3.3,1.1,11.1,2.8,18.1-3.3c0.6-0.5,1-1.3,1-2.1c-0.3-9.3-2-69.5-4.7-77.4c-2.6-7.7-41.2-17.2-49.8-19.3c-1-0.2-2.1,0.2-2.7,1
			L101.8,330.3z"/>
		<path class="st28" d="M155,418.9"/>
		<path class="st28" d="M140.4,355.2"/>
		<path class="st29" d="M99.3,249.6c16.3-4.9,36.1-0.6,39.4,0.3c3.7,1.1,8.3,5.6,13.3,15.5c5,10,5,10,5,10l-10,3v38.1l0,0
			c-8.9,7.6-19.7,12.7-31.1,14.9l-13.5,2.4c-1.3,0.2-2.5-0.8-2.5-2.1l1.5-48.5l-17,0.9C84.5,284.2,83.7,254.3,99.3,249.6z"/>
		<path class="st25" d="M133.1,284.9l-30.4,8.4l-1.2-10l-14.2,0.6c0,0-3.2,24.6,5.2,25.1c12.7,0.8,45.6-15.3,45.6-15.3L133.1,284.9z
			"/>
		<path class="st25" d="M128.2,208.2c1.7-0.7,4.2-0.1,5.4,1.2c3.5,3.6,7.8,9.8,6.3,17.8c-1.7,9.2-3.9,15-9,14.9
			c-1.7,0-2.4,1.3-2.4,2.8l-0.3,4.8l0,0c-1.5,8.4-13.9,9.7-17.4,1.7l-0.6-1.3c-0.4-1-0.4-2,0-3c1.5-3.1,5.1-8.4,1.1-20.2
			c-0.3-0.8-1.5-3.6-0.7-5.5c0.7-1.7,2.8-1.9,4.2-0.7c0.3,0.3,0.7,0.3,1.5-0.2C119,218.6,119.2,211.8,128.2,208.2z"/>
		<path class="st23" d="M129.3,208c0,0,0.1,3.1,5.3,5.8c6.3,3.3,2.4,7.2,5.4,11.8c3.1,4.9,0.4-4.4,0.4-4.4l-0.9-10.6
			c-1.8-6.9-4.4-11.4-11-10c-3.5,0.7-7,2.1-8.8,4.4c-4.8,6.3-5.9,20.5-5.9,20.5s5.3,0.1,8.1-6.6C125.1,211.4,124.7,210.2,129.3,208z
			"/>
		<path class="st5" d="M159.5,293.4h-12.1c-1,0-1.8-0.8-1.8-1.8v-26.3c0-1,0.8-1.8,1.8-1.8h12.1c1,0,1.8,0.8,1.8,1.8v26.3
			C161.3,292.6,160.4,293.4,159.5,293.4z"/>
		<g>
			<g>
				<g>
					<g>
						<path class="st25" d="M169.9,283.5L169.9,283.5c-3.3-4.6-7.9-13.2-9.4-13.4c-0.8-0.1-1.1,0.6-0.7,2.4c1.1,5.2,2.9,6.2-2,5.4
							c-0.7-0.1-4.3-0.8-6.2-1.2c-1.4-0.3-2.7,1.1-2.1,2.5c0.2,0.4,0.4,0.8,0.8,1.2c0,0-1.1,3.2,1.9,4c0,0,0.4,3.7,2.7,3.8
							c0,0,2.5,1.5,7.6,3.7l0,0c2.4,1.6,5.5,1.1,7.3-1.1l0.4-0.5C171.8,288.3,171.7,285.4,169.9,283.5z"/>
					</g>
				</g>
			</g>
			<path class="st30" d="M150.8,280.4c1.7,0.5,4.3,1.3,5.9,1.3"/>
			<path class="st30" d="M152.6,284.5c0,0,3,1.1,5.1,1"/>
		</g>
		<g>
			<g>
				<g>
					<path class="st25" d="M133.1,284.9l3.7-2.7c2.7-5.3,7.6-14.9,8.5-14.5c1,0.5,1.2,1.6,0.6,3.7c-1.6,5.1-0.8,7.5,2.1,7.3
						c1-0.1,9.5-0.1,9.5-0.1s2,1.8-0.7,3.9c0,0,0.6,3.4-2.6,3.6c0,0-1,3.5-3.3,3.3c0,0-2.7,1.1-8.1,2.3l-4.6,2L133.1,284.9z"/>
				</g>
			</g>
		</g>
		<path class="st30" d="M156.2,282.4c-1.8,0.2-4.5,0.6-6.1,0.2"/>
		<path class="st30" d="M153.7,286.1c0,0-3.2,0.6-5.2,0.1"/>
		<g>
			<g>
				<g>
					<path class="st30" d="M145.3,267.7c1,0.5,1.2,1.6,0.6,3.7c-1.6,5.1-0.8,7.5,2.1,7.3c1-0.1,9.5-0.1,9.5-0.1s2,1.8-0.7,3.9
						c0,0,0.6,3.4-2.6,3.6c0,0-1,3.5-3.3,3.3c0,0-2.7,1.1-8.1,2.3"/>
				</g>
			</g>
		</g>
		<g>
			<g>
				<g>
					<path class="st30" d="M154.8,288.2c1.2,0.6,5.6,2.8,7.6,3.7l0,0"/>
				</g>
			</g>
		</g>
		<path class="st5" d="M204.7,421.9c0,0-3.6,2.9-13.7,1.3c0,0-0.7,6.3-3.5,9.6c-2.7,3.3,5.2,7.3,11.2,5.4s10.4,2.6,16.3,1.8
			c5.9-0.7,14.4-7.1,11.3-9.1c-3.2-1.9-14.4-1.8-17.2-6.2C207.6,422.3,204.7,421.9,204.7,421.9z"/>
		<path class="st31" d="M212.2,437.7c5.4,1.6,11.5-4.7,11.5-4.7"/>
		<path class="st31" d="M190,433.9c0,0,2.1,2.6,7.1,2.1c4.9-0.5,9.7,0.1,15.1,1.7"/>
		<path class="st5" d="M170.5,426.5c0,0-5.6,4-15.6,1.9c0,0,0.1,6-2.8,9.1c-2.9,3.1,4.8,7.6,10.9,6.1c6.1-1.5,10.3,3.1,16.2,2.7
			s14.8-6.3,11.8-8.4s-15.4-3.5-17.9-8C171.5,427.2,170.5,426.5,170.5,426.5z"/>
		<path class="st31" d="M176.5,443.7c5.3,1.9,11.7-4,11.7-4"/>
		<path class="st31" d="M154.5,438.7c0,0,2,2.7,7,2.4c5-0.2,9.7,0.6,15,2.6"/>
		<path class="st31" d="M170.1,351.6c-0.5-5.8-1.1-10.2-1.7-11.9c-1.5-4.4-14.8-9.4-27.5-13.3"/>
		<path class="st31" d="M169.7,382.9c-0.4-9.1-0.9-18.7-1.4-26.7"/>
		<path class="st31" d="M159.2,421.3c3.3-0.2,7.1-1.2,10.7-4.3c0.6-0.5,1-1.3,1-2.1c-0.1-3-0.3-11.3-0.7-21.4"/>
		<path class="st4" d="M146.6,316.3"/>
		<path class="st4" d="M155.4,339.3c0,0,0.3,8.3,10,11.3"/>
		<path class="st4" d="M188.5,332.3c0,0,2,7.7,10.1,11.9"/>
		<path class="st4" d="M190.7,414.2c0,0,7.6,0.2,13.8-4.5"/>
		<path class="st32" d="M108.4,251.2c0,0,1.7,10,14.6,7.4"/>
		<path class="st32" d="M129.7,251.9c0,0,0.1,2.8-3.6,5"/>
		<line class="st32" x1="86.9" y1="281.8" x2="97.5" y2="281.7"/>
		<line class="st32" x1="101.6" y1="283.1" x2="102.7" y2="276"/>
		<path class="st32" d="M117.7,326.8c-4.1,1.1-8.6,2-13.7,2.6"/>
		<path class="st32" d="M143.1,314.5c0,0-6.1,5.6-18.6,10.1"/>
		<path class="st32" d="M126.9,318.6c-2.7,1-5.5,1.7-8.2,1.8"/>
		<path class="st32" d="M143,308.7c0,0-4.7,4.1-10.9,7.5"/>
		<path class="st4" d="M119.5,333.7c0,0,3.4,7.4-2.3,12.8"/>
	</g>
	<g>
		<path class="st11" d="M390.5,182.5c0,2-0.3,3.9-0.9,5.6c-0.6,1.7-1.5,3.2-2.7,4.4s-2.6,2.2-4.3,2.9c-1.7,0.7-3.6,1-5.7,1
			c-0.2,0-0.6-0.1-1.2-0.3c-0.5-0.2-1.2-0.5-1.8-0.9s-1.4-1-2.1-1.7s-1.4-1.6-2-2.7c-0.6-1.1-1.1-2.3-1.5-3.8s-0.6-3.2-0.6-5.1
			v-13.7h-8.6v-3.7h8.6v-10h-0.2c-0.4,0.3-0.9,0.4-1.4,0.4c-0.4,0-0.7-0.1-1-0.2c-0.3-0.2-0.6-0.4-0.9-0.6c-0.3-0.3-0.5-0.5-0.6-0.9
			c-0.2-0.3-0.2-0.7-0.2-1.1c0-0.4,0.1-0.8,0.2-1.2c0.2-0.4,0.4-0.8,0.7-1.2c0.3-0.4,0.7-0.6,1.2-0.9s1-0.3,1.7-0.3
			c0.9,0,1.6,0.2,2.2,0.7c0.6,0.4,1.1,1,1.4,1.7c0.4,0.7,0.6,1.5,0.8,2.4c0.2,0.9,0.2,1.8,0.2,2.7v8.5h22.8v3.7h-22.8v13.7
			c0,1.3,0.1,2.5,0.3,3.5c0.2,1,0.5,1.9,0.9,2.7s0.8,1.5,1.2,2c0.4,0.5,0.9,1,1.3,1.3c0.4,0.4,0.8,0.6,1.2,0.8
			c0.4,0.2,0.6,0.2,0.8,0.2c1,0,2.1-0.2,3.2-0.7s2.1-1.1,3-2c0.9-0.8,1.6-1.9,2.2-3c0.6-1.2,0.9-2.5,0.9-3.9c0-0.7-0.1-1.4-0.2-2.1
			c-0.2-0.7-0.4-1.5-0.7-2.3c-0.4,0.5-0.7,0.9-1.2,1.3c-0.4,0.4-0.9,0.7-1.4,0.9c-0.5,0.3-1,0.4-1.5,0.6c-0.5,0.1-1,0.2-1.4,0.2
			c-0.6,0-1-0.1-1.5-0.3c-0.4-0.2-0.8-0.4-1.1-0.8c-0.3-0.3-0.5-0.7-0.6-1.1c-0.1-0.4-0.2-0.8-0.2-1.3c0-0.8,0.2-1.6,0.5-2.2
			c0.3-0.7,0.8-1.2,1.3-1.7c0.6-0.5,1.2-0.8,1.9-1.1c0.7-0.2,1.4-0.4,2.2-0.4c1.3,0,2.4,0.3,3.4,0.8c1,0.6,1.8,1.3,2.4,2.2
			s1.1,2,1.4,3.1C390.3,180.1,390.5,181.3,390.5,182.5z"/>
	</g>
	<g>
		<g>
			<path class="st6" d="M329.7,219.2c-7.8,0-14.1-6.3-14.1-14.1s6.3-14.1,14.1-14.1c7.8,0,14.1,6.3,14.1,14.1
				S337.5,219.2,329.7,219.2z M329.7,191.8c-7.3,0-13.3,6-13.3,13.3s6,13.3,13.3,13.3s13.3-6,13.3-13.3S337,191.8,329.7,191.8z"/>
		</g>
		<g>
			<path class="st6" d="M322.1,198.1c0.3,0,0.5-0.2,0.5-0.5s-0.2-0.5-0.5-0.5s-0.5,0.2-0.5,0.5C321.6,197.9,321.8,198.1,322.1,198.1
				 M322.1,197.3c0.1,0,0.3,0.1,0.3,0.3c0,0.1-0.1,0.3-0.3,0.3c-0.1,0-0.3-0.1-0.3-0.3C321.9,197.4,322,197.3,322.1,197.3"/>
		</g>
		<g>
			<polyline class="st6" points="322.2,198.4 322.2,198.7 323.5,198.4 323.5,198.1 322.2,198.4 			"/>
		</g>
		<g>
			<path class="st6" d="M338.5,198.4c0.1-0.3-0.1-0.6-0.4-0.6c-0.3-0.1-0.6,0.1-0.6,0.4c-0.1,0.3,0.1,0.6,0.4,0.6
				C338.1,198.9,338.4,198.7,338.5,198.4 M337.7,198.2c0-0.1,0.2-0.2,0.3-0.2s0.2,0.2,0.2,0.3s-0.2,0.2-0.3,0.2
				C337.7,198.5,337.7,198.4,337.7,198.2"/>
		</g>
		<g>
			<polyline class="st6" points="337.1,198.2 336.8,198.2 336.9,199.5 337.2,199.5 337.1,198.2 			"/>
		</g>
		<g>
			<path class="st6" d="M321.1,198.4l-0.2-0.2c0,0-1,1.1-1.6,2.6l0.3,0.1c0,0,0.4-0.9,0.7-1.3l0.2,0.1l-0.2,1.3l0.3,0.1l1.1-0.6
				l0.2-0.3l-1.4-0.9c0.1-0.1,0.2-0.4,0.3-0.5l1.4,1l0.2-0.2l-1.4-1L321.1,198.4 M320.7,200l0.6,0.4l-0.7,0.4L320.7,200z"/>
		</g>
		<g>
			<path class="st6" d="M337.8,197.4c-0.9-1-2-1.8-3.3-2.4l-0.1,0.2c0.4,0.2,0.8,0.4,1.2,0.7l-0.1,0.2l-1.2-0.2l-0.1,0.4l0.5,1.1
				l0.3,0.2l0.9-1.4c0.2,0.1,0.3,0.2,0.5,0.4c-0.1,0-0.3,0-0.4,0.2c-0.1,0.2-0.1,0.3-0.1,0.4c0,0.1-0.1,0.3-0.1,0.4
				c-0.1,0.1-0.2,0.2-0.4,0.1l-0.1,0.3l0.2,0.1c0.1,0,0.4,0,0.5-0.3c0.1-0.2,0.1-0.5,0.2-0.7c0.1-0.2,0.3-0.3,0.5-0.3
				c0.2,0.1,0.3,0.3,0.5,0.4l-1.2,1.2l0.2,0.2l1.1-1.3c0.1,0.1,0.2,0.2,0.3,0.3L337.8,197.4 M334.8,197l-0.3-0.7l0.7,0.2L334.8,197z
				"/>
		</g>
		<g>
			<path class="st6" d="M331.9,194.4c0,0,0-0.3-0.5-0.4c-0.4-0.1-0.5,0.2-0.5,0.2s-0.1-0.3-0.5-0.4c-0.2,0-0.4,0-0.5,0
				c-2.7,0-5.2,0.9-7.2,2.5l0.2,0.2c0.5-0.4,1.1-0.8,1.6-1.1l0.2,0.4c-0.6-0.1-0.7,0.3-0.6,0.5l0,0c-0.1,0-0.3,0-0.3,0
				c-0.3,0.1-0.4,0.5-0.2,0.8c0.3,0.4,0.8,0.2,0.8,0.2v-0.3c0,0-0.4,0-0.5-0.1c-0.1-0.1,0-0.3,0.1-0.3c0,0,0.2-0.1,0.4,0.1l0.2-0.1
				c0,0-0.2-0.3,0-0.5c0.1-0.1,0.3,0,0.5,0.1l0.4,0.7l0.3-0.1l-0.8-1.5c0.2-0.1,0.4-0.2,0.6-0.3l0.7,1.5l0.3-0.1l-0.7-1.6
				c0.3-0.1,0.7-0.2,1-0.3c-0.1,0.1-0.2,0.4-0.1,0.8c0.1,0.4,0.3,0.7,0.9,0.8l0.1-0.3c0,0-0.6-0.1-0.7-0.6c0-0.3,0.1-0.6,0.2-0.7
				c0.3-0.1,0.7-0.1,1-0.2v1.2l0.4,0.2c0,0,0.3-0.6,0.7-0.7v0.9h0.2h0.1l0.1-1.1l-0.2-0.2c0,0-0.6,0.3-0.8,0.6v-0.9
				c0.5-0.1,0.9-0.1,1.4-0.1c0.2,0,0.4,0,0.6,0c0.1,0,0.3,0.1,0.3,0.4c0,0.3-0.5,0.3-0.5,0.3v0.3c0,0,0.4,0.1,0.6-0.2
				c0,0,0.2,0.4,0.6,0.3v-0.3c0,0-0.4,0-0.3-0.4c0.1-0.3,0.3-0.4,0.4-0.4c0.2,0,0.5,0.3,0.4,0.8l-0.2,0.9l0.3,0.1l0,0l0.4-1.7
				l0.3,0.1l0.1-0.3c0,0-0.5-0.1-0.6-0.2L331.9,194.4"/>
		</g>
		<g>
			<path class="st6" d="M338.8,198.6l-0.2,0.1c0.3,0.4,0.5,0.7,0.6,1l-0.2,0.1l-1-0.9l-0.3,0.3l-0.1,1.2l0.2,0.3l1-0.5
				c0.1,0.1,0.2,0.6,0.1,0.7c-0.2,0.1-0.5,0-0.5,0v0.3c0,0,0.4,0.1,0.6,0c0.4-0.2,0.2-0.9,0.1-1.1l0.2-0.1c0.2,0.3,0.3,0.7,0.5,1
				l0.3-0.1C339.8,200.2,339.4,199.4,338.8,198.6 M338,200.4l0.1-0.7l0.6,0.4L338,200.4z"/>
		</g>
		<g>
			<path class="st6" d="M326.7,211.5c0.4,0,0.6-0.2,0.7-0.3c0.1-0.1,0.2-0.2,0.3-0.2s0.2,0.1,0.3,0.2c0.2,0.2,0.4,0.4,0.7,0.4
				c0.3,0,0.5-0.2,0.7-0.4c0.1-0.1,0.2-0.2,0.3-0.2c0.2,0,0.3,0.1,0.4,0.2c0.1,0.1,0.3,0.3,0.7,0.3s0.5-0.2,0.7-0.3
				c0.1-0.1,0.2-0.2,0.3-0.2c0.1,0,0.2,0.1,0.3,0.2c0.2,0.2,0.5,0.5,1,0.2l0,0l0.2-0.2c0.1,0,0.1-0.1,0-0.2c0-0.1-0.1-0.1-0.2,0
				l-0.2,0.1c-0.4,0.2-0.5,0-0.7-0.2c-0.1-0.1-0.3-0.3-0.5-0.3s-0.3,0.1-0.5,0.2c-0.1,0.1-0.3,0.3-0.5,0.3c-0.3,0-0.4-0.1-0.5-0.2
				c-0.1-0.1-0.3-0.3-0.6-0.3c-0.2,0-0.3,0.1-0.5,0.3s-0.3,0.3-0.5,0.3c-0.3,0-0.4-0.2-0.6-0.3c-0.1-0.1-0.3-0.3-0.5-0.3
				s-0.4,0.1-0.5,0.3c-0.1,0.2-0.2,0.3-0.5,0.3c-0.1,0-0.4-0.2-0.5-0.3c0,0-0.1,0-0.2,0c0,0,0,0.1,0,0.2
				C326.1,211.1,326.4,211.5,326.7,211.5"/>
		</g>
		<g>
			<path class="st6" d="M334.1,212.1c-0.1,0-0.1,0-0.2,0c-0.1,0.1-0.3,0.4-0.5,0.4s-0.3-0.1-0.5-0.2c-0.1-0.1-0.3-0.2-0.4-0.2
				c-0.3,0-0.6,0.3-0.6,0.4l0,0c-0.3,0.2-0.5,0-0.6-0.2c-0.1-0.1-0.2-0.3-0.4-0.3s-0.3,0.1-0.5,0.2c-0.1,0.1-0.3,0.3-0.5,0.3
				s-0.3-0.1-0.4-0.2c-0.1-0.1-0.2-0.3-0.5-0.3c-0.2,0-0.3,0.1-0.4,0.3c-0.1,0.2-0.3,0.3-0.5,0.3c-0.3,0-0.4-0.1-0.5-0.3
				c-0.1-0.1-0.2-0.3-0.4-0.3c-0.2,0-0.4,0.1-0.5,0.3c-0.1,0.1-0.2,0.3-0.5,0.3c-0.1,0-0.3-0.2-0.4-0.3c0,0-0.1-0.1-0.2,0
				c0,0-0.1,0.1,0,0.2c0.1,0.1,0.4,0.4,0.6,0.4c0.4,0,0.6-0.2,0.7-0.3c0.1-0.1,0.2-0.2,0.3-0.2s0.2,0.1,0.3,0.2
				c0.2,0.2,0.3,0.4,0.7,0.4c0.3,0,0.5-0.2,0.7-0.4c0.1-0.1,0.2-0.2,0.3-0.2c0.2,0,0.2,0.1,0.3,0.2c0.1,0.1,0.3,0.3,0.6,0.3
				s0.5-0.2,0.7-0.3c0.1-0.1,0.2-0.2,0.3-0.2c0.1,0,0.2,0.1,0.2,0.2c0.2,0.2,0.4,0.5,1,0.2l0,0l0.1-0.1l0,0c0.1-0.1,0.3-0.3,0.4-0.3
				c0.1,0,0.2,0.1,0.3,0.2c0.2,0.1,0.3,0.2,0.6,0.3c0.4,0,0.7-0.5,0.7-0.5C334.1,212.2,334.1,212.1,334.1,212.1"/>
		</g>
		<g>
			<path class="st6" d="M332.6,216.3c0,0-0.6-0.8-1.7-0.6c-0.5,0.1-0.8,0.5-0.8,0.9v0.1c0,0.2,0.1,0.3,0.2,0.4
				c-0.2,0.3-0.4,0.5-0.5,0.8v-1c0,0,0-0.1,0.1-0.1c0.1-0.2,0.4-0.7,0.4-1.4c0-0.1,0-0.2,0-0.3c-0.1-0.6-0.3-0.9-0.4-1.2
				c-0.1-0.1-0.1-0.2-0.1-0.2s0-0.1-0.1-0.1c0,0-0.1,0-0.1,0.1c0,0,0,0.2-0.2,0.4c-0.1,0.2-0.4,0.6-0.4,1.2c0,0.6,0.2,1.3,0.6,1.7
				v0.8c-0.1-0.2-0.3-0.4-0.5-0.6c0,0,0-0.1,0-0.2c0-0.3-0.1-0.7-0.5-0.9c-1-0.5-1.8,0.5-1.8,0.5v0.1h0.1c1-0.1,1.7,0.2,2.1,0.6
				l0.1,0.1l0,0c0.4,0.3,0.5,0.7,0.6,0.9v0.4c0,0,0,0.1,0.1,0.1c0,0,0.1,0,0.1-0.1s0.3-2.2,2.7-1.9L332.6,216.3L332.6,216.3
				 M328.5,215.9l0.1,0.7c-0.1,0-0.2-0.1-0.3-0.1l-0.1-0.6C328.3,215.8,328.4,215.8,328.5,215.9 M327.1,216.2c0.2-0.2,0.6-0.4,1-0.4
				l0.1,0.6C327.8,216.3,327.5,216.2,327.1,216.2 M329,216.8c-0.1-0.1-0.2-0.2-0.4-0.3l-0.1-0.7l0,0c0.4,0.2,0.4,0.5,0.4,0.8
				C329,216.8,329,216.8,329,216.8 M329.8,216.5v-0.4l0.3-0.4C330,216.1,329.9,216.3,329.8,216.5 M329.2,214.8l0.4,0.3v0.4
				c-0.1-0.1-0.5-0.4-0.5-0.4l0,0C329.2,215,329.2,214.9,329.2,214.8 M329.3,214.4l0.3,0.3v0.3c-0.1-0.1-0.4-0.3-0.4-0.3l0,0
				C329.2,214.6,329.3,214.5,329.3,214.4 M330.1,214.7c0,0-0.3,0.2-0.3,0.3v-0.3l0.3-0.3C330,214.5,330,214.6,330.1,214.7
				 M330.1,215.6l-0.3,0.4v-0.4l0,0l0.4-0.3C330.1,215.4,330.1,215.5,330.1,215.6 M330.1,215c0,0.1,0,0.1,0,0.2
				c-0.1,0.1-0.3,0.2-0.4,0.3v-0.4l0.4-0.3C330.1,214.8,330.1,214.9,330.1,215 M329.2,215.2l0.5,0.4v0.4l-0.5-0.5
				C329.2,215.4,329.2,215.3,329.2,215.2 M329.9,214.3c0,0-0.2,0.2-0.2,0.3v-0.7l0,0C329.8,214,329.9,214.1,329.9,214.3 M329.5,214
				l0.1-0.1v0.7c-0.1-0.1-0.2-0.2-0.3-0.3C329.4,214.2,329.5,214.1,329.5,214 M329.2,215.6l0.4,0.5v0.5
				C329.4,216.4,329.3,216,329.2,215.6 M330.9,215.9c0.1,0,0.1,0,0.2,0l-0.1,0.7c-0.1,0.1-0.2,0.1-0.3,0.2L330.9,215.9L330.9,215.9
				 M330.4,216.9L330.4,216.9c0,0-0.1-0.1-0.1-0.3v-0.1c0-0.3,0.1-0.6,0.5-0.7l-0.2,0.9C330.5,216.8,330.4,216.9,330.4,216.9
				 M331,216.5l0.1-0.6c0.5,0,0.9,0.3,1.1,0.4C331.8,216.2,331.4,216.3,331,216.5"/>
		</g>
		<g>
			<path class="st6" d="M337.5,210.7c0-0.1,0-0.1,0-0.2h-0.1c0,0-0.1,0-0.2,0.1l-0.3,0.1v-0.1c0.3-0.2,0.4-0.6,0.5-1
				c0.1-0.5-0.1-0.9-0.1-0.9v-0.1c0-0.1,0-0.2-0.1-0.2h-0.1c0-0.4,0-0.8-0.1-1c0-0.1-0.1-0.1-0.1-0.2c-0.1-0.1-0.1-0.2-0.2-0.2
				c0,0-0.1,0-0.1,0.1c0,0,0,0-0.1,0.1v-0.1c0.1,0,0.2-0.1,0.3-0.3l0.1-0.1c0.1-0.2,0.2-0.5,0.1-0.8v-0.1v-0.1v-0.1
				c-0.1,0-0.1,0-0.2,0c0-0.1,0.1-0.1,0.1-0.2c0.2-0.4,0.1-0.7,0-0.8l0,0v-0.1c0-0.1,0-0.1-0.1-0.2c0.1-0.4,0-0.8-0.1-0.9l-0.1-0.1
				c0-0.1-0.1-0.1-0.1-0.1c-0.1,0-0.1,0.1-0.1,0.1s0,0.1-0.1,0.1c-0.1,0.1-0.2,0.2-0.2,0.4s0.1,0.5,0.2,0.7
				c-0.1,0.1-0.2,0.4-0.3,0.6c-0.1-0.1-0.2-0.1-0.3-0.1l0,0l0,0c-0.1,0-0.1-0.1-0.2,0v0.1c0,0.1,0,0.4,0,0.5c0,0.3,0.5,0.7,0.6,0.9
				c0,0.1,0,0.1,0,0.2c-0.1-0.1-0.1-0.1-0.2-0.1c-0.1,0-0.1,0-0.1,0h-0.1h-0.1c0,0.1,0,0.1,0,0.2l0,0v0.1c0,0.1,0,0.2,0,0.5
				c0.1,0.3,0.4,0.7,0.5,0.8H336c-0.1,0-0.1,0-0.2,0c-0.1,0-0.2,0-0.2,0v0.1v0.1c0,0.1,0,0.2,0,0.4c0.1,0.2,0.2,0.5,0.3,0.7l0,0l0,0
				h-0.1c-0.1,0-0.1,0-0.2,0c-0.1,0-0.1,0.1-0.1,0.2v0.1v0.1c0,0.1,0,0.4,0.2,0.7s0.5,0.5,0.6,0.5c-0.1,0.1-0.2,0.2-0.3,0.3
				l-0.1-0.1c-0.1-0.1-0.1-0.1-0.2-0.1c-0.1,0-0.1,0.1-0.1,0.1l0,0l0,0c-0.1,0.1-0.3,0.3-0.4,0.8v0.1c0,0.3,0.1,0.6,0.1,0.7
				c-0.1,0-0.1,0.1-0.2,0.1c0-0.2-0.1-0.4-0.2-0.5l0,0c0-0.1-0.1-0.2-0.1-0.2s0-0.1-0.1-0.1c0,0-0.1,0-0.1,0.1l0,0
				c-0.1,0-0.2,0.1-0.4,0.4c-0.2,0.2-0.2,0.6-0.2,0.8c0,0.1,0,0.3,0,0.3c-0.2,0-0.4,0.1-0.5,0.2c0.1-0.5-0.1-0.8-0.2-0.8v-0.1
				c0,0,0-0.1-0.1-0.1h-0.1c0,0,0,0.1-0.1,0.1c-0.2,0.1-0.5,0.3-0.6,0.8c-0.1,0.4,0,0.7,0,0.8c-0.2,0.1-0.6,0.1-0.9,0.1h-0.1
				c-0.4,0-0.7,0.1-0.7,0.1s-0.1,0.1,0,0.1c0,0,0.1,0.1,0.1,0c0,0,0.3-0.1,0.6-0.1h0.1c0.4,0,0.8,0,1-0.1c0.3,0,0.5-0.2,0.7-0.4
				c0.1,0.1,0.4,0.2,0.9,0.2c0.3,0,0.7,0,0.8-0.4c0-0.1,0.1-0.1,0.2-0.2v-0.1l-0.1-0.1l0,0l0,0c-0.1-0.1-0.1-0.1-0.3-0.2
				c0-0.1,0.1-0.1,0.1-0.2c0.3,0.1,0.6,0.1,0.9,0.1c0.4-0.1,0.6-0.2,0.8-0.5c0.1-0.1,0.1-0.2,0.1-0.2v-0.1v-0.1c0,0-0.1-0.1-0.3-0.1
				c-0.1,0-0.3-0.1-0.4-0.1c0-0.1,0.1-0.2,0.1-0.5c0-0.1,0-0.2,0-0.3c0.1,0,0.2,0,0.5-0.2c0.6-0.4,0.6-0.7,0.6-0.8v-0.1
				C337.5,210.8,337.5,210.8,337.5,210.7 M336.6,209.8c0-0.2,0.1-0.7,0.3-0.9l0.2-0.2l0,0l-0.3,1.3c0,0,0-0.1-0.1-0.1
				C336.7,209.9,336.7,209.8,336.6,209.8L336.6,209.8 M337.4,209.3c0,0.1,0,0.2,0,0.3c-0.1,0.3-0.2,0.6-0.4,0.8c0-0.1,0-0.1-0.1-0.2
				l0.4-1.5l0,0C337.2,208.8,337.4,209,337.4,209.3 M336.9,207.5c0.1,0.1,0.1,0.3,0.1,0.6c0,0.2,0,0.4-0.1,0.5l0,0l-0.2,0.2l0,0
				v-0.1l0,0l0.1-1.4C336.8,207.4,336.9,207.5,336.9,207.5 M336.7,207.3l-0.1,1.2c-0.1-0.2-0.2-0.3-0.3-0.4c0-0.1,0-0.5,0.1-0.7
				C336.5,207.4,336.6,207.4,336.7,207.3L336.7,207.3 M336.8,206.6l-0.1,0.1c-0.1,0.2-0.2,0.2-0.2,0.3l-0.1-0.1c0-0.1,0.2-0.7,0.4-1
				v0.1c0,0.1,0.1,0.1,0.1,0.2S336.8,206.4,336.8,206.6 M336.7,205.2c-0.1,0.2-0.2,0.4-0.3,0.4c0-0.1-0.1-0.1-0.1-0.2
				c0-0.1,0.2-0.7,0.4-1l0,0v0.1c0,0.1,0.1,0.1,0.1,0.3S336.8,205.1,336.7,205.2 M336.7,203.9c0,0.1,0,0.2-0.1,0.4h-0.1l0,0v-0.8
				l0,0C336.6,203.5,336.7,203.7,336.7,203.9 M336.2,203.8c0-0.1,0.1-0.2,0.1-0.3l0,0v0.9l0,0C336.3,204.2,336.2,204,336.2,203.8
				L336.2,203.8 M336.4,204.5c0.1,0,0.2-0.1,0.2-0.1c-0.2,0.3-0.3,0.7-0.4,0.9c0-0.1-0.1-0.1-0.1-0.2
				C336.1,204.9,336.3,204.6,336.4,204.5 M335.7,205.1L335.7,205.1c0.2,0,0.4,0.2,0.6,0.7c-0.1,0.1-0.1,0.1-0.1,0.2
				C336,205.8,335.8,205.4,335.7,205.1L335.7,205.1 M335.6,205.6L335.6,205.6c0,0,0-0.2,0-0.3c0.2,0.3,0.4,0.7,0.5,0.8
				c0,0.1,0,0.1,0,0.2C335.9,206.1,335.6,205.8,335.6,205.6 M336.2,206.6c0,0,0-0.1,0-0.2l0,0l0,0c0-0.2,0.1-0.4,0.3-0.5
				c0.1-0.1,0.2-0.1,0.3-0.2l0,0l0,0c-0.2,0.2-0.4,0.8-0.5,1.1L336.2,206.6L336.2,206.6L336.2,206.6 M336.5,207.3
				c-0.1,0-0.1,0.1-0.2,0.2l0,0l-0.5-0.8l0,0C336,206.6,336.4,207,336.5,207.3 M335.7,206.9c0-0.1,0-0.1,0-0.1v-0.1l0.5,0.9
				c0,0.1,0,0.2-0.1,0.3c-0.1-0.1-0.4-0.4-0.4-0.7C335.7,207.1,335.7,207,335.7,206.9 M336,208.2c0.1,0,0.4,0.2,0.6,0.8l0,0
				c0,0.1-0.1,0.2-0.1,0.3c-0.1-0.3-0.4-0.8-0.7-1.2C335.9,208.2,336,208.2,336,208.2 M335.8,208.3L335.8,208.3v-0.1
				c0.4,0.5,0.7,1.2,0.8,1.3v0.1c-0.1-0.2-0.3-0.2-0.4-0.3c0-0.1-0.3-0.5-0.3-0.7C335.8,208.5,335.8,208.4,335.8,208.3 M335.9,209.5
				c0.1,0,0.4,0,0.6,0.5c0.2,0.4,0.2,0.6,0.2,0.7h-0.1C336.6,210.5,336.1,209.8,335.9,209.5L335.9,209.5L335.9,209.5L335.9,209.5z
				 M335.9,210.3c-0.1-0.2-0.1-0.3-0.1-0.5c0-0.1,0-0.1,0-0.2v-0.1v-0.1c0.3,0.3,0.7,1,0.9,1.3h-0.1
				C336.4,210.8,336.1,210.7,335.9,210.3 M337,210.8h0.2c-0.3,0.2-0.7,0.6-0.9,0.8c0-0.1,0-0.1-0.1-0.1
				C336.2,211.4,336.5,210.9,337,210.8 M336.2,212.1L336.2,212.1c0,0.4-0.1,0.5-0.1,0.5c-0.1,0-0.1,0-0.2,0c0-0.2,0-0.8,0.1-1.4
				C336.1,211.5,336.2,211.8,336.2,212.1 M335.5,212.1V212c0-0.4,0.2-0.6,0.3-0.7c-0.1,0.6-0.1,1.2-0.1,1.4c-0.1,0-0.1,0-0.1,0.1
				C335.6,212.6,335.5,212.3,335.5,212.1 M334.4,213.5c0-0.2,0-0.5,0.2-0.8c0.1-0.2,0.2-0.3,0.3-0.3c-0.2,0.5-0.3,1.2-0.3,1.4h-0.1
				h-0.1C334.4,213.8,334.4,213.6,334.4,213.5 M334.5,214c0.5,0,0.6,0.1,0.7,0.2c-0.7,0.2-1.3,0.2-1.5,0.2
				C333.7,214.2,334,214,334.5,214 M333.4,213.2L333.4,213.2L333.4,213.2z M332.8,214.1c0.1-0.4,0.4-0.6,0.5-0.7l0,0
				c-0.1,0.5-0.4,1.1-0.6,1.3c0-0.1-0.1-0.2-0.1-0.3C332.7,214.3,332.7,214.2,332.8,214.1 M332.9,214.9L332.9,214.9L332.9,214.9
				c0.1-0.3,0.5-1,0.6-1.5c0,0,0.1,0.2,0.1,0.4c0,0.1,0,0.2-0.1,0.4c0,0,0,0.1-0.1,0.2l-0.1,0.1l0,0l0,0
				C333.3,214.7,333.1,214.9,332.9,214.9 M334.4,214.6c-0.3,0-0.5,0-0.7-0.1c0.2,0,0.8,0,1.4-0.2v0.1
				C335,214.6,334.7,214.6,334.4,214.6 M334.7,213.8c0-0.2,0.1-0.9,0.3-1.4l0,0l0,0c0,0.1,0.2,0.3,0.2,0.6c0,0.1,0,0.3-0.1,0.4
				c-0.1,0.2-0.1,0.3-0.2,0.3l0,0C334.8,213.8,334.7,213.8,334.7,213.8 M336.7,213.1c-0.1,0.2-0.3,0.4-0.7,0.4c-0.3,0-0.6,0-0.8-0.1
				v-0.1C335.4,213.4,336,213.4,336.7,213.1L336.7,213.1 M336.7,212.9c-0.6,0.3-1.3,0.4-1.5,0.4c0-0.1,0-0.1,0-0.2l0,0
				c0,0,0.1-0.1,0.2-0.2l0,0l0.1-0.1c0.2-0.1,0.6-0.2,1,0C336.7,212.9,336.7,212.9,336.7,212.9 M337.3,211c0,0.1,0,0.4-0.5,0.7
				c-0.2,0.1-0.4,0.1-0.4,0.1v-0.1c0.2-0.1,0.7-0.7,1-0.9v0.1L337.3,211L337.3,211L337.3,211z"/>
		</g>
		<g>
			<path class="st6" d="M321.9,210.9L321.9,210.9c0,0.2,0,0.5,0.6,0.9c0.2,0.1,0.4,0.2,0.5,0.2c0,0.1,0,0.2,0,0.3
				c0,0.2,0.1,0.4,0.1,0.5c-0.1,0-0.2,0-0.4,0.1c-0.2,0.1-0.3,0.1-0.3,0.1v0.1v0.1c0,0,0.1,0.1,0.1,0.2c0.1,0.3,0.4,0.5,0.8,0.5
				c0.3,0.1,0.7,0,0.9-0.1c0.1,0.1,0.1,0.2,0.1,0.2c-0.2,0.1-0.3,0.1-0.3,0.2l0,0l0,0l-0.1,0.1v0.1c0.1,0,0.2,0.1,0.2,0.2
				c0.1,0.3,0.6,0.4,0.8,0.4c0.5,0,0.7-0.1,0.9-0.2c0.1,0.2,0.4,0.4,0.7,0.4c0.2,0.2,0.7,0.2,1,0.1h0.1c0.4,0,0.6,0.1,0.6,0.1h0.1
				v-0.1c0,0-0.3-0.1-0.7-0.1h-0.1c-0.3,0-0.7,0-0.9-0.1c0-0.1,0.2-0.5,0-0.8c-0.1-0.5-0.5-0.7-0.6-0.8c-0.1,0-0.1-0.1-0.1-0.1h-0.1
				c0,0-0.1,0-0.1,0.1c0,0,0,0,0,0.1c0,0-0.3,0.3-0.2,0.8c-0.1-0.1-0.3-0.2-0.5-0.2c0-0.1,0-0.2,0-0.3c0-0.3,0-0.6-0.2-0.8
				c-0.2-0.3-0.3-0.4-0.4-0.4l0,0c0,0,0-0.1-0.1-0.1c0,0-0.1,0-0.1,0.1c0,0,0,0.1-0.1,0.2l0,0c-0.1,0.2-0.2,0.4-0.2,0.5
				c0,0-0.1-0.1-0.2-0.1c0-0.1,0.1-0.5,0.1-0.7v-0.1c0-0.5-0.3-0.7-0.4-0.8l0,0l0,0c0,0,0-0.1-0.1-0.1c-0.1,0-0.1,0-0.2,0.1
				l-0.1,0.1c-0.1-0.1-0.1-0.2-0.3-0.3c0.2-0.1,0.5-0.2,0.6-0.5c0.2-0.3,0.2-0.6,0.2-0.7v-0.1V210c0-0.1,0-0.2-0.1-0.2
				c0,0-0.1,0-0.2,0h-0.1l0,0l0,0c0.1-0.2,0.2-0.4,0.3-0.7c0.1-0.2,0-0.3,0-0.4v-0.1c0-0.1,0-0.1,0-0.1s-0.1,0-0.2,0
				c-0.1,0-0.1,0-0.2,0h-0.1c0.1-0.1,0.4-0.5,0.5-0.8c0.1-0.3,0-0.4,0-0.5v-0.1l0,0c0-0.1,0-0.2,0-0.2h-0.1h-0.1c0,0,0,0-0.1,0
				c0,0-0.1,0-0.2,0.1c0,0,0-0.1,0-0.2c0.2-0.1,0.7-0.5,0.6-0.9c0-0.1,0-0.4,0-0.5s0-0.1,0-0.1c-0.1,0-0.1,0-0.2,0l0,0l0,0
				c-0.1,0-0.2,0-0.3,0.1c0-0.2-0.1-0.5-0.3-0.6c0.1-0.1,0.2-0.4,0.2-0.7c0-0.2-0.1-0.3-0.2-0.4c0-0.1-0.1-0.1-0.1-0.1
				s0-0.1-0.1-0.1c-0.1,0-0.1,0.1-0.1,0.1l-0.1,0.1c-0.1,0.1-0.2,0.5-0.1,0.9c-0.1,0-0.1,0.1-0.1,0.2v0.1l0,0
				c-0.1,0.1-0.2,0.4,0,0.8c0.1,0.1,0.1,0.2,0.1,0.2c-0.1,0-0.2-0.1-0.2,0c0,0-0.1,0.1,0,0.1v0.1c0,0.1,0,0.1,0,0.1
				c-0.2,0.3-0.1,0.6,0.1,0.8l0.1,0.1c0.1,0.2,0.2,0.3,0.3,0.3v0.1c0,0-0.1,0-0.1-0.1s-0.1-0.1-0.1-0.1c-0.1,0-0.1,0.1-0.2,0.2
				c0,0.1-0.1,0.2-0.1,0.2c-0.1,0.1-0.1,0.6-0.1,1h-0.1c-0.1,0-0.1,0.1-0.1,0.2v0.1c0,0-0.2,0.4-0.1,0.9c0.1,0.3,0.2,0.7,0.5,1v0.1
				l-0.3-0.1c-0.1,0-0.2,0-0.2-0.1c-0.1,0-0.1,0-0.1,0c-0.1,0,0,0.1,0,0.2C321.9,210.8,321.9,210.8,321.9,210.9 M322.7,209.8
				c0,0,0,0.1-0.1,0.1c0,0,0,0.1-0.1,0.1l-0.3-1.3l0,0l0.2,0.2C322.6,209.1,322.7,209.6,322.7,209.8L322.7,209.8 M322.1,208.8
				L322.1,208.8l0.4,1.4c0,0.1,0,0.1-0.1,0.2c-0.2-0.2-0.3-0.6-0.4-0.8c0-0.1,0-0.2,0-0.3C322,209,322.1,208.8,322.1,208.8
				 M322.6,207.3l0.1,1.4l0,0v0.1l0,0l-0.2-0.2l0,0c-0.1-0.1-0.1-0.3-0.1-0.5c0-0.3,0-0.5,0.1-0.6
				C322.5,207.5,322.5,207.4,322.6,207.3 M322.7,207.3c0.1,0,0.2,0.1,0.2,0.2c0.1,0.1,0.1,0.5,0.1,0.7c-0.1,0.1-0.2,0.2-0.3,0.4
				V207.3L322.7,207.3 M322.5,206.1c0-0.1,0-0.1,0.1-0.2v-0.1c0.2,0.3,0.4,0.8,0.4,1l-0.1,0.1c-0.1,0-0.2-0.1-0.2-0.3l-0.1-0.1
				C322.5,206.4,322.5,206.3,322.5,206.1 M322.6,204.8c0-0.1,0-0.2,0.1-0.3v-0.1l0,0c0.2,0.3,0.4,0.9,0.4,1s-0.1,0.1-0.1,0.2
				c-0.1-0.1-0.1-0.2-0.3-0.4C322.6,205.1,322.6,205,322.6,204.8 M322.8,203.5L322.8,203.5v0.8l0,0l0,0c0-0.1-0.1-0.2-0.1-0.4
				C322.7,203.7,322.8,203.5,322.8,203.5 M323.1,203.8c0,0.2-0.1,0.4-0.1,0.5l0,0v-0.9l0,0C323.1,203.6,323.1,203.6,323.1,203.8
				L323.1,203.8 M323.3,205.1c0,0-0.1,0.1-0.1,0.2c-0.1-0.2-0.2-0.6-0.4-0.9c0.1,0,0.1,0,0.2,0.1
				C323.1,204.6,323.2,204.9,323.3,205.1 M323.7,205.1c-0.1,0.3-0.4,0.7-0.5,0.8c0-0.1-0.1-0.1-0.1-0.2
				C323.3,205.3,323.5,205.1,323.7,205.1L323.7,205.1L323.7,205.1 M323.3,206.2c0-0.1,0-0.1,0-0.2c0.1-0.1,0.4-0.5,0.5-0.8
				c0,0.1,0,0.2,0,0.3l0,0C323.8,205.8,323.5,206.1,323.3,206.2 M323.1,206.6L323.1,206.6L323.1,206.6c-0.1-0.1-0.4-0.7-0.6-1l0,0
				l0,0c0.1,0,0.2,0.1,0.3,0.2c0.2,0.1,0.3,0.3,0.3,0.5l0,0l0,0C323.2,206.5,323.1,206.6,323.1,206.6L323.1,206.6 M323.5,206.6
				L323.5,206.6l-0.5,0.8l0,0c0-0.1-0.1-0.1-0.2-0.2C323,207,323.4,206.6,323.5,206.6 M323.6,207.2c-0.1,0.2-0.3,0.5-0.4,0.7
				c0-0.1,0-0.2-0.1-0.3l0.5-0.9v0.1v0.1C323.6,207,323.6,207.1,323.6,207.2 M323.5,208.2c-0.3,0.4-0.6,0.9-0.7,1.2
				c0-0.1-0.1-0.2-0.1-0.3l0,0c0.2-0.7,0.5-0.8,0.6-0.8C323.4,208.2,323.4,208.2,323.5,208.2 M323.6,208.6c-0.1,0.3-0.3,0.6-0.3,0.7
				c-0.1,0-0.2,0.1-0.4,0.3v-0.1c0.1-0.2,0.4-0.9,0.8-1.3l0,0v0.1C323.6,208.4,323.6,208.5,323.6,208.6 M323.5,209.5L323.5,209.5
				c-0.2,0.3-0.7,1.1-0.8,1.3h-0.1c0-0.1,0.1-0.4,0.2-0.7C323.1,209.4,323.4,209.5,323.5,209.5L323.5,209.5L323.5,209.5z
				 M322.8,210.8L322.8,210.8c0.1-0.2,0.5-1,0.8-1.3v0.1v0.1c0,0,0,0.1,0,0.2c0,0.1,0,0.3-0.1,0.5
				C323.3,210.7,322.9,210.8,322.8,210.8 M323.2,211.4c0,0,0,0.1-0.1,0.1c-0.2-0.2-0.6-0.6-0.9-0.8h0.2
				C322.9,210.9,323.1,211.4,323.2,211.4 M323.4,211.3c0.1,0.5,0.1,1.2,0.1,1.4c-0.1,0-0.1,0-0.2,0c0,0-0.1-0.1-0.1-0.5l0,0
				C323.1,211.8,323.3,211.5,323.4,211.3 M323.8,212.8c0,0-0.1,0-0.1-0.1c0-0.2,0-0.8-0.1-1.4c0.1,0.1,0.3,0.3,0.3,0.7v0.1
				C323.8,212.3,323.8,212.6,323.8,212.8 M325,213.8h-0.1h-0.1c0-0.2-0.1-0.9-0.3-1.4c0.1,0,0.2,0.1,0.3,0.3s0.2,0.5,0.2,0.8
				C325,213.6,325,213.8,325,213.8 M325.7,214.4c-0.2,0-0.8,0-1.5-0.2c0.1-0.1,0.2-0.2,0.7-0.2C325.4,214,325.6,214.2,325.7,214.4
				 M326,213.2L326,213.2L326,213.2z M326.7,214.4c0,0.1,0,0.3-0.1,0.3c-0.1-0.3-0.4-0.9-0.6-1.3l0,0c0.1,0.1,0.4,0.3,0.5,0.7
				C326.7,214.2,326.7,214.3,326.7,214.4 M326,214.5L326,214.5L326,214.5L326,214.5c-0.1-0.2-0.1-0.3-0.1-0.3c0-0.1-0.1-0.3-0.1-0.4
				c0-0.3,0.1-0.4,0.1-0.4c0.1,0.5,0.5,1.2,0.6,1.5l0,0l0,0C326.3,214.9,326.1,214.7,326,214.5 M324.3,214.4L324.3,214.4
				c0.6,0.1,1.2,0.2,1.4,0.2c-0.2,0.1-0.4,0.1-0.7,0.1C324.7,214.6,324.4,214.6,324.3,214.4 M324.6,213.8L324.6,213.8
				c-0.1-0.1-0.1-0.1-0.2-0.3c-0.1-0.1-0.1-0.3-0.1-0.4c0-0.3,0.1-0.5,0.2-0.6l0,0l0,0c0.2,0.5,0.3,1.2,0.3,1.4
				C324.7,213.8,324.6,213.8,324.6,213.8 M322.6,213.1c0.7,0.3,1.3,0.4,1.5,0.4v0.1c-0.2,0.1-0.5,0.1-0.8,0.1
				C323,213.5,322.8,213.4,322.6,213.1L322.6,213.1 M322.8,212.9c0.4-0.1,0.7-0.1,1,0l0.1,0.1l0,0c0.1,0.1,0.2,0.2,0.2,0.2l0,0
				c0,0.1,0,0.1,0,0.2c-0.2,0-0.8-0.1-1.5-0.4C322.7,212.9,322.7,212.9,322.8,212.9 M322.1,210.9L322.1,210.9v-0.1
				c0.3,0.2,0.8,0.7,1,0.9v0.1c-0.1,0-0.2,0-0.4-0.1C322.1,211.3,322.1,211.1,322.1,210.9L322.1,210.9"/>
		</g>
		<g>
			<polyline class="st6" points="331.5,215.8 331.4,216.4 331.5,216.4 331.6,215.8 331.5,215.8 			"/>
		</g>
		<g>
			<polyline class="st6" points="327.7,215.8 327.6,215.8 327.6,216.3 327.8,216.3 327.7,215.8 			"/>
		</g>
		<g>
			<path class="st6" d="M335.1,201.9h1.1l-3.3-1.8l0,0l0,0l-2.7-1.5l-0.4-0.2l1.2-0.7h-2.9l1.2,0.7l-6.3,3.5h1.1l0,0
				c3,3.9,2.6,6.4,2.5,6.9h-0.7l-0.5,1.5h8.2l-0.4-1.5h-0.6C332.5,208.4,332.1,205.8,335.1,201.9L335.1,201.9 M334.5,201.7l0.3-0.3
				l0.5,0.3H334.5z M334.2,201.3h-0.1l-0.4,0.3h-0.2l0.7-0.6l0.4,0.2l-0.4,0.4H334L334.2,201.3C334.2,201.4,334.3,201.4,334.2,201.3
				 M333.2,201.3h-0.1l-0.4,0.3h-0.2l0.7-0.6l0,0h0.7l-0.7,0.6H333l0.2-0.2C333.2,201.4,333.2,201.4,333.2,201.3 M332.2,201.3h-0.1
				l-0.4,0.3h-0.2l0.7-0.6l0,0h0.7l-0.7,0.6H332l0.2-0.2C332.2,201.4,332.2,201.4,332.2,201.3 M331.2,201.3h-0.1l-0.4,0.3h-0.2
				l0.7-0.6l0,0h0.7l-0.7,0.6H331l0.2-0.2C331.2,201.4,331.2,201.4,331.2,201.3 M330.2,201.3h-0.1l-0.4,0.3h-0.1l0.7-0.6l0,0h0.7
				l-0.7,0.6H330l0.2-0.2C330.2,201.4,330.2,201.4,330.2,201.3 M329.2,201.3h-0.1l-0.4,0.3h-0.2l0.7-0.6l0,0h0.7l-0.7,0.6H329
				l0.2-0.2C329.3,201.4,329.3,201.4,329.2,201.3 M328.2,201.3h-0.1l-0.4,0.3h-0.2l0.7-0.6l0,0h0.7l-0.7,0.6H328l0.2-0.2
				C328.3,201.4,328.3,201.4,328.2,201.3 M327.2,201.3h-0.1l-0.4,0.3h-0.2l0.7-0.6l0,0h0.7l-0.7,0.6H327l0.2-0.2
				C327.3,201.4,327.3,201.4,327.2,201.3 M326.2,201.3h-0.1l-0.4,0.3h-0.2l0.7-0.6l0,0h0.7l-0.7,0.6H326l0.2-0.2
				C326.3,201.4,326.3,201.4,326.2,201.3 M330.5,199l-0.2,0.2h-0.2l0.3-0.3L330.5,199z M330.8,199.2h-0.3l0.1-0.1L330.8,199.2z
				 M331.9,199.8l-0.3,0.2h-0.2l0.2-0.2v-0.1h-0.1l-0.4,0.3h-0.2l0.5-0.5L331.9,199.8z M332.3,200H332l0.1-0.1L332.3,200z
				 M333.2,200.5l-0.3,0.3h-0.3l0.4-0.4L333.2,200.5z M333.5,200.7l-0.2,0.1h-0.2l0.2-0.2L333.5,200.7z M333.7,200.8L333.7,200.8
				L333.7,200.8L333.7,200.8z M332.3,200.8h-0.2l0.2-0.2v-0.1h-0.1l-0.4,0.3h-0.2l0.6-0.6h0.4l0.1,0.1L332.3,200.8z M331.1,200.8
				l0.2-0.2v-0.1h-0.1l-0.4,0.3h-0.2l0.6-0.6h0.7l-0.6,0.6H331.1z M330.1,200.8l0.2-0.2v-0.1h-0.1l-0.4,0.3h-0.2l0.6-0.6h0.7
				l-0.6,0.6H330.1z M329.1,200.8l0.2-0.2v-0.1h-0.1l-0.4,0.3h-0.2l0.6-0.6h0.7l-0.6,0.6H329.1z M328.1,200.8l0.2-0.2v-0.1h-0.1
				l-0.4,0.3h-0.2l0.6-0.6h0.7l-0.6,0.6H328.1z M327.1,200.8l0.2-0.2v-0.1h-0.1l-0.4,0.3h-0.2l0.6-0.6h0.7l-0.6,0.6H327.1z
				 M329.3,199.4l-0.6,0.6h-0.2l0.2-0.2v-0.1h-0.1l-0.3,0.3l0,0l0,0h-0.2l0.6-0.6H329.3L329.3,199.4z M330.3,199.4l-0.6,0.6h-0.2
				l0.2-0.2v-0.1h-0.1l-0.4,0.3H329l0.6-0.6H330.3z M331.2,199.5l-0.6,0.6h-0.2l0.2-0.2v-0.1h-0.1l-0.4,0.3h-0.2l0.6-0.6H331.2
				L331.2,199.5z M330.2,198.8l-0.4,0.4h-0.2l0.2-0.2v-0.1h-0.1l-0.4,0.3h-0.2l0.4-0.4H330.2L330.2,198.8z M328.8,199.2h-0.2
				l0.6-0.3L328.8,199.2z M328.3,199.4l-0.6,0.6h-0.3l0.2-0.2v-0.1l0.5-0.3C328.1,199.4,328.3,199.4,328.3,199.4z M327.1,200
				L327.1,200L327.1,200L327.1,200z M326.9,200.2l-0.6,0.6h-0.2l0.2-0.2v-0.1l0,0l0.4-0.2L326.9,200.2L326.9,200.2z M325.8,200.8
				h-0.2l0.5-0.3L325.8,200.8z M329.1,198h1.1c-0.3,0.1-0.5,0.3-0.6,0.3C329.6,198.2,329.4,198.1,329.1,198 M324.1,201.7l1.2-0.6
				h0.6l-0.7,0.6h-0.3l0.2-0.2v-0.1H325l-0.4,0.3H324.1z M334,203.1c-0.2,0.3-0.4,0.6-0.5,0.9H326c-0.2-0.3-0.3-0.6-0.5-0.9
				C325.4,203.1,334,203.1,334,203.1z M332.4,208.8H327c0-0.2,0.1-0.4,0.1-0.8h5.2C332.3,208.4,332.3,208.7,332.4,208.8
				 M332.3,207.7h-5.2c0-0.3,0-0.6-0.1-0.9h5.5C332.3,207.1,332.3,207.5,332.3,207.7 M326.9,206.5c-0.1-0.3-0.1-0.5-0.2-0.8h6.1
				c-0.1,0.3-0.2,0.6-0.2,0.8H326.9z M326.6,205.4c-0.1-0.3-0.3-0.7-0.5-1.1h7.2c-0.2,0.4-0.4,0.8-0.5,1.1H326.6z M333.1,209.1
				c0,0.1,0.2,0.8,0.3,1c-0.3,0-7.2,0-7.5,0c0.1-0.2,0.3-0.8,0.3-1H333.1 M334.1,202.9h-8.9c-0.2-0.3-0.4-0.6-0.7-0.9h10.2
				C334.6,202.3,334.3,202.6,334.1,202.9"/>
		</g>
	</g>
</g>
<g>
	<g>
		<g>
			<g>
				<g>
					<g>
						<path class="st11" d="M309.6,347.7l-1.9-7l-5.5-3l-0.7,1.3l5,2.7l5.9,21.6l0.2,0.6h24.1c2.3,0,4.5-1.2,5.8-3.1l1.1-1.4
							c1.2-1.8,1.9-3.9,1.9-6v-5.7H309.6z M343.6,353.4c0,1.8-0.6,3.6-1.6,5.2l-1,1.6c-1,1.5-2.7,2.6-4.5,2.6h-22.9l-1.3-4.6
							l-2.4-8.7h33.6V353.4z"/>
					</g>
					<g>
						<path class="st11" d="M342.1,371.8c0,0.4-0.3,0.9-0.8,0.9h-28.3c-0.4,0-0.9-0.7-0.9-1.1v-13.3c0-0.1,0.1-0.1,0.2-0.2l1.3,4.8
							h0.3v8.1h27.4C341.7,370.9,342.1,371.4,342.1,371.8z"/>
					</g>
				</g>
				<g>
					<rect x="326.4" y="348.5" class="st11" width="1" height="14.5"/>
					<g>
						<rect x="317.3" y="348.5" class="st11" width="1" height="14.5"/>
						<rect x="335.3" y="348.5" class="st11" width="1" height="14.5"/>
					</g>
				</g>
				<g>
					<rect x="310.4" y="352.7" class="st11" width="33.5" height="0.9"/>
					<rect x="311.9" y="357.8" class="st11" width="31.2" height="0.9"/>
				</g>
			</g>
			<path class="st11" d="M316.7,373.7c-1.8,0-3.3,1.5-3.3,3.3c0,1.8,1.5,3.3,3.3,3.3s3.3-1.5,3.3-3.3
				C320,375.2,318.5,373.7,316.7,373.7z M316.7,379c-1.1,0-2-0.9-2-2c0-1.1,0.9-2,2-2c1.1,0,2,0.9,2,2
				C318.7,378.1,317.8,379,316.7,379z"/>
			<path class="st11" d="M337.4,373.7c-1.8,0-3.3,1.5-3.3,3.3c0,1.8,1.5,3.3,3.3,3.3c1.8,0,3.3-1.5,3.3-3.3
				C340.7,375.2,339.2,373.7,337.4,373.7z M337.4,379c-1.1,0-2-0.9-2-2c0-1.1,0.9-2,2-2s2,0.9,2,2C339.4,378.1,338.5,379,337.4,379z
				"/>
		</g>
		<path class="st11" d="M305.6,339c0,0.9-0.7,1.6-1.6,1.6h-5.2c-0.9,0-1.6-0.7-1.6-1.6l0,0c0-0.9,0.7-1.6,1.6-1.6h5.2
			C304.9,337.4,305.6,338.2,305.6,339L305.6,339z"/>
	</g>
</g>
<g id="HomePay_00000083797202419302661280000008698174503435846559_">
	<g id="HomePay" class="st33">
		<path class="st1" d="M420,221.6c-0.2,0-0.4,0-0.5,0c0,0,0-0.1-0.1-0.2c-0.2,0.2-0.5,0.2-0.8,0.2c-0.3-0.1-0.4-0.3-0.4-0.6
			c0-0.3,0.1-0.4,0.4-0.5c0.2-0.1,0.4,0,0.6-0.1c0.1,0,0.1,0,0.2,0c0-0.3-0.2-0.3-0.4-0.3c-0.1,0-0.2,0-0.3,0.1
			c-0.1,0-0.2,0.1-0.3,0.1c0-0.1-0.1-0.2-0.1-0.3c-0.2,0.7-0.7,0.7-1.3,0.7c0,0.3,0,0.6,0,0.9c-0.2,0-0.4,0-0.6,0c0-0.9,0-1.7,0-2.6
			c0.4,0,0.8,0,1.2,0c0.4,0.1,0.6,0.3,0.6,0.8c0.1,0,0.3-0.1,0.4-0.1c0.2-0.1,0.5-0.1,0.7,0c0.3,0.1,0.5,0.3,0.5,0.7
			C420,220.8,420,221.2,420,221.6z M417.1,220.2c0.2,0,0.4,0,0.6-0.2c0.1-0.1,0.1-0.3,0-0.4c-0.2-0.2-0.4-0.1-0.6-0.1
			C417.1,219.7,417.1,219.9,417.1,220.2z M419.4,220.8c-0.1,0-0.2,0-0.4,0c-0.1,0-0.2,0.1-0.2,0.2c0,0.1,0.1,0.2,0.2,0.2
			C419.3,221.3,419.4,221.1,419.4,220.8z"/>
		<path class="st1" d="M414.2,221.6c-0.2,0-0.4,0-0.6,0c0-0.2,0-0.4,0-0.6c0-0.2,0-0.4,0-0.6c0-0.1-0.1-0.2-0.2-0.2
			c-0.1,0-0.2,0-0.3,0.2c0,0.1,0,0.2,0,0.3c0,0.3,0,0.6,0,0.9c-0.2,0-0.4,0-0.6,0c0-0.3,0-0.6,0-0.9c0-0.1,0-0.2,0-0.3
			c0-0.1-0.1-0.2-0.2-0.2c-0.1,0-0.2,0-0.3,0.1c-0.1,0.1-0.1,0.3-0.1,0.4c0,0.3,0,0.6,0,0.8c-0.2,0-0.4,0-0.6,0c0-0.6,0-1.2,0-1.8
			c0.2,0,0.4,0,0.6,0c0,0.1,0,0.1,0,0.2c0.1-0.2,0.3-0.3,0.5-0.2c0.2,0,0.4,0.1,0.5,0.3c0.2-0.2,0.4-0.3,0.7-0.3
			c0.3,0,0.5,0.2,0.5,0.5c0,0.2,0,0.3,0,0.5C414.2,221,414.2,221.3,414.2,221.6z"/>
		<path class="st1" d="M406.7,219c0.2,0,0.4,0,0.6,0c0,0.3,0,0.7,0,1c0.4,0,0.7,0,1,0c0-0.3,0-0.6,0-1c0.2,0,0.4,0,0.6,0
			c0,0.9,0,1.7,0,2.6c-0.2,0-0.4,0-0.6,0c0-0.4,0-0.7,0-1.1c-0.3,0-0.7,0-1,0c0,0.3,0,0.7,0,1.1c-0.2,0-0.4,0-0.6,0
			C406.7,220.7,406.7,219.9,406.7,219z"/>
		<path class="st1" d="M420,219.7c0.2,0,0.4,0,0.6,0c0.1,0.4,0.3,0.8,0.4,1.2c0.1-0.4,0.2-0.7,0.3-1c0-0.1,0.1-0.2,0.2-0.2
			c0.1,0,0.3,0,0.4,0c-0.1,0.3-0.3,0.6-0.4,1c-0.1,0.4-0.3,0.7-0.4,1.1c-0.2,0.5-0.6,0.7-1.1,0.4c0-0.1,0.1-0.3,0.1-0.4
			c0.1,0,0.1,0,0.1,0c0.1,0,0.2,0,0.2-0.1c0.1-0.1,0.1-0.2,0.1-0.3c-0.2-0.5-0.4-1-0.6-1.5C420,219.9,420,219.8,420,219.7z"/>
		<path class="st1" d="M410.1,221.6c-0.7,0-1.1-0.5-1-1.2c0.1-0.4,0.4-0.7,0.9-0.8c0.8-0.1,1.3,0.6,1,1.3
			C410.9,221.4,410.6,221.6,410.1,221.6z M410.5,220.7c0-0.3-0.2-0.5-0.4-0.5c-0.2,0-0.4,0.2-0.4,0.5c0,0.3,0.2,0.5,0.4,0.5
			C410.4,221.1,410.5,220.9,410.5,220.7z"/>
		<path class="st1" d="M416.2,220.8c-0.4,0-0.8,0-1.3,0c0,0.4,0.4,0.5,1,0.2c0.1,0.1,0.2,0.2,0.2,0.3c-0.3,0.3-1,0.4-1.4,0.2
			c-0.4-0.2-0.5-0.7-0.4-1.2c0.1-0.5,0.7-0.7,1.2-0.6C416.1,219.9,416.3,220.3,416.2,220.8z M414.9,220.5c0.2,0,0.5,0,0.7,0
			c0-0.2-0.2-0.4-0.4-0.4C415.1,220.1,415,220.2,414.9,220.5z"/>
		<path class="st1" d="M414.1,217.7c0,0.3,0,0.5,0,0.8c0,0,0,0.1,0,0.1c-0.5,0.3-0.8,0.8-1.2,1.3c-0.3-0.3-0.5-0.6-0.9-0.8
			c0.2-0.1,0.4-0.2,0.6-0.4c0.1,0.2,0.2,0.3,0.3,0.5C413.2,218.6,413.5,218.1,414.1,217.7z"/>
	</g>
	<g class="st33">
		<path class="st1" d="M408.1,222.9c-0.1,0.1-0.2,0.1-0.2,0.2c-0.1,0.1-0.2,0.1-0.4,0.1c0,0,0,0.1,0,0.1c0.1,0,0.1,0,0.1,0
			c0,0,0.1,0,0.1,0c0,0-0.1,0.1-0.1,0.1c-0.1,0-0.2,0-0.2-0.1c-0.2,0-0.4,0.1-0.5,0.3c-0.1,0.1-0.2,0.3-0.2,0.5
			c0,0.1,0.1,0.2,0.1,0.2c0.3,0.2,0.7-0.1,0.9-0.4c0,0,0,0,0,0c-0.1,0.1-0.2,0.3-0.4,0.4c-0.2,0.1-0.4,0.1-0.5,0
			c-0.2-0.1-0.2-0.4-0.1-0.5c0.1-0.2,0.2-0.3,0.4-0.4c0.1,0,0.2-0.1,0.3-0.1c0,0,0-0.1-0.1-0.1c-0.1,0-0.1,0-0.2,0
			c-0.2,0-0.5,0-0.6-0.2c-0.1-0.1-0.1-0.3,0-0.5c0.1-0.1,0.2-0.1,0.3-0.1c0.1,0,0.2,0,0.3,0.1c0.1,0.1,0,0.2,0,0.3
			c-0.1,0.1-0.1,0.1-0.2,0.1c0,0-0.1-0.1,0-0.1c0,0,0.1-0.1,0.1-0.1c0,0,0,0,0,0c0,0,0.1,0,0.1,0c0.1-0.1,0.1-0.2,0.1-0.2
			c0,0-0.1-0.1-0.1-0.1c-0.2,0-0.4,0.1-0.5,0.3c0,0.1,0,0.2,0,0.2c0.1,0.2,0.4,0.2,0.6,0.2c0.1,0,0.1,0,0.2,0
			c-0.1-0.2,0-0.4,0.2-0.5c0.1-0.1,0.2-0.1,0.3-0.1c0.1,0,0.2,0,0.3,0.1C408.2,222.7,408.1,222.8,408.1,222.9z M408.1,222.6
			c-0.1-0.1-0.2,0-0.3,0c-0.1,0-0.1,0.1-0.2,0.2c-0.1,0.1-0.1,0.1-0.1,0.2c0,0.1,0,0.1,0,0.2c0.1,0,0.3-0.1,0.4-0.2
			c0.1-0.1,0.2-0.1,0.2-0.2C408.1,222.8,408.1,222.7,408.1,222.6z M407.5,223.3c0.1,0,0.1,0.1,0.2,0.1c0,0,0,0,0,0c0,0,0,0-0.1,0
			C407.6,223.3,407.6,223.3,407.5,223.3z"/>
		<path class="st1" d="M408.2,224.2c0.1-0.1,0.2-0.2,0.3-0.4c0,0,0,0,0,0c-0.1,0.1-0.1,0.1-0.2,0.2
			C408.3,224.2,408.3,224.3,408.2,224.2c-0.1,0.1-0.1,0.1-0.2,0.1c0,0,0,0,0-0.1c0-0.1,0.2-0.3,0.2-0.4c0,0,0,0,0,0
			c-0.1,0-0.1,0-0.2,0.1c-0.1,0.1-0.1,0.1-0.2,0.2c0,0.1-0.1,0.2-0.2,0.2c0,0,0,0-0.1,0c0,0,0,0,0,0c0,0,0,0,0,0
			c0.1-0.1,0.1-0.2,0.2-0.3c0,0,0.1-0.2,0.1-0.2c0,0-0.1,0-0.1,0c0,0,0,0-0.1,0.1c0,0,0,0,0,0c0,0,0,0,0.1-0.1c0,0,0.1-0.1,0.2,0
			c0,0,0,0.1,0,0.2c0,0,0.1-0.1,0.1-0.1c0,0,0.1-0.1,0.1-0.1c0.1,0,0.2,0,0.2,0.1c-0.1,0.1-0.2,0.4-0.2,0.4
			C408.1,224.3,408.2,224.3,408.2,224.2z"/>
		<path class="st1" d="M409.3,223.9C409.3,223.9,409.3,223.9,409.3,223.9c-0.1,0.1-0.2,0.3-0.3,0.4c-0.1,0-0.1,0.1-0.2,0.1
			c-0.1,0,0-0.1,0-0.2c-0.1,0.1-0.1,0.1-0.2,0.2c0,0-0.1,0-0.1,0c0,0-0.1-0.1-0.1-0.1c0-0.1,0.1-0.2,0.1-0.3
			c0.1-0.1,0.2-0.1,0.3-0.2c0,0,0.1,0,0.1,0c0,0,0,0.1,0,0.1c0,0,0-0.1,0.1-0.1c0,0,0,0,0.1,0c0,0,0,0.1,0,0.1
			c0,0.1-0.1,0.1-0.1,0.2c0,0.1-0.1,0.1-0.1,0.2c0,0.1,0,0.1,0.1,0C409.1,224.1,409.2,224,409.3,223.9z M408.8,224.1
			c0-0.1,0.1-0.1,0.1-0.2c0-0.1,0-0.1-0.1-0.1c-0.1,0-0.1,0-0.1,0.1c-0.1,0.1-0.2,0.2-0.2,0.4c0,0,0,0.1,0,0.1c0,0,0.1,0,0.1,0
			C408.7,224.3,408.8,224.2,408.8,224.1z"/>
		<path class="st1" d="M410.1,222.9c0,0.1-0.1,0.2-0.1,0.3c-0.1,0.1-0.1,0.2-0.2,0.3c-0.1,0.2-0.3,0.3-0.4,0.5
			c0,0.1-0.1,0.2-0.1,0.2c0,0,0,0.1,0,0.1c0,0,0.1,0,0.1,0c0,0,0.1-0.1,0.1-0.1c0.1-0.1,0.1-0.1,0.2-0.2c0,0,0-0.1,0-0.1
			c0,0,0-0.1,0.1-0.1c0.1,0,0.1,0,0.1,0.1c0,0.1,0,0.1-0.1,0.2c0,0,0.1,0,0.1,0c0,0,0,0,0.1-0.1c0,0,0,0,0,0c0,0-0.1,0.1-0.1,0.1
			c0,0-0.1,0-0.1,0c-0.1,0.1-0.1,0.1-0.2,0.2c0,0-0.1,0.1-0.1,0.1c0,0-0.1,0-0.1,0c-0.1,0-0.1-0.1-0.1-0.1c0-0.2,0-0.3,0.1-0.5
			c0.1-0.3,0.3-0.6,0.5-0.8c0.1-0.1,0.1-0.1,0.2-0.2c0,0,0.1,0,0.1,0C410.1,222.8,410.1,222.9,410.1,222.9z M410.1,222.8
			c0,0-0.1,0.1-0.2,0.1c-0.2,0.3-0.4,0.6-0.6,1c0.1-0.1,0.2-0.1,0.2-0.2c0.1-0.2,0.3-0.3,0.4-0.5C410,223.1,410.2,222.9,410.1,222.8
			z M409.6,223.9c0,0,0.1-0.1,0.1-0.1c0,0,0,0,0-0.1c0,0,0,0-0.1,0C409.6,223.8,409.6,223.9,409.6,223.9z"/>
		<path class="st1" d="M410.7,222.9c0,0.1,0,0.1,0,0.1c0,0.1-0.1,0.2-0.2,0.3c-0.1,0.1-0.1,0.2-0.2,0.2c-0.1,0.2-0.3,0.3-0.4,0.4
			c0,0.1-0.1,0.3-0.1,0.3c0,0,0.1,0,0.1,0c0.2-0.1,0.2-0.2,0.4-0.4c0,0,0,0,0,0c-0.1,0.1-0.2,0.3-0.4,0.4c0,0-0.1,0-0.1,0
			c0,0,0-0.2,0-0.2c0.1-0.4,0.3-0.7,0.5-1c0.1-0.1,0.1-0.2,0.3-0.3c0,0,0.1-0.1,0.1,0C410.7,222.8,410.7,222.8,410.7,222.9z
			 M410.7,222.8c0,0-0.1,0-0.1,0c-0.3,0.3-0.5,0.7-0.7,1.1c0,0,0,0,0,0c0.1-0.1,0.1-0.1,0.2-0.2c0.1-0.2,0.3-0.3,0.4-0.5
			c0.1-0.1,0.1-0.2,0.1-0.3C410.7,222.9,410.7,222.8,410.7,222.8z"/>
		<path class="st1" d="M410.5,224.1c-0.1,0.1-0.1,0.2-0.2,0.2c0,0-0.1,0-0.1,0c0,0,0-0.1,0-0.1c0-0.1,0.1-0.2,0.2-0.3c0,0,0,0,0,0
			c0,0,0-0.1,0.1-0.1c0,0,0,0,0,0c0,0,0.1,0,0.1,0c0,0,0,0,0,0.1c-0.1,0.1-0.2,0.2-0.2,0.4c0,0,0,0.1,0,0.1c0,0,0,0,0.1,0
			c0.1-0.1,0.2-0.2,0.3-0.4c0,0,0,0,0,0C410.6,224,410.5,224,410.5,224.1z M410.5,223.5C410.5,223.5,410.5,223.5,410.5,223.5
			C410.6,223.5,410.6,223.5,410.5,223.5C410.6,223.6,410.5,223.6,410.5,223.5C410.5,223.6,410.5,223.5,410.5,223.5z"/>
		<path class="st1" d="M411.1,224.2c0.1-0.1,0.2-0.2,0.3-0.4c0,0,0,0,0,0c-0.1,0.1-0.1,0.1-0.2,0.2
			C411.2,224.2,411.1,224.3,411.1,224.2c-0.1,0.1-0.1,0.1-0.2,0.1c0,0,0,0,0-0.1c0-0.1,0.2-0.3,0.2-0.4c0,0,0,0,0,0
			c-0.1,0-0.1,0-0.2,0.1c-0.1,0.1-0.1,0.1-0.2,0.2c0,0.1-0.1,0.2-0.2,0.2c0,0,0,0-0.1,0c0,0,0,0,0,0c0,0,0,0,0,0
			c0.1-0.1,0.1-0.2,0.2-0.3c0,0,0.1-0.2,0.1-0.2c0,0-0.1,0-0.1,0c0,0,0,0-0.1,0.1c0,0,0,0,0,0c0,0,0,0,0.1-0.1c0,0,0.1-0.1,0.2,0
			c0,0,0,0.1,0,0.2c0,0,0.1-0.1,0.1-0.1c0,0,0.1-0.1,0.1-0.1c0.1,0,0.2,0,0.2,0.1c-0.1,0.1-0.2,0.4-0.2,0.4
			C411,224.3,411.1,224.3,411.1,224.2z"/>
		<path class="st1" d="M412.1,223.9c-0.1,0.2-0.3,0.3-0.5,0.4c-0.1,0.2-0.2,0.4-0.4,0.6c-0.1,0.1-0.3,0.4-0.4,0.3
			c-0.1,0-0.1-0.2,0-0.2c0-0.1,0.1-0.1,0.1-0.2c0.1-0.2,0.3-0.3,0.5-0.4c0,0,0,0,0.1,0c0-0.1,0.1-0.1,0.1-0.2c0,0-0.1,0.1-0.2,0.1
			c0,0-0.1,0-0.1,0c0,0-0.1-0.1-0.1-0.1c0-0.1,0.1-0.2,0.1-0.3c0.1-0.1,0.2-0.1,0.3-0.2c0,0,0.1,0,0.1,0c0,0,0,0.1,0,0.1
			c0,0,0-0.1,0.1-0.1c0,0,0.1,0,0.1,0c0,0,0,0.1,0,0.1c0,0.1-0.1,0.1-0.1,0.2c0,0.1-0.1,0.1-0.1,0.2
			C411.8,224.2,412,224,412.1,223.9C412.1,223.9,412.1,223.9,412.1,223.9z M411.5,224.4c-0.1,0.1-0.2,0.1-0.3,0.2
			c-0.1,0.1-0.1,0.1-0.2,0.2c-0.1,0.1-0.2,0.2-0.1,0.4c0,0.1,0.1,0.1,0.1,0c0.1,0,0.1-0.1,0.2-0.2
			C411.2,224.9,411.3,224.7,411.5,224.4C411.4,224.5,411.5,224.5,411.5,224.4z M411.7,224.1c0,0,0.1-0.2,0.1-0.2c0,0,0-0.1-0.1-0.1
			c-0.1,0-0.1,0-0.1,0.1c-0.1,0.1-0.2,0.2-0.2,0.4c0,0.1,0,0.1,0.1,0.1C411.5,224.3,411.6,224.2,411.7,224.1z"/>
		<path class="st1" d="M413.4,223.3c-0.1,0.1-0.3,0-0.5,0c-0.2,0.2-0.3,0.5-0.4,0.8c0,0-0.1,0.2,0,0.2c0,0,0.1,0,0.1-0.1
			c0.1-0.1,0.2-0.2,0.3-0.3c0,0,0,0,0,0c-0.1,0.1-0.2,0.2-0.3,0.3c0,0-0.1,0.1-0.1,0.1c0,0-0.1,0-0.1,0c0,0,0-0.1,0-0.1
			c0-0.1,0.1-0.2,0.1-0.3c0.1-0.2,0.2-0.4,0.4-0.6c-0.1,0-0.2,0-0.3,0c0,0,0,0,0,0c0.1,0,0.2,0,0.3,0c0.1-0.2,0.2-0.3,0.3-0.5
			c0,0,0.1,0,0.1,0c0,0,0,0,0,0.1c-0.1,0.1-0.2,0.3-0.3,0.4c0.1,0,0.1,0,0.2,0C413.3,223.3,413.3,223.3,413.4,223.3
			C413.4,223.3,413.4,223.3,413.4,223.3z"/>
		<path class="st1" d="M413.6,223.1c-0.2,0.3-0.4,0.6-0.7,0.8c0,0-0.1,0.1-0.1,0.1c0.1-0.1,0.1-0.1,0.2-0.2c0,0,0.1-0.1,0.1-0.1
			c0,0,0.1,0,0.1,0c0.1,0,0,0.1,0,0.2c-0.1,0.1-0.1,0.2-0.2,0.3c0,0.1,0,0.1,0.1,0c0.1-0.1,0.2-0.2,0.3-0.4c0,0,0,0,0,0
			c-0.1,0.1-0.2,0.3-0.4,0.4c0,0-0.1,0.1-0.1,0c0,0,0-0.1,0-0.1c0-0.1,0.1-0.3,0.2-0.4c0.1-0.2-0.1,0-0.2,0
			c-0.1,0.1-0.2,0.2-0.3,0.3c0,0.1-0.1,0.1-0.1,0.2c0,0.1-0.1,0-0.1,0c0.2-0.4,0.4-0.7,0.6-1.1c0.1-0.1,0.2-0.3,0.3-0.4
			c0,0,0.1-0.1,0.1-0.1c0.1,0,0.1,0,0.1,0.1C413.8,222.9,413.7,223,413.6,223.1z M413.7,222.8c0-0.1-0.2,0.1-0.2,0.2
			c-0.1,0.2-0.2,0.4-0.3,0.5c-0.1,0.1-0.1,0.2-0.2,0.4c0.1-0.1,0.3-0.3,0.4-0.4c0.1-0.1,0.1-0.2,0.2-0.2
			C413.6,223.1,413.8,222.9,413.7,222.8z"/>
		<path class="st1" d="M414.1,223.9c-0.1,0.1-0.2,0.3-0.4,0.4c-0.1,0-0.2,0.1-0.2,0c-0.1-0.1-0.1-0.2,0-0.3c0.1-0.1,0.1-0.2,0.2-0.2
			c0.1,0,0.2,0,0.2,0c0,0,0.1,0,0.1,0c0,0,0,0.1,0,0.1c0,0-0.1,0.1-0.2,0.1c0,0-0.1,0-0.1,0c0,0.1-0.1,0.2,0,0.2
			c0.1,0,0.2,0,0.2-0.1c0.1-0.1,0.1-0.1,0.2-0.2C414,224,414,224,414.1,223.9L414.1,223.9C414.1,223.9,414.1,223.9,414.1,223.9z
			 M413.6,224.1C413.6,224.1,413.6,224,413.6,224.1c0.2,0,0.4-0.2,0.3-0.3c0,0,0,0,0,0c-0.1,0-0.1,0-0.1,0.1
			C413.7,223.9,413.6,224,413.6,224.1z"/>
		<path class="st1" d="M415.2,223.9C415.2,223.9,415.2,223.9,415.2,223.9c-0.1,0.1-0.2,0.2-0.3,0.3c0,0-0.1,0.1-0.2,0.1
			c-0.1,0,0-0.1,0-0.2c-0.1,0.1-0.1,0.1-0.2,0.2c0,0-0.1,0-0.1,0c0,0-0.1-0.1-0.1-0.1c0-0.1,0.1-0.2,0.1-0.3
			c0.1-0.1,0.2-0.1,0.3-0.2c0,0,0.1,0,0.1,0c0,0,0,0,0,0.1c0.2-0.4,0.4-0.7,0.7-1.1c0,0,0,0,0,0c0,0,0.1,0,0.1,0.1
			c-0.2,0.2-0.3,0.5-0.5,0.8c-0.1,0.2-0.2,0.4-0.3,0.6c0,0.1,0,0.1,0.1,0C415,224.1,415.1,224,415.2,223.9z M414.8,223.8
			c-0.2,0-0.3,0.3-0.4,0.4c0,0,0,0.1,0,0.1c0,0,0.1,0,0.1,0c0.1,0,0.1-0.1,0.2-0.2l0.1-0.2C414.9,223.9,414.9,223.8,414.8,223.8z"/>
		<path class="st1" d="M415.4,224.1c-0.1,0.1-0.1,0.2-0.2,0.2c0,0-0.1,0-0.1,0c0,0,0-0.1,0-0.1c0-0.1,0.1-0.2,0.2-0.3c0,0,0,0,0,0
			c0,0,0-0.1,0.1-0.1c0,0,0,0,0,0c0,0,0.1,0,0.1,0c0,0,0,0,0,0.1c-0.1,0.1-0.2,0.2-0.2,0.4c0,0,0,0.1,0,0.1c0,0,0,0,0.1,0
			c0.1-0.1,0.2-0.2,0.3-0.4c0,0,0,0,0,0C415.5,224,415.5,224,415.4,224.1z M415.4,223.5C415.4,223.5,415.5,223.5,415.4,223.5
			C415.5,223.5,415.5,223.5,415.4,223.5C415.5,223.6,415.4,223.6,415.4,223.5C415.4,223.6,415.4,223.5,415.4,223.5z"/>
		<path class="st1" d="M416.3,223.9c-0.1,0.2-0.3,0.3-0.5,0.4c-0.1,0.2-0.2,0.4-0.4,0.6c-0.1,0.1-0.3,0.4-0.4,0.3
			c-0.1,0-0.1-0.2,0-0.2c0-0.1,0.1-0.1,0.1-0.2c0.1-0.2,0.3-0.3,0.5-0.4c0,0,0,0,0.1,0c0-0.1,0.1-0.1,0.1-0.2c0,0-0.1,0.1-0.2,0.1
			c0,0-0.1,0-0.1,0c0,0-0.1-0.1-0.1-0.1c0-0.1,0.1-0.2,0.1-0.3c0.1-0.1,0.2-0.1,0.3-0.2c0,0,0.1,0,0.1,0c0,0,0,0.1,0,0.1
			c0,0,0-0.1,0.1-0.1c0,0,0.1,0,0.1,0c0,0,0,0.1,0,0.1c0,0.1-0.1,0.1-0.1,0.2c0,0.1-0.1,0.1-0.1,0.2
			C416,224.2,416.1,224,416.3,223.9C416.2,223.9,416.3,223.9,416.3,223.9z M415.6,224.4c-0.1,0.1-0.2,0.1-0.3,0.2
			c-0.1,0.1-0.1,0.1-0.2,0.2c-0.1,0.1-0.2,0.2-0.1,0.4c0,0.1,0.1,0.1,0.1,0c0.1,0,0.1-0.1,0.2-0.2
			C415.4,224.9,415.5,224.7,415.6,224.4C415.6,224.5,415.6,224.5,415.6,224.4z M415.8,224.1c0,0,0.1-0.2,0.1-0.2c0,0,0-0.1-0.1-0.1
			c-0.1,0-0.1,0-0.1,0.1c-0.1,0.1-0.2,0.2-0.2,0.4c0,0.1,0,0.1,0.1,0.1C415.7,224.3,415.8,224.2,415.8,224.1z"/>
		<path class="st1" d="M416.4,224.1c-0.1,0.1-0.1,0.2-0.2,0.2c0,0-0.1,0-0.1,0c0,0,0-0.1,0-0.1c0-0.1,0.1-0.2,0.2-0.3c0,0,0,0,0,0
			c0,0,0-0.1,0.1-0.1c0,0,0,0,0,0c0,0,0.1,0,0.1,0c0,0,0,0,0,0.1c-0.1,0.1-0.2,0.2-0.2,0.4c0,0,0,0.1,0,0.1c0,0,0,0,0.1,0
			c0.1-0.1,0.2-0.2,0.3-0.4c0,0,0,0,0,0C416.6,224,416.5,224,416.4,224.1z M416.4,223.5C416.4,223.5,416.5,223.5,416.4,223.5
			C416.5,223.5,416.5,223.5,416.4,223.5C416.5,223.6,416.5,223.6,416.4,223.5C416.4,223.6,416.4,223.5,416.4,223.5z"/>
		<path class="st1" d="M417.5,223.3c-0.1,0.1-0.3,0-0.5,0c-0.2,0.2-0.3,0.5-0.4,0.8c0,0-0.1,0.2,0,0.2c0,0,0.1,0,0.1-0.1
			c0.1-0.1,0.2-0.2,0.3-0.3c0,0,0,0,0,0c-0.1,0.1-0.2,0.2-0.3,0.3c0,0-0.1,0.1-0.1,0.1c0,0-0.1,0-0.1,0c0,0,0-0.1,0-0.1
			c0-0.1,0.1-0.2,0.1-0.3c0.1-0.2,0.2-0.4,0.4-0.6c-0.1,0-0.2,0-0.3,0c0,0,0,0,0,0c0.1,0,0.2,0,0.3,0c0.1-0.2,0.2-0.3,0.3-0.5
			c0,0,0.1,0,0.1,0c0,0,0,0,0,0.1c-0.1,0.1-0.2,0.3-0.3,0.4c0.1,0,0.1,0,0.2,0C417.3,223.3,417.4,223.3,417.5,223.3
			C417.5,223.3,417.5,223.3,417.5,223.3z"/>
		<path class="st1" d="M417.7,223.9C417.7,223.9,417.7,223.9,417.7,223.9c-0.1,0.1-0.2,0.3-0.3,0.4c-0.1,0-0.1,0.1-0.2,0.1
			c-0.1,0,0-0.1,0-0.2c-0.1,0.1-0.1,0.1-0.2,0.2c0,0-0.1,0-0.1,0c0,0-0.1-0.1-0.1-0.1c0-0.1,0.1-0.2,0.1-0.3
			c0.1-0.1,0.2-0.1,0.3-0.2c0,0,0.1,0,0.1,0c0,0,0,0.1,0,0.1c0,0,0-0.1,0.1-0.1c0,0,0,0,0.1,0c0,0,0,0.1,0,0.1
			c0,0.1-0.1,0.1-0.1,0.2c0,0.1-0.1,0.1-0.1,0.2c0,0.1,0,0.1,0.1,0C417.4,224.1,417.6,224,417.7,223.9z M417.2,224.1
			c0-0.1,0.1-0.1,0.1-0.2c0-0.1,0-0.1-0.1-0.1c-0.1,0-0.1,0-0.1,0.1c-0.1,0.1-0.2,0.2-0.2,0.4c0,0,0,0.1,0,0.1c0,0,0.1,0,0.1,0
			C417.1,224.3,417.2,224.2,417.2,224.1z"/>
		<path class="st1" d="M418.5,222.9c0,0.1,0,0.1,0,0.1c0,0.1-0.1,0.2-0.2,0.3c-0.1,0.1-0.1,0.2-0.2,0.2c-0.1,0.2-0.3,0.3-0.4,0.4
			c0,0.1-0.1,0.3-0.1,0.3c0,0,0.1,0,0.1,0c0.2-0.1,0.2-0.2,0.4-0.4c0,0,0,0,0,0c-0.1,0.1-0.2,0.3-0.4,0.4c0,0-0.1,0-0.1,0
			c0,0,0-0.2,0-0.2c0.1-0.4,0.3-0.7,0.5-1c0.1-0.1,0.1-0.2,0.3-0.3c0,0,0.1-0.1,0.1,0C418.5,222.8,418.5,222.8,418.5,222.9z
			 M418.5,222.8c0,0-0.1,0-0.1,0c-0.3,0.3-0.5,0.7-0.7,1.1c0,0,0,0,0,0c0.1-0.1,0.1-0.1,0.2-0.2c0.1-0.2,0.3-0.3,0.4-0.5
			c0.1-0.1,0.1-0.2,0.1-0.3C418.5,222.9,418.5,222.8,418.5,222.8z"/>
		<path class="st1" d="M419.3,223c0,0.1-0.1,0.2-0.2,0.3c-0.1,0.1-0.1,0.2-0.2,0.2c-0.1,0.1-0.3,0.3-0.4,0.4
			c-0.1,0.2-0.2,0.4-0.3,0.6c-0.1,0.2-0.2,0.4-0.3,0.7c0,0,0,0.1,0,0.1c0,0.1,0.3-0.3,0.3-0.3c0.1-0.2,0.2-0.3,0.3-0.5
			c0-0.1,0.1-0.2,0.1-0.3c0,0,0,0-0.1,0c-0.1,0-0.1-0.1-0.1-0.1c0,0,0.1-0.1,0.1-0.1c0.1,0,0,0.1,0,0.1c0.1,0,0.2-0.1,0.2-0.2
			c0,0,0,0,0,0c-0.1,0.1-0.1,0.2-0.3,0.2c0,0.1,0,0.2-0.1,0.3c-0.1,0.2-0.2,0.4-0.3,0.6c-0.1,0.1-0.1,0.2-0.2,0.2
			c0,0-0.1,0.1-0.1,0.1c0,0-0.1,0-0.1-0.1c0-0.2,0.1-0.4,0.2-0.6c0.1-0.2,0.2-0.4,0.3-0.6c0.1-0.2,0.2-0.4,0.3-0.6
			c0.1-0.2,0.2-0.4,0.4-0.5c0-0.1,0.2-0.2,0.3-0.1C419.4,222.8,419.4,222.9,419.3,223z M418.6,224.1
			C418.6,224.1,418.7,224.1,418.6,224.1c0.1,0,0.1-0.1,0.1-0.1c0,0,0,0-0.1,0C418.6,224,418.6,224,418.6,224.1
			C418.6,224.1,418.6,224.1,418.6,224.1z M419.3,222.8c-0.1,0-0.2,0.2-0.3,0.3c-0.2,0.3-0.3,0.5-0.5,0.8c0.1-0.1,0.1-0.1,0.2-0.2
			c0.1-0.1,0.3-0.3,0.4-0.5c0.1-0.1,0.1-0.2,0.2-0.3C419.4,222.9,419.4,222.8,419.3,222.8z"/>
		<path class="st1" d="M419.1,223.7C419.1,223.8,419.2,223.8,419.1,223.7c0,0.1,0,0.1,0,0.1c-0.1,0.1-0.2,0.2-0.2,0.4
			c0,0,0,0.1,0,0.1c0.1,0,0.1-0.1,0.2-0.1c0.1-0.1,0.1-0.1,0.1-0.2c0-0.1,0.1-0.1,0.1-0.2c0,0,0-0.1,0.1-0.1c0,0,0.1,0,0,0.1
			c-0.1,0.1-0.1,0.2-0.2,0.3c0,0-0.1,0.1,0,0.1c0,0,0.1,0,0.1,0c0.1-0.1,0.2-0.2,0.3-0.3c0,0,0,0,0,0c-0.1,0.1-0.2,0.3-0.3,0.4
			c0,0-0.1,0.1-0.1,0.1c-0.1,0,0-0.2,0-0.2c0,0-0.1,0.1-0.1,0.1c-0.1,0.1-0.1,0.1-0.2,0.1c-0.1,0-0.1-0.1-0.1-0.2
			c0-0.1,0.1-0.2,0.1-0.2c0,0,0,0,0,0C419,223.9,419,223.8,419.1,223.7C419.1,223.8,419.1,223.7,419.1,223.7z"/>
		<path class="st1" d="M420.6,223.3c-0.1,0.1-0.3,0-0.5,0c-0.2,0.2-0.3,0.5-0.4,0.8c0,0-0.1,0.2,0,0.2c0,0,0.1,0,0.1-0.1
			c0.1-0.1,0.2-0.2,0.3-0.3c0,0,0,0,0,0c-0.1,0.1-0.2,0.2-0.3,0.3c0,0-0.1,0.1-0.1,0.1c0,0-0.1,0-0.1,0c0,0,0-0.1,0-0.1
			c0-0.1,0.1-0.2,0.1-0.3c0.1-0.2,0.2-0.4,0.4-0.6c-0.1,0-0.2,0-0.3,0c0,0,0,0,0,0c0.1,0,0.2,0,0.3,0c0.1-0.2,0.2-0.3,0.3-0.5
			c0,0,0.1,0,0.1,0c0,0,0,0,0,0.1c-0.1,0.1-0.2,0.3-0.3,0.4c0.1,0,0.1,0,0.2,0C420.4,223.3,420.5,223.3,420.6,223.3
			C420.6,223.3,420.6,223.3,420.6,223.3z"/>
		<path class="st1" d="M420.2,223.7C420.2,223.8,420.2,223.8,420.2,223.7c0,0.1,0,0.1,0,0.1c-0.1,0.1-0.2,0.2-0.2,0.4
			c0,0,0,0.1,0,0.1c0.1,0,0.1-0.1,0.2-0.1c0.1-0.1,0.1-0.1,0.1-0.2c0-0.1,0.1-0.1,0.1-0.2c0,0,0-0.1,0.1-0.1c0,0,0.1,0,0,0.1
			c-0.1,0.1-0.1,0.2-0.2,0.3c0,0-0.1,0.1,0,0.1c0,0,0.1,0,0.1,0c0.1-0.1,0.2-0.2,0.3-0.3c0,0,0,0,0,0c-0.1,0.1-0.2,0.3-0.3,0.4
			c0,0-0.1,0.1-0.1,0.1c-0.1,0,0-0.2,0-0.2c0,0-0.1,0.1-0.1,0.1c-0.1,0.1-0.1,0.1-0.2,0.1c-0.1,0-0.1-0.1-0.1-0.2
			c0-0.1,0.1-0.2,0.1-0.2c0,0,0,0,0,0C420,223.9,420.1,223.8,420.2,223.7C420.1,223.8,420.1,223.7,420.2,223.7z"/>
		<path class="st1" d="M421.3,223.9c-0.1,0.1-0.2,0.3-0.4,0.4c0,0-0.1,0.1-0.1,0c-0.1,0,0-0.2,0-0.3c0-0.1,0.1-0.1,0.1-0.2
			c0,0-0.1,0-0.1,0c0,0,0,0.1-0.1,0.1c0,0,0,0,0,0c0,0,0,0,0-0.1c0,0,0,0,0-0.1c0,0,0,0,0-0.1c0,0,0,0,0.1,0c0,0,0,0.1,0,0.1
			c0.1,0,0.1,0,0.2,0c0,0,0,0,0.1,0c0,0,0,0,0,0c0,0,0,0,0,0.1c0,0,0,0,0,0.1c-0.1,0.1-0.1,0.2-0.2,0.3c0,0,0,0.1,0,0.1
			c0,0,0.1,0,0.1,0C421,224.2,421.2,224,421.3,223.9C421.2,223.9,421.3,223.9,421.3,223.9z M420.8,223.7
			C420.8,223.7,420.8,223.7,420.8,223.7c-0.1,0.1-0.1,0.1,0,0.1C420.8,223.8,420.8,223.7,420.8,223.7z"/>
		<path class="st1" d="M421.8,223.9c-0.1,0.1-0.2,0.3-0.4,0.4c-0.1,0-0.2,0.1-0.2,0c-0.1-0.1-0.1-0.2,0-0.3c0.1-0.1,0.1-0.2,0.2-0.2
			c0.1,0,0.2,0,0.2,0c0,0,0.1,0,0.1,0c0,0,0,0.1,0,0.1c0,0-0.1,0.1-0.2,0.1c0,0-0.1,0-0.1,0c0,0.1-0.1,0.2,0,0.2
			c0.1,0,0.2,0,0.2-0.1c0.1-0.1,0.1-0.1,0.2-0.2C421.7,224,421.7,224,421.8,223.9L421.8,223.9C421.8,223.9,421.8,223.9,421.8,223.9z
			 M421.2,224.1C421.3,224.1,421.3,224,421.2,224.1c0.2,0,0.4-0.2,0.3-0.3c0,0,0,0,0,0c-0.1,0-0.1,0-0.1,0.1
			C421.3,223.9,421.3,224,421.2,224.1z"/>
	</g>
</g>
<path class="st1" d="M359.4,360.4c0,0,0.5,1.1-0.3,2.4l-2.3,3.5c0,0-1.2,2.3,0.2,4.1c0,0,1,2.1,3.7,2.3c0,0,1.6,0.1,2.8-0.9l0,0.7
	l1.7-0.1l-0.2-4.5c0,0-0.4-2.9-2.4-3.5l-0.1,1.2c0,0-0.1,0.7,0,0.9c1.5,2,0.4,4.7-2.4,4.3c-1.1-0.2-1.9-1.5,1.6-4.2
	c0.6-0.5,0.6-1.3,0.6-1.8c0-1.1-0.9-1.7-0.9-1.5c0.2,0.6,0,2.2-0.7,2.3c-1.5,0.1-0.8-1.5-0.4-2.9c0.4-1.3-0.8-2.7-0.8-2.7
	S358.9,359.5,359.4,360.4z"/>
</svg>
